<svg width="744" height="400" viewBox="0 0 744 400" fill="none" xmlns="http://www.w3.org/2000/svg">
<rect width="744" height="400" fill="white"/>
<rect opacity="0.16" x="258" y="42" width="484" height="268" rx="30" stroke="#008EFF" stroke-width="4"/>
<path d="M487.25 177.5C487.25 177.914 487.586 178.25 488 178.25C488.414 178.25 488.75 177.914 488.75 177.5L487.25 177.5ZM488.53 153.97C488.237 153.677 487.763 153.677 487.47 153.97L482.697 158.743C482.404 159.036 482.404 159.51 482.697 159.803C482.99 160.096 483.464 160.096 483.757 159.803L488 155.561L492.243 159.803C492.536 160.096 493.01 160.096 493.303 159.803C493.596 159.51 493.596 159.036 493.303 158.743L488.53 153.97ZM488.75 177.5L488.75 154.5L487.25 154.5L487.25 177.5L488.75 177.5Z" fill="#008EFF"/>
<path d="M512.75 154.5C512.75 154.086 512.414 153.75 512 153.75C511.586 153.75 511.25 154.086 511.25 154.5L512.75 154.5ZM511.47 178.03C511.763 178.323 512.237 178.323 512.53 178.03L517.303 173.257C517.596 172.964 517.596 172.49 517.303 172.197C517.01 171.904 516.536 171.904 516.243 172.197L512 176.439L507.757 172.197C507.464 171.904 506.99 171.904 506.697 172.197C506.404 172.49 506.404 172.964 506.697 173.257L511.47 178.03ZM511.25 154.5L511.25 177.5L512.75 177.5L512.75 154.5L511.25 154.5Z" fill="#008EFF"/>
<path d="M82.75 290.5C82.75 290.086 82.4142 289.75 82 289.75C81.5858 289.75 81.25 290.086 81.25 290.5L82.75 290.5ZM81.4697 320.03C81.7626 320.323 82.2374 320.323 82.5303 320.03L87.3033 315.257C87.5962 314.964 87.5962 314.49 87.3033 314.197C87.0104 313.904 86.5355 313.904 86.2426 314.197L82 318.439L77.7574 314.197C77.4645 313.904 76.9896 313.904 76.6967 314.197C76.4038 314.49 76.4038 314.964 76.6967 315.257L81.4697 320.03ZM81.25 290.5L81.25 319.5L82.75 319.5L82.75 290.5L81.25 290.5Z" fill="#008EFF"/>
<path d="M104.5 339.25C104.086 339.25 103.75 339.586 103.75 340C103.75 340.414 104.086 340.75 104.5 340.75V339.25ZM192.03 340.53C192.323 340.237 192.323 339.763 192.03 339.47L187.257 334.697C186.964 334.404 186.49 334.404 186.197 334.697C185.904 334.99 185.904 335.464 186.197 335.757L190.439 340L186.197 344.243C185.904 344.536 185.904 345.01 186.197 345.303C186.49 345.596 186.964 345.596 187.257 345.303L192.03 340.53ZM104.5 340.75H191.5V339.25H104.5V340.75Z" fill="#008EFF"/>
<path d="M129.5 208.25C129.086 208.25 128.75 208.586 128.75 209C128.75 209.414 129.086 209.75 129.5 209.75V208.25ZM456.03 209.53C456.323 209.237 456.323 208.763 456.03 208.47L451.257 203.697C450.964 203.404 450.49 203.404 450.197 203.697C449.904 203.99 449.904 204.464 450.197 204.757L454.439 209L450.197 213.243C449.904 213.536 449.904 214.01 450.197 214.303C450.49 214.596 450.964 214.596 451.257 214.303L456.03 209.53ZM129.5 209.75L455.5 209.75V208.25L129.5 208.25V209.75Z" fill="#008EFF"/>
<path d="M455.5 241.75C455.914 241.75 456.25 241.414 456.25 241C456.25 240.586 455.914 240.25 455.5 240.25L455.5 241.75ZM128.97 240.47C128.677 240.763 128.677 241.237 128.97 241.53L133.743 246.303C134.036 246.596 134.51 246.596 134.803 246.303C135.096 246.01 135.096 245.536 134.803 245.243L130.561 241L134.803 236.757C135.096 236.464 135.096 235.99 134.803 235.697C134.51 235.404 134.036 235.404 133.743 235.697L128.97 240.47ZM455.5 240.25L129.5 240.25L129.5 241.75L455.5 241.75L455.5 240.25Z" fill="#008EFF"/>
<path d="M129.5 224.25C129.086 224.25 128.75 224.586 128.75 225C128.75 225.414 129.086 225.75 129.5 225.75V224.25ZM456.03 225.53C456.323 225.237 456.323 224.763 456.03 224.47L451.257 219.697C450.964 219.404 450.49 219.404 450.197 219.697C449.904 219.99 449.904 220.464 450.197 220.757L454.439 225L450.197 229.243C449.904 229.536 449.904 230.01 450.197 230.303C450.49 230.596 450.964 230.596 451.257 230.303L456.03 225.53ZM129.5 225.75L455.5 225.75V224.25L129.5 224.25V225.75Z" fill="#008EFF"/>
<path d="M468 225C468 207.327 482.327 193 500 193C517.673 193 532 207.327 532 225C532 242.673 517.673 257 500 257C482.327 257 468 242.673 468 225Z" fill="white"/>
<path d="M487 211.828C487 211.298 487.227 210.803 487.709 210.583C488.997 209.997 492.381 209 500.5 209C508.619 209 512.003 209.997 513.291 210.583C513.773 210.803 514 211.298 514 211.828V213.93C514 214.598 513.657 215.21 513.031 215.446C511.466 216.036 507.791 217 500.5 217C493.209 217 489.534 216.036 487.969 215.446C487.343 215.21 487 214.598 487 213.93V211.828Z" fill="white"/>
<path d="M487 220.828C487 220.298 487.227 219.803 487.709 219.583C488.997 218.997 492.381 218 500.5 218C508.619 218 512.003 218.997 513.291 219.583C513.773 219.803 514 220.298 514 220.828V222.93C514 223.598 513.657 224.21 513.031 224.446C511.466 225.036 507.791 226 500.5 226C493.209 226 489.534 225.036 487.969 224.446C487.343 224.21 487 223.598 487 222.93V220.828Z" fill="white"/>
<path d="M487 229.828C487 229.298 487.227 228.803 487.709 228.583C488.997 227.997 492.381 227 500.5 227C508.619 227 512.003 227.997 513.291 228.583C513.773 228.803 514 229.298 514 229.828V231.93C514 232.598 513.657 233.21 513.031 233.446C511.466 234.036 507.791 235 500.5 235C493.209 235 489.534 234.036 487.969 233.446C487.343 233.21 487 232.598 487 231.93V229.828Z" fill="white"/>
<path fill-rule="evenodd" clip-rule="evenodd" d="M487.709 210.583C487.227 210.803 487 211.298 487 211.828V213.93C487 214.598 487.343 215.21 487.969 215.446C489.534 216.036 493.209 217 500.5 217C507.791 217 511.466 216.036 513.031 215.446C513.657 215.21 514 214.598 514 213.93V211.828C514 211.298 513.773 210.803 513.291 210.583C512.003 209.997 508.619 209 500.5 209C492.381 209 488.997 209.997 487.709 210.583ZM489 212.219V213.691C490.489 214.193 493.911 215 500.5 215C507.089 215 510.511 214.193 512 213.691V212.219C510.688 211.752 507.475 211 500.5 211C493.525 211 490.312 211.752 489 212.219Z" fill="#000028"/>
<path fill-rule="evenodd" clip-rule="evenodd" d="M487.709 219.583C487.227 219.803 487 220.298 487 220.828V222.93C487 223.598 487.343 224.21 487.969 224.446C489.534 225.036 493.209 226 500.5 226C507.791 226 511.466 225.036 513.031 224.446C513.657 224.21 514 223.598 514 222.93V220.828C514 220.298 513.773 219.803 513.291 219.583C512.003 218.997 508.619 218 500.5 218C492.381 218 488.997 218.997 487.709 219.583ZM489 221.219V222.691C490.489 223.193 493.911 224 500.5 224C507.089 224 510.511 223.193 512 222.691V221.219C510.688 220.752 507.475 220 500.5 220C493.525 220 490.312 220.752 489 221.219Z" fill="#000028"/>
<path fill-rule="evenodd" clip-rule="evenodd" d="M513.031 233.446C511.577 233.994 508.303 234.865 502 234.986V239H508C508.552 239 509 239.448 509 240C509 240.552 508.552 241 508 241H494C493.448 241 493 240.552 493 240C493 239.448 493.448 239 494 239H500V234.998C493.04 234.956 489.498 234.022 487.969 233.446C487.343 233.21 487 232.598 487 231.93V229.828C487 229.298 487.227 228.803 487.709 228.583C488.997 227.997 492.381 227 500.5 227C508.619 227 512.003 227.997 513.291 228.583C513.773 228.803 514 229.298 514 229.828V231.93C514 232.598 513.657 233.21 513.031 233.446ZM489 231.691V230.219C490.312 229.752 493.525 229 500.5 229C507.475 229 510.688 229.752 512 230.219V231.691C510.511 232.193 507.089 233 500.5 233C493.911 233 490.489 232.193 489 231.691Z" fill="#000028"/>
<path d="M500 255C483.431 255 470 241.569 470 225H466C466 243.778 481.222 259 500 259V255ZM530 225C530 241.569 516.569 255 500 255V259C518.778 259 534 243.778 534 225H530ZM500 195C516.569 195 530 208.431 530 225H534C534 206.222 518.778 191 500 191V195ZM500 191C481.222 191 466 206.222 466 225H470C470 208.431 483.431 195 500 195V191Z" fill="#EAEBEC"/>
<path d="M52 224C52 206.327 66.3269 192 84 192C101.673 192 116 206.327 116 224C116 241.673 101.673 256 84 256C66.3269 256 52 241.673 52 224Z" fill="white"/>
<path d="M70 226C70 220.477 74.4772 216 80 216H88C93.5228 216 98 220.477 98 226V234.93C98 235.598 97.6566 236.209 97.0295 236.441C95.4394 237.03 91.6587 238 84 238C76.3413 238 72.5606 237.03 70.9705 236.441C70.3434 236.209 70 235.598 70 234.93V226Z" fill="white"/>
<path d="M79 225.5C79 224.672 79.6716 224 80.5 224C81.3284 224 82 224.672 82 225.5V227.5C82 228.328 81.3284 229 80.5 229C79.6716 229 79 228.328 79 227.5V225.5Z" fill="#000028"/>
<path d="M87.5 224C86.6716 224 86 224.672 86 225.5V227.5C86 228.328 86.6716 229 87.5 229C88.3284 229 89 228.328 89 227.5V225.5C89 224.672 88.3284 224 87.5 224Z" fill="#000028"/>
<path fill-rule="evenodd" clip-rule="evenodd" d="M85 212.829C86.1652 212.417 87 211.306 87 210C87 208.343 85.6569 207 84 207C82.3431 207 81 208.343 81 210C81 211.306 81.8348 212.417 83 212.829V216H80C74.4772 216 70 220.477 70 226V234.93C70 235.598 70.3434 236.209 70.9705 236.441C72.5606 237.03 76.3413 238 84 238C91.6587 238 95.4394 237.03 97.0295 236.441C97.6566 236.209 98 235.598 98 234.93V226C98 220.477 93.5228 216 88 216H85V212.829ZM80 218C75.5817 218 72 221.582 72 226V234.683C73.5244 235.187 77.0644 236 84 236C90.9356 236 94.4756 235.187 96 234.683V226C96 221.582 92.4183 218 88 218H80Z" fill="#000028"/>
<path d="M84 254C67.4315 254 54 240.569 54 224H50C50 242.778 65.2223 258 84 258V254ZM114 224C114 240.569 100.569 254 84 254V258C102.778 258 118 242.778 118 224H114ZM84 194C100.569 194 114 207.431 114 224H118C118 205.222 102.778 190 84 190V194ZM84 190C65.2223 190 50 205.222 50 224H54C54 207.431 67.4315 194 84 194V190Z" fill="#EAEBEC"/>
<path d="M468 88C468 70.3269 482.327 56 500 56C517.673 56 532 70.3269 532 88C532 105.673 517.673 120 500 120C482.327 120 468 105.673 468 88Z" fill="white"/>
<path fill-rule="evenodd" clip-rule="evenodd" d="M500 75C505.318 75 509.828 78.3727 511.402 83.0439C514.168 84.7784 516 87.8056 516 91.25C516 96.4164 511.879 100.644 506.667 100.979L492 100.975C487.525 100.643 484 96.9981 484 92.55C484 89.5273 485.628 86.8753 488.075 85.3819C488.747 79.5407 493.83 75 500 75Z" fill="white"/>
<path d="M496.875 91.6057C496.875 91.9386 497.052 92.2464 497.34 92.4142L500.156 94.0542L502.972 92.4142C503.26 92.2464 503.438 91.9386 503.438 91.6057L503.438 89.9107L495 87.5707V83.3729C495 82.7581 495.317 82.0925 495.996 81.7872C496.721 81.4609 498.11 81 500.156 81C502.202 81 503.591 81.4609 504.317 81.7872C504.995 82.0925 505.313 82.7581 505.313 83.3729V85.7319L503.438 85.2119V83.4466C502.887 83.2155 501.795 82.872 500.156 82.872C498.517 82.872 497.425 83.2155 496.875 83.4466V86.1479L505.312 88.5V91.6057C505.312 92.6044 504.781 93.5279 503.917 94.0311L500.865 95.8088C500.427 96.0638 499.886 96.0637 499.448 95.8088L496.395 94.0311C495.531 93.5279 495 92.6044 495 91.6057V89.8918L496.875 90.375V91.6057Z" fill="#000028"/>
<path fill-rule="evenodd" clip-rule="evenodd" d="M492 100.975L506.667 100.979C511.879 100.644 516 96.4164 516 91.25C516 87.8056 514.168 84.7784 511.402 83.0439C509.828 78.3727 505.318 75 500 75C493.83 75 488.747 79.5407 488.075 85.3819C485.628 86.8753 484 89.5273 484 92.55C484 96.9981 487.525 100.643 492 100.975ZM509.507 83.6828L509.735 84.3591L510.34 84.7383C512.56 86.1307 514 88.5377 514 91.25C514 95.2921 510.78 98.6798 506.599 98.9787L492.079 98.9754C488.631 98.6853 486 95.8786 486 92.55C486 90.2689 487.226 88.2431 489.117 87.0892L489.951 86.5805L490.062 85.6104C490.615 80.8068 494.817 77 500 77C504.461 77 508.207 79.8265 509.507 83.6828Z" fill="#000028"/>
<path d="M500 118C483.431 118 470 104.569 470 88H466C466 106.778 481.222 122 500 122V118ZM530 88C530 104.569 516.569 118 500 118V122C518.778 122 534 106.778 534 88H530ZM500 58C516.569 58 530 71.4315 530 88H534C534 69.2223 518.778 54 500 54V58ZM500 54C481.222 54 466 69.2223 466 88H470C470 71.4315 483.431 58 500 58V54Z" fill="#EAEBEC"/>
<g filter="url(#filter0_d)">
<path d="M544 88C544 82.4772 548.477 78 554 78H566C571.523 78 576 82.4772 576 88C576 93.5228 571.523 98 566 98H554C548.477 98 544 93.5228 544 88Z" fill="#FBE19D"/>
<path d="M558.881 88.3145H559.953C560.902 88.3145 561.488 88.7773 561.488 89.5273C561.488 90.2598 560.861 90.7461 559.965 90.7461C559.057 90.7461 558.447 90.2891 558.395 89.5742H556.701C556.777 91.1738 558.078 92.2168 559.988 92.2168C561.898 92.2168 563.293 91.168 563.293 89.6855C563.293 88.5547 562.578 87.8047 561.4 87.6348V87.5234C562.309 87.3008 562.953 86.627 562.959 85.6016C562.965 84.3652 561.922 83.3281 560.047 83.3281C558.143 83.3281 556.941 84.377 556.883 85.9355H558.518C558.576 85.1797 559.104 84.7402 559.959 84.7402C560.785 84.7402 561.283 85.2207 561.283 85.8535C561.283 86.5449 560.738 87.0195 559.936 87.0195H558.881V88.3145Z" fill="#3E4249"/>
</g>
<g filter="url(#filter1_d)">
<path d="M528 165C528 159.477 532.477 155 538 155H550C555.523 155 560 159.477 560 165C560 170.523 555.523 175 550 175H538C532.477 175 528 170.523 528 165Z" fill="#FBE19D"/>
<path d="M544.674 169H546.361V167.471H547.469V166H546.361V160.545H543.883C542.752 162.279 541.604 164.137 540.537 166.035V167.471H544.674V169ZM542.125 165.959C542.893 164.611 543.795 163.17 544.621 161.922H544.715V166.059H542.125V165.959Z" fill="#3E4249"/>
</g>
<g filter="url(#filter2_d)">
<path d="M440 165C440 159.477 444.477 155 450 155H462C467.523 155 472 159.477 472 165C472 170.523 467.523 175 462 175H450C444.477 175 440 170.523 440 165Z" fill="#FBE19D"/>
<path d="M452.895 163.129H454.535C454.535 162.32 455.074 161.752 455.936 161.752C456.762 161.752 457.242 162.285 457.242 162.959C457.242 163.527 457.014 163.914 455.959 164.928L452.994 167.764V169H459.094V167.529H455.379V167.424L457.137 165.783C458.543 164.465 458.977 163.785 458.977 162.795C458.977 161.365 457.828 160.328 456.035 160.328C454.184 160.328 452.895 161.471 452.895 163.129Z" fill="#3E4249"/>
</g>
<g filter="url(#filter3_d)">
<path d="M382 207C382 201.477 386.477 197 392 197H404C409.523 197 414 201.477 414 207C414 212.523 409.523 217 404 217H392C386.477 217 382 212.523 382 207Z" fill="#FBE19D"/>
<path d="M397.818 211H399.588V202.545H397.824L395.639 204.051V205.697L397.713 204.268H397.818V211Z" fill="#3E4249"/>
</g>
<g filter="url(#filter4_d)">
<path d="M32 305C32 299.477 36.4772 295 42 295H54C59.5228 295 64 299.477 64 305C64 310.523 59.5228 315 54 315H42C36.4772 315 32 310.523 32 305Z" fill="#FBE19D"/>
<path d="M45.5977 309H47.4492L50.9824 302.016V300.539H44.9355V301.998H49.2012V302.098L45.5977 309Z" fill="#3E4249"/>
</g>
<g filter="url(#filter5_d)">
<path d="M196 225C196 219.477 200.477 215 206 215H218C223.523 215 228 219.477 228 225C228 230.523 223.523 235 218 235H206C200.477 235 196 230.523 196 225Z" fill="#FBE19D"/>
<path d="M212.088 229.217C213.992 229.217 215.264 227.998 215.264 226.205C215.264 224.488 214.098 223.422 212.639 223.422C211.76 223.422 211.139 223.738 210.787 224.271H210.682L210.898 221.998H214.807V220.545H209.527L209.076 225.52H210.658C210.922 225.021 211.438 224.711 212.105 224.711C212.967 224.711 213.576 225.314 213.576 226.223C213.576 227.154 212.961 227.77 212.07 227.77C211.285 227.77 210.682 227.307 210.588 226.592H208.953C209.006 228.104 210.254 229.217 212.088 229.217Z" fill="#3E4249"/>
</g>
<g filter="url(#filter6_d)">
<path d="M304 241C304 235.477 308.477 231 314 231H326C331.523 231 336 235.477 336 241C336 246.523 331.523 251 326 251H314C308.477 251 304 246.523 304 241Z" fill="#FBE19D"/>
<path d="M320.123 245.217C322.016 245.217 323.357 243.969 323.357 242.211C323.357 240.6 322.18 239.416 320.574 239.416C319.59 239.416 318.805 239.861 318.418 240.652H318.312C318.312 238.824 318.992 237.781 320.164 237.781C320.85 237.781 321.359 238.133 321.494 238.707H323.246C323.041 237.295 321.805 236.328 320.141 236.328C317.979 236.328 316.625 238.027 316.625 240.834C316.625 243.77 318.096 245.217 320.123 245.217ZM320.105 243.764C319.227 243.764 318.576 243.096 318.576 242.229C318.576 241.379 319.203 240.746 320.111 240.746C321.02 240.746 321.641 241.373 321.641 242.252C321.641 243.107 320.984 243.764 320.105 243.764Z" fill="#3E4249"/>
</g>
<path fill-rule="evenodd" clip-rule="evenodd" d="M209.355 329.761C209.444 329.584 209.586 329.444 209.765 329.36C210.561 328.988 213.305 328 220 328C226.695 328 229.439 328.988 230.235 329.36C230.414 329.444 230.556 329.584 230.645 329.761C231.022 330.505 232 332.905 232 337.749C232 342.594 231.022 344.993 230.645 345.738C230.556 345.915 230.414 346.055 230.235 346.139C229.739 346.371 228.489 346.841 226 347.163L226 351.249C226 351.892 225.244 352.237 224.758 351.815L219.705 347.498C213.224 347.47 210.55 346.506 209.765 346.139C209.586 346.055 209.444 345.915 209.355 345.738C208.978 344.993 208 342.594 208 337.749C208 332.905 208.978 330.505 209.355 329.761Z" fill="white"/>
<path d="M225.25 351.249L225.245 351.244L220.193 346.928L219.984 346.749L219.709 346.748C213.293 346.72 210.736 345.765 210.083 345.459L209.77 346.127L210.083 345.459C210.06 345.449 210.04 345.431 210.024 345.399C209.706 344.772 208.75 342.49 208.75 337.749C208.75 333.009 209.706 330.727 210.024 330.099C210.04 330.067 210.06 330.05 210.083 330.04C210.746 329.729 213.371 328.75 220 328.75C226.629 328.75 229.254 329.729 229.917 330.04C229.94 330.05 229.96 330.067 229.976 330.099C230.294 330.727 231.25 333.009 231.25 337.749C231.25 342.49 230.294 344.772 229.976 345.399C229.96 345.431 229.94 345.449 229.917 345.459L230.235 346.139L229.917 345.459C229.506 345.651 228.334 346.105 225.904 346.419L225.25 346.504V347.163L225.25 351.249ZM225.25 351.249L225.25 351.249L225.25 351.249L225.25 351.249Z" stroke="#000028" stroke-width="1.5"/>
<path d="M214.75 337.75L218.5 341.5L225.25 334" stroke="#000028" stroke-width="1.5" stroke-linecap="round" stroke-linejoin="round"/>
<path fill-rule="evenodd" clip-rule="evenodd" d="M310.355 258.761C310.444 258.584 310.586 258.444 310.765 258.36C311.561 257.988 314.305 257 321 257C327.695 257 330.439 257.988 331.235 258.36C331.414 258.444 331.556 258.584 331.645 258.761C332.022 259.505 333 261.905 333 266.749C333 271.594 332.022 273.993 331.645 274.738C331.556 274.915 331.414 275.055 331.235 275.139C330.739 275.371 329.489 275.841 327 276.163L327 280.249C327 280.892 326.244 281.237 325.758 280.815L320.705 276.498C314.224 276.47 311.55 275.506 310.765 275.139C310.586 275.055 310.444 274.915 310.355 274.738C309.978 273.993 309 271.594 309 266.749C309 261.905 309.978 259.505 310.355 258.761Z" fill="white"/>
<path d="M326.25 280.249L326.245 280.244L321.193 275.928L320.984 275.749L320.709 275.748C314.293 275.72 311.736 274.765 311.083 274.459L310.77 275.127L311.083 274.459C311.06 274.449 311.04 274.431 311.024 274.399C310.706 273.772 309.75 271.49 309.75 266.749C309.75 262.009 310.706 259.727 311.024 259.099C311.04 259.067 311.06 259.05 311.083 259.04C311.746 258.729 314.371 257.75 321 257.75C327.629 257.75 330.254 258.729 330.917 259.04C330.94 259.05 330.96 259.067 330.976 259.099C331.294 259.727 332.25 262.009 332.25 266.749C332.25 271.49 331.294 273.772 330.976 274.399C330.96 274.431 330.94 274.449 330.917 274.459L331.235 275.139L330.917 274.459C330.506 274.651 329.334 275.105 326.904 275.419L326.25 275.504V276.163L326.25 280.249ZM326.25 280.249L326.25 280.249L326.25 280.249L326.25 280.249Z" stroke="#000028" stroke-width="1.5"/>
<path d="M315.75 266.75L319.5 270.5L326.25 263" stroke="#000028" stroke-width="1.5" stroke-linecap="round" stroke-linejoin="round"/>
<path d="M70.3755 326.521C68.7841 326.933 68 328.373 68 329.677V333.823C68 335.127 68.7841 336.567 70.3755 336.979C71.3659 337.236 72.9461 337.5 75.25 337.5C77.5539 337.5 79.1341 337.236 80.1245 336.979C80.7998 336.804 81.3298 336.444 81.7161 335.988C81.5718 336.375 81.5 336.782 81.5 337.177V341.323C81.5 342.185 81.8423 343.105 82.5336 343.75C81.8423 344.395 81.5 345.315 81.5 346.177V350.323C81.5 351.627 82.2841 353.067 83.8755 353.479C84.8659 353.736 86.4461 354 88.75 354C91.0539 354 92.6341 353.736 93.6245 353.479C95.2159 353.067 96 351.627 96 350.323V346.177C96 345.315 95.6577 344.395 94.9664 343.75C95.6577 343.105 96 342.185 96 341.323V337.177C96 335.873 95.2159 334.433 93.6245 334.021C92.6341 333.764 91.0539 333.5 88.75 333.5C86.4461 333.5 84.8659 333.764 83.8755 334.021C83.2002 334.196 82.6702 334.556 82.2839 335.012C82.4282 334.625 82.5 334.218 82.5 333.823V329.677C82.5 328.373 81.7159 326.933 80.1245 326.521C79.1341 326.264 77.5539 326 75.25 326C72.9461 326 71.3659 326.264 70.3755 326.521Z" fill="white" stroke="white" stroke-width="4"/>
<path fill-rule="evenodd" clip-rule="evenodd" d="M70 329.677C70 329.109 70.3271 328.599 70.8771 328.457C71.6892 328.247 73.0997 328 75.25 328C77.4003 328 78.8108 328.247 79.6229 328.457C80.1729 328.599 80.5 329.109 80.5 329.677V333.823C80.5 334.391 80.1729 334.901 79.6229 335.043C78.9093 335.228 77.7337 335.441 76 335.49V338.5H83.5V337.177C83.5 336.609 83.8271 336.099 84.3771 335.957C85.1892 335.747 86.5997 335.5 88.75 335.5C90.9003 335.5 92.3108 335.747 93.1229 335.957C93.6729 336.099 94 336.609 94 337.177V341.323C94 341.891 93.6729 342.401 93.1229 342.543C92.3108 342.753 90.9003 343 88.75 343C86.5997 343 85.1892 342.753 84.3771 342.543C83.8271 342.401 83.5 341.891 83.5 341.323V340H76V347.5H83.5V346.177C83.5 345.609 83.8271 345.099 84.3771 344.957C85.1892 344.747 86.5997 344.5 88.75 344.5C90.9003 344.5 92.3108 344.747 93.1229 344.957C93.6729 345.099 94 345.609 94 346.177V350.323C94 350.891 93.6729 351.401 93.1229 351.543C92.3108 351.753 90.9003 352 88.75 352C86.5997 352 85.1892 351.753 84.3771 351.543C83.8271 351.401 83.5 350.891 83.5 350.323V349H75.25C74.8358 349 74.5 348.664 74.5 348.25V335.49C72.7663 335.441 71.5907 335.228 70.8771 335.043C70.3271 334.901 70 334.391 70 333.823V329.677ZM79 329.849C78.2762 329.685 77.0607 329.5 75.25 329.5C73.4393 329.5 72.2238 329.685 71.5 329.849V333.651C72.2238 333.815 73.4393 334 75.25 334C77.0607 334 78.2762 333.815 79 333.651V329.849ZM92.5 337.349C91.7762 337.185 90.5607 337 88.75 337C86.9393 337 85.7238 337.185 85 337.349V341.151C85.7238 341.315 86.9393 341.5 88.75 341.5C90.5607 341.5 91.7762 341.315 92.5 341.151V337.349ZM92.5 346.349C91.7762 346.185 90.5607 346 88.75 346C86.9393 346 85.7238 346.185 85 346.349V350.151C85.7238 350.315 86.9393 350.5 88.75 350.5C90.5607 350.5 91.7762 350.315 92.5 350.151V346.349Z" fill="#000028"/>
<rect width="99" height="16" transform="translate(34 265)" fill="white"/>
<path d="M42.9004 277C44.7051 277 45.8242 276.062 45.8242 274.58C45.8242 273.49 45.0098 272.646 43.8906 272.564V272.459C44.7578 272.33 45.4199 271.551 45.4199 270.654C45.4199 269.348 44.4414 268.545 42.8008 268.545H39.1035V277H42.9004ZM40.873 269.898H42.3496C43.1934 269.898 43.6797 270.303 43.6797 270.977C43.6797 271.656 43.1582 272.049 42.2031 272.049H40.873V269.898ZM40.873 275.646V273.244H42.4082C43.4512 273.244 44.0195 273.654 44.0195 274.428C44.0195 275.219 43.4688 275.646 42.4492 275.646H40.873ZM50.1191 277.141C52.1055 277.141 53.3008 275.881 53.3008 273.766C53.3008 271.668 52.0879 270.396 50.1191 270.396C48.1504 270.396 46.9375 271.674 46.9375 273.766C46.9375 275.881 48.1328 277.141 50.1191 277.141ZM50.1191 275.746C49.2051 275.746 48.6895 275.025 48.6895 273.766C48.6895 272.523 49.2109 271.791 50.1191 271.791C51.0215 271.791 51.5488 272.523 51.5488 273.766C51.5488 275.02 51.0273 275.746 50.1191 275.746ZM55.1816 269.002V270.602H54.1738V271.943H55.1816V275.254C55.1816 276.514 55.8027 277.023 57.373 277.023C57.7012 277.023 58.0176 276.988 58.2285 276.947V275.646C58.0645 275.664 57.9473 275.67 57.7246 275.67C57.1445 275.67 56.8867 275.412 56.8867 274.85V271.943H58.2285V270.602H56.8867V269.002H55.1816ZM63.4844 278.816L66.5137 268.07H64.9434L61.9141 278.816H63.4844ZM76.0938 277H78.0098L75.0742 268.545H72.9941L70.0586 277H71.834L72.4844 274.984H75.4551L76.0938 277ZM73.9258 270.303H74.0312L75.0801 273.619H72.8652L73.9258 270.303ZM79.4512 268.545V277H81.2207V274.375H82.8906C84.6719 274.375 85.9082 273.209 85.9082 271.469C85.9082 269.711 84.7188 268.545 82.9785 268.545H79.4512ZM81.2207 269.998H82.5098C83.5293 269.998 84.1094 270.514 84.1094 271.475C84.1094 272.424 83.5176 272.939 82.5039 272.939H81.2207V269.998ZM89.3066 277V268.545H87.5371V277H89.3066ZM98.043 277.217C100.082 277.217 101.57 275.957 101.717 274.129H99.9941C99.8242 275.061 99.0625 275.658 98.0488 275.658C96.7129 275.658 95.8867 274.551 95.8867 272.77C95.8867 270.988 96.7129 269.887 98.043 269.887C99.0508 269.887 99.8184 270.525 99.9883 271.498H101.711C101.582 269.658 100.047 268.328 98.043 268.328C95.5879 268.328 94.0762 270.021 94.0762 272.77C94.0762 275.523 95.5938 277.217 98.043 277.217ZM105.508 275.816C104.916 275.816 104.5 275.523 104.5 275.043C104.5 274.58 104.857 274.316 105.59 274.264L106.896 274.182V274.656C106.896 275.312 106.299 275.816 105.508 275.816ZM104.945 277.1C105.783 277.1 106.486 276.748 106.82 276.156H106.926V277H108.578V272.588C108.578 271.205 107.611 270.396 105.9 270.396C104.277 270.396 103.182 271.146 103.07 272.342H104.641C104.781 271.955 105.191 271.744 105.807 271.744C106.51 271.744 106.896 272.049 106.896 272.588V273.115L105.332 273.209C103.727 273.303 102.83 273.982 102.83 275.154C102.83 276.338 103.703 277.1 104.945 277.1ZM110.312 277H112.018V268.07H110.312V277ZM113.852 277H115.557V268.07H113.852V277ZM120.127 271.703C120.924 271.703 121.439 272.236 121.475 273.092H118.721C118.779 272.254 119.336 271.703 120.127 271.703ZM121.51 275.16C121.328 275.588 120.865 275.828 120.191 275.828C119.301 275.828 118.738 275.23 118.715 274.27V274.182H123.15V273.66C123.15 271.609 122.025 270.396 120.121 270.396C118.199 270.396 117.016 271.697 117.016 273.801C117.016 275.898 118.176 277.141 120.145 277.141C121.727 277.141 122.846 276.373 123.098 275.16H121.51ZM124.551 277H126.256V273.42C126.256 272.512 126.895 271.961 127.826 271.961C128.102 271.961 128.5 272.014 128.635 272.066V270.514C128.488 270.461 128.201 270.432 127.967 270.432C127.146 270.432 126.479 270.924 126.309 271.568H126.203V270.537H124.551V277Z" fill="#3E4249"/>
<rect width="87" height="16" transform="translate(456 264)" fill="white"/>
<path d="M466.553 276H468.469L465.533 267.545H463.453L460.518 276H462.293L462.943 273.984H465.914L466.553 276ZM464.385 269.303H464.49L465.539 272.619H463.324L464.385 269.303ZM472.26 274.559C471.334 274.559 470.807 273.85 470.807 272.707C470.807 271.576 471.34 270.861 472.26 270.861C473.18 270.861 473.736 271.576 473.736 272.713C473.736 273.85 473.186 274.559 472.26 274.559ZM472.236 278.449C474.188 278.449 475.424 277.494 475.424 275.977V269.537H473.771V270.574H473.666C473.32 269.865 472.576 269.432 471.703 269.432C470.062 269.432 469.055 270.709 469.055 272.713C469.055 274.658 470.057 275.906 471.668 275.906C472.576 275.906 473.256 275.543 473.613 274.863H473.719V276.059C473.719 276.785 473.186 277.207 472.271 277.207C471.533 277.207 471.053 276.955 470.965 276.557H469.277C469.383 277.693 470.52 278.449 472.236 278.449ZM479.93 270.703C480.727 270.703 481.242 271.236 481.277 272.092H478.523C478.582 271.254 479.139 270.703 479.93 270.703ZM481.312 274.16C481.131 274.588 480.668 274.828 479.994 274.828C479.104 274.828 478.541 274.23 478.518 273.27V273.182H482.953V272.66C482.953 270.609 481.828 269.396 479.924 269.396C478.002 269.396 476.818 270.697 476.818 272.801C476.818 274.898 477.979 276.141 479.947 276.141C481.529 276.141 482.648 275.373 482.9 274.16H481.312ZM484.354 276H486.059V272.273C486.059 271.424 486.545 270.867 487.336 270.867C488.145 270.867 488.525 271.336 488.525 272.227V276H490.23V271.822C490.23 270.275 489.457 269.396 488.021 269.396C487.066 269.396 486.41 269.848 486.111 270.574H486.006V269.537H484.354V276ZM492.375 268.002V269.602H491.367V270.943H492.375V274.254C492.375 275.514 492.996 276.023 494.566 276.023C494.895 276.023 495.211 275.988 495.422 275.947V274.646C495.258 274.664 495.141 274.67 494.918 274.67C494.338 274.67 494.08 274.412 494.08 273.85V270.943H495.422V269.602H494.08V268.002H492.375ZM499.729 273.65C499.793 275.227 501.1 276.217 503.115 276.217C505.236 276.217 506.543 275.174 506.543 273.469C506.543 272.156 505.811 271.424 504.111 271.066L503.092 270.85C502.102 270.639 501.697 270.34 501.697 269.818C501.697 269.174 502.283 268.764 503.168 268.764C504.023 268.764 504.645 269.209 504.727 269.877H506.391C506.338 268.371 505.02 267.328 503.156 267.328C501.205 267.328 499.922 268.377 499.922 269.971C499.922 271.26 500.678 272.062 502.219 272.385L503.32 272.619C504.357 272.842 504.779 273.152 504.779 273.691C504.779 274.33 504.129 274.775 503.209 274.775C502.213 274.775 501.521 274.336 501.439 273.65H499.729ZM510.844 270.703C511.641 270.703 512.156 271.236 512.191 272.092H509.438C509.496 271.254 510.053 270.703 510.844 270.703ZM512.227 274.16C512.045 274.588 511.582 274.828 510.908 274.828C510.018 274.828 509.455 274.23 509.432 273.27V273.182H513.867V272.66C513.867 270.609 512.742 269.396 510.838 269.396C508.916 269.396 507.732 270.697 507.732 272.801C507.732 274.898 508.893 276.141 510.861 276.141C512.443 276.141 513.562 275.373 513.814 274.16H512.227ZM515.268 276H516.973V272.42C516.973 271.512 517.611 270.961 518.543 270.961C518.818 270.961 519.217 271.014 519.352 271.066V269.514C519.205 269.461 518.918 269.432 518.684 269.432C517.863 269.432 517.195 269.924 517.025 270.568H516.92V269.537H515.268V276ZM526.43 269.537H524.631L523.307 274.354H523.201L521.865 269.537H520.031L522.275 276H524.197L526.43 269.537ZM530.109 270.703C530.906 270.703 531.422 271.236 531.457 272.092H528.703C528.762 271.254 529.318 270.703 530.109 270.703ZM531.492 274.16C531.311 274.588 530.848 274.828 530.174 274.828C529.283 274.828 528.721 274.23 528.697 273.27V273.182H533.133V272.66C533.133 270.609 532.008 269.396 530.104 269.396C528.182 269.396 526.998 270.697 526.998 272.801C526.998 274.898 528.158 276.141 530.127 276.141C531.709 276.141 532.828 275.373 533.08 274.16H531.492ZM534.533 276H536.238V272.42C536.238 271.512 536.877 270.961 537.809 270.961C538.084 270.961 538.482 271.014 538.617 271.066V269.514C538.471 269.461 538.184 269.432 537.949 269.432C537.129 269.432 536.461 269.924 536.291 270.568H536.186V269.537H534.533V276Z" fill="#3E4249"/>
<rect width="99" height="16" transform="translate(450 129)" fill="white"/>
<path d="M455.109 138.65C455.174 140.227 456.48 141.217 458.496 141.217C460.617 141.217 461.924 140.174 461.924 138.469C461.924 137.156 461.191 136.424 459.492 136.066L458.473 135.85C457.482 135.639 457.078 135.34 457.078 134.818C457.078 134.174 457.664 133.764 458.549 133.764C459.404 133.764 460.025 134.209 460.107 134.877H461.771C461.719 133.371 460.4 132.328 458.537 132.328C456.586 132.328 455.303 133.377 455.303 134.971C455.303 136.26 456.059 137.062 457.6 137.385L458.701 137.619C459.738 137.842 460.16 138.152 460.16 138.691C460.16 139.33 459.51 139.775 458.59 139.775C457.594 139.775 456.902 139.336 456.82 138.65H455.109ZM464.232 143.35C465.844 143.35 466.635 142.764 467.186 141.1L469.412 134.537H467.607L466.248 139.436H466.143L464.783 134.537H462.902L465.17 141.041L465.111 141.275C464.971 141.768 464.607 141.973 463.969 141.973C463.898 141.973 463.641 141.973 463.582 141.961V143.332C463.652 143.344 464.168 143.35 464.232 143.35ZM470.602 141H472.307V137.109C472.307 136.389 472.781 135.867 473.449 135.867C474.117 135.867 474.516 136.26 474.516 136.945V141H476.156V137.045C476.156 136.359 476.602 135.867 477.293 135.867C478.014 135.867 478.371 136.248 478.371 137.016V141H480.076V136.564C480.076 135.234 479.273 134.396 477.984 134.396C477.082 134.396 476.338 134.871 476.039 135.592H475.934C475.676 134.842 475.055 134.396 474.146 134.396C473.297 134.396 472.623 134.854 472.359 135.592H472.254V134.537H470.602V141ZM485.467 134.432C484.576 134.432 483.844 134.871 483.492 135.598H483.387V134.537H481.734V143.145H483.439V140.01H483.545C483.861 140.695 484.57 141.1 485.496 141.1C487.113 141.1 488.104 139.852 488.104 137.766C488.104 135.674 487.102 134.432 485.467 134.432ZM484.887 139.676C483.984 139.676 483.422 138.955 483.422 137.771C483.422 136.588 483.984 135.861 484.893 135.861C485.801 135.861 486.352 136.582 486.352 137.766C486.352 138.961 485.807 139.676 484.887 139.676ZM489.551 141H491.256V137.291C491.256 136.453 491.748 135.885 492.604 135.885C493.377 135.885 493.793 136.348 493.793 137.244V141H495.498V136.84C495.498 135.287 494.672 134.414 493.283 134.414C492.334 134.414 491.631 134.859 491.332 135.598H491.227V132.07H489.551V141ZM500.021 141.141C502.008 141.141 503.203 139.881 503.203 137.766C503.203 135.668 501.99 134.396 500.021 134.396C498.053 134.396 496.84 135.674 496.84 137.766C496.84 139.881 498.035 141.141 500.021 141.141ZM500.021 139.746C499.107 139.746 498.592 139.025 498.592 137.766C498.592 136.523 499.113 135.791 500.021 135.791C500.924 135.791 501.451 136.523 501.451 137.766C501.451 139.02 500.93 139.746 500.021 139.746ZM504.598 141H506.303V137.273C506.303 136.424 506.789 135.867 507.58 135.867C508.389 135.867 508.77 136.336 508.77 137.227V141H510.475V136.822C510.475 135.275 509.701 134.396 508.266 134.396C507.311 134.396 506.654 134.848 506.355 135.574H506.25V134.537H504.598V141ZM512.76 143.35C514.371 143.35 515.162 142.764 515.713 141.1L517.939 134.537H516.135L514.775 139.436H514.67L513.311 134.537H511.43L513.697 141.041L513.639 141.275C513.498 141.768 513.135 141.973 512.496 141.973C512.426 141.973 512.168 141.973 512.109 141.961V143.332C512.18 143.344 512.695 143.35 512.76 143.35ZM522.393 132.545V141H524.162V138.375H525.832C527.613 138.375 528.85 137.209 528.85 135.469C528.85 133.711 527.66 132.545 525.92 132.545H522.393ZM524.162 133.998H525.451C526.471 133.998 527.051 134.514 527.051 135.475C527.051 136.424 526.459 136.939 525.445 136.939H524.162V133.998ZM532.998 141.141C534.984 141.141 536.18 139.881 536.18 137.766C536.18 135.668 534.967 134.396 532.998 134.396C531.029 134.396 529.816 135.674 529.816 137.766C529.816 139.881 531.012 141.141 532.998 141.141ZM532.998 139.746C532.084 139.746 531.568 139.025 531.568 137.766C531.568 136.523 532.09 135.791 532.998 135.791C533.9 135.791 534.428 136.523 534.428 137.766C534.428 139.02 533.906 139.746 532.998 139.746ZM539.889 141.1C540.785 141.1 541.518 140.684 541.863 139.986H541.969V141H543.621V132.07H541.916V135.568H541.816C541.482 134.854 540.762 134.432 539.889 134.432C538.266 134.432 537.258 135.703 537.258 137.76C537.258 139.822 538.26 141.1 539.889 141.1ZM540.469 135.861C541.377 135.861 541.934 136.594 541.934 137.771C541.934 138.955 541.383 139.676 540.469 139.676C539.555 139.676 539.01 138.961 539.01 137.766C539.01 136.582 539.561 135.861 540.469 135.861Z" fill="#3E4249"/>
<rect width="225" height="17" transform="translate(388 8)" fill="white"/>
<path d="M393.251 18.3203C393.34 20.1113 394.837 21.2461 397.1 21.2461C399.492 21.2461 400.976 20.0498 400.976 18.1289C400.976 16.625 400.135 15.791 398.132 15.3398L396.997 15.0801C395.773 14.7998 395.274 14.4102 395.274 13.7471C395.274 12.9062 396.026 12.3594 397.161 12.3594C398.241 12.3594 399.007 12.9062 399.13 13.7744H400.818C400.736 12.0791 399.239 10.8896 397.168 10.8896C394.96 10.8896 393.497 12.0791 393.497 13.8701C393.497 15.3398 394.338 16.2285 396.129 16.6318L397.407 16.9258C398.672 17.2197 399.212 17.6367 399.212 18.3477C399.212 19.1748 398.371 19.7695 397.209 19.7695C395.958 19.7695 395.083 19.2021 394.974 18.3203H393.251ZM403.601 23.7139C405.275 23.7139 406.075 23.0986 406.711 21.2393L409.411 13.5215H407.62L405.877 19.3594H405.761L404.011 13.5215H402.151L404.824 21.0342L404.735 21.3623C404.517 22.0527 404.113 22.3262 403.396 22.3262C403.279 22.3262 403.026 22.3193 402.931 22.2988V23.6865C403.04 23.707 403.498 23.7139 403.601 23.7139ZM410.874 21H412.569V16.4541C412.569 15.5381 413.191 14.8477 414.032 14.8477C414.866 14.8477 415.386 15.3467 415.386 16.167V21H417.033V16.3447C417.033 15.4902 417.614 14.8477 418.496 14.8477C419.405 14.8477 419.863 15.3262 419.863 16.29V21H421.552V15.8594C421.552 14.3076 420.649 13.3711 419.152 13.3711C418.113 13.3711 417.252 13.9111 416.883 14.7314H416.767C416.452 13.8906 415.734 13.3711 414.702 13.3711C413.711 13.3711 412.945 13.877 412.624 14.7314H412.508V13.5215H410.874V21ZM427.636 13.3984C426.61 13.3984 425.742 13.9111 425.312 14.7588H425.195V13.5215H423.562V23.4883H425.257V19.8652H425.373C425.756 20.6582 426.583 21.123 427.656 21.123C429.543 21.123 430.719 19.6465 430.719 17.2607C430.719 14.8613 429.529 13.3984 427.636 13.3984ZM427.103 19.6807C425.947 19.6807 425.229 18.7578 425.223 17.2607C425.229 15.7705 425.954 14.8408 427.109 14.8408C428.271 14.8408 428.976 15.75 428.976 17.2607C428.976 18.7715 428.278 19.6807 427.103 19.6807ZM432.489 21H434.185V16.6592C434.185 15.5859 434.807 14.8613 435.921 14.8613C436.905 14.8613 437.425 15.4424 437.425 16.5771V21H439.12V16.1738C439.12 14.3965 438.149 13.3848 436.55 13.3848C435.436 13.3848 434.636 13.8906 434.28 14.7314H434.157V10.6299H432.489V21ZM444.356 21.1504C446.592 21.1504 447.952 19.6875 447.952 17.2607C447.952 14.8408 446.585 13.3711 444.356 13.3711C442.135 13.3711 440.761 14.8477 440.761 17.2607C440.761 19.6875 442.114 21.1504 444.356 21.1504ZM444.356 19.7285C443.174 19.7285 442.497 18.8262 442.497 17.2607C442.497 15.7021 443.174 14.793 444.356 14.793C445.532 14.793 446.209 15.7021 446.209 17.2607C446.209 18.8262 445.539 19.7285 444.356 19.7285ZM449.661 21H451.356V16.6455C451.356 15.5449 451.992 14.8477 453.004 14.8477C454.036 14.8477 454.515 15.4219 454.515 16.5635V21H456.21V16.1602C456.21 14.376 455.301 13.3711 453.633 13.3711C452.519 13.3711 451.767 13.8838 451.411 14.7178H451.295V13.5215H449.661V21ZM458.808 23.7139C460.482 23.7139 461.282 23.0986 461.918 21.2393L464.618 13.5215H462.827L461.084 19.3594H460.968L459.218 13.5215H457.358L460.031 21.0342L459.942 21.3623C459.724 22.0527 459.32 22.3262 458.603 22.3262C458.486 22.3262 458.233 22.3193 458.138 22.2988V23.6865C458.247 23.707 458.705 23.7139 458.808 23.7139ZM474.106 21.2461C476.383 21.2461 478.051 19.8857 478.283 17.8691H476.547C476.308 18.9766 475.357 19.6738 474.106 19.6738C472.425 19.6738 471.379 18.293 471.379 16.0645C471.379 13.8428 472.425 12.4619 474.1 12.4619C475.344 12.4619 476.294 13.2275 476.54 14.4102H478.276C478.071 12.3525 476.342 10.8896 474.1 10.8896C471.304 10.8896 469.574 12.8652 469.574 16.0713C469.574 19.2637 471.311 21.2461 474.106 21.2461ZM480.136 21H481.831V10.6299H480.136V21ZM487.204 21.1504C489.439 21.1504 490.8 19.6875 490.8 17.2607C490.8 14.8408 489.433 13.3711 487.204 13.3711C484.982 13.3711 483.608 14.8477 483.608 17.2607C483.608 19.6875 484.962 21.1504 487.204 21.1504ZM487.204 19.7285C486.021 19.7285 485.345 18.8262 485.345 17.2607C485.345 15.7021 486.021 14.793 487.204 14.793C488.38 14.793 489.057 15.7021 489.057 17.2607C489.057 18.8262 488.387 19.7285 487.204 19.7285ZM499.017 13.5215H497.321V17.876C497.321 18.9834 496.72 19.6602 495.619 19.6602C494.607 19.6602 494.136 19.0996 494.136 17.958V13.5215H492.44V18.3818C492.44 20.1318 493.397 21.1504 495.031 21.1504C496.173 21.1504 496.904 20.665 497.267 19.8105H497.383V21H499.017V13.5215ZM503.802 21.123C504.841 21.123 505.702 20.6377 506.126 19.8174H506.242V21H507.883V10.6299H506.188V14.7109H506.071C505.675 13.8906 504.827 13.3984 503.802 13.3984C501.915 13.3984 500.726 14.8887 500.726 17.2539C500.726 19.6328 501.908 21.123 503.802 21.123ZM504.328 14.8408C505.49 14.8408 506.208 15.7705 506.208 17.2607C506.208 18.7646 505.497 19.6807 504.328 19.6807C503.166 19.6807 502.462 18.7715 502.462 17.2607C502.462 15.7568 503.173 14.8408 504.328 14.8408ZM515.696 21V11.1357H513.933V21H515.696ZM517.952 21H519.647V16.6455C519.647 15.5449 520.283 14.8477 521.295 14.8477C522.327 14.8477 522.806 15.4219 522.806 16.5635V21H524.501V16.1602C524.501 14.376 523.592 13.3711 521.924 13.3711C520.81 13.3711 520.058 13.8838 519.702 14.7178H519.586V13.5215H517.952V21ZM527.058 21H528.746V14.9229H530.353V13.5693H528.726V12.8926C528.726 12.1885 529.04 11.8398 529.84 11.8398C530.079 11.8398 530.284 11.8535 530.421 11.874V10.6299C530.147 10.582 529.84 10.5547 529.478 10.5547C527.816 10.5547 527.058 11.293 527.058 12.7832V13.5693H525.834V14.9229H527.058V21ZM531.993 21H533.688V16.6797C533.688 15.6338 534.454 14.9502 535.555 14.9502C535.842 14.9502 536.293 14.998 536.423 15.0459V13.4736C536.266 13.4258 535.965 13.3984 535.719 13.3984C534.755 13.3984 533.948 13.9453 533.743 14.6836H533.627V13.5215H531.993V21ZM540.278 19.79C539.526 19.79 538.986 19.4141 538.986 18.7852C538.986 18.1768 539.431 17.835 540.381 17.7734L542.069 17.6641V18.2588C542.069 19.127 541.304 19.79 540.278 19.79ZM539.779 21.123C540.757 21.123 541.577 20.6992 541.994 19.9746H542.11V21H543.744V15.8936C543.744 14.3076 542.664 13.3711 540.743 13.3711C538.966 13.3711 537.729 14.2119 537.592 15.5312H539.191C539.349 15.0254 539.882 14.752 540.661 14.752C541.577 14.752 542.069 15.1621 542.069 15.8936V16.5225L540.142 16.6387C538.323 16.748 537.305 17.5273 537.305 18.8809C537.305 20.248 538.337 21.123 539.779 21.123ZM545.617 15.6611C545.617 16.7891 546.294 17.4521 547.729 17.7803L549.056 18.0879C549.767 18.2451 550.088 18.5117 550.088 18.9355C550.088 19.4893 549.493 19.8652 548.639 19.8652C547.791 19.8652 547.265 19.5371 547.101 18.9834H545.426C545.556 20.3438 546.731 21.1504 548.598 21.1504C550.464 21.1504 551.783 20.1934 551.783 18.7578C551.783 17.6572 551.12 17.042 549.691 16.7207L548.372 16.4199C547.62 16.249 547.265 15.9893 547.265 15.5654C547.265 15.0254 547.846 14.6562 548.618 14.6562C549.411 14.6562 549.91 14.9912 550.033 15.5176H551.626C551.503 14.1572 550.389 13.3711 548.611 13.3711C546.848 13.3711 545.617 14.3076 545.617 15.6611ZM553.984 11.6895V13.5693H552.802V14.9229H553.984V19.0039C553.984 20.4531 554.668 21.0342 556.384 21.0342C556.712 21.0342 557.026 21 557.272 20.9521V19.626C557.067 19.6465 556.938 19.6602 556.698 19.6602C555.987 19.6602 555.673 19.332 555.673 18.5938V14.9229H557.272V13.5693H555.673V11.6895H553.984ZM558.968 21H560.663V16.6797C560.663 15.6338 561.429 14.9502 562.529 14.9502C562.816 14.9502 563.268 14.998 563.397 15.0459V13.4736C563.24 13.4258 562.939 13.3984 562.693 13.3984C561.729 13.3984 560.923 13.9453 560.718 14.6836H560.602V13.5215H558.968V21ZM571.3 13.5215H569.604V17.876C569.604 18.9834 569.003 19.6602 567.902 19.6602C566.891 19.6602 566.419 19.0996 566.419 17.958V13.5215H564.724V18.3818C564.724 20.1318 565.681 21.1504 567.314 21.1504C568.456 21.1504 569.188 20.665 569.55 19.8105H569.666V21H571.3V13.5215ZM579.838 16.0371C579.66 14.4648 578.498 13.3711 576.577 13.3711C574.328 13.3711 573.009 14.8135 573.009 17.2402C573.009 19.7012 574.335 21.1504 576.584 21.1504C578.478 21.1504 579.653 20.0977 579.838 18.5322H578.225C578.047 19.3115 577.459 19.7285 576.577 19.7285C575.422 19.7285 574.725 18.8125 574.725 17.2402C574.725 15.6885 575.415 14.793 576.577 14.793C577.507 14.793 578.067 15.3125 578.225 16.0371H579.838ZM582.094 11.6895V13.5693H580.911V14.9229H582.094V19.0039C582.094 20.4531 582.777 21.0342 584.493 21.0342C584.821 21.0342 585.136 21 585.382 20.9521V19.626C585.177 19.6465 585.047 19.6602 584.808 19.6602C584.097 19.6602 583.782 19.332 583.782 18.5938V14.9229H585.382V13.5693H583.782V11.6895H582.094ZM593.585 13.5215H591.89V17.876C591.89 18.9834 591.288 19.6602 590.188 19.6602C589.176 19.6602 588.704 19.0996 588.704 17.958V13.5215H587.009V18.3818C587.009 20.1318 587.966 21.1504 589.6 21.1504C590.741 21.1504 591.473 20.665 591.835 19.8105H591.951V21H593.585V13.5215ZM595.663 21H597.358V16.6797C597.358 15.6338 598.124 14.9502 599.225 14.9502C599.512 14.9502 599.963 14.998 600.093 15.0459V13.4736C599.936 13.4258 599.635 13.3984 599.389 13.3984C598.425 13.3984 597.618 13.9453 597.413 14.6836H597.297V13.5215H595.663V21ZM604.434 14.7178C605.452 14.7178 606.122 15.4287 606.156 16.5361H602.636C602.711 15.4424 603.422 14.7178 604.434 14.7178ZM606.17 18.9424C605.924 19.4961 605.343 19.8037 604.502 19.8037C603.388 19.8037 602.67 19.0244 602.629 17.7803V17.6914H607.852V17.1445C607.852 14.7861 606.573 13.3711 604.44 13.3711C602.273 13.3711 600.927 14.8818 600.927 17.2881C600.927 19.6943 602.253 21.1504 604.454 21.1504C606.218 21.1504 607.469 20.3027 607.776 18.9424H606.17Z" fill="#525760"/>
<rect width="106" height="32" transform="translate(31 360)" fill="white"/>
<path d="M50.625 371.051H46.4414V368.145H50.4082V367.207H46.4414V364.494H50.625V363.545H45.3867V372H50.625V371.051ZM57.5625 365.684H56.4844L54.7559 370.887H54.6621L52.9336 365.684H51.8555L54.1934 372H55.2246L57.5625 365.684ZM61.1953 366.463C62.1973 366.463 62.8652 367.201 62.8887 368.32H59.4082C59.4844 367.201 60.1875 366.463 61.1953 366.463ZM62.8594 370.365C62.5957 370.922 62.0449 371.221 61.2305 371.221C60.1582 371.221 59.4609 370.43 59.4082 369.182V369.135H63.9492V368.748C63.9492 366.785 62.9121 365.572 61.207 365.572C59.4727 365.572 58.3594 366.861 58.3594 368.848C58.3594 370.846 59.4551 372.111 61.207 372.111C62.5898 372.111 63.5742 371.443 63.8672 370.365H62.8594ZM65.5312 372H66.5391V368.262C66.5391 367.154 67.1895 366.48 68.1973 366.48C69.2051 366.48 69.6855 367.02 69.6855 368.156V372H70.6934V367.91C70.6934 366.41 69.9023 365.572 68.4844 365.572C67.5176 365.572 66.9023 365.982 66.5859 366.68H66.4922V365.684H65.5312V372ZM72.9609 364.049V365.684H71.9414V366.527H72.9609V370.359C72.9609 371.566 73.4824 372.047 74.7832 372.047C74.9824 372.047 75.1758 372.023 75.375 371.988V371.139C75.1875 371.156 75.0879 371.162 74.9062 371.162C74.25 371.162 73.9688 370.846 73.9688 370.102V366.527H75.375V365.684H73.9688V364.049H72.9609ZM87.1641 372V363.545H86.1094V367.201H81.4688V363.545H80.4141V372H81.4688V368.15H86.1094V372H87.1641ZM91.1367 371.227C90.4043 371.227 89.8594 370.852 89.8594 370.207C89.8594 369.574 90.2812 369.24 91.2422 369.176L92.9414 369.064V369.645C92.9414 370.547 92.1738 371.227 91.1367 371.227ZM90.9492 372.111C91.793 372.111 92.4844 371.742 92.8945 371.068H92.9883V372H93.9492V367.676C93.9492 366.363 93.0879 365.572 91.5469 365.572C90.1992 365.572 89.2031 366.24 89.0684 367.254H90.0879C90.2285 366.756 90.7559 366.469 91.5117 366.469C92.4551 366.469 92.9414 366.896 92.9414 367.676V368.25L91.1191 368.361C89.6484 368.449 88.8164 369.1 88.8164 370.23C88.8164 371.385 89.7246 372.111 90.9492 372.111ZM95.8125 372H96.8203V368.262C96.8203 367.154 97.4707 366.48 98.4785 366.48C99.4863 366.48 99.9668 367.02 99.9668 368.156V372H100.975V367.91C100.975 366.41 100.184 365.572 98.7656 365.572C97.7988 365.572 97.1836 365.982 96.8672 366.68H96.7734V365.684H95.8125V372ZM105.158 372.111C106.031 372.111 106.781 371.695 107.18 370.992H107.273V372H108.234V363.176H107.227V366.68H107.139C106.781 365.988 106.037 365.572 105.158 365.572C103.553 365.572 102.504 366.861 102.504 368.842C102.504 370.828 103.541 372.111 105.158 372.111ZM105.393 366.48C106.535 366.48 107.25 367.395 107.25 368.842C107.25 370.301 106.541 371.203 105.393 371.203C104.238 371.203 103.547 370.318 103.547 368.842C103.547 367.371 104.244 366.48 105.393 366.48ZM110.25 372H111.258V363.176H110.25V372ZM115.734 366.463C116.736 366.463 117.404 367.201 117.428 368.32H113.947C114.023 367.201 114.727 366.463 115.734 366.463ZM117.398 370.365C117.135 370.922 116.584 371.221 115.77 371.221C114.697 371.221 114 370.43 113.947 369.182V369.135H118.488V368.748C118.488 366.785 117.451 365.572 115.746 365.572C114.012 365.572 112.898 366.861 112.898 368.848C112.898 370.846 113.994 372.111 115.746 372.111C117.129 372.111 118.113 371.443 118.406 370.365H117.398ZM120.07 372H121.078V368.086C121.078 367.195 121.775 366.551 122.736 366.551C122.936 366.551 123.299 366.586 123.381 366.609V365.602C123.252 365.584 123.041 365.572 122.877 365.572C122.039 365.572 121.312 366.006 121.125 366.621H121.031V365.684H120.07V372ZM41.8301 382.721V381.66L36.1699 384.227V385.117L41.8301 387.672V386.611L37.3828 384.66V384.607L41.8301 382.721ZM52.3008 388V379.545H51.0762L48.1816 386.6H48.0879L45.1934 379.545H43.9688V388H44.9531V381.543H45.0234L47.6895 388H48.5801L51.2461 381.543H51.3164V388H52.3008ZM56.8477 382.463C57.8496 382.463 58.5176 383.201 58.541 384.32H55.0605C55.1367 383.201 55.8398 382.463 56.8477 382.463ZM58.5117 386.365C58.248 386.922 57.6973 387.221 56.8828 387.221C55.8105 387.221 55.1133 386.43 55.0605 385.182V385.135H59.6016V384.748C59.6016 382.785 58.5645 381.572 56.8594 381.572C55.125 381.572 54.0117 382.861 54.0117 384.848C54.0117 386.846 55.1074 388.111 56.8594 388.111C58.2422 388.111 59.2266 387.443 59.5195 386.365H58.5117ZM61.0371 383.412C61.0371 384.326 61.5762 384.836 62.7598 385.123L63.8438 385.387C64.5176 385.551 64.8457 385.844 64.8457 386.277C64.8457 386.857 64.2363 387.262 63.3867 387.262C62.5781 387.262 62.0742 386.922 61.9043 386.389H60.8672C60.9785 387.438 61.9453 388.111 63.3516 388.111C64.7871 388.111 65.8828 387.332 65.8828 386.201C65.8828 385.293 65.3086 384.777 64.1191 384.49L63.1465 384.256C62.4023 384.074 62.0508 383.805 62.0508 383.371C62.0508 382.809 62.6367 382.428 63.3867 382.428C64.1484 382.428 64.6406 382.762 64.7754 383.266H65.7715C65.6367 382.229 64.7168 381.572 63.3926 381.572C62.0508 381.572 61.0371 382.363 61.0371 383.412ZM67.2012 383.412C67.2012 384.326 67.7402 384.836 68.9238 385.123L70.0078 385.387C70.6816 385.551 71.0098 385.844 71.0098 386.277C71.0098 386.857 70.4004 387.262 69.5508 387.262C68.7422 387.262 68.2383 386.922 68.0684 386.389H67.0312C67.1426 387.438 68.1094 388.111 69.5156 388.111C70.9512 388.111 72.0469 387.332 72.0469 386.201C72.0469 385.293 71.4727 384.777 70.2832 384.49L69.3105 384.256C68.5664 384.074 68.2148 383.805 68.2148 383.371C68.2148 382.809 68.8008 382.428 69.5508 382.428C70.3125 382.428 70.8047 382.762 70.9395 383.266H71.9355C71.8008 382.229 70.8809 381.572 69.5566 381.572C68.2148 381.572 67.2012 382.363 67.2012 383.412ZM75.5742 387.227C74.8418 387.227 74.2969 386.852 74.2969 386.207C74.2969 385.574 74.7188 385.24 75.6797 385.176L77.3789 385.064V385.645C77.3789 386.547 76.6113 387.227 75.5742 387.227ZM75.3867 388.111C76.2305 388.111 76.9219 387.742 77.332 387.068H77.4258V388H78.3867V383.676C78.3867 382.363 77.5254 381.572 75.9844 381.572C74.6367 381.572 73.6406 382.24 73.5059 383.254H74.5254C74.666 382.756 75.1934 382.469 75.9492 382.469C76.8926 382.469 77.3789 382.896 77.3789 383.676V384.25L75.5566 384.361C74.0859 384.449 73.2539 385.1 73.2539 386.23C73.2539 387.385 74.1621 388.111 75.3867 388.111ZM82.8047 387.016C81.6328 387.016 80.9766 386.125 80.9766 384.748C80.9766 383.371 81.6328 382.48 82.8047 382.48C83.9707 382.48 84.6797 383.371 84.6797 384.748C84.6797 386.125 83.9766 387.016 82.8047 387.016ZM82.8516 390.426C84.5742 390.426 85.6641 389.523 85.6641 388.111V381.684H84.7031V382.686H84.6094C84.2461 382.006 83.4668 381.572 82.582 381.572C80.959 381.572 79.9336 382.855 79.9336 384.748C79.9336 386.641 80.9473 387.906 82.582 387.906C83.4492 387.906 84.1641 387.514 84.5625 386.816H84.6562V388.059C84.6562 388.99 83.9824 389.547 82.8516 389.547C81.9434 389.547 81.3809 389.213 81.2695 388.697H80.2031C80.3555 389.74 81.3281 390.426 82.8516 390.426ZM90.082 382.463C91.084 382.463 91.752 383.201 91.7754 384.32H88.2949C88.3711 383.201 89.0742 382.463 90.082 382.463ZM91.7461 386.365C91.4824 386.922 90.9316 387.221 90.1172 387.221C89.0449 387.221 88.3477 386.43 88.2949 385.182V385.135H92.8359V384.748C92.8359 382.785 91.7988 381.572 90.0938 381.572C88.3594 381.572 87.2461 382.861 87.2461 384.848C87.2461 386.846 88.3418 388.111 90.0938 388.111C91.4766 388.111 92.4609 387.443 92.7539 386.365H91.7461ZM99.7852 387.051H95.6016V384.145H99.5684V383.207H95.6016V380.494H99.7852V379.545H94.5469V388H99.7852V387.051ZM106.723 381.684H105.645L103.916 386.887H103.822L102.094 381.684H101.016L103.354 388H104.385L106.723 381.684ZM110.355 382.463C111.357 382.463 112.025 383.201 112.049 384.32H108.568C108.645 383.201 109.348 382.463 110.355 382.463ZM112.02 386.365C111.756 386.922 111.205 387.221 110.391 387.221C109.318 387.221 108.621 386.43 108.568 385.182V385.135H113.109V384.748C113.109 382.785 112.072 381.572 110.367 381.572C108.633 381.572 107.52 382.861 107.52 384.848C107.52 386.846 108.615 388.111 110.367 388.111C111.75 388.111 112.734 387.443 113.027 386.365H112.02ZM114.691 388H115.699V384.262C115.699 383.154 116.35 382.48 117.357 382.48C118.365 382.48 118.846 383.02 118.846 384.156V388H119.854V383.91C119.854 382.41 119.062 381.572 117.645 381.572C116.678 381.572 116.062 381.982 115.746 382.68H115.652V381.684H114.691V388ZM122.121 380.049V381.684H121.102V382.527H122.121V386.359C122.121 387.566 122.643 388.047 123.943 388.047C124.143 388.047 124.336 388.023 124.535 387.988V387.139C124.348 387.156 124.248 387.162 124.066 387.162C123.41 387.162 123.129 386.846 123.129 386.102V382.527H124.535V381.684H123.129V380.049H122.121ZM126.17 386.611V387.672L131.83 385.105V384.215L126.17 381.66V382.721L130.617 384.672V384.725L126.17 386.611Z" fill="#3E4249"/>
<rect width="56" height="16" transform="translate(192 360)" fill="white"/>
<path d="M197.424 372H198.432V368.262C198.432 367.195 199.053 366.48 200.184 366.48C201.139 366.48 201.643 367.037 201.643 368.156V372H202.65V367.91C202.65 366.428 201.807 365.572 200.471 365.572C199.504 365.572 198.842 365.982 198.525 366.68H198.432V363.176H197.424V372ZM206.436 371.227C205.703 371.227 205.158 370.852 205.158 370.207C205.158 369.574 205.58 369.24 206.541 369.176L208.24 369.064V369.645C208.24 370.547 207.473 371.227 206.436 371.227ZM206.248 372.111C207.092 372.111 207.783 371.742 208.193 371.068H208.287V372H209.248V367.676C209.248 366.363 208.387 365.572 206.846 365.572C205.498 365.572 204.502 366.24 204.367 367.254H205.387C205.527 366.756 206.055 366.469 206.811 366.469C207.754 366.469 208.24 366.896 208.24 367.676V368.25L206.418 368.361C204.947 368.449 204.115 369.1 204.115 370.23C204.115 371.385 205.023 372.111 206.248 372.111ZM211.111 372H212.119V368.262C212.119 367.154 212.77 366.48 213.777 366.48C214.785 366.48 215.266 367.02 215.266 368.156V372H216.273V367.91C216.273 366.41 215.482 365.572 214.064 365.572C213.098 365.572 212.482 365.982 212.166 366.68H212.072V365.684H211.111V372ZM220.457 372.111C221.33 372.111 222.08 371.695 222.479 370.992H222.572V372H223.533V363.176H222.525V366.68H222.438C222.08 365.988 221.336 365.572 220.457 365.572C218.852 365.572 217.803 366.861 217.803 368.842C217.803 370.828 218.84 372.111 220.457 372.111ZM220.691 366.48C221.834 366.48 222.549 367.395 222.549 368.842C222.549 370.301 221.84 371.203 220.691 371.203C219.537 371.203 218.846 370.318 218.846 368.842C218.846 367.371 219.543 366.48 220.691 366.48ZM225.549 372H226.557V363.176H225.549V372ZM231.033 366.463C232.035 366.463 232.703 367.201 232.727 368.32H229.246C229.322 367.201 230.025 366.463 231.033 366.463ZM232.697 370.365C232.434 370.922 231.883 371.221 231.068 371.221C229.996 371.221 229.299 370.43 229.246 369.182V369.135H233.787V368.748C233.787 366.785 232.75 365.572 231.045 365.572C229.311 365.572 228.197 366.861 228.197 368.848C228.197 370.846 229.293 372.111 231.045 372.111C232.428 372.111 233.412 371.443 233.705 370.365H232.697ZM235.838 368.484C235.838 370.6 236.377 372.311 237.502 373.799H238.357C237.52 372.732 236.875 370.477 236.875 368.484C236.875 366.504 237.525 364.242 238.357 363.176H237.502C236.377 364.664 235.838 366.375 235.838 368.484ZM242.166 368.49C242.166 366.375 241.627 364.664 240.502 363.176H239.646C240.484 364.242 241.129 366.498 241.129 368.49C241.129 370.471 240.479 372.732 239.646 373.799H240.502C241.627 372.311 242.166 370.6 242.166 368.49Z" fill="#3E4249"/>
<defs>
<filter id="filter0_d" x="543" y="78" width="34" height="22" filterUnits="userSpaceOnUse" color-interpolation-filters="sRGB">
<feFlood flood-opacity="0" result="BackgroundImageFix"/>
<feColorMatrix in="SourceAlpha" type="matrix" values="0 0 0 0 0 0 0 0 0 0 0 0 0 0 0 0 0 0 127 0"/>
<feOffset dy="1"/>
<feGaussianBlur stdDeviation="0.5"/>
<feColorMatrix type="matrix" values="0 0 0 0 0 0 0 0 0 0 0 0 0 0 0 0 0 0 0.08 0"/>
<feBlend mode="normal" in2="BackgroundImageFix" result="effect1_dropShadow"/>
<feBlend mode="normal" in="SourceGraphic" in2="effect1_dropShadow" result="shape"/>
</filter>
<filter id="filter1_d" x="527" y="155" width="34" height="22" filterUnits="userSpaceOnUse" color-interpolation-filters="sRGB">
<feFlood flood-opacity="0" result="BackgroundImageFix"/>
<feColorMatrix in="SourceAlpha" type="matrix" values="0 0 0 0 0 0 0 0 0 0 0 0 0 0 0 0 0 0 127 0"/>
<feOffset dy="1"/>
<feGaussianBlur stdDeviation="0.5"/>
<feColorMatrix type="matrix" values="0 0 0 0 0 0 0 0 0 0 0 0 0 0 0 0 0 0 0.08 0"/>
<feBlend mode="normal" in2="BackgroundImageFix" result="effect1_dropShadow"/>
<feBlend mode="normal" in="SourceGraphic" in2="effect1_dropShadow" result="shape"/>
</filter>
<filter id="filter2_d" x="439" y="155" width="34" height="22" filterUnits="userSpaceOnUse" color-interpolation-filters="sRGB">
<feFlood flood-opacity="0" result="BackgroundImageFix"/>
<feColorMatrix in="SourceAlpha" type="matrix" values="0 0 0 0 0 0 0 0 0 0 0 0 0 0 0 0 0 0 127 0"/>
<feOffset dy="1"/>
<feGaussianBlur stdDeviation="0.5"/>
<feColorMatrix type="matrix" values="0 0 0 0 0 0 0 0 0 0 0 0 0 0 0 0 0 0 0.08 0"/>
<feBlend mode="normal" in2="BackgroundImageFix" result="effect1_dropShadow"/>
<feBlend mode="normal" in="SourceGraphic" in2="effect1_dropShadow" result="shape"/>
</filter>
<filter id="filter3_d" x="381" y="197" width="34" height="22" filterUnits="userSpaceOnUse" color-interpolation-filters="sRGB">
<feFlood flood-opacity="0" result="BackgroundImageFix"/>
<feColorMatrix in="SourceAlpha" type="matrix" values="0 0 0 0 0 0 0 0 0 0 0 0 0 0 0 0 0 0 127 0"/>
<feOffset dy="1"/>
<feGaussianBlur stdDeviation="0.5"/>
<feColorMatrix type="matrix" values="0 0 0 0 0 0 0 0 0 0 0 0 0 0 0 0 0 0 0.08 0"/>
<feBlend mode="normal" in2="BackgroundImageFix" result="effect1_dropShadow"/>
<feBlend mode="normal" in="SourceGraphic" in2="effect1_dropShadow" result="shape"/>
</filter>
<filter id="filter4_d" x="31" y="295" width="34" height="22" filterUnits="userSpaceOnUse" color-interpolation-filters="sRGB">
<feFlood flood-opacity="0" result="BackgroundImageFix"/>
<feColorMatrix in="SourceAlpha" type="matrix" values="0 0 0 0 0 0 0 0 0 0 0 0 0 0 0 0 0 0 127 0"/>
<feOffset dy="1"/>
<feGaussianBlur stdDeviation="0.5"/>
<feColorMatrix type="matrix" values="0 0 0 0 0 0 0 0 0 0 0 0 0 0 0 0 0 0 0.08 0"/>
<feBlend mode="normal" in2="BackgroundImageFix" result="effect1_dropShadow"/>
<feBlend mode="normal" in="SourceGraphic" in2="effect1_dropShadow" result="shape"/>
</filter>
<filter id="filter5_d" x="195" y="215" width="34" height="22" filterUnits="userSpaceOnUse" color-interpolation-filters="sRGB">
<feFlood flood-opacity="0" result="BackgroundImageFix"/>
<feColorMatrix in="SourceAlpha" type="matrix" values="0 0 0 0 0 0 0 0 0 0 0 0 0 0 0 0 0 0 127 0"/>
<feOffset dy="1"/>
<feGaussianBlur stdDeviation="0.5"/>
<feColorMatrix type="matrix" values="0 0 0 0 0 0 0 0 0 0 0 0 0 0 0 0 0 0 0.08 0"/>
<feBlend mode="normal" in2="BackgroundImageFix" result="effect1_dropShadow"/>
<feBlend mode="normal" in="SourceGraphic" in2="effect1_dropShadow" result="shape"/>
</filter>
<filter id="filter6_d" x="303" y="231" width="34" height="22" filterUnits="userSpaceOnUse" color-interpolation-filters="sRGB">
<feFlood flood-opacity="0" result="BackgroundImageFix"/>
<feColorMatrix in="SourceAlpha" type="matrix" values="0 0 0 0 0 0 0 0 0 0 0 0 0 0 0 0 0 0 127 0"/>
<feOffset dy="1"/>
<feGaussianBlur stdDeviation="0.5"/>
<feColorMatrix type="matrix" values="0 0 0 0 0 0 0 0 0 0 0 0 0 0 0 0 0 0 0.08 0"/>
<feBlend mode="normal" in2="BackgroundImageFix" result="effect1_dropShadow"/>
<feBlend mode="normal" in="SourceGraphic" in2="effect1_dropShadow" result="shape"/>
</filter>
</defs>
</svg>
