<svg width="744" height="376" viewBox="0 0 744 376" fill="none" xmlns="http://www.w3.org/2000/svg">
<rect width="744" height="376" fill="white"/>
<path d="M20 96C20 78.3269 34.3269 64 52 64C69.6731 64 84 78.3269 84 96C84 113.673 69.6731 128 52 128C34.3269 128 20 113.673 20 96Z" fill="white"/>
<path d="M38 98C38 92.4772 42.4772 88 48 88H56C61.5228 88 66 92.4772 66 98V106.93C66 107.598 65.6566 108.209 65.0295 108.441C63.4394 109.03 59.6587 110 52 110C44.3413 110 40.5606 109.03 38.9705 108.441C38.3434 108.209 38 107.598 38 106.93V98Z" fill="white"/>
<path d="M47 97.5C47 96.6716 47.6716 96 48.5 96C49.3284 96 50 96.6716 50 97.5V99.5C50 100.328 49.3284 101 48.5 101C47.6716 101 47 100.328 47 99.5V97.5Z" fill="#000028"/>
<path d="M55.5 96C54.6716 96 54 96.6716 54 97.5V99.5C54 100.328 54.6716 101 55.5 101C56.3284 101 57 100.328 57 99.5V97.5C57 96.6716 56.3284 96 55.5 96Z" fill="#000028"/>
<path fill-rule="evenodd" clip-rule="evenodd" d="M53 84.8293C54.1652 84.4175 55 83.3062 55 82C55 80.3431 53.6569 79 52 79C50.3431 79 49 80.3431 49 82C49 83.3062 49.8348 84.4175 51 84.8293V88H48C42.4772 88 38 92.4772 38 98V106.93C38 107.598 38.3434 108.209 38.9705 108.441C40.5606 109.03 44.3413 110 52 110C59.6587 110 63.4394 109.03 65.0295 108.441C65.6566 108.209 66 107.598 66 106.93V98C66 92.4772 61.5228 88 56 88H53V84.8293ZM48 90C43.5817 90 40 93.5817 40 98V106.683C41.5244 107.187 45.0644 108 52 108C58.9356 108 62.4756 107.187 64 106.683V98C64 93.5817 60.4183 90 56 90H48Z" fill="#000028"/>
<path d="M52 126C35.4315 126 22 112.569 22 96H18C18 114.778 33.2223 130 52 130V126ZM82 96C82 112.569 68.5685 126 52 126V130C70.7777 130 86 114.778 86 96H82ZM52 66C68.5685 66 82 79.4315 82 96H86C86 77.2223 70.7777 62 52 62V66ZM52 62C33.2223 62 18 77.2223 18 96H22C22 79.4315 35.4315 66 52 66V62Z" fill="#EAEBEC"/>
<path d="M20 248C20 230.327 34.3269 216 52 216C69.6731 216 84 230.327 84 248C84 265.673 69.6731 280 52 280C34.3269 280 20 265.673 20 248Z" fill="white"/>
<path d="M39.1473 233.545C38.4312 233.792 38 234.479 38 235.236V260.764C38 261.521 38.4312 262.208 39.1473 262.455C40.856 263.046 44.4736 264 50 264C54 264 57 263.5 59 263C59.4648 262.884 59.8756 262.768 60.2324 262.658L63.6059 261.721C66.2028 260.999 68 258.635 68 255.939V248C68 246.895 67.1046 246 66 246H62V235.236C62 234.479 61.5688 233.792 60.8527 233.545C59.1439 232.954 55.5264 232 50 232C44.4736 232 40.8561 232.954 39.1473 233.545Z" fill="white"/>
<path d="M59.9648 261.694L59.9513 261.698L59.938 261.702C59.5981 261.807 59.2046 261.918 58.7575 262.03C56.8343 262.511 53.9158 263 50 263C44.591 263 41.0836 262.066 39.4738 261.51L39.1473 262.455L39.4737 261.51C39.2108 261.419 39 261.15 39 260.764V235.236C39 234.85 39.2108 234.581 39.4738 234.49C41.0836 233.934 44.591 233 50 233C55.409 233 58.9164 233.934 60.5262 234.49C60.7892 234.581 61 234.85 61 235.236V246V247H62H66C66.5523 247 67 247.448 67 248V255.939C67 258.186 65.5023 260.156 63.3382 260.757L59.9648 261.694Z" fill="white" stroke="#000028" stroke-width="2"/>
<rect x="60" y="246" width="2" height="15" fill="#000028"/>
<rect x="44" y="247" width="12" height="2" rx="1" fill="#000028"/>
<rect x="44" y="240" width="12" height="2" rx="1" fill="#000028"/>
<rect x="44" y="254" width="12" height="2" rx="1" fill="#000028"/>
<path d="M52 278C35.4315 278 22 264.569 22 248H18C18 266.778 33.2223 282 52 282V278ZM82 248C82 264.569 68.5685 278 52 278V282C70.7777 282 86 266.778 86 248H82ZM52 218C68.5685 218 82 231.431 82 248H86C86 229.222 70.7777 214 52 214V218ZM52 214C33.2223 214 18 229.222 18 248H22C22 231.431 35.4315 218 52 218V214Z" fill="#EAEBEC"/>
<path d="M340 96C340 78.3269 354.327 64 372 64C389.673 64 404 78.3269 404 96C404 113.673 389.673 128 372 128C354.327 128 340 113.673 340 96Z" fill="white"/>
<path d="M358 83.2327C358 82.4751 358.431 81.7925 359.152 81.5588C360.967 80.9701 365.023 79.9966 372 79.9966C378.977 79.9966 383.033 80.9701 384.848 81.5588C385.569 81.7925 386 82.4751 386 83.2327V108.761C386 109.518 385.569 110.201 384.848 110.434C383.033 111.023 378.977 111.997 372 111.997C365.023 111.997 360.967 111.023 359.152 110.434C358.431 110.201 358 109.518 358 108.761V83.2327Z" fill="white"/>
<path d="M359 83.2327C359 82.846 359.209 82.5916 359.46 82.51C361.166 81.9569 365.117 80.9966 372 80.9966C378.883 80.9966 382.834 81.9569 384.54 82.51C384.791 82.5916 385 82.846 385 83.2327V108.761C385 109.147 384.791 109.402 384.54 109.483C382.834 110.036 378.883 110.997 372 110.997C365.117 110.997 361.166 110.036 359.46 109.483C359.209 109.402 359 109.147 359 108.761V83.2327Z" fill="white" stroke="#000028" stroke-width="2"/>
<path d="M365.5 87.9966C366.328 87.9966 367 88.6682 367 89.4966C367 90.325 366.328 90.9966 365.5 90.9966C364.672 90.9966 364 90.325 364 89.4966C364 88.6682 364.672 87.9966 365.5 87.9966Z" fill="#000028"/>
<path d="M365.5 94.4966C366.328 94.4966 367 95.1682 367 95.9966C367 96.825 366.328 97.4966 365.5 97.4966C364.672 97.4966 364 96.825 364 95.9966C364 95.1682 364.672 94.4966 365.5 94.4966Z" fill="#000028"/>
<path d="M373 101.997C372.448 101.997 372 102.444 372 102.997C372 103.549 372.448 103.997 373 103.997V101.997ZM379 103.997C379.552 103.997 380 103.549 380 102.997C380 102.444 379.552 101.997 379 101.997L379 103.997ZM373 103.997L379 103.997L379 101.997L373 101.997V103.997Z" fill="#000028"/>
<path d="M370 94.9966C369.448 94.9966 369 95.4443 369 95.9966C369 96.5489 369.448 96.9966 370 96.9966L370 94.9966ZM379 96.9966C379.552 96.9966 380 96.5489 380 95.9966C380 95.4443 379.552 94.9966 379 94.9966L379 96.9966ZM370 96.9966L379 96.9966L379 94.9966L370 94.9966L370 96.9966Z" fill="#000028"/>
<path d="M370 88.4966C369.448 88.4966 369 88.9443 369 89.4966C369 90.0489 369.448 90.4966 370 90.4966L370 88.4966ZM379 90.4966C379.552 90.4966 380 90.0489 380 89.4966C380 88.9443 379.552 88.4966 379 88.4966L379 90.4966ZM370 90.4966L379 90.4966L379 88.4966L370 88.4966L370 90.4966Z" fill="#000028"/>
<path d="M372 126C355.431 126 342 112.569 342 96H338C338 114.778 353.222 130 372 130V126ZM402 96C402 112.569 388.569 126 372 126V130C390.778 130 406 114.778 406 96H402ZM372 66C388.569 66 402 79.4315 402 96H406C406 77.2223 390.778 62 372 62V66ZM372 62C353.222 62 338 77.2223 338 96H342C342 79.4315 355.431 66 372 66V62Z" fill="#EAEBEC"/>
<path d="M660 104C660 86.3269 674.327 72 692 72C709.673 72 724 86.3269 724 104C724 121.673 709.673 136 692 136C674.327 136 660 121.673 660 104Z" fill="white"/>
<circle cx="692" cy="104" r="15" fill="white" stroke="#000028" stroke-width="2" stroke-linecap="round" stroke-linejoin="round"/>
<mask id="mask0" mask-type="alpha" maskUnits="userSpaceOnUse" x="676" y="88" width="32" height="32">
<circle cx="692" cy="104" r="15" fill="white" stroke="#000028" stroke-width="2" stroke-linecap="round" stroke-linejoin="round"/>
</mask>
<g mask="url(#mask0)">
<circle cx="704" cy="85" r="15" fill="white" stroke="#000028" stroke-width="2" stroke-linecap="round" stroke-linejoin="round"/>
<circle cx="687" cy="106" r="3" stroke="#000028" stroke-width="2" stroke-linecap="round" stroke-linejoin="round"/>
<circle cx="697" cy="106" r="3" stroke="#000028" stroke-width="2" stroke-linecap="round" stroke-linejoin="round"/>
</g>
<circle cx="692" cy="104" r="15" stroke="#000028" stroke-width="2" stroke-linecap="round" stroke-linejoin="round"/>
<path d="M692 134C675.431 134 662 120.569 662 104H658C658 122.778 673.222 138 692 138V134ZM722 104C722 120.569 708.569 134 692 134V138C710.778 138 726 122.778 726 104H722ZM692 74C708.569 74 722 87.4315 722 104H726C726 85.2223 710.778 70 692 70V74ZM692 70C673.222 70 658 85.2223 658 104H662C662 87.4315 675.431 74 692 74V70Z" fill="#EAEBEC"/>
<path d="M660 208C660 190.327 674.327 176 692 176C709.673 176 724 190.327 724 208C724 225.673 709.673 240 692 240C674.327 240 660 225.673 660 208Z" fill="white"/>
<circle cx="692" cy="208" r="15" fill="white" stroke="#000028" stroke-width="2" stroke-linecap="round" stroke-linejoin="round"/>
<mask id="mask1" mask-type="alpha" maskUnits="userSpaceOnUse" x="676" y="192" width="32" height="32">
<circle cx="692" cy="208" r="15" fill="white" stroke="#000028" stroke-width="2" stroke-linecap="round" stroke-linejoin="round"/>
</mask>
<g mask="url(#mask1)">
<circle cx="704" cy="189" r="15" fill="white" stroke="#000028" stroke-width="2" stroke-linecap="round" stroke-linejoin="round"/>
<circle cx="687" cy="210" r="3" stroke="#000028" stroke-width="2" stroke-linecap="round" stroke-linejoin="round"/>
<circle cx="697" cy="210" r="3" stroke="#000028" stroke-width="2" stroke-linecap="round" stroke-linejoin="round"/>
</g>
<circle cx="692" cy="208" r="15" stroke="#000028" stroke-width="2" stroke-linecap="round" stroke-linejoin="round"/>
<path d="M692 238C675.431 238 662 224.569 662 208H658C658 226.778 673.222 242 692 242V238ZM722 208C722 224.569 708.569 238 692 238V242C710.778 242 726 226.778 726 208H722ZM692 178C708.569 178 722 191.431 722 208H726C726 189.222 710.778 174 692 174V178ZM692 174C673.222 174 658 189.222 658 208H662C662 191.431 675.431 178 692 178V174Z" fill="#EAEBEC"/>
<path d="M660 312C660 294.327 674.327 280 692 280C709.673 280 724 294.327 724 312C724 329.673 709.673 344 692 344C674.327 344 660 329.673 660 312Z" fill="white"/>
<circle cx="692" cy="312" r="15" fill="white" stroke="#000028" stroke-width="2" stroke-linecap="round" stroke-linejoin="round"/>
<mask id="mask2" mask-type="alpha" maskUnits="userSpaceOnUse" x="676" y="296" width="32" height="32">
<circle cx="692" cy="312" r="15" fill="white" stroke="#000028" stroke-width="2" stroke-linecap="round" stroke-linejoin="round"/>
</mask>
<g mask="url(#mask2)">
<circle cx="704" cy="293" r="15" fill="white" stroke="#000028" stroke-width="2" stroke-linecap="round" stroke-linejoin="round"/>
<circle cx="687" cy="314" r="3" stroke="#000028" stroke-width="2" stroke-linecap="round" stroke-linejoin="round"/>
<circle cx="697" cy="314" r="3" stroke="#000028" stroke-width="2" stroke-linecap="round" stroke-linejoin="round"/>
</g>
<circle cx="692" cy="312" r="15" stroke="#000028" stroke-width="2" stroke-linecap="round" stroke-linejoin="round"/>
<path d="M692 342C675.431 342 662 328.569 662 312H658C658 330.778 673.222 346 692 346V342ZM722 312C722 328.569 708.569 342 692 342V346C710.778 346 726 330.778 726 312H722ZM692 282C708.569 282 722 295.431 722 312H726C726 293.222 710.778 278 692 278V282ZM692 278C673.222 278 658 293.222 658 312H662C662 295.431 675.431 282 692 282V278Z" fill="#EAEBEC"/>
<path d="M96.5 95.25C96.0858 95.25 95.75 95.5858 95.75 96C95.75 96.4142 96.0858 96.75 96.5 96.75V95.25ZM232.03 96.5303C232.323 96.2374 232.323 95.7626 232.03 95.4697L227.257 90.6967C226.964 90.4038 226.49 90.4038 226.197 90.6967C225.904 90.9896 225.904 91.4645 226.197 91.7574L230.439 96L226.197 100.243C225.904 100.536 225.904 101.01 226.197 101.303C226.49 101.596 226.964 101.596 227.257 101.303L232.03 96.5303ZM96.5 96.75L231.5 96.75V95.25L96.5 95.25V96.75Z" fill="#008EFF"/>
<path d="M231.5 248.75C231.914 248.75 232.25 248.414 232.25 248C232.25 247.586 231.914 247.25 231.5 247.25L231.5 248.75ZM95.9697 247.47C95.6768 247.763 95.6768 248.237 95.9697 248.53L100.743 253.303C101.036 253.596 101.51 253.596 101.803 253.303C102.096 253.01 102.096 252.536 101.803 252.243L97.5607 248L101.803 243.757C102.096 243.464 102.096 242.99 101.803 242.697C101.51 242.404 101.036 242.404 100.743 242.697L95.9697 247.47ZM231.5 247.25L96.5 247.25L96.5 248.75L231.5 248.75L231.5 247.25Z" fill="#008EFF"/>
<path d="M231.5 280.75C231.914 280.75 232.25 280.414 232.25 280C232.25 279.586 231.914 279.25 231.5 279.25L231.5 280.75ZM95.9697 279.47C95.6768 279.763 95.6768 280.237 95.9697 280.53L100.743 285.303C101.036 285.596 101.51 285.596 101.803 285.303C102.096 285.01 102.096 284.536 101.803 284.243L97.5607 280L101.803 275.757C102.096 275.464 102.096 274.99 101.803 274.697C101.51 274.404 101.036 274.404 100.743 274.697L95.9697 279.47ZM231.5 279.25L96.5 279.25L96.5 280.75L231.5 280.75L231.5 279.25Z" fill="#008EFF"/>
<path d="M231.5 216.75C231.914 216.75 232.25 216.414 232.25 216C232.25 215.586 231.914 215.25 231.5 215.25L231.5 216.75ZM95.9697 215.47C95.6768 215.763 95.6768 216.237 95.9697 216.53L100.743 221.303C101.036 221.596 101.51 221.596 101.803 221.303C102.096 221.01 102.096 220.536 101.803 220.243L97.5607 216L101.803 211.757C102.096 211.464 102.096 210.99 101.803 210.697C101.51 210.404 101.036 210.404 100.743 210.697L95.9697 215.47ZM231.5 215.25L96.5 215.25L96.5 216.75L231.5 216.75L231.5 215.25Z" fill="#008EFF"/>
<path d="M51.25 207.5C51.25 207.914 51.5858 208.25 52 208.25C52.4142 208.25 52.75 207.914 52.75 207.5L51.25 207.5ZM52.5303 159.97C52.2374 159.677 51.7626 159.677 51.4697 159.97L46.6967 164.743C46.4038 165.036 46.4038 165.51 46.6967 165.803C46.9896 166.096 47.4645 166.096 47.7574 165.803L52 161.561L56.2426 165.803C56.5355 166.096 57.0104 166.096 57.3033 165.803C57.5962 165.51 57.5962 165.036 57.3033 164.743L52.5303 159.97ZM52.75 207.5L52.75 160.5L51.25 160.5L51.25 207.5L52.75 207.5Z" fill="#008EFF"/>
<path d="M647.5 104.75C647.914 104.75 648.25 104.414 648.25 104C648.25 103.586 647.914 103.25 647.5 103.25L647.5 104.75ZM511.97 103.47C511.677 103.763 511.677 104.237 511.97 104.53L516.743 109.303C517.036 109.596 517.51 109.596 517.803 109.303C518.096 109.01 518.096 108.536 517.803 108.243L513.561 104L517.803 99.7573C518.096 99.4645 518.096 98.9896 517.803 98.6967C517.51 98.4038 517.036 98.4038 516.743 98.6967L511.97 103.47ZM647.5 103.25L512.5 103.25L512.5 104.75L647.5 104.75L647.5 103.25Z" fill="#008EFF"/>
<path d="M647.5 208.75C647.914 208.75 648.25 208.414 648.25 208C648.25 207.586 647.914 207.25 647.5 207.25L647.5 208.75ZM511.97 207.47C511.677 207.763 511.677 208.237 511.97 208.53L516.743 213.303C517.036 213.596 517.51 213.596 517.803 213.303C518.096 213.01 518.096 212.536 517.803 212.243L513.561 208L517.803 203.757C518.096 203.464 518.096 202.99 517.803 202.697C517.51 202.404 517.036 202.404 516.743 202.697L511.97 207.47ZM647.5 207.25L512.5 207.25L512.5 208.75L647.5 208.75L647.5 207.25Z" fill="#008EFF"/>
<path d="M647.5 312.75C647.914 312.75 648.25 312.414 648.25 312C648.25 311.586 647.914 311.25 647.5 311.25L647.5 312.75ZM511.97 311.47C511.677 311.763 511.677 312.237 511.97 312.53L516.743 317.303C517.036 317.596 517.51 317.596 517.803 317.303C518.096 317.01 518.096 316.536 517.803 316.243L513.561 312L517.803 307.757C518.096 307.464 518.096 306.99 517.803 306.697C517.51 306.404 517.036 306.404 516.743 306.697L511.97 311.47ZM647.5 311.25L512.5 311.25L512.5 312.75L647.5 312.75L647.5 311.25Z" fill="#008EFF"/>
<rect width="96" height="16" transform="translate(4 136)" fill="white"/>
<path d="M8.83398 145.65C8.89844 147.227 10.2051 148.217 12.2207 148.217C14.3418 148.217 15.6484 147.174 15.6484 145.469C15.6484 144.156 14.916 143.424 13.2168 143.066L12.1973 142.85C11.207 142.639 10.8027 142.34 10.8027 141.818C10.8027 141.174 11.3887 140.764 12.2734 140.764C13.1289 140.764 13.75 141.209 13.832 141.877H15.4961C15.4434 140.371 14.125 139.328 12.2617 139.328C10.3105 139.328 9.02734 140.377 9.02734 141.971C9.02734 143.26 9.7832 144.062 11.3242 144.385L12.4258 144.619C13.4629 144.842 13.8848 145.152 13.8848 145.691C13.8848 146.33 13.2344 146.775 12.3145 146.775C11.3184 146.775 10.627 146.336 10.5449 145.65H8.83398ZM17.957 150.35C19.5684 150.35 20.3594 149.764 20.9102 148.1L23.1367 141.537H21.332L19.9727 146.436H19.8672L18.5078 141.537H16.627L18.8945 148.041L18.8359 148.275C18.6953 148.768 18.332 148.973 17.6934 148.973C17.623 148.973 17.3652 148.973 17.3066 148.961V150.332C17.377 150.344 17.8926 150.35 17.957 150.35ZM24.3262 148H26.0312V144.109C26.0312 143.389 26.5059 142.867 27.1738 142.867C27.8418 142.867 28.2402 143.26 28.2402 143.945V148H29.8809V144.045C29.8809 143.359 30.3262 142.867 31.0176 142.867C31.7383 142.867 32.0957 143.248 32.0957 144.016V148H33.8008V143.564C33.8008 142.234 32.998 141.396 31.709 141.396C30.8066 141.396 30.0625 141.871 29.7637 142.592H29.6582C29.4004 141.842 28.7793 141.396 27.8711 141.396C27.0215 141.396 26.3477 141.854 26.084 142.592H25.9785V141.537H24.3262V148ZM39.1914 141.432C38.3008 141.432 37.5684 141.871 37.2168 142.598H37.1113V141.537H35.459V150.145H37.1641V147.01H37.2695C37.5859 147.695 38.2949 148.1 39.2207 148.1C40.8379 148.1 41.8281 146.852 41.8281 144.766C41.8281 142.674 40.8262 141.432 39.1914 141.432ZM38.6113 146.676C37.709 146.676 37.1465 145.955 37.1465 144.771C37.1465 143.588 37.709 142.861 38.6172 142.861C39.5254 142.861 40.0762 143.582 40.0762 144.766C40.0762 145.961 39.5312 146.676 38.6113 146.676ZM43.2754 148H44.9805V144.291C44.9805 143.453 45.4727 142.885 46.3281 142.885C47.1016 142.885 47.5176 143.348 47.5176 144.244V148H49.2227V143.84C49.2227 142.287 48.3965 141.414 47.0078 141.414C46.0586 141.414 45.3555 141.859 45.0566 142.598H44.9512V139.07H43.2754V148ZM53.7461 148.141C55.7324 148.141 56.9277 146.881 56.9277 144.766C56.9277 142.668 55.7148 141.396 53.7461 141.396C51.7773 141.396 50.5645 142.674 50.5645 144.766C50.5645 146.881 51.7598 148.141 53.7461 148.141ZM53.7461 146.746C52.832 146.746 52.3164 146.025 52.3164 144.766C52.3164 143.523 52.8379 142.791 53.7461 142.791C54.6484 142.791 55.1758 143.523 55.1758 144.766C55.1758 146.02 54.6543 146.746 53.7461 146.746ZM58.3223 148H60.0273V144.273C60.0273 143.424 60.5137 142.867 61.3047 142.867C62.1133 142.867 62.4941 143.336 62.4941 144.227V148H64.1992V143.822C64.1992 142.275 63.4258 141.396 61.9902 141.396C61.0352 141.396 60.3789 141.848 60.0801 142.574H59.9746V141.537H58.3223V148ZM66.4844 150.35C68.0957 150.35 68.8867 149.764 69.4375 148.1L71.6641 141.537H69.8594L68.5 146.436H68.3945L67.0352 141.537H65.1543L67.4219 148.041L67.3633 148.275C67.2227 148.768 66.8594 148.973 66.2207 148.973C66.1504 148.973 65.8926 148.973 65.834 148.961V150.332C65.9043 150.344 66.4199 150.35 66.4844 150.35ZM79.9141 148C81.7188 148 82.8379 147.062 82.8379 145.58C82.8379 144.49 82.0234 143.646 80.9043 143.564V143.459C81.7715 143.33 82.4336 142.551 82.4336 141.654C82.4336 140.348 81.4551 139.545 79.8145 139.545H76.1172V148H79.9141ZM77.8867 140.898H79.3633C80.207 140.898 80.6934 141.303 80.6934 141.977C80.6934 142.656 80.1719 143.049 79.2168 143.049H77.8867V140.898ZM77.8867 146.646V144.244H79.4219C80.4648 144.244 81.0332 144.654 81.0332 145.428C81.0332 146.219 80.4824 146.646 79.4629 146.646H77.8867ZM87.1328 148.141C89.1191 148.141 90.3145 146.881 90.3145 144.766C90.3145 142.668 89.1016 141.396 87.1328 141.396C85.1641 141.396 83.9512 142.674 83.9512 144.766C83.9512 146.881 85.1465 148.141 87.1328 148.141ZM87.1328 146.746C86.2188 146.746 85.7031 146.025 85.7031 144.766C85.7031 143.523 86.2246 142.791 87.1328 142.791C88.0352 142.791 88.5625 143.523 88.5625 144.766C88.5625 146.02 88.041 146.746 87.1328 146.746ZM92.1953 140.002V141.602H91.1875V142.943H92.1953V146.254C92.1953 147.514 92.8164 148.023 94.3867 148.023C94.7148 148.023 95.0312 147.988 95.2422 147.947V146.646C95.0781 146.664 94.9609 146.67 94.7383 146.67C94.1582 146.67 93.9004 146.412 93.9004 145.85V142.943H95.2422V141.602H93.9004V140.002H92.1953Z" fill="#3E4249"/>
<rect width="88" height="16" transform="translate(120 208)" fill="white"/>
<path d="M125.047 217.791C125.158 219.25 126.395 220.199 128.188 220.199C130.121 220.199 131.346 219.209 131.346 217.656C131.346 216.414 130.643 215.734 128.891 215.295L128.006 215.061C126.84 214.762 126.377 214.381 126.377 213.719C126.377 212.863 127.121 212.301 128.246 212.301C129.301 212.301 130.016 212.816 130.162 213.684H131.223C131.135 212.318 129.916 211.346 128.281 211.346C126.494 211.346 125.293 212.318 125.293 213.754C125.293 214.955 125.955 215.646 127.484 216.033L128.568 216.314C129.734 216.607 130.262 217.064 130.262 217.785C130.262 218.623 129.424 219.238 128.287 219.238C127.086 219.238 126.242 218.676 126.113 217.791H125.047ZM133.396 212.049V213.684H132.377V214.527H133.396V218.359C133.396 219.566 133.918 220.047 135.219 220.047C135.418 220.047 135.611 220.023 135.811 219.988V219.139C135.623 219.156 135.523 219.162 135.342 219.162C134.686 219.162 134.404 218.846 134.404 218.102V214.527H135.811V213.684H134.404V212.049H133.396ZM137.334 220H138.342V216.086C138.342 215.195 139.039 214.551 140 214.551C140.199 214.551 140.562 214.586 140.645 214.609V213.602C140.516 213.584 140.305 213.572 140.141 213.572C139.303 213.572 138.576 214.006 138.389 214.621H138.295V213.684H137.334V220ZM144.248 214.463C145.25 214.463 145.918 215.201 145.941 216.32H142.461C142.537 215.201 143.24 214.463 144.248 214.463ZM145.912 218.365C145.648 218.922 145.098 219.221 144.283 219.221C143.211 219.221 142.514 218.43 142.461 217.182V217.135H147.002V216.748C147.002 214.785 145.965 213.572 144.26 213.572C142.525 213.572 141.412 214.861 141.412 216.848C141.412 218.846 142.508 220.111 144.26 220.111C145.643 220.111 146.627 219.443 146.92 218.365H145.912ZM150.529 219.227C149.797 219.227 149.252 218.852 149.252 218.207C149.252 217.574 149.674 217.24 150.635 217.176L152.334 217.064V217.645C152.334 218.547 151.566 219.227 150.529 219.227ZM150.342 220.111C151.186 220.111 151.877 219.742 152.287 219.068H152.381V220H153.342V215.676C153.342 214.363 152.48 213.572 150.939 213.572C149.592 213.572 148.596 214.24 148.461 215.254H149.48C149.621 214.756 150.148 214.469 150.904 214.469C151.848 214.469 152.334 214.896 152.334 215.676V216.25L150.512 216.361C149.041 216.449 148.209 217.1 148.209 218.23C148.209 219.385 149.117 220.111 150.342 220.111ZM155.205 220H156.213V216.086C156.213 215.195 156.852 214.48 157.678 214.48C158.475 214.48 158.996 214.961 158.996 215.711V220H160.004V215.939C160.004 215.137 160.59 214.48 161.469 214.48C162.359 214.48 162.799 214.938 162.799 215.869V220H163.807V215.635C163.807 214.311 163.086 213.572 161.797 213.572C160.924 213.572 160.203 214.012 159.863 214.68H159.77C159.477 214.023 158.879 213.572 158.023 213.572C157.18 213.572 156.547 213.977 156.26 214.68H156.166V213.684H155.205V220ZM170.205 211.545H169.15V217.094C169.15 218.898 170.41 220.199 172.508 220.199C174.605 220.199 175.865 218.898 175.865 217.094V211.545H174.811V217.023C174.811 218.301 173.973 219.227 172.508 219.227C171.043 219.227 170.205 218.301 170.205 217.023V211.545ZM177.734 215.412C177.734 216.326 178.273 216.836 179.457 217.123L180.541 217.387C181.215 217.551 181.543 217.844 181.543 218.277C181.543 218.857 180.934 219.262 180.084 219.262C179.275 219.262 178.771 218.922 178.602 218.389H177.564C177.676 219.438 178.643 220.111 180.049 220.111C181.484 220.111 182.58 219.332 182.58 218.201C182.58 217.293 182.006 216.777 180.816 216.49L179.844 216.256C179.1 216.074 178.748 215.805 178.748 215.371C178.748 214.809 179.334 214.428 180.084 214.428C180.846 214.428 181.338 214.762 181.473 215.266H182.469C182.334 214.229 181.414 213.572 180.09 213.572C178.748 213.572 177.734 214.363 177.734 215.412ZM186.682 214.463C187.684 214.463 188.352 215.201 188.375 216.32H184.895C184.971 215.201 185.674 214.463 186.682 214.463ZM188.346 218.365C188.082 218.922 187.531 219.221 186.717 219.221C185.645 219.221 184.947 218.43 184.895 217.182V217.135H189.436V216.748C189.436 214.785 188.398 213.572 186.693 213.572C184.959 213.572 183.846 214.861 183.846 216.848C183.846 218.846 184.941 220.111 186.693 220.111C188.076 220.111 189.061 219.443 189.354 218.365H188.346ZM191.018 220H192.025V216.086C192.025 215.195 192.723 214.551 193.684 214.551C193.883 214.551 194.246 214.586 194.328 214.609V213.602C194.199 213.584 193.988 213.572 193.824 213.572C192.986 213.572 192.26 214.006 192.072 214.621H191.979V213.684H191.018V220ZM200.99 220H202.045V211.545H200.996L198.746 213.162V214.275L200.896 212.717H200.99V220Z" fill="#3E4249"/>
<rect width="89" height="16" transform="translate(120 240)" fill="white"/>
<path d="M124.721 249.791C124.832 251.25 126.068 252.199 127.861 252.199C129.795 252.199 131.02 251.209 131.02 249.656C131.02 248.414 130.316 247.734 128.564 247.295L127.68 247.061C126.514 246.762 126.051 246.381 126.051 245.719C126.051 244.863 126.795 244.301 127.92 244.301C128.975 244.301 129.689 244.816 129.836 245.684H130.896C130.809 244.318 129.59 243.346 127.955 243.346C126.168 243.346 124.967 244.318 124.967 245.754C124.967 246.955 125.629 247.646 127.158 248.033L128.242 248.314C129.408 248.607 129.936 249.064 129.936 249.785C129.936 250.623 129.098 251.238 127.961 251.238C126.76 251.238 125.916 250.676 125.787 249.791H124.721ZM133.07 244.049V245.684H132.051V246.527H133.07V250.359C133.07 251.566 133.592 252.047 134.893 252.047C135.092 252.047 135.285 252.023 135.484 251.988V251.139C135.297 251.156 135.197 251.162 135.016 251.162C134.359 251.162 134.078 250.846 134.078 250.102V246.527H135.484V245.684H134.078V244.049H133.07ZM137.008 252H138.016V248.086C138.016 247.195 138.713 246.551 139.674 246.551C139.873 246.551 140.236 246.586 140.318 246.609V245.602C140.189 245.584 139.979 245.572 139.814 245.572C138.977 245.572 138.25 246.006 138.062 246.621H137.969V245.684H137.008V252ZM143.922 246.463C144.924 246.463 145.592 247.201 145.615 248.32H142.135C142.211 247.201 142.914 246.463 143.922 246.463ZM145.586 250.365C145.322 250.922 144.771 251.221 143.957 251.221C142.885 251.221 142.188 250.43 142.135 249.182V249.135H146.676V248.748C146.676 246.785 145.639 245.572 143.934 245.572C142.199 245.572 141.086 246.861 141.086 248.848C141.086 250.846 142.182 252.111 143.934 252.111C145.316 252.111 146.301 251.443 146.594 250.365H145.586ZM150.203 251.227C149.471 251.227 148.926 250.852 148.926 250.207C148.926 249.574 149.348 249.24 150.309 249.176L152.008 249.064V249.645C152.008 250.547 151.24 251.227 150.203 251.227ZM150.016 252.111C150.859 252.111 151.551 251.742 151.961 251.068H152.055V252H153.016V247.676C153.016 246.363 152.154 245.572 150.613 245.572C149.266 245.572 148.27 246.24 148.135 247.254H149.154C149.295 246.756 149.822 246.469 150.578 246.469C151.521 246.469 152.008 246.896 152.008 247.676V248.25L150.186 248.361C148.715 248.449 147.883 249.1 147.883 250.23C147.883 251.385 148.791 252.111 150.016 252.111ZM154.879 252H155.887V248.086C155.887 247.195 156.525 246.48 157.352 246.48C158.148 246.48 158.67 246.961 158.67 247.711V252H159.678V247.939C159.678 247.137 160.264 246.48 161.143 246.48C162.033 246.48 162.473 246.938 162.473 247.869V252H163.48V247.635C163.48 246.311 162.76 245.572 161.471 245.572C160.598 245.572 159.877 246.012 159.537 246.68H159.443C159.15 246.023 158.553 245.572 157.697 245.572C156.854 245.572 156.221 245.977 155.934 246.68H155.84V245.684H154.879V252ZM169.879 243.545H168.824V249.094C168.824 250.898 170.084 252.199 172.182 252.199C174.279 252.199 175.539 250.898 175.539 249.094V243.545H174.484V249.023C174.484 250.301 173.646 251.227 172.182 251.227C170.717 251.227 169.879 250.301 169.879 249.023V243.545ZM177.408 247.412C177.408 248.326 177.947 248.836 179.131 249.123L180.215 249.387C180.889 249.551 181.217 249.844 181.217 250.277C181.217 250.857 180.607 251.262 179.758 251.262C178.949 251.262 178.445 250.922 178.275 250.389H177.238C177.35 251.438 178.316 252.111 179.723 252.111C181.158 252.111 182.254 251.332 182.254 250.201C182.254 249.293 181.68 248.777 180.49 248.49L179.518 248.256C178.773 248.074 178.422 247.805 178.422 247.371C178.422 246.809 179.008 246.428 179.758 246.428C180.52 246.428 181.012 246.762 181.146 247.266H182.143C182.008 246.229 181.088 245.572 179.764 245.572C178.422 245.572 177.408 246.363 177.408 247.412ZM186.355 246.463C187.357 246.463 188.025 247.201 188.049 248.32H184.568C184.645 247.201 185.348 246.463 186.355 246.463ZM188.02 250.365C187.756 250.922 187.205 251.221 186.391 251.221C185.318 251.221 184.621 250.43 184.568 249.182V249.135H189.109V248.748C189.109 246.785 188.072 245.572 186.367 245.572C184.633 245.572 183.52 246.861 183.52 248.848C183.52 250.846 184.615 252.111 186.367 252.111C187.75 252.111 188.734 251.443 189.027 250.365H188.02ZM190.691 252H191.699V248.086C191.699 247.195 192.396 246.551 193.357 246.551C193.557 246.551 193.92 246.586 194.002 246.609V245.602C193.873 245.584 193.662 245.572 193.498 245.572C192.66 245.572 191.934 246.006 191.746 246.621H191.652V245.684H190.691V252ZM198.59 245.93H199.609C199.609 244.928 200.283 244.266 201.297 244.266C202.293 244.266 202.896 244.934 202.896 245.83C202.896 246.574 202.58 247.014 201.502 248.18L198.643 251.273V252H204.115V251.051H200.107V250.957L202.029 248.971C203.553 247.395 203.975 246.691 203.975 245.719C203.975 244.348 202.844 243.346 201.367 243.346C199.75 243.346 198.59 244.424 198.59 245.93Z" fill="#3E4249"/>
<rect width="90" height="16" transform="translate(120 272)" fill="white"/>
<path d="M125.086 281.791C125.197 283.25 126.434 284.199 128.227 284.199C130.16 284.199 131.385 283.209 131.385 281.656C131.385 280.414 130.682 279.734 128.93 279.295L128.045 279.061C126.879 278.762 126.416 278.381 126.416 277.719C126.416 276.863 127.16 276.301 128.285 276.301C129.34 276.301 130.055 276.816 130.201 277.684H131.262C131.174 276.318 129.955 275.346 128.32 275.346C126.533 275.346 125.332 276.318 125.332 277.754C125.332 278.955 125.994 279.646 127.523 280.033L128.607 280.314C129.773 280.607 130.301 281.064 130.301 281.785C130.301 282.623 129.463 283.238 128.326 283.238C127.125 283.238 126.281 282.676 126.152 281.791H125.086ZM133.436 276.049V277.684H132.416V278.527H133.436V282.359C133.436 283.566 133.957 284.047 135.258 284.047C135.457 284.047 135.65 284.023 135.85 283.988V283.139C135.662 283.156 135.562 283.162 135.381 283.162C134.725 283.162 134.443 282.846 134.443 282.102V278.527H135.85V277.684H134.443V276.049H133.436ZM137.373 284H138.381V280.086C138.381 279.195 139.078 278.551 140.039 278.551C140.238 278.551 140.602 278.586 140.684 278.609V277.602C140.555 277.584 140.344 277.572 140.18 277.572C139.342 277.572 138.615 278.006 138.428 278.621H138.334V277.684H137.373V284ZM144.287 278.463C145.289 278.463 145.957 279.201 145.98 280.32H142.5C142.576 279.201 143.279 278.463 144.287 278.463ZM145.951 282.365C145.688 282.922 145.137 283.221 144.322 283.221C143.25 283.221 142.553 282.43 142.5 281.182V281.135H147.041V280.748C147.041 278.785 146.004 277.572 144.299 277.572C142.564 277.572 141.451 278.861 141.451 280.848C141.451 282.846 142.547 284.111 144.299 284.111C145.682 284.111 146.666 283.443 146.959 282.365H145.951ZM150.568 283.227C149.836 283.227 149.291 282.852 149.291 282.207C149.291 281.574 149.713 281.24 150.674 281.176L152.373 281.064V281.645C152.373 282.547 151.605 283.227 150.568 283.227ZM150.381 284.111C151.225 284.111 151.916 283.742 152.326 283.068H152.42V284H153.381V279.676C153.381 278.363 152.52 277.572 150.979 277.572C149.631 277.572 148.635 278.24 148.5 279.254H149.52C149.66 278.756 150.188 278.469 150.943 278.469C151.887 278.469 152.373 278.896 152.373 279.676V280.25L150.551 280.361C149.08 280.449 148.248 281.1 148.248 282.23C148.248 283.385 149.156 284.111 150.381 284.111ZM155.244 284H156.252V280.086C156.252 279.195 156.891 278.48 157.717 278.48C158.514 278.48 159.035 278.961 159.035 279.711V284H160.043V279.939C160.043 279.137 160.629 278.48 161.508 278.48C162.398 278.48 162.838 278.938 162.838 279.869V284H163.846V279.635C163.846 278.311 163.125 277.572 161.836 277.572C160.963 277.572 160.242 278.012 159.902 278.68H159.809C159.516 278.023 158.918 277.572 158.062 277.572C157.219 277.572 156.586 277.977 156.299 278.68H156.205V277.684H155.244V284ZM170.244 275.545H169.189V281.094C169.189 282.898 170.449 284.199 172.547 284.199C174.645 284.199 175.904 282.898 175.904 281.094V275.545H174.85V281.023C174.85 282.301 174.012 283.227 172.547 283.227C171.082 283.227 170.244 282.301 170.244 281.023V275.545ZM177.773 279.412C177.773 280.326 178.312 280.836 179.496 281.123L180.58 281.387C181.254 281.551 181.582 281.844 181.582 282.277C181.582 282.857 180.973 283.262 180.123 283.262C179.314 283.262 178.811 282.922 178.641 282.389H177.604C177.715 283.438 178.682 284.111 180.088 284.111C181.523 284.111 182.619 283.332 182.619 282.201C182.619 281.293 182.045 280.777 180.855 280.49L179.883 280.256C179.139 280.074 178.787 279.805 178.787 279.371C178.787 278.809 179.373 278.428 180.123 278.428C180.885 278.428 181.377 278.762 181.512 279.266H182.508C182.373 278.229 181.453 277.572 180.129 277.572C178.787 277.572 177.773 278.363 177.773 279.412ZM186.721 278.463C187.723 278.463 188.391 279.201 188.414 280.32H184.934C185.01 279.201 185.713 278.463 186.721 278.463ZM188.385 282.365C188.121 282.922 187.57 283.221 186.756 283.221C185.684 283.221 184.986 282.43 184.934 281.182V281.135H189.475V280.748C189.475 278.785 188.438 277.572 186.732 277.572C184.998 277.572 183.885 278.861 183.885 280.848C183.885 282.846 184.98 284.111 186.732 284.111C188.115 284.111 189.1 283.443 189.393 282.365H188.385ZM191.057 284H192.064V280.086C192.064 279.195 192.762 278.551 193.723 278.551C193.922 278.551 194.285 278.586 194.367 278.609V277.602C194.238 277.584 194.027 277.572 193.863 277.572C193.025 277.572 192.299 278.006 192.111 278.621H192.018V277.684H191.057V284ZM200.783 280.104H201.832C203.021 280.104 203.754 280.713 203.754 281.691C203.754 282.641 202.963 283.279 201.85 283.279C200.76 283.279 199.998 282.711 199.904 281.82H198.885C198.961 283.256 200.145 284.199 201.861 284.199C203.543 284.199 204.838 283.139 204.838 281.721C204.838 280.543 204.111 279.799 203.016 279.623V279.529C203.883 279.277 204.516 278.604 204.521 277.584C204.527 276.4 203.566 275.346 201.896 275.346C200.186 275.346 199.137 276.359 199.031 277.736H200.057C200.145 276.787 200.807 276.266 201.826 276.266C202.846 276.266 203.449 276.91 203.449 277.701C203.449 278.58 202.758 279.201 201.785 279.201H200.783V280.104Z" fill="#3E4249"/>
<rect width="63" height="16" transform="translate(20 288)" fill="white"/>
<path d="M25.0449 291.545V300H28.373C30.9043 300 32.3398 298.459 32.3398 295.711C32.3398 293.062 30.8867 291.545 28.373 291.545H25.0449ZM26.8145 293.057H28.0918C29.627 293.057 30.5352 294.029 30.5352 295.74C30.5352 297.527 29.6562 298.488 28.0918 298.488H26.8145V293.057ZM36.125 298.816C35.5332 298.816 35.1172 298.523 35.1172 298.043C35.1172 297.58 35.4746 297.316 36.207 297.264L37.5137 297.182V297.656C37.5137 298.312 36.916 298.816 36.125 298.816ZM35.5625 300.1C36.4004 300.1 37.1035 299.748 37.4375 299.156H37.543V300H39.1953V295.588C39.1953 294.205 38.2285 293.396 36.5176 293.396C34.8945 293.396 33.7988 294.146 33.6875 295.342H35.2578C35.3984 294.955 35.8086 294.744 36.4238 294.744C37.127 294.744 37.5137 295.049 37.5137 295.588V296.115L35.9492 296.209C34.3438 296.303 33.4473 296.982 33.4473 298.154C33.4473 299.338 34.3203 300.1 35.5625 300.1ZM41.3574 292.002V293.602H40.3496V294.943H41.3574V298.254C41.3574 299.514 41.9785 300.023 43.5488 300.023C43.877 300.023 44.1934 299.988 44.4043 299.947V298.646C44.2402 298.664 44.123 298.67 43.9004 298.67C43.3203 298.67 43.0625 298.412 43.0625 297.85V294.943H44.4043V293.602H43.0625V292.002H41.3574ZM48.1602 298.816C47.5684 298.816 47.1523 298.523 47.1523 298.043C47.1523 297.58 47.5098 297.316 48.2422 297.264L49.5488 297.182V297.656C49.5488 298.312 48.9512 298.816 48.1602 298.816ZM47.5977 300.1C48.4355 300.1 49.1387 299.748 49.4727 299.156H49.5781V300H51.2305V295.588C51.2305 294.205 50.2637 293.396 48.5527 293.396C46.9297 293.396 45.834 294.146 45.7227 295.342H47.293C47.4336 294.955 47.8438 294.744 48.459 294.744C49.1621 294.744 49.5488 295.049 49.5488 295.588V296.115L47.9844 296.209C46.3789 296.303 45.4824 296.982 45.4824 298.154C45.4824 299.338 46.3555 300.1 47.5977 300.1ZM53.4043 300H55.1094V294.943H56.4453V293.602H55.0742V293.068C55.0742 292.518 55.3203 292.254 55.9883 292.254C56.2109 292.254 56.3867 292.271 56.498 292.283V291.076C56.252 291.035 55.9648 291.012 55.6191 291.012C54.0605 291.012 53.4043 291.662 53.4043 292.945V293.602H52.3613V294.943H53.4043V300ZM60.377 294.703C61.1738 294.703 61.6895 295.236 61.7246 296.092H58.9707C59.0293 295.254 59.5859 294.703 60.377 294.703ZM61.7598 298.16C61.5781 298.588 61.1152 298.828 60.4414 298.828C59.5508 298.828 58.9883 298.23 58.9648 297.27V297.182H63.4004V296.66C63.4004 294.609 62.2754 293.396 60.3711 293.396C58.4492 293.396 57.2656 294.697 57.2656 296.801C57.2656 298.898 58.4258 300.141 60.3945 300.141C61.9766 300.141 63.0957 299.373 63.3477 298.16H61.7598ZM67.5957 294.703C68.3926 294.703 68.9082 295.236 68.9434 296.092H66.1895C66.248 295.254 66.8047 294.703 67.5957 294.703ZM68.9785 298.16C68.7969 298.588 68.334 298.828 67.6602 298.828C66.7695 298.828 66.207 298.23 66.1836 297.27V297.182H70.6191V296.66C70.6191 294.609 69.4941 293.396 67.5898 293.396C65.668 293.396 64.4844 294.697 64.4844 296.801C64.4844 298.898 65.6445 300.141 67.6133 300.141C69.1953 300.141 70.3145 299.373 70.5664 298.16H68.9785ZM74.334 300.1C75.2305 300.1 75.9629 299.684 76.3086 298.986H76.4141V300H78.0664V291.07H76.3613V294.568H76.2617C75.9277 293.854 75.207 293.432 74.334 293.432C72.7109 293.432 71.7031 294.703 71.7031 296.76C71.7031 298.822 72.7051 300.1 74.334 300.1ZM74.9141 294.861C75.8223 294.861 76.3789 295.594 76.3789 296.771C76.3789 297.955 75.8281 298.676 74.9141 298.676C74 298.676 73.4551 297.961 73.4551 296.766C73.4551 295.582 74.0059 294.861 74.9141 294.861Z" fill="#3E4249"/>
<rect width="46" height="16" transform="translate(669 144)" fill="white"/>
<path d="M675.975 147.545H674.205V153.082C674.205 154.957 675.588 156.217 677.75 156.217C679.912 156.217 681.289 154.957 681.289 153.082V147.545H679.52V152.9C679.52 153.967 678.881 154.646 677.75 154.646C676.619 154.646 675.975 153.967 675.975 152.9V147.545ZM683.023 151.436C683.023 152.432 683.633 153.029 684.887 153.305L686.059 153.568C686.627 153.691 686.873 153.885 686.873 154.201C686.873 154.617 686.416 154.893 685.754 154.893C685.074 154.893 684.658 154.641 684.529 154.201H682.865C682.982 155.443 684.014 156.141 685.719 156.141C687.412 156.141 688.566 155.297 688.566 154.008C688.566 153.041 688.004 152.514 686.75 152.238L685.537 151.975C684.939 151.84 684.664 151.646 684.664 151.33C684.664 150.92 685.115 150.645 685.725 150.645C686.357 150.645 686.75 150.902 686.838 151.318H688.414C688.32 150.082 687.354 149.396 685.713 149.396C684.102 149.396 683.023 150.211 683.023 151.436ZM692.762 150.703C693.559 150.703 694.074 151.236 694.109 152.092H691.355C691.414 151.254 691.971 150.703 692.762 150.703ZM694.145 154.16C693.963 154.588 693.5 154.828 692.826 154.828C691.936 154.828 691.373 154.23 691.35 153.27V153.182H695.785V152.66C695.785 150.609 694.66 149.396 692.756 149.396C690.834 149.396 689.65 150.697 689.65 152.801C689.65 154.898 690.811 156.141 692.779 156.141C694.361 156.141 695.48 155.373 695.732 154.16H694.145ZM697.186 156H698.891V152.42C698.891 151.512 699.529 150.961 700.461 150.961C700.736 150.961 701.135 151.014 701.27 151.066V149.514C701.123 149.461 700.836 149.432 700.602 149.432C699.781 149.432 699.113 149.924 698.943 150.568H698.838V149.537H697.186V156ZM707.551 156H709.32V147.545H707.557L705.371 149.051V150.697L707.445 149.268H707.551V156Z" fill="#3E4249"/>
<rect width="48" height="16" transform="translate(668 248)" fill="white"/>
<path d="M675.195 251.545H673.426V257.082C673.426 258.957 674.809 260.217 676.971 260.217C679.133 260.217 680.51 258.957 680.51 257.082V251.545H678.74V256.9C678.74 257.967 678.102 258.646 676.971 258.646C675.84 258.646 675.195 257.967 675.195 256.9V251.545ZM682.244 255.436C682.244 256.432 682.854 257.029 684.107 257.305L685.279 257.568C685.848 257.691 686.094 257.885 686.094 258.201C686.094 258.617 685.637 258.893 684.975 258.893C684.295 258.893 683.879 258.641 683.75 258.201H682.086C682.203 259.443 683.234 260.141 684.939 260.141C686.633 260.141 687.787 259.297 687.787 258.008C687.787 257.041 687.225 256.514 685.971 256.238L684.758 255.975C684.16 255.84 683.885 255.646 683.885 255.33C683.885 254.92 684.336 254.645 684.945 254.645C685.578 254.645 685.971 254.902 686.059 255.318H687.635C687.541 254.082 686.574 253.396 684.934 253.396C683.322 253.396 682.244 254.211 682.244 255.436ZM691.982 254.703C692.779 254.703 693.295 255.236 693.33 256.092H690.576C690.635 255.254 691.191 254.703 691.982 254.703ZM693.365 258.16C693.184 258.588 692.721 258.828 692.047 258.828C691.156 258.828 690.594 258.23 690.57 257.27V257.182H695.006V256.66C695.006 254.609 693.881 253.396 691.977 253.396C690.055 253.396 688.871 254.697 688.871 256.801C688.871 258.898 690.031 260.141 692 260.141C693.582 260.141 694.701 259.373 694.953 258.16H693.365ZM696.406 260H698.111V256.42C698.111 255.512 698.75 254.961 699.682 254.961C699.957 254.961 700.355 255.014 700.49 255.066V253.514C700.344 253.461 700.057 253.432 699.822 253.432C699.002 253.432 698.334 253.924 698.164 254.568H698.059V253.537H696.406V260ZM704.627 254.129H706.268C706.268 253.32 706.807 252.752 707.668 252.752C708.494 252.752 708.975 253.285 708.975 253.959C708.975 254.527 708.746 254.914 707.691 255.928L704.727 258.764V260H710.826V258.529H707.111V258.424L708.869 256.783C710.275 255.465 710.709 254.785 710.709 253.795C710.709 252.365 709.561 251.328 707.768 251.328C705.916 251.328 704.627 252.471 704.627 254.129Z" fill="#3E4249"/>
<rect width="48" height="16" transform="translate(668 352)" fill="white"/>
<path d="M675.043 355.545H673.273V361.082C673.273 362.957 674.656 364.217 676.818 364.217C678.98 364.217 680.357 362.957 680.357 361.082V355.545H678.588V360.9C678.588 361.967 677.949 362.646 676.818 362.646C675.688 362.646 675.043 361.967 675.043 360.9V355.545ZM682.092 359.436C682.092 360.432 682.701 361.029 683.955 361.305L685.127 361.568C685.695 361.691 685.941 361.885 685.941 362.201C685.941 362.617 685.484 362.893 684.822 362.893C684.143 362.893 683.727 362.641 683.598 362.201H681.934C682.051 363.443 683.082 364.141 684.787 364.141C686.48 364.141 687.635 363.297 687.635 362.008C687.635 361.041 687.072 360.514 685.818 360.238L684.605 359.975C684.008 359.84 683.732 359.646 683.732 359.33C683.732 358.92 684.184 358.645 684.793 358.645C685.426 358.645 685.818 358.902 685.906 359.318H687.482C687.389 358.082 686.422 357.396 684.781 357.396C683.17 357.396 682.092 358.211 682.092 359.436ZM691.83 358.703C692.627 358.703 693.143 359.236 693.178 360.092H690.424C690.482 359.254 691.039 358.703 691.83 358.703ZM693.213 362.16C693.031 362.588 692.568 362.828 691.895 362.828C691.004 362.828 690.441 362.23 690.418 361.27V361.182H694.854V360.66C694.854 358.609 693.729 357.396 691.824 357.396C689.902 357.396 688.719 358.697 688.719 360.801C688.719 362.898 689.879 364.141 691.848 364.141C693.43 364.141 694.549 363.373 694.801 362.16H693.213ZM696.254 364H697.959V360.42C697.959 359.512 698.598 358.961 699.529 358.961C699.805 358.961 700.203 359.014 700.338 359.066V357.514C700.191 357.461 699.904 357.432 699.67 357.432C698.85 357.432 698.182 357.924 698.012 358.568H697.906V357.537H696.254V364ZM706.613 360.314H707.686C708.635 360.314 709.221 360.777 709.221 361.527C709.221 362.26 708.594 362.746 707.697 362.746C706.789 362.746 706.18 362.289 706.127 361.574H704.434C704.51 363.174 705.811 364.217 707.721 364.217C709.631 364.217 711.025 363.168 711.025 361.686C711.025 360.555 710.311 359.805 709.133 359.635V359.523C710.041 359.301 710.686 358.627 710.691 357.602C710.697 356.365 709.654 355.328 707.779 355.328C705.875 355.328 704.674 356.377 704.615 357.936H706.25C706.309 357.18 706.836 356.74 707.691 356.74C708.518 356.74 709.016 357.221 709.016 357.854C709.016 358.545 708.471 359.02 707.668 359.02H706.613V360.314Z" fill="#3E4249"/>
<rect width="159" height="16" transform="translate(293 136)" fill="white"/>
<path d="M298.098 145.65C298.162 147.227 299.469 148.217 301.484 148.217C303.605 148.217 304.912 147.174 304.912 145.469C304.912 144.156 304.18 143.424 302.48 143.066L301.461 142.85C300.471 142.639 300.066 142.34 300.066 141.818C300.066 141.174 300.652 140.764 301.537 140.764C302.393 140.764 303.014 141.209 303.096 141.877H304.76C304.707 140.371 303.389 139.328 301.525 139.328C299.574 139.328 298.291 140.377 298.291 141.971C298.291 143.26 299.047 144.062 300.588 144.385L301.689 144.619C302.727 144.842 303.148 145.152 303.148 145.691C303.148 146.33 302.498 146.775 301.578 146.775C300.582 146.775 299.891 146.336 299.809 145.65H298.098ZM307.221 150.35C308.832 150.35 309.623 149.764 310.174 148.1L312.4 141.537H310.596L309.236 146.436H309.131L307.771 141.537H305.891L308.158 148.041L308.1 148.275C307.959 148.768 307.596 148.973 306.957 148.973C306.887 148.973 306.629 148.973 306.57 148.961V150.332C306.641 150.344 307.156 150.35 307.221 150.35ZM313.59 148H315.295V144.109C315.295 143.389 315.77 142.867 316.438 142.867C317.105 142.867 317.504 143.26 317.504 143.945V148H319.145V144.045C319.145 143.359 319.59 142.867 320.281 142.867C321.002 142.867 321.359 143.248 321.359 144.016V148H323.064V143.564C323.064 142.234 322.262 141.396 320.973 141.396C320.07 141.396 319.326 141.871 319.027 142.592H318.922C318.664 141.842 318.043 141.396 317.135 141.396C316.285 141.396 315.611 141.854 315.348 142.592H315.242V141.537H313.59V148ZM328.455 141.432C327.564 141.432 326.832 141.871 326.48 142.598H326.375V141.537H324.723V150.145H326.428V147.01H326.533C326.85 147.695 327.559 148.1 328.484 148.1C330.102 148.1 331.092 146.852 331.092 144.766C331.092 142.674 330.09 141.432 328.455 141.432ZM327.875 146.676C326.973 146.676 326.41 145.955 326.41 144.771C326.41 143.588 326.973 142.861 327.881 142.861C328.789 142.861 329.34 143.582 329.34 144.766C329.34 145.961 328.795 146.676 327.875 146.676ZM332.539 148H334.244V144.291C334.244 143.453 334.736 142.885 335.592 142.885C336.365 142.885 336.781 143.348 336.781 144.244V148H338.486V143.84C338.486 142.287 337.66 141.414 336.271 141.414C335.322 141.414 334.619 141.859 334.32 142.598H334.215V139.07H332.539V148ZM343.01 148.141C344.996 148.141 346.191 146.881 346.191 144.766C346.191 142.668 344.979 141.396 343.01 141.396C341.041 141.396 339.828 142.674 339.828 144.766C339.828 146.881 341.023 148.141 343.01 148.141ZM343.01 146.746C342.096 146.746 341.58 146.025 341.58 144.766C341.58 143.523 342.102 142.791 343.01 142.791C343.912 142.791 344.439 143.523 344.439 144.766C344.439 146.02 343.918 146.746 343.01 146.746ZM347.586 148H349.291V144.273C349.291 143.424 349.777 142.867 350.568 142.867C351.377 142.867 351.758 143.336 351.758 144.227V148H353.463V143.822C353.463 142.275 352.689 141.396 351.254 141.396C350.299 141.396 349.643 141.848 349.344 142.574H349.238V141.537H347.586V148ZM355.748 150.35C357.359 150.35 358.15 149.764 358.701 148.1L360.928 141.537H359.123L357.764 146.436H357.658L356.299 141.537H354.418L356.686 148.041L356.627 148.275C356.486 148.768 356.123 148.973 355.484 148.973C355.414 148.973 355.156 148.973 355.098 148.961V150.332C355.168 150.344 355.684 150.35 355.748 150.35ZM367.15 148V144.707H370.59V143.26H367.15V141.057H370.918V139.545H365.381V148H367.15ZM375.248 148.141C377.234 148.141 378.43 146.881 378.43 144.766C378.43 142.668 377.217 141.396 375.248 141.396C373.279 141.396 372.066 142.674 372.066 144.766C372.066 146.881 373.262 148.141 375.248 148.141ZM375.248 146.746C374.334 146.746 373.818 146.025 373.818 144.766C373.818 143.523 374.34 142.791 375.248 142.791C376.15 142.791 376.678 143.523 376.678 144.766C376.678 146.02 376.156 146.746 375.248 146.746ZM379.824 148H381.529V144.42C381.529 143.512 382.168 142.961 383.1 142.961C383.375 142.961 383.773 143.014 383.908 143.066V141.514C383.762 141.461 383.475 141.432 383.24 141.432C382.42 141.432 381.752 141.924 381.582 142.568H381.477V141.537H379.824V148ZM385.109 148H386.814V144.109C386.814 143.389 387.289 142.867 387.957 142.867C388.625 142.867 389.023 143.26 389.023 143.945V148H390.664V144.045C390.664 143.359 391.109 142.867 391.801 142.867C392.521 142.867 392.879 143.248 392.879 144.016V148H394.584V143.564C394.584 142.234 393.781 141.396 392.492 141.396C391.59 141.396 390.846 141.871 390.547 142.592H390.441C390.184 141.842 389.562 141.396 388.654 141.396C387.805 141.396 387.131 141.854 386.867 142.592H386.762V141.537H385.109V148ZM405.107 146.488H401.275V144.432H404.891V143.031H401.275V141.057H405.107V139.545H399.506V148H405.107V146.488ZM406.859 148H408.564V139.07H406.859V148ZM413.135 142.703C413.932 142.703 414.447 143.236 414.482 144.092H411.729C411.787 143.254 412.344 142.703 413.135 142.703ZM414.518 146.16C414.336 146.588 413.873 146.828 413.199 146.828C412.309 146.828 411.746 146.23 411.723 145.27V145.182H416.158V144.66C416.158 142.609 415.033 141.396 413.129 141.396C411.207 141.396 410.023 142.697 410.023 144.801C410.023 146.898 411.184 148.141 413.152 148.141C414.734 148.141 415.854 147.373 416.105 146.16H414.518ZM417.559 148H419.264V144.109C419.264 143.389 419.738 142.867 420.406 142.867C421.074 142.867 421.473 143.26 421.473 143.945V148H423.113V144.045C423.113 143.359 423.559 142.867 424.25 142.867C424.971 142.867 425.328 143.248 425.328 144.016V148H427.033V143.564C427.033 142.234 426.23 141.396 424.941 141.396C424.039 141.396 423.295 141.871 422.996 142.592H422.891C422.633 141.842 422.012 141.396 421.104 141.396C420.254 141.396 419.58 141.854 419.316 142.592H419.211V141.537H417.559V148ZM431.486 142.703C432.283 142.703 432.799 143.236 432.834 144.092H430.08C430.139 143.254 430.695 142.703 431.486 142.703ZM432.869 146.16C432.688 146.588 432.225 146.828 431.551 146.828C430.66 146.828 430.098 146.23 430.074 145.27V145.182H434.51V144.66C434.51 142.609 433.385 141.396 431.48 141.396C429.559 141.396 428.375 142.697 428.375 144.801C428.375 146.898 429.535 148.141 431.504 148.141C433.086 148.141 434.205 147.373 434.457 146.16H432.869ZM435.91 148H437.615V144.273C437.615 143.424 438.102 142.867 438.893 142.867C439.701 142.867 440.082 143.336 440.082 144.227V148H441.787V143.822C441.787 142.275 441.014 141.396 439.578 141.396C438.623 141.396 437.967 141.848 437.668 142.574H437.562V141.537H435.91V148ZM443.932 140.002V141.602H442.924V142.943H443.932V146.254C443.932 147.514 444.553 148.023 446.123 148.023C446.451 148.023 446.768 147.988 446.979 147.947V146.646C446.814 146.664 446.697 146.67 446.475 146.67C445.895 146.67 445.637 146.412 445.637 145.85V142.943H446.979V141.602H445.637V140.002H443.932Z" fill="#3E4249"/>
<rect width="101" height="17" transform="translate(322 8)" fill="white"/>
<path d="M329.386 12.5986H331.382C332.503 12.5986 333.187 13.2275 333.187 14.2529C333.187 15.2988 332.544 15.9004 331.423 15.9004H329.386V12.5986ZM329.386 17.3018H331.341L333.275 21H335.292L333.139 17.0283C334.314 16.6045 334.998 15.5176 334.998 14.2188C334.998 12.3252 333.699 11.1357 331.628 11.1357H327.622V21H329.386V17.3018ZM339.954 21.1504C342.189 21.1504 343.55 19.6875 343.55 17.2607C343.55 14.8408 342.183 13.3711 339.954 13.3711C337.732 13.3711 336.358 14.8477 336.358 17.2607C336.358 19.6875 337.712 21.1504 339.954 21.1504ZM339.954 19.7285C338.771 19.7285 338.095 18.8262 338.095 17.2607C338.095 15.7021 338.771 14.793 339.954 14.793C341.13 14.793 341.807 15.7021 341.807 17.2607C341.807 18.8262 341.137 19.7285 339.954 19.7285ZM348.485 21.1504C350.721 21.1504 352.081 19.6875 352.081 17.2607C352.081 14.8408 350.714 13.3711 348.485 13.3711C346.264 13.3711 344.89 14.8477 344.89 17.2607C344.89 19.6875 346.243 21.1504 348.485 21.1504ZM348.485 19.7285C347.303 19.7285 346.626 18.8262 346.626 17.2607C346.626 15.7021 347.303 14.793 348.485 14.793C349.661 14.793 350.338 15.7021 350.338 17.2607C350.338 18.8262 349.668 19.7285 348.485 19.7285ZM353.79 21H355.485V16.4541C355.485 15.5381 356.107 14.8477 356.948 14.8477C357.782 14.8477 358.302 15.3467 358.302 16.167V21H359.949V16.3447C359.949 15.4902 360.53 14.8477 361.412 14.8477C362.321 14.8477 362.779 15.3262 362.779 16.29V21H364.468V15.8594C364.468 14.3076 363.565 13.3711 362.068 13.3711C361.029 13.3711 360.168 13.9111 359.799 14.7314H359.683C359.368 13.8906 358.65 13.3711 357.618 13.3711C356.627 13.3711 355.861 13.877 355.54 14.7314H355.424V13.5215H353.79V21ZM369.937 18.3203C370.025 20.1113 371.522 21.2461 373.785 21.2461C376.178 21.2461 377.661 20.0498 377.661 18.1289C377.661 16.625 376.82 15.791 374.817 15.3398L373.683 15.0801C372.459 14.7998 371.96 14.4102 371.96 13.7471C371.96 12.9062 372.712 12.3594 373.847 12.3594C374.927 12.3594 375.692 12.9062 375.815 13.7744H377.504C377.422 12.0791 375.925 10.8896 373.854 10.8896C371.646 10.8896 370.183 12.0791 370.183 13.8701C370.183 15.3398 371.023 16.2285 372.814 16.6318L374.093 16.9258C375.357 17.2197 375.897 17.6367 375.897 18.3477C375.897 19.1748 375.057 19.7695 373.895 19.7695C372.644 19.7695 371.769 19.2021 371.659 18.3203H369.937ZM380.006 11.6895V13.5693H378.823V14.9229H380.006V19.0039C380.006 20.4531 380.689 21.0342 382.405 21.0342C382.733 21.0342 383.048 21 383.294 20.9521V19.626C383.089 19.6465 382.959 19.6602 382.72 19.6602C382.009 19.6602 381.694 19.332 381.694 18.5938V14.9229H383.294V13.5693H381.694V11.6895H380.006ZM384.989 21H386.685V16.6797C386.685 15.6338 387.45 14.9502 388.551 14.9502C388.838 14.9502 389.289 14.998 389.419 15.0459V13.4736C389.262 13.4258 388.961 13.3984 388.715 13.3984C387.751 13.3984 386.944 13.9453 386.739 14.6836H386.623V13.5215H384.989V21ZM393.76 14.7178C394.778 14.7178 395.448 15.4287 395.482 16.5361H391.962C392.037 15.4424 392.748 14.7178 393.76 14.7178ZM395.496 18.9424C395.25 19.4961 394.669 19.8037 393.828 19.8037C392.714 19.8037 391.996 19.0244 391.955 17.7803V17.6914H397.178V17.1445C397.178 14.7861 395.899 13.3711 393.767 13.3711C391.6 13.3711 390.253 14.8818 390.253 17.2881C390.253 19.6943 391.579 21.1504 393.78 21.1504C395.544 21.1504 396.795 20.3027 397.103 18.9424H395.496ZM401.437 19.79C400.685 19.79 400.145 19.4141 400.145 18.7852C400.145 18.1768 400.589 17.835 401.539 17.7734L403.228 17.6641V18.2588C403.228 19.127 402.462 19.79 401.437 19.79ZM400.938 21.123C401.915 21.123 402.735 20.6992 403.152 19.9746H403.269V21H404.902V15.8936C404.902 14.3076 403.822 13.3711 401.901 13.3711C400.124 13.3711 398.887 14.2119 398.75 15.5312H400.35C400.507 15.0254 401.04 14.752 401.819 14.752C402.735 14.752 403.228 15.1621 403.228 15.8936V16.5225L401.3 16.6387C399.481 16.748 398.463 17.5273 398.463 18.8809C398.463 20.248 399.495 21.123 400.938 21.123ZM406.946 21H408.642V16.4541C408.642 15.5381 409.264 14.8477 410.104 14.8477C410.938 14.8477 411.458 15.3467 411.458 16.167V21H413.105V16.3447C413.105 15.4902 413.687 14.8477 414.568 14.8477C415.478 14.8477 415.936 15.3262 415.936 16.29V21H417.624V15.8594C417.624 14.3076 416.722 13.3711 415.225 13.3711C414.186 13.3711 413.324 13.9111 412.955 14.7314H412.839C412.524 13.8906 411.807 13.3711 410.774 13.3711C409.783 13.3711 409.018 13.877 408.696 14.7314H408.58V13.5215H406.946V21Z" fill="#525760"/>
<g filter="url(#filter0_d)">
<path d="M148 72C148 66.4772 152.477 62 158 62H170C175.523 62 180 66.4772 180 72C180 77.5228 175.523 82 170 82H158C152.477 82 148 77.5228 148 72Z" fill="#FBE19D"/>
<path d="M163.818 76H165.588V67.5449H163.824L161.639 69.0508V70.6973L163.713 69.2676H163.818V76Z" fill="#3E4249"/>
</g>
<g filter="url(#filter1_d)">
<path d="M148 190C148 184.477 152.477 180 158 180H170C175.523 180 180 184.477 180 190C180 195.523 175.523 200 170 200H158C152.477 200 148 195.523 148 190Z" fill="#FBE19D"/>
<path d="M162.881 190.314H163.953C164.902 190.314 165.488 190.777 165.488 191.527C165.488 192.26 164.861 192.746 163.965 192.746C163.057 192.746 162.447 192.289 162.395 191.574H160.701C160.777 193.174 162.078 194.217 163.988 194.217C165.898 194.217 167.293 193.168 167.293 191.686C167.293 190.555 166.578 189.805 165.4 189.635V189.523C166.309 189.301 166.953 188.627 166.959 187.602C166.965 186.365 165.922 185.328 164.047 185.328C162.143 185.328 160.941 186.377 160.883 187.936H162.518C162.576 187.18 163.104 186.74 163.959 186.74C164.785 186.74 165.283 187.221 165.283 187.854C165.283 188.545 164.738 189.02 163.936 189.02H162.881V190.314Z" fill="#3E4249"/>
</g>
<g filter="url(#filter2_d)">
<path d="M63 186C63 180.477 67.4772 176 73 176H85C90.5228 176 95 180.477 95 186C95 191.523 90.5228 196 85 196H73C67.4772 196 63 191.523 63 186Z" fill="#FBE19D"/>
<path d="M79.6738 190H81.3613V188.471H82.4688V187H81.3613V181.545H78.8828C77.752 183.279 76.6035 185.137 75.5371 187.035V188.471H79.6738V190ZM77.125 186.959C77.8926 185.611 78.7949 184.17 79.6211 182.922H79.7148V187.059H77.125V186.959Z" fill="#3E4249"/>
</g>
<g filter="url(#filter3_d)">
<path d="M564 80C564 74.4772 568.477 70 574 70H586C591.523 70 596 74.4772 596 80C596 85.5228 591.523 90 586 90H574C568.477 90 564 85.5228 564 80Z" fill="#FBE19D"/>
<path d="M576.895 78.1289H578.535C578.535 77.3203 579.074 76.752 579.936 76.752C580.762 76.752 581.242 77.2852 581.242 77.959C581.242 78.5273 581.014 78.9141 579.959 79.9277L576.994 82.7637V84H583.094V82.5293H579.379V82.4238L581.137 80.7832C582.543 79.4648 582.977 78.7852 582.977 77.7949C582.977 76.3652 581.828 75.3281 580.035 75.3281C578.184 75.3281 576.895 76.4707 576.895 78.1289Z" fill="#3E4249"/>
</g>
<rect opacity="0.16" x="242" y="42" width="256" height="332" rx="30" stroke="#008EFF" stroke-width="4"/>
<defs>
<filter id="filter0_d" x="147" y="62" width="34" height="22" filterUnits="userSpaceOnUse" color-interpolation-filters="sRGB">
<feFlood flood-opacity="0" result="BackgroundImageFix"/>
<feColorMatrix in="SourceAlpha" type="matrix" values="0 0 0 0 0 0 0 0 0 0 0 0 0 0 0 0 0 0 127 0"/>
<feOffset dy="1"/>
<feGaussianBlur stdDeviation="0.5"/>
<feColorMatrix type="matrix" values="0 0 0 0 0 0 0 0 0 0 0 0 0 0 0 0 0 0 0.08 0"/>
<feBlend mode="normal" in2="BackgroundImageFix" result="effect1_dropShadow"/>
<feBlend mode="normal" in="SourceGraphic" in2="effect1_dropShadow" result="shape"/>
</filter>
<filter id="filter1_d" x="147" y="180" width="34" height="22" filterUnits="userSpaceOnUse" color-interpolation-filters="sRGB">
<feFlood flood-opacity="0" result="BackgroundImageFix"/>
<feColorMatrix in="SourceAlpha" type="matrix" values="0 0 0 0 0 0 0 0 0 0 0 0 0 0 0 0 0 0 127 0"/>
<feOffset dy="1"/>
<feGaussianBlur stdDeviation="0.5"/>
<feColorMatrix type="matrix" values="0 0 0 0 0 0 0 0 0 0 0 0 0 0 0 0 0 0 0.08 0"/>
<feBlend mode="normal" in2="BackgroundImageFix" result="effect1_dropShadow"/>
<feBlend mode="normal" in="SourceGraphic" in2="effect1_dropShadow" result="shape"/>
</filter>
<filter id="filter2_d" x="62" y="176" width="34" height="22" filterUnits="userSpaceOnUse" color-interpolation-filters="sRGB">
<feFlood flood-opacity="0" result="BackgroundImageFix"/>
<feColorMatrix in="SourceAlpha" type="matrix" values="0 0 0 0 0 0 0 0 0 0 0 0 0 0 0 0 0 0 127 0"/>
<feOffset dy="1"/>
<feGaussianBlur stdDeviation="0.5"/>
<feColorMatrix type="matrix" values="0 0 0 0 0 0 0 0 0 0 0 0 0 0 0 0 0 0 0.08 0"/>
<feBlend mode="normal" in2="BackgroundImageFix" result="effect1_dropShadow"/>
<feBlend mode="normal" in="SourceGraphic" in2="effect1_dropShadow" result="shape"/>
</filter>
<filter id="filter3_d" x="563" y="70" width="34" height="22" filterUnits="userSpaceOnUse" color-interpolation-filters="sRGB">
<feFlood flood-opacity="0" result="BackgroundImageFix"/>
<feColorMatrix in="SourceAlpha" type="matrix" values="0 0 0 0 0 0 0 0 0 0 0 0 0 0 0 0 0 0 127 0"/>
<feOffset dy="1"/>
<feGaussianBlur stdDeviation="0.5"/>
<feColorMatrix type="matrix" values="0 0 0 0 0 0 0 0 0 0 0 0 0 0 0 0 0 0 0.08 0"/>
<feBlend mode="normal" in2="BackgroundImageFix" result="effect1_dropShadow"/>
<feBlend mode="normal" in="SourceGraphic" in2="effect1_dropShadow" result="shape"/>
</filter>
</defs>
</svg>
