<svg width="744" height="400" viewBox="0 0 744 400" fill="none" xmlns="http://www.w3.org/2000/svg">
<rect width="744" height="400" fill="white"/>
<path d="M308 0L308 399.5" stroke="#CFD0D2"/>
<rect opacity="0.16" x="338" y="42" width="404" height="356" rx="30" stroke="#008EFF" stroke-width="4"/>
<path d="M500 216C500 198.327 514.327 184 532 184C549.673 184 564 198.327 564 216C564 233.673 549.673 248 532 248C514.327 248 500 233.673 500 216Z" fill="white"/>
<path d="M519 202.828C519 202.298 519.227 201.803 519.709 201.583C520.997 200.997 524.381 200 532.5 200C540.619 200 544.003 200.997 545.291 201.583C545.773 201.803 546 202.298 546 202.828V204.93C546 205.598 545.657 206.21 545.031 206.446C543.466 207.036 539.791 208 532.5 208C525.209 208 521.534 207.036 519.969 206.446C519.343 206.21 519 205.598 519 204.93V202.828Z" fill="white"/>
<path d="M519 211.828C519 211.298 519.227 210.803 519.709 210.583C520.997 209.997 524.381 209 532.5 209C540.619 209 544.003 209.997 545.291 210.583C545.773 210.803 546 211.298 546 211.828V213.93C546 214.598 545.657 215.21 545.031 215.446C543.466 216.036 539.791 217 532.5 217C525.209 217 521.534 216.036 519.969 215.446C519.343 215.21 519 214.598 519 213.93V211.828Z" fill="white"/>
<path d="M519 220.828C519 220.298 519.227 219.803 519.709 219.583C520.997 218.997 524.381 218 532.5 218C540.619 218 544.003 218.997 545.291 219.583C545.773 219.803 546 220.298 546 220.828V222.93C546 223.598 545.657 224.21 545.031 224.446C543.466 225.036 539.791 226 532.5 226C525.209 226 521.534 225.036 519.969 224.446C519.343 224.21 519 223.598 519 222.93V220.828Z" fill="white"/>
<path fill-rule="evenodd" clip-rule="evenodd" d="M519.709 201.583C519.227 201.803 519 202.298 519 202.828V204.93C519 205.598 519.343 206.21 519.969 206.446C521.534 207.036 525.209 208 532.5 208C539.791 208 543.466 207.036 545.031 206.446C545.657 206.21 546 205.598 546 204.93V202.828C546 202.298 545.773 201.803 545.291 201.583C544.003 200.997 540.619 200 532.5 200C524.381 200 520.997 200.997 519.709 201.583ZM521 203.219V204.691C522.489 205.193 525.911 206 532.5 206C539.089 206 542.511 205.193 544 204.691V203.219C542.688 202.752 539.475 202 532.5 202C525.525 202 522.312 202.752 521 203.219Z" fill="#000028"/>
<path fill-rule="evenodd" clip-rule="evenodd" d="M519.709 210.583C519.227 210.803 519 211.298 519 211.828V213.93C519 214.598 519.343 215.21 519.969 215.446C521.534 216.036 525.209 217 532.5 217C539.791 217 543.466 216.036 545.031 215.446C545.657 215.21 546 214.598 546 213.93V211.828C546 211.298 545.773 210.803 545.291 210.583C544.003 209.997 540.619 209 532.5 209C524.381 209 520.997 209.997 519.709 210.583ZM521 212.219V213.691C522.489 214.193 525.911 215 532.5 215C539.089 215 542.511 214.193 544 213.691V212.219C542.688 211.752 539.475 211 532.5 211C525.525 211 522.312 211.752 521 212.219Z" fill="#000028"/>
<path fill-rule="evenodd" clip-rule="evenodd" d="M545.031 224.446C543.577 224.994 540.303 225.865 534 225.986V230H540C540.552 230 541 230.448 541 231C541 231.552 540.552 232 540 232H526C525.448 232 525 231.552 525 231C525 230.448 525.448 230 526 230H532V225.998C525.04 225.956 521.498 225.022 519.969 224.446C519.343 224.21 519 223.598 519 222.93V220.828C519 220.298 519.227 219.803 519.709 219.583C520.997 218.997 524.381 218 532.5 218C540.619 218 544.003 218.997 545.291 219.583C545.773 219.803 546 220.298 546 220.828V222.93C546 223.598 545.657 224.21 545.031 224.446ZM521 222.691V221.219C522.312 220.752 525.525 220 532.5 220C539.475 220 542.688 220.752 544 221.219V222.691C542.511 223.193 539.089 224 532.5 224C525.911 224 522.489 223.193 521 222.691Z" fill="#000028"/>
<path d="M532 246C515.431 246 502 232.569 502 216H498C498 234.778 513.222 250 532 250V246ZM562 216C562 232.569 548.569 246 532 246V250C550.778 250 566 234.778 566 216H562ZM532 186C548.569 186 562 199.431 562 216H566C566 197.222 550.778 182 532 182V186ZM532 182C513.222 182 498 197.222 498 216H502C502 199.431 515.431 186 532 186V182Z" fill="#EAEBEC"/>
<path d="M52 216C52 198.327 66.3269 184 84 184C101.673 184 116 198.327 116 216C116 233.673 101.673 248 84 248C66.3269 248 52 233.673 52 216Z" fill="white"/>
<path d="M70 218C70 212.477 74.4772 208 80 208H88C93.5228 208 98 212.477 98 218V226.93C98 227.598 97.6566 228.209 97.0295 228.441C95.4394 229.03 91.6587 230 84 230C76.3413 230 72.5606 229.03 70.9705 228.441C70.3434 228.209 70 227.598 70 226.93V218Z" fill="white"/>
<path d="M79 217.5C79 216.672 79.6716 216 80.5 216C81.3284 216 82 216.672 82 217.5V219.5C82 220.328 81.3284 221 80.5 221C79.6716 221 79 220.328 79 219.5V217.5Z" fill="#000028"/>
<path d="M87.5 216C86.6716 216 86 216.672 86 217.5V219.5C86 220.328 86.6716 221 87.5 221C88.3284 221 89 220.328 89 219.5V217.5C89 216.672 88.3284 216 87.5 216Z" fill="#000028"/>
<path fill-rule="evenodd" clip-rule="evenodd" d="M85 204.829C86.1652 204.417 87 203.306 87 202C87 200.343 85.6569 199 84 199C82.3431 199 81 200.343 81 202C81 203.306 81.8348 204.417 83 204.829V208H80C74.4772 208 70 212.477 70 218V226.93C70 227.598 70.3434 228.209 70.9705 228.441C72.5606 229.03 76.3413 230 84 230C91.6587 230 95.4394 229.03 97.0295 228.441C97.6566 228.209 98 227.598 98 226.93V218C98 212.477 93.5228 208 88 208H85V204.829ZM80 210C75.5817 210 72 213.582 72 218V226.683C73.5244 227.187 77.0644 228 84 228C90.9356 228 94.4756 227.187 96 226.683V218C96 213.582 92.4183 210 88 210H80Z" fill="#000028"/>
<path d="M84 246C67.4315 246 54 232.569 54 216H50C50 234.778 65.2223 250 84 250V246ZM114 216C114 232.569 100.569 246 84 246V250C102.778 250 118 234.778 118 216H114ZM84 186C100.569 186 114 199.431 114 216H118C118 197.222 102.778 182 84 182V186ZM84 182C65.2223 182 50 197.222 50 216H54C54 199.431 67.4315 186 84 186V182Z" fill="#EAEBEC"/>
<path d="M500 330C500 312.327 514.327 298 532 298C549.673 298 564 312.327 564 330C564 347.673 549.673 362 532 362C514.327 362 500 347.673 500 330Z" fill="white"/>
<path d="M518 330.141C518 328.803 518.701 327.595 519.988 327.229C521.968 326.666 525.652 326 532 326C538.348 326 542.032 326.666 544.012 327.229C545.299 327.595 546 328.803 546 330.141V341.859C546 343.197 545.299 344.405 544.012 344.771C542.032 345.334 538.348 346 532 346C525.652 346 521.968 345.334 519.988 344.771C518.701 344.405 518 343.197 518 341.859V330.141Z" fill="white"/>
<path fill-rule="evenodd" clip-rule="evenodd" d="M532 314C526.477 314 522 318.477 522 324V326.763C521.19 326.916 520.526 327.076 519.988 327.229C518.701 327.595 518 328.803 518 330.141V341.859C518 343.197 518.701 344.405 519.988 344.771C521.968 345.334 525.652 346 532 346C538.348 346 542.032 345.334 544.012 344.771C545.299 344.405 546 343.197 546 341.859V330.141C546 328.803 545.299 327.595 544.012 327.229C543.474 327.076 542.81 326.916 542 326.763V324C542 318.477 537.523 314 532 314ZM540 326.448V324C540 319.582 536.418 316 532 316C527.582 316 524 319.582 524 324V326.448C526.012 326.188 528.631 326 532 326C535.369 326 537.988 326.188 540 326.448ZM544 330.141V341.859C544 342.187 543.913 342.434 543.814 342.586C543.725 342.722 543.617 342.804 543.465 342.847C541.707 343.347 538.216 344 532 344C525.784 344 522.293 343.347 520.535 342.847C520.383 342.804 520.275 342.722 520.186 342.586C520.087 342.434 520 342.187 520 341.859V330.141C520 329.813 520.087 329.566 520.186 329.414C520.275 329.278 520.383 329.196 520.535 329.153C522.293 328.653 525.784 328 532 328C538.216 328 541.707 328.653 543.465 329.153C543.617 329.196 543.725 329.278 543.814 329.414C543.913 329.566 544 329.813 544 330.141Z" fill="#000028"/>
<path d="M532 360C515.431 360 502 346.569 502 330H498C498 348.778 513.222 364 532 364V360ZM562 330C562 346.569 548.569 360 532 360V364C550.778 364 566 348.778 566 330H562ZM532 300C548.569 300 562 313.431 562 330H566C566 311.222 550.778 296 532 296V300ZM532 296C513.222 296 498 311.222 498 330H502C502 313.431 515.431 300 532 300V296Z" fill="#EAEBEC"/>
<path d="M500 89C500 71.3269 514.327 57 532 57C549.673 57 564 71.3269 564 89C564 106.673 549.673 121 532 121C514.327 121 500 106.673 500 89Z" fill="white"/>
<path fill-rule="evenodd" clip-rule="evenodd" d="M532 76C537.318 76 541.828 79.3727 543.402 84.0439C546.168 85.7784 548 88.8056 548 92.25C548 97.4164 543.879 101.644 538.667 101.979L524 101.975C519.525 101.643 516 97.9981 516 93.55C516 90.5273 517.628 87.8753 520.075 86.3819C520.747 80.5407 525.83 76 532 76Z" fill="white"/>
<path d="M528.875 92.6057C528.875 92.9386 529.052 93.2464 529.34 93.4142L532.156 95.0542L534.972 93.4142C535.26 93.2464 535.438 92.9386 535.438 92.6057L535.438 90.9107L527 88.5707V84.3729C527 83.7581 527.317 83.0925 527.996 82.7872C528.721 82.4609 530.11 82 532.156 82C534.202 82 535.591 82.4609 536.317 82.7872C536.995 83.0925 537.313 83.7581 537.313 84.3729V86.7319L535.438 86.2119V84.4466C534.887 84.2155 533.795 83.872 532.156 83.872C530.517 83.872 529.425 84.2155 528.875 84.4466V87.1479L537.312 89.5V92.6057C537.312 93.6044 536.781 94.5279 535.917 95.0311L532.865 96.8088C532.427 97.0638 531.886 97.0637 531.448 96.8088L528.395 95.0311C527.531 94.5279 527 93.6044 527 92.6057V90.8918L528.875 91.375V92.6057Z" fill="#000028"/>
<path fill-rule="evenodd" clip-rule="evenodd" d="M524 101.975L538.667 101.979C543.879 101.644 548 97.4164 548 92.25C548 88.8056 546.168 85.7784 543.402 84.0439C541.828 79.3727 537.318 76 532 76C525.83 76 520.747 80.5407 520.075 86.3819C517.628 87.8753 516 90.5273 516 93.55C516 97.9981 519.525 101.643 524 101.975ZM541.507 84.6828L541.735 85.3591L542.34 85.7383C544.56 87.1307 546 89.5377 546 92.25C546 96.2921 542.78 99.6798 538.599 99.9787L524.079 99.9754C520.631 99.6853 518 96.8786 518 93.55C518 91.2689 519.226 89.2431 521.117 88.0892L521.951 87.5805L522.062 86.6104C522.615 81.8068 526.817 78 532 78C536.461 78 540.207 80.8265 541.507 84.6828Z" fill="#000028"/>
<path d="M532 119C515.431 119 502 105.569 502 89H498C498 107.778 513.222 123 532 123V119ZM562 89C562 105.569 548.569 119 532 119V123C550.778 123 566 107.778 566 89H562ZM532 59C548.569 59 562 72.4315 562 89H566C566 70.2223 550.778 55 532 55V59ZM532 55C513.222 55 498 70.2223 498 89H502C502 72.4315 515.431 59 532 59V55Z" fill="#EAEBEC"/>
<g filter="url(#filter0_d)">
<path d="M560 164C560 158.477 564.477 154 570 154H582C587.523 154 592 158.477 592 164C592 169.523 587.523 174 582 174H570C564.477 174 560 169.523 560 164Z" fill="#FBE19D"/>
<path d="M576.123 168.217C578.016 168.217 579.357 166.969 579.357 165.211C579.357 163.6 578.18 162.416 576.574 162.416C575.59 162.416 574.805 162.861 574.418 163.652H574.312C574.312 161.824 574.992 160.781 576.164 160.781C576.85 160.781 577.359 161.133 577.494 161.707H579.246C579.041 160.295 577.805 159.328 576.141 159.328C573.979 159.328 572.625 161.027 572.625 163.834C572.625 166.77 574.096 168.217 576.123 168.217ZM576.105 166.764C575.227 166.764 574.576 166.096 574.576 165.229C574.576 164.379 575.203 163.746 576.111 163.746C577.02 163.746 577.641 164.373 577.641 165.252C577.641 166.107 576.984 166.764 576.105 166.764Z" fill="#3E4249"/>
</g>
<path d="M543.25 175.5C543.25 175.914 543.586 176.25 544 176.25C544.414 176.25 544.75 175.914 544.75 175.5L543.25 175.5ZM544.53 151.97C544.237 151.677 543.763 151.677 543.47 151.97L538.697 156.743C538.404 157.036 538.404 157.51 538.697 157.803C538.99 158.096 539.464 158.096 539.757 157.803L544 153.561L548.243 157.803C548.536 158.096 549.01 158.096 549.303 157.803C549.596 157.51 549.596 157.036 549.303 156.743L544.53 151.97ZM544.75 175.5L544.75 152.5L543.25 152.5L543.25 175.5L544.75 175.5Z" fill="#008EFF"/>
<path d="M128.5 215.25C128.086 215.25 127.75 215.586 127.75 216C127.75 216.414 128.086 216.75 128.5 216.75V215.25ZM487.03 216.53C487.323 216.237 487.323 215.763 487.03 215.47L482.257 210.697C481.964 210.404 481.49 210.404 481.197 210.697C480.904 210.99 480.904 211.464 481.197 211.757L485.439 216L481.197 220.243C480.904 220.536 480.904 221.01 481.197 221.303C481.49 221.596 481.964 221.596 482.257 221.303L487.03 216.53ZM128.5 216.75L486.5 216.75V215.25L128.5 215.25V216.75Z" fill="#008EFF"/>
<path d="M75.25 176C75.25 176.414 75.5858 176.75 76 176.75C76.4142 176.75 76.75 176.414 76.75 176L75.25 176ZM488.53 80.5303C488.823 80.2374 488.823 79.7625 488.53 79.4697L483.757 74.6967C483.464 74.4038 482.99 74.4038 482.697 74.6967C482.404 74.9896 482.404 75.4644 482.697 75.7573L486.939 80L482.697 84.2426C482.404 84.5355 482.404 85.0104 482.697 85.3033C482.99 85.5962 483.464 85.5962 483.757 85.3033L488.53 80.5303ZM76 80L76 79.25C75.5858 79.25 75.25 79.5858 75.25 80L76 80ZM76.75 176L76.75 80L75.25 80L75.25 176L76.75 176ZM76 80.75L488 80.75L488 79.25L76 79.25L76 80.75Z" fill="#5AD269"/>
<path d="M75.25 280C75.25 279.586 75.5858 279.25 76 279.25C76.4142 279.25 76.75 279.586 76.75 280L75.25 280ZM488.53 335.469C488.823 335.762 488.823 336.237 488.53 336.53L483.757 341.303C483.464 341.596 482.99 341.596 482.697 341.303C482.404 341.01 482.404 340.535 482.697 340.242L486.939 336L482.697 331.757C482.404 331.464 482.404 330.989 482.697 330.696C482.99 330.404 483.464 330.404 483.757 330.696L488.53 335.469ZM76 336L76 336.75C75.5858 336.75 75.25 336.414 75.25 336L76 336ZM76.75 280L76.75 336L75.25 336L75.25 280L76.75 280ZM76 335.25L488 335.25L488 336.75L76 336.75L76 335.25Z" fill="#5AD269"/>
<path d="M488 95.25C488.414 95.25 488.75 95.5858 488.75 96C488.75 96.4142 488.414 96.75 488 96.75L488 95.25ZM92.5303 176.53C92.2374 176.823 91.7626 176.823 91.4697 176.53L86.6967 171.757C86.4038 171.464 86.4038 170.99 86.6967 170.697C86.9896 170.404 87.4645 170.404 87.7573 170.697L92 174.939L96.2426 170.697C96.5355 170.404 97.0104 170.404 97.3033 170.697C97.5962 170.99 97.5962 171.464 97.3033 171.757L92.5303 176.53ZM92 96L91.25 96C91.25 95.5858 91.5858 95.25 92 95.25L92 96ZM488 96.75L486 96.75L486 95.25L488 95.25L488 96.75ZM484 96.75L480 96.75L480 95.25L484 95.25L484 96.75ZM478 96.75L474 96.75L474 95.25L478 95.25L478 96.75ZM472 96.75L468 96.75L468 95.25L472 95.25L472 96.75ZM466 96.75L462 96.75L462 95.25L466 95.25L466 96.75ZM460 96.75L456 96.75L456 95.25L460 95.25L460 96.75ZM454 96.75L450 96.75L450 95.25L454 95.25L454 96.75ZM448 96.75L444 96.75L444 95.25L448 95.25L448 96.75ZM442 96.75L438 96.75L438 95.25L442 95.25L442 96.75ZM436 96.75L432 96.75L432 95.25L436 95.25L436 96.75ZM430 96.75L426 96.75L426 95.25L430 95.25L430 96.75ZM424 96.75L420 96.75L420 95.25L424 95.25L424 96.75ZM418 96.75L414 96.75L414 95.25L418 95.25L418 96.75ZM412 96.75L408 96.75L408 95.25L412 95.25L412 96.75ZM406 96.75L402 96.75L402 95.25L406 95.25L406 96.75ZM400 96.75L396 96.75L396 95.25L400 95.25L400 96.75ZM394 96.75L390 96.75L390 95.25L394 95.25L394 96.75ZM388 96.75L384 96.75L384 95.25L388 95.25L388 96.75ZM382 96.75L378 96.75L378 95.25L382 95.25L382 96.75ZM376 96.75L372 96.75L372 95.25L376 95.25L376 96.75ZM370 96.75L366 96.75L366 95.25L370 95.25L370 96.75ZM364 96.75L360 96.75L360 95.25L364 95.25L364 96.75ZM358 96.75L354 96.75L354 95.25L358 95.25L358 96.75ZM352 96.75L348 96.75L348 95.25L352 95.25L352 96.75ZM346 96.75L342 96.75L342 95.25L346 95.25L346 96.75ZM340 96.75L336 96.75L336 95.25L340 95.25L340 96.75ZM334 96.75L330 96.75L330 95.25L334 95.25L334 96.75ZM328 96.75L324 96.75L324 95.25L328 95.25L328 96.75ZM322 96.75L318 96.75L318 95.25L322 95.25L322 96.75ZM316 96.75L312 96.75L312 95.25L316 95.25L316 96.75ZM310 96.75L306 96.75L306 95.25L310 95.25L310 96.75ZM304 96.75L300 96.75L300 95.25L304 95.25L304 96.75ZM298 96.75L294 96.75L294 95.25L298 95.25L298 96.75ZM292 96.75L288 96.75L288 95.25L292 95.25L292 96.75ZM286 96.75L282 96.75L282 95.25L286 95.25L286 96.75ZM280 96.75L276 96.75L276 95.25L280 95.25L280 96.75ZM274 96.75L270 96.75L270 95.25L274 95.25L274 96.75ZM268 96.75L264 96.75L264 95.25L268 95.25L268 96.75ZM262 96.75L258 96.75L258 95.25L262 95.25L262 96.75ZM256 96.75L252 96.75L252 95.25L256 95.25L256 96.75ZM250 96.75L246 96.75L246 95.25L250 95.25L250 96.75ZM244 96.75L240 96.75L240 95.25L244 95.25L244 96.75ZM238 96.75L234 96.75L234 95.25L238 95.25L238 96.75ZM232 96.75L228 96.75L228 95.25L232 95.25L232 96.75ZM226 96.75L222 96.75L222 95.25L226 95.25L226 96.75ZM220 96.75L216 96.75L216 95.25L220 95.25L220 96.75ZM214 96.75L210 96.75L210 95.25L214 95.25L214 96.75ZM208 96.75L204 96.75L204 95.25L208 95.25L208 96.75ZM202 96.75L198 96.75L198 95.25L202 95.25L202 96.75ZM196 96.75L192 96.75L192 95.25L196 95.25L196 96.75ZM190 96.75L186 96.75L186 95.25L190 95.25L190 96.75ZM184 96.75L180 96.75L180 95.25L184 95.25L184 96.75ZM178 96.75L174 96.75L174 95.25L178 95.25L178 96.75ZM172 96.75L168 96.75L168 95.25L172 95.25L172 96.75ZM166 96.75L162 96.75L162 95.25L166 95.25L166 96.75ZM160 96.75L156 96.75L156 95.25L160 95.25L160 96.75ZM154 96.75L150 96.75L150 95.25L154 95.25L154 96.75ZM148 96.75L144 96.75L144 95.25L148 95.25L148 96.75ZM142 96.75L138 96.75L138 95.25L142 95.25L142 96.75ZM136 96.75L132 96.75L132 95.25L136 95.25L136 96.75ZM130 96.75L126 96.75L126 95.25L130 95.25L130 96.75ZM124 96.75L120 96.75L120 95.25L124 95.25L124 96.75ZM118 96.75L114 96.75L114 95.25L118 95.25L118 96.75ZM112 96.75L108 96.75L108 95.25L112 95.25L112 96.75ZM106 96.75L102 96.75L102 95.25L106 95.25L106 96.75ZM100 96.75L96 96.75L96 95.25L100 95.25L100 96.75ZM94 96.75L92 96.75L92 95.25L94 95.25L94 96.75ZM92.75 96L92.75 98.0512L91.25 98.0512L91.25 96L92.75 96ZM92.75 100.103L92.75 104.205L91.25 104.205L91.25 100.103L92.75 100.103ZM92.75 106.256L92.75 110.359L91.25 110.359L91.25 106.256L92.75 106.256ZM92.75 112.41L92.75 116.513L91.25 116.513L91.25 112.41L92.75 112.41ZM92.75 118.564L92.75 122.667L91.25 122.667L91.25 118.564L92.75 118.564ZM92.75 124.718L92.75 128.82L91.25 128.82L91.25 124.718L92.75 124.718ZM92.75 130.872L92.75 134.974L91.25 134.974L91.25 130.872L92.75 130.872ZM92.75 137.026L92.75 141.128L91.25 141.128L91.25 137.026L92.75 137.026ZM92.75 143.179L92.75 147.282L91.25 147.282L91.25 143.179L92.75 143.179ZM92.75 149.333L92.75 153.436L91.25 153.436L91.25 149.333L92.75 149.333ZM92.75 155.487L92.75 159.59L91.25 159.59L91.25 155.487L92.75 155.487ZM92.75 161.641L92.75 165.744L91.25 165.744L91.25 161.641L92.75 161.641ZM92.75 167.795L92.75 171.897L91.25 171.897L91.25 167.795L92.75 167.795ZM92.75 173.949L92.75 176L91.25 176L91.25 173.949L92.75 173.949Z" fill="#5AD269"/>
<path d="M488 320.75C488.414 320.75 488.75 320.414 488.75 320C488.75 319.586 488.414 319.25 488 319.25L488 320.75ZM92.5303 279.47C92.2374 279.177 91.7626 279.177 91.4697 279.47L86.6967 284.243C86.4038 284.536 86.4038 285.011 86.6967 285.303C86.9896 285.596 87.4645 285.596 87.7574 285.303L92 281.061L96.2426 285.303C96.5355 285.596 97.0104 285.596 97.3033 285.303C97.5962 285.011 97.5962 284.536 97.3033 284.243L92.5303 279.47ZM92 320L91.25 320C91.25 320.414 91.5858 320.75 92 320.75L92 320ZM488 319.25L486 319.25L486 320.75L488 320.75L488 319.25ZM484 319.25L480 319.25L480 320.75L484 320.75L484 319.25ZM478 319.25L474 319.25L474 320.75L478 320.75L478 319.25ZM472 319.25L468 319.25L468 320.75L472 320.75L472 319.25ZM466 319.25L462 319.25L462 320.75L466 320.75L466 319.25ZM460 319.25L456 319.25L456 320.75L460 320.75L460 319.25ZM454 319.25L450 319.25L450 320.75L454 320.75L454 319.25ZM448 319.25L444 319.25L444 320.75L448 320.75L448 319.25ZM442 319.25L438 319.25L438 320.75L442 320.75L442 319.25ZM436 319.25L432 319.25L432 320.75L436 320.75L436 319.25ZM430 319.25L426 319.25L426 320.75L430 320.75L430 319.25ZM424 319.25L420 319.25L420 320.75L424 320.75L424 319.25ZM418 319.25L414 319.25L414 320.75L418 320.75L418 319.25ZM412 319.25L408 319.25L408 320.75L412 320.75L412 319.25ZM406 319.25L402 319.25L402 320.75L406 320.75L406 319.25ZM400 319.25L396 319.25L396 320.75L400 320.75L400 319.25ZM394 319.25L390 319.25L390 320.75L394 320.75L394 319.25ZM388 319.25L384 319.25L384 320.75L388 320.75L388 319.25ZM382 319.25L378 319.25L378 320.75L382 320.75L382 319.25ZM376 319.25L372 319.25L372 320.75L376 320.75L376 319.25ZM370 319.25L366 319.25L366 320.75L370 320.75L370 319.25ZM364 319.25L360 319.25L360 320.75L364 320.75L364 319.25ZM358 319.25L354 319.25L354 320.75L358 320.75L358 319.25ZM352 319.25L348 319.25L348 320.75L352 320.75L352 319.25ZM346 319.25L342 319.25L342 320.75L346 320.75L346 319.25ZM340 319.25L336 319.25L336 320.75L340 320.75L340 319.25ZM334 319.25L330 319.25L330 320.75L334 320.75L334 319.25ZM328 319.25L324 319.25L324 320.75L328 320.75L328 319.25ZM322 319.25L318 319.25L318 320.75L322 320.75L322 319.25ZM316 319.25L312 319.25L312 320.75L316 320.75L316 319.25ZM310 319.25L306 319.25L306 320.75L310 320.75L310 319.25ZM304 319.25L300 319.25L300 320.75L304 320.75L304 319.25ZM298 319.25L294 319.25L294 320.75L298 320.75L298 319.25ZM292 319.25L288 319.25L288 320.75L292 320.75L292 319.25ZM286 319.25L282 319.25L282 320.75L286 320.75L286 319.25ZM280 319.25L276 319.25L276 320.75L280 320.75L280 319.25ZM274 319.25L270 319.25L270 320.75L274 320.75L274 319.25ZM268 319.25L264 319.25L264 320.75L268 320.75L268 319.25ZM262 319.25L258 319.25L258 320.75L262 320.75L262 319.25ZM256 319.25L252 319.25L252 320.75L256 320.75L256 319.25ZM250 319.25L246 319.25L246 320.75L250 320.75L250 319.25ZM244 319.25L240 319.25L240 320.75L244 320.75L244 319.25ZM238 319.25L234 319.25L234 320.75L238 320.75L238 319.25ZM232 319.25L228 319.25L228 320.75L232 320.75L232 319.25ZM226 319.25L222 319.25L222 320.75L226 320.75L226 319.25ZM220 319.25L216 319.25L216 320.75L220 320.75L220 319.25ZM214 319.25L210 319.25L210 320.75L214 320.75L214 319.25ZM208 319.25L204 319.25L204 320.75L208 320.75L208 319.25ZM202 319.25L198 319.25L198 320.75L202 320.75L202 319.25ZM196 319.25L192 319.25L192 320.75L196 320.75L196 319.25ZM190 319.25L186 319.25L186 320.75L190 320.75L190 319.25ZM184 319.25L180 319.25L180 320.75L184 320.75L184 319.25ZM178 319.25L174 319.25L174 320.75L178 320.75L178 319.25ZM172 319.25L168 319.25L168 320.75L172 320.75L172 319.25ZM166 319.25L162 319.25L162 320.75L166 320.75L166 319.25ZM160 319.25L156 319.25L156 320.75L160 320.75L160 319.25ZM154 319.25L150 319.25L150 320.75L154 320.75L154 319.25ZM148 319.25L144 319.25L144 320.75L148 320.75L148 319.25ZM142 319.25L138 319.25L138 320.75L142 320.75L142 319.25ZM136 319.25L132 319.25L132 320.75L136 320.75L136 319.25ZM130 319.25L126 319.25L126 320.75L130 320.75L130 319.25ZM124 319.25L120 319.25L120 320.75L124 320.75L124 319.25ZM118 319.25L114 319.25L114 320.75L118 320.75L118 319.25ZM112 319.25L108 319.25L108 320.75L112 320.75L112 319.25ZM106 319.25L102 319.25L102 320.75L106 320.75L106 319.25ZM100 319.25L96 319.25L96 320.75L100 320.75L100 319.25ZM94 319.25L92 319.25L92 320.75L94 320.75L94 319.25ZM92.75 320L92.75 318.095L91.25 318.095L91.25 320L92.75 320ZM92.75 316.191L92.75 312.381L91.25 312.381L91.25 316.191L92.75 316.191ZM92.75 310.476L92.75 306.667L91.25 306.667L91.25 310.476L92.75 310.476ZM92.75 304.762L92.75 300.952L91.25 300.952L91.25 304.762L92.75 304.762ZM92.75 299.048L92.75 295.238L91.25 295.238L91.25 299.048L92.75 299.048ZM92.75 293.333L92.75 289.524L91.25 289.524L91.25 293.333L92.75 293.333ZM92.75 287.619L92.75 283.81L91.25 283.81L91.25 287.619L92.75 287.619ZM92.75 281.905L92.75 280L91.25 280L91.25 281.905L92.75 281.905Z" fill="#5AD269"/>
<path d="M576.5 206.25C576.086 206.25 575.75 206.586 575.75 207C575.75 207.414 576.086 207.75 576.5 207.75L576.5 206.25ZM575.97 336.47C575.677 336.763 575.677 337.237 575.97 337.53L580.743 342.303C581.036 342.596 581.51 342.596 581.803 342.303C582.096 342.01 582.096 341.536 581.803 341.243L577.561 337L581.803 332.757C582.096 332.464 582.096 331.99 581.803 331.697C581.51 331.404 581.036 331.404 580.743 331.697L575.97 336.47ZM680 337L680 337.75C680.414 337.75 680.75 337.414 680.75 337L680 337ZM680 207L680.75 207C680.75 206.586 680.414 206.25 680 206.25L680 207ZM680 336.25L576.5 336.25L576.5 337.75L680 337.75L680 336.25ZM576.5 207.75L680 207.75L680 206.25L576.5 206.25L576.5 207.75ZM679.25 207L679.25 337L680.75 337L680.75 207L679.25 207Z" fill="#EE3D3D"/>
<path d="M520.75 152.5C520.75 152.086 520.414 151.75 520 151.75C519.586 151.75 519.25 152.086 519.25 152.5L520.75 152.5ZM519.47 176.03C519.763 176.323 520.237 176.323 520.53 176.03L525.303 171.257C525.596 170.964 525.596 170.49 525.303 170.197C525.01 169.904 524.536 169.904 524.243 170.197L520 174.439L515.757 170.197C515.464 169.904 514.99 169.904 514.697 170.197C514.404 170.49 514.404 170.964 514.697 171.257L519.47 176.03ZM519.25 152.5L519.25 154.417L520.75 154.417L520.75 152.5L519.25 152.5ZM519.25 156.333L519.25 160.167L520.75 160.167L520.75 156.333L519.25 156.333ZM519.25 162.083L519.25 165.917L520.75 165.917L520.75 162.083L519.25 162.083ZM519.25 167.833L519.25 171.667L520.75 171.667L520.75 167.833L519.25 167.833ZM519.25 173.583L519.25 175.5L520.75 175.5L520.75 173.583L519.25 173.583Z" fill="#008EFF"/>
<path d="M577.5 320.75C577.086 320.75 576.75 320.414 576.75 320C576.75 319.586 577.086 319.25 577.5 319.25L577.5 320.75ZM576.97 224.53C576.677 224.237 576.677 223.763 576.97 223.47L581.743 218.697C582.036 218.404 582.51 218.404 582.803 218.697C583.096 218.99 583.096 219.464 582.803 219.757L578.561 224L582.803 228.243C583.096 228.536 583.096 229.01 582.803 229.303C582.51 229.596 582.036 229.596 581.743 229.303L576.97 224.53ZM664 224L664 223.25C664.414 223.25 664.75 223.586 664.75 224L664 224ZM664 320L664.75 320C664.75 320.414 664.414 320.75 664 320.75L664 320ZM577.5 319.25L579.56 319.25L579.56 320.75L577.5 320.75L577.5 319.25ZM581.619 319.25L585.738 319.25L585.738 320.75L581.619 320.75L581.619 319.25ZM587.798 319.25L591.917 319.25L591.917 320.75L587.798 320.75L587.798 319.25ZM593.976 319.25L598.095 319.25L598.095 320.75L593.976 320.75L593.976 319.25ZM600.155 319.25L604.274 319.25L604.274 320.75L600.155 320.75L600.155 319.25ZM606.333 319.25L610.452 319.25L610.452 320.75L606.333 320.75L606.333 319.25ZM612.512 319.25L616.631 319.25L616.631 320.75L612.512 320.75L612.512 319.25ZM618.69 319.25L622.81 319.25L622.81 320.75L618.69 320.75L618.69 319.25ZM624.869 319.25L628.988 319.25L628.988 320.75L624.869 320.75L624.869 319.25ZM631.048 319.25L635.167 319.25L635.167 320.75L631.048 320.75L631.048 319.25ZM637.226 319.25L641.345 319.25L641.345 320.75L637.226 320.75L637.226 319.25ZM643.405 319.25L647.524 319.25L647.524 320.75L643.405 320.75L643.405 319.25ZM649.583 319.25L653.702 319.25L653.702 320.75L649.583 320.75L649.583 319.25ZM655.762 319.25L659.881 319.25L659.881 320.75L655.762 320.75L655.762 319.25ZM661.94 319.25L664 319.25L664 320.75L661.94 320.75L661.94 319.25ZM663.25 320L663.25 318L664.75 318L664.75 320L663.25 320ZM663.25 316L663.25 312L664.75 312L664.75 316L663.25 316ZM663.25 310L663.25 306L664.75 306L664.75 310L663.25 310ZM663.25 304L663.25 300L664.75 300L664.75 304L663.25 304ZM663.25 298L663.25 294L664.75 294L664.75 298L663.25 298ZM663.25 292L663.25 288L664.75 288L664.75 292L663.25 292ZM663.25 286L663.25 282L664.75 282L664.75 286L663.25 286ZM663.25 280L663.25 276L664.75 276L664.75 280L663.25 280ZM663.25 274L663.25 270L664.75 270L664.75 274L663.25 274ZM663.25 268L663.25 264L664.75 264L664.75 268L663.25 268ZM663.25 262L663.25 258L664.75 258L664.75 262L663.25 262ZM663.25 256L663.25 252L664.75 252L664.75 256L663.25 256ZM663.25 250L663.25 246L664.75 246L664.75 250L663.25 250ZM663.25 244L663.25 240L664.75 240L664.75 244L663.25 244ZM663.25 238L663.25 234L664.75 234L664.75 238L663.25 238ZM663.25 232L663.25 228L664.75 228L664.75 232L663.25 232ZM663.25 226L663.25 224L664.75 224L664.75 226L663.25 226ZM664 224.75L661.94 224.75L661.94 223.25L664 223.25L664 224.75ZM659.881 224.75L655.762 224.75L655.762 223.25L659.881 223.25L659.881 224.75ZM653.702 224.75L649.583 224.75L649.583 223.25L653.702 223.25L653.702 224.75ZM647.524 224.75L643.405 224.75L643.405 223.25L647.524 223.25L647.524 224.75ZM641.345 224.75L637.226 224.75L637.226 223.25L641.345 223.25L641.345 224.75ZM635.167 224.75L631.048 224.75L631.048 223.25L635.167 223.25L635.167 224.75ZM628.988 224.75L624.869 224.75L624.869 223.25L628.988 223.25L628.988 224.75ZM622.81 224.75L618.69 224.75L618.69 223.25L622.81 223.25L622.81 224.75ZM616.631 224.75L612.512 224.75L612.512 223.25L616.631 223.25L616.631 224.75ZM610.452 224.75L606.333 224.75L606.333 223.25L610.452 223.25L610.452 224.75ZM604.274 224.75L600.155 224.75L600.155 223.25L604.274 223.25L604.274 224.75ZM598.095 224.75L593.976 224.75L593.976 223.25L598.095 223.25L598.095 224.75ZM591.917 224.75L587.798 224.75L587.798 223.25L591.917 223.25L591.917 224.75ZM585.738 224.75L581.619 224.75L581.619 223.25L585.738 223.25L585.738 224.75ZM579.56 224.75L577.5 224.75L577.5 223.25L579.56 223.25L579.56 224.75Z" fill="#EE3D3D"/>
<g filter="url(#filter1_d)">
<path d="M672 250C672 244.477 676.477 240 682 240H694C699.523 240 704 244.477 704 250C704 255.523 699.523 260 694 260H682C676.477 260 672 255.523 672 250Z" fill="#FBE19D"/>
<path d="M688.674 254H690.361V252.471H691.469V251H690.361V245.545H687.883C686.752 247.279 685.604 249.137 684.537 251.035V252.471H688.674V254ZM686.125 250.959C686.893 249.611 687.795 248.17 688.621 246.922H688.715V251.059H686.125V250.959Z" fill="#3E4249"/>
</g>
<g filter="url(#filter2_d)">
<path d="M640 290C640 284.477 644.477 280 650 280H662C667.523 280 672 284.477 672 290C672 295.523 667.523 300 662 300H650C644.477 300 640 295.523 640 290Z" fill="#FBE19D"/>
<path d="M656.088 294.217C657.992 294.217 659.264 292.998 659.264 291.205C659.264 289.488 658.098 288.422 656.639 288.422C655.76 288.422 655.139 288.738 654.787 289.271H654.682L654.898 286.998H658.807V285.545H653.527L653.076 290.52H654.658C654.922 290.021 655.438 289.711 656.105 289.711C656.967 289.711 657.576 290.314 657.576 291.223C657.576 292.154 656.961 292.77 656.07 292.77C655.285 292.77 654.682 292.307 654.588 291.592H652.953C653.006 293.104 654.254 294.217 656.088 294.217Z" fill="#3E4249"/>
</g>
<g filter="url(#filter3_d)">
<path d="M293 216C293 210.477 297.477 206 303 206H315C320.523 206 325 210.477 325 216C325 221.523 320.523 226 315 226H303C297.477 226 293 221.523 293 216Z" fill="#FBE19D"/>
<path d="M307.881 216.314H308.953C309.902 216.314 310.488 216.777 310.488 217.527C310.488 218.26 309.861 218.746 308.965 218.746C308.057 218.746 307.447 218.289 307.395 217.574H305.701C305.777 219.174 307.078 220.217 308.988 220.217C310.898 220.217 312.293 219.168 312.293 217.686C312.293 216.555 311.578 215.805 310.4 215.635V215.523C311.309 215.301 311.953 214.627 311.959 213.602C311.965 212.365 310.922 211.328 309.047 211.328C307.143 211.328 305.941 212.377 305.883 213.936H307.518C307.576 213.18 308.104 212.74 308.959 212.74C309.785 212.74 310.283 213.221 310.283 213.854C310.283 214.545 309.738 215.02 308.936 215.02H307.881V216.314Z" fill="#3E4249"/>
</g>
<g filter="url(#filter4_d)">
<path d="M197 78C197 72.4772 201.477 68 207 68H219C224.523 68 229 72.4772 229 78C229 83.5228 224.523 88 219 88H207C201.477 88 197 83.5228 197 78Z" fill="#FBE19D"/>
<path d="M212.818 82H214.588V73.5449H212.824L210.639 75.0508V76.6973L212.713 75.2676H212.818V82Z" fill="#3E4249"/>
</g>
<g filter="url(#filter5_d)">
<path d="M197 318C197 312.477 201.477 308 207 308H219C224.523 308 229 312.477 229 318C229 323.523 224.523 328 219 328H207C201.477 328 197 323.523 197 318Z" fill="#FBE19D"/>
<path d="M206.355 316.129H207.996C207.996 315.32 208.535 314.752 209.396 314.752C210.223 314.752 210.703 315.285 210.703 315.959C210.703 316.527 210.475 316.914 209.42 317.928L206.455 320.764V322H212.555V320.529H208.84V320.424L210.598 318.783C212.004 317.465 212.438 316.785 212.438 315.795C212.438 314.365 211.289 313.328 209.496 313.328C207.645 313.328 206.355 314.471 206.355 316.129ZM216.51 320.816C215.918 320.816 215.502 320.523 215.502 320.043C215.502 319.58 215.859 319.316 216.592 319.264L217.898 319.182V319.656C217.898 320.312 217.301 320.816 216.51 320.816ZM215.947 322.1C216.785 322.1 217.488 321.748 217.822 321.156H217.928V322H219.58V317.588C219.58 316.205 218.613 315.396 216.902 315.396C215.279 315.396 214.184 316.146 214.072 317.342H215.643C215.783 316.955 216.193 316.744 216.809 316.744C217.512 316.744 217.898 317.049 217.898 317.588V318.115L216.334 318.209C214.729 318.303 213.832 318.982 213.832 320.154C213.832 321.338 214.705 322.1 215.947 322.1Z" fill="#3E4249"/>
</g>
<g filter="url(#filter6_d)">
<path d="M389 94C389 88.4772 393.477 84 399 84H411C416.523 84 421 88.4772 421 94C421 99.5228 416.523 104 411 104H399C393.477 104 389 99.5228 389 94Z" fill="#FBE19D"/>
<path d="M401.279 98H403.049V89.5449H401.285L399.1 91.0508V92.6973L401.174 91.2676H401.279V98ZM407.73 96.8164C407.139 96.8164 406.723 96.5234 406.723 96.043C406.723 95.5801 407.08 95.3164 407.812 95.2637L409.119 95.1816V95.6562C409.119 96.3125 408.521 96.8164 407.73 96.8164ZM407.168 98.0996C408.006 98.0996 408.709 97.748 409.043 97.1562H409.148V98H410.801V93.5879C410.801 92.2051 409.834 91.3965 408.123 91.3965C406.5 91.3965 405.404 92.1465 405.293 93.3418H406.863C407.004 92.9551 407.414 92.7441 408.029 92.7441C408.732 92.7441 409.119 93.0488 409.119 93.5879V94.1152L407.555 94.209C405.949 94.3027 405.053 94.9824 405.053 96.1543C405.053 97.3379 405.926 98.0996 407.168 98.0996Z" fill="#3E4249"/>
</g>
<g filter="url(#filter7_d)">
<path d="M389 336C389 330.477 393.477 326 399 326H411C416.523 326 421 330.477 421 336C421 341.523 416.523 346 411 346H399C393.477 346 389 341.523 389 336Z" fill="#FBE19D"/>
<path d="M401.895 334.129H403.535C403.535 333.32 404.074 332.752 404.936 332.752C405.762 332.752 406.242 333.285 406.242 333.959C406.242 334.527 406.014 334.914 404.959 335.928L401.994 338.764V340H408.094V338.529H404.379V338.424L406.137 336.783C407.543 335.465 407.977 334.785 407.977 333.795C407.977 332.365 406.828 331.328 405.035 331.328C403.184 331.328 401.895 332.471 401.895 334.129Z" fill="#3E4249"/>
</g>
<rect width="225" height="17" transform="translate(428 8)" fill="white"/>
<path d="M433.251 18.3203C433.34 20.1113 434.837 21.2461 437.1 21.2461C439.492 21.2461 440.976 20.0498 440.976 18.1289C440.976 16.625 440.135 15.791 438.132 15.3398L436.997 15.0801C435.773 14.7998 435.274 14.4102 435.274 13.7471C435.274 12.9062 436.026 12.3594 437.161 12.3594C438.241 12.3594 439.007 12.9062 439.13 13.7744H440.818C440.736 12.0791 439.239 10.8896 437.168 10.8896C434.96 10.8896 433.497 12.0791 433.497 13.8701C433.497 15.3398 434.338 16.2285 436.129 16.6318L437.407 16.9258C438.672 17.2197 439.212 17.6367 439.212 18.3477C439.212 19.1748 438.371 19.7695 437.209 19.7695C435.958 19.7695 435.083 19.2021 434.974 18.3203H433.251ZM443.601 23.7139C445.275 23.7139 446.075 23.0986 446.711 21.2393L449.411 13.5215H447.62L445.877 19.3594H445.761L444.011 13.5215H442.151L444.824 21.0342L444.735 21.3623C444.517 22.0527 444.113 22.3262 443.396 22.3262C443.279 22.3262 443.026 22.3193 442.931 22.2988V23.6865C443.04 23.707 443.498 23.7139 443.601 23.7139ZM450.874 21H452.569V16.4541C452.569 15.5381 453.191 14.8477 454.032 14.8477C454.866 14.8477 455.386 15.3467 455.386 16.167V21H457.033V16.3447C457.033 15.4902 457.614 14.8477 458.496 14.8477C459.405 14.8477 459.863 15.3262 459.863 16.29V21H461.552V15.8594C461.552 14.3076 460.649 13.3711 459.152 13.3711C458.113 13.3711 457.252 13.9111 456.883 14.7314H456.767C456.452 13.8906 455.734 13.3711 454.702 13.3711C453.711 13.3711 452.945 13.877 452.624 14.7314H452.508V13.5215H450.874V21ZM467.636 13.3984C466.61 13.3984 465.742 13.9111 465.312 14.7588H465.195V13.5215H463.562V23.4883H465.257V19.8652H465.373C465.756 20.6582 466.583 21.123 467.656 21.123C469.543 21.123 470.719 19.6465 470.719 17.2607C470.719 14.8613 469.529 13.3984 467.636 13.3984ZM467.103 19.6807C465.947 19.6807 465.229 18.7578 465.223 17.2607C465.229 15.7705 465.954 14.8408 467.109 14.8408C468.271 14.8408 468.976 15.75 468.976 17.2607C468.976 18.7715 468.278 19.6807 467.103 19.6807ZM472.489 21H474.185V16.6592C474.185 15.5859 474.807 14.8613 475.921 14.8613C476.905 14.8613 477.425 15.4424 477.425 16.5771V21H479.12V16.1738C479.12 14.3965 478.149 13.3848 476.55 13.3848C475.436 13.3848 474.636 13.8906 474.28 14.7314H474.157V10.6299H472.489V21ZM484.356 21.1504C486.592 21.1504 487.952 19.6875 487.952 17.2607C487.952 14.8408 486.585 13.3711 484.356 13.3711C482.135 13.3711 480.761 14.8477 480.761 17.2607C480.761 19.6875 482.114 21.1504 484.356 21.1504ZM484.356 19.7285C483.174 19.7285 482.497 18.8262 482.497 17.2607C482.497 15.7021 483.174 14.793 484.356 14.793C485.532 14.793 486.209 15.7021 486.209 17.2607C486.209 18.8262 485.539 19.7285 484.356 19.7285ZM489.661 21H491.356V16.6455C491.356 15.5449 491.992 14.8477 493.004 14.8477C494.036 14.8477 494.515 15.4219 494.515 16.5635V21H496.21V16.1602C496.21 14.376 495.301 13.3711 493.633 13.3711C492.519 13.3711 491.767 13.8838 491.411 14.7178H491.295V13.5215H489.661V21ZM498.808 23.7139C500.482 23.7139 501.282 23.0986 501.918 21.2393L504.618 13.5215H502.827L501.084 19.3594H500.968L499.218 13.5215H497.358L500.031 21.0342L499.942 21.3623C499.724 22.0527 499.32 22.3262 498.603 22.3262C498.486 22.3262 498.233 22.3193 498.138 22.2988V23.6865C498.247 23.707 498.705 23.7139 498.808 23.7139ZM514.106 21.2461C516.383 21.2461 518.051 19.8857 518.283 17.8691H516.547C516.308 18.9766 515.357 19.6738 514.106 19.6738C512.425 19.6738 511.379 18.293 511.379 16.0645C511.379 13.8428 512.425 12.4619 514.1 12.4619C515.344 12.4619 516.294 13.2275 516.54 14.4102H518.276C518.071 12.3525 516.342 10.8896 514.1 10.8896C511.304 10.8896 509.574 12.8652 509.574 16.0713C509.574 19.2637 511.311 21.2461 514.106 21.2461ZM520.136 21H521.831V10.6299H520.136V21ZM527.204 21.1504C529.439 21.1504 530.8 19.6875 530.8 17.2607C530.8 14.8408 529.433 13.3711 527.204 13.3711C524.982 13.3711 523.608 14.8477 523.608 17.2607C523.608 19.6875 524.962 21.1504 527.204 21.1504ZM527.204 19.7285C526.021 19.7285 525.345 18.8262 525.345 17.2607C525.345 15.7021 526.021 14.793 527.204 14.793C528.38 14.793 529.057 15.7021 529.057 17.2607C529.057 18.8262 528.387 19.7285 527.204 19.7285ZM539.017 13.5215H537.321V17.876C537.321 18.9834 536.72 19.6602 535.619 19.6602C534.607 19.6602 534.136 19.0996 534.136 17.958V13.5215H532.44V18.3818C532.44 20.1318 533.397 21.1504 535.031 21.1504C536.173 21.1504 536.904 20.665 537.267 19.8105H537.383V21H539.017V13.5215ZM543.802 21.123C544.841 21.123 545.702 20.6377 546.126 19.8174H546.242V21H547.883V10.6299H546.188V14.7109H546.071C545.675 13.8906 544.827 13.3984 543.802 13.3984C541.915 13.3984 540.726 14.8887 540.726 17.2539C540.726 19.6328 541.908 21.123 543.802 21.123ZM544.328 14.8408C545.49 14.8408 546.208 15.7705 546.208 17.2607C546.208 18.7646 545.497 19.6807 544.328 19.6807C543.166 19.6807 542.462 18.7715 542.462 17.2607C542.462 15.7568 543.173 14.8408 544.328 14.8408ZM555.696 21V11.1357H553.933V21H555.696ZM557.952 21H559.647V16.6455C559.647 15.5449 560.283 14.8477 561.295 14.8477C562.327 14.8477 562.806 15.4219 562.806 16.5635V21H564.501V16.1602C564.501 14.376 563.592 13.3711 561.924 13.3711C560.81 13.3711 560.058 13.8838 559.702 14.7178H559.586V13.5215H557.952V21ZM567.058 21H568.746V14.9229H570.353V13.5693H568.726V12.8926C568.726 12.1885 569.04 11.8398 569.84 11.8398C570.079 11.8398 570.284 11.8535 570.421 11.874V10.6299C570.147 10.582 569.84 10.5547 569.478 10.5547C567.816 10.5547 567.058 11.293 567.058 12.7832V13.5693H565.834V14.9229H567.058V21ZM571.993 21H573.688V16.6797C573.688 15.6338 574.454 14.9502 575.555 14.9502C575.842 14.9502 576.293 14.998 576.423 15.0459V13.4736C576.266 13.4258 575.965 13.3984 575.719 13.3984C574.755 13.3984 573.948 13.9453 573.743 14.6836H573.627V13.5215H571.993V21ZM580.278 19.79C579.526 19.79 578.986 19.4141 578.986 18.7852C578.986 18.1768 579.431 17.835 580.381 17.7734L582.069 17.6641V18.2588C582.069 19.127 581.304 19.79 580.278 19.79ZM579.779 21.123C580.757 21.123 581.577 20.6992 581.994 19.9746H582.11V21H583.744V15.8936C583.744 14.3076 582.664 13.3711 580.743 13.3711C578.966 13.3711 577.729 14.2119 577.592 15.5312H579.191C579.349 15.0254 579.882 14.752 580.661 14.752C581.577 14.752 582.069 15.1621 582.069 15.8936V16.5225L580.142 16.6387C578.323 16.748 577.305 17.5273 577.305 18.8809C577.305 20.248 578.337 21.123 579.779 21.123ZM585.617 15.6611C585.617 16.7891 586.294 17.4521 587.729 17.7803L589.056 18.0879C589.767 18.2451 590.088 18.5117 590.088 18.9355C590.088 19.4893 589.493 19.8652 588.639 19.8652C587.791 19.8652 587.265 19.5371 587.101 18.9834H585.426C585.556 20.3438 586.731 21.1504 588.598 21.1504C590.464 21.1504 591.783 20.1934 591.783 18.7578C591.783 17.6572 591.12 17.042 589.691 16.7207L588.372 16.4199C587.62 16.249 587.265 15.9893 587.265 15.5654C587.265 15.0254 587.846 14.6562 588.618 14.6562C589.411 14.6562 589.91 14.9912 590.033 15.5176H591.626C591.503 14.1572 590.389 13.3711 588.611 13.3711C586.848 13.3711 585.617 14.3076 585.617 15.6611ZM593.984 11.6895V13.5693H592.802V14.9229H593.984V19.0039C593.984 20.4531 594.668 21.0342 596.384 21.0342C596.712 21.0342 597.026 21 597.272 20.9521V19.626C597.067 19.6465 596.938 19.6602 596.698 19.6602C595.987 19.6602 595.673 19.332 595.673 18.5938V14.9229H597.272V13.5693H595.673V11.6895H593.984ZM598.968 21H600.663V16.6797C600.663 15.6338 601.429 14.9502 602.529 14.9502C602.816 14.9502 603.268 14.998 603.397 15.0459V13.4736C603.24 13.4258 602.939 13.3984 602.693 13.3984C601.729 13.3984 600.923 13.9453 600.718 14.6836H600.602V13.5215H598.968V21ZM611.3 13.5215H609.604V17.876C609.604 18.9834 609.003 19.6602 607.902 19.6602C606.891 19.6602 606.419 19.0996 606.419 17.958V13.5215H604.724V18.3818C604.724 20.1318 605.681 21.1504 607.314 21.1504C608.456 21.1504 609.188 20.665 609.55 19.8105H609.666V21H611.3V13.5215ZM619.838 16.0371C619.66 14.4648 618.498 13.3711 616.577 13.3711C614.328 13.3711 613.009 14.8135 613.009 17.2402C613.009 19.7012 614.335 21.1504 616.584 21.1504C618.478 21.1504 619.653 20.0977 619.838 18.5322H618.225C618.047 19.3115 617.459 19.7285 616.577 19.7285C615.422 19.7285 614.725 18.8125 614.725 17.2402C614.725 15.6885 615.415 14.793 616.577 14.793C617.507 14.793 618.067 15.3125 618.225 16.0371H619.838ZM622.094 11.6895V13.5693H620.911V14.9229H622.094V19.0039C622.094 20.4531 622.777 21.0342 624.493 21.0342C624.821 21.0342 625.136 21 625.382 20.9521V19.626C625.177 19.6465 625.047 19.6602 624.808 19.6602C624.097 19.6602 623.782 19.332 623.782 18.5938V14.9229H625.382V13.5693H623.782V11.6895H622.094ZM633.585 13.5215H631.89V17.876C631.89 18.9834 631.288 19.6602 630.188 19.6602C629.176 19.6602 628.704 19.0996 628.704 17.958V13.5215H627.009V18.3818C627.009 20.1318 627.966 21.1504 629.6 21.1504C630.741 21.1504 631.473 20.665 631.835 19.8105H631.951V21H633.585V13.5215ZM635.663 21H637.358V16.6797C637.358 15.6338 638.124 14.9502 639.225 14.9502C639.512 14.9502 639.963 14.998 640.093 15.0459V13.4736C639.936 13.4258 639.635 13.3984 639.389 13.3984C638.425 13.3984 637.618 13.9453 637.413 14.6836H637.297V13.5215H635.663V21ZM644.434 14.7178C645.452 14.7178 646.122 15.4287 646.156 16.5361H642.636C642.711 15.4424 643.422 14.7178 644.434 14.7178ZM646.17 18.9424C645.924 19.4961 645.343 19.8037 644.502 19.8037C643.388 19.8037 642.67 19.0244 642.629 17.7803V17.6914H647.852V17.1445C647.852 14.7861 646.573 13.3711 644.44 13.3711C642.273 13.3711 640.927 14.8818 640.927 17.2881C640.927 19.6943 642.253 21.1504 644.454 21.1504C646.218 21.1504 647.469 20.3027 647.776 18.9424H646.17Z" fill="#525760"/>
<rect width="148" height="17" transform="translate(106 8)" fill="white"/>
<path d="M115.407 21.2461C117.684 21.2461 119.352 19.8857 119.584 17.8691H117.848C117.608 18.9766 116.658 19.6738 115.407 19.6738C113.726 19.6738 112.68 18.293 112.68 16.0645C112.68 13.8428 113.726 12.4619 115.4 12.4619C116.645 12.4619 117.595 13.2275 117.841 14.4102H119.577C119.372 12.3525 117.643 10.8896 115.4 10.8896C112.604 10.8896 110.875 12.8652 110.875 16.0713C110.875 19.2637 112.611 21.2461 115.407 21.2461ZM121.437 21H123.132V10.6299H121.437V21ZM125.299 21H126.987V13.5215H125.299V21ZM126.14 12.2842C126.7 12.2842 127.151 11.833 127.151 11.2656C127.151 10.6982 126.7 10.2402 126.14 10.2402C125.586 10.2402 125.128 10.6982 125.128 11.2656C125.128 11.833 125.586 12.2842 126.14 12.2842ZM132.23 14.7178C133.249 14.7178 133.919 15.4287 133.953 16.5361H130.433C130.508 15.4424 131.219 14.7178 132.23 14.7178ZM133.967 18.9424C133.721 19.4961 133.14 19.8037 132.299 19.8037C131.185 19.8037 130.467 19.0244 130.426 17.7803V17.6914H135.648V17.1445C135.648 14.7861 134.37 13.3711 132.237 13.3711C130.07 13.3711 128.724 14.8818 128.724 17.2881C128.724 19.6943 130.05 21.1504 132.251 21.1504C134.015 21.1504 135.266 20.3027 135.573 18.9424H133.967ZM137.351 21H139.046V16.6455C139.046 15.5449 139.682 14.8477 140.693 14.8477C141.726 14.8477 142.204 15.4219 142.204 16.5635V21H143.899V16.1602C143.899 14.376 142.99 13.3711 141.322 13.3711C140.208 13.3711 139.456 13.8838 139.101 14.7178H138.984V13.5215H137.351V21ZM146.449 11.6895V13.5693H145.267V14.9229H146.449V19.0039C146.449 20.4531 147.133 21.0342 148.849 21.0342C149.177 21.0342 149.491 21 149.737 20.9521V19.626C149.532 19.6465 149.402 19.6602 149.163 19.6602C148.452 19.6602 148.138 19.332 148.138 18.5938V14.9229H149.737V13.5693H148.138V11.6895H146.449ZM157.106 21V11.1357H155.343V21H157.106ZM159.362 21H161.058V16.6455C161.058 15.5449 161.693 14.8477 162.705 14.8477C163.737 14.8477 164.216 15.4219 164.216 16.5635V21H165.911V16.1602C165.911 14.376 165.002 13.3711 163.334 13.3711C162.22 13.3711 161.468 13.8838 161.112 14.7178H160.996V13.5215H159.362V21ZM168.468 21H170.156V14.9229H171.763V13.5693H170.136V12.8926C170.136 12.1885 170.45 11.8398 171.25 11.8398C171.489 11.8398 171.694 11.8535 171.831 11.874V10.6299C171.558 10.582 171.25 10.5547 170.888 10.5547C169.227 10.5547 168.468 11.293 168.468 12.7832V13.5693H167.244V14.9229H168.468V21ZM173.403 21H175.099V16.6797C175.099 15.6338 175.864 14.9502 176.965 14.9502C177.252 14.9502 177.703 14.998 177.833 15.0459V13.4736C177.676 13.4258 177.375 13.3984 177.129 13.3984C176.165 13.3984 175.358 13.9453 175.153 14.6836H175.037V13.5215H173.403V21ZM181.688 19.79C180.937 19.79 180.396 19.4141 180.396 18.7852C180.396 18.1768 180.841 17.835 181.791 17.7734L183.479 17.6641V18.2588C183.479 19.127 182.714 19.79 181.688 19.79ZM181.189 21.123C182.167 21.123 182.987 20.6992 183.404 19.9746H183.521V21H185.154V15.8936C185.154 14.3076 184.074 13.3711 182.153 13.3711C180.376 13.3711 179.139 14.2119 179.002 15.5312H180.602C180.759 15.0254 181.292 14.752 182.071 14.752C182.987 14.752 183.479 15.1621 183.479 15.8936V16.5225L181.552 16.6387C179.733 16.748 178.715 17.5273 178.715 18.8809C178.715 20.248 179.747 21.123 181.189 21.123ZM187.027 15.6611C187.027 16.7891 187.704 17.4521 189.14 17.7803L190.466 18.0879C191.177 18.2451 191.498 18.5117 191.498 18.9355C191.498 19.4893 190.903 19.8652 190.049 19.8652C189.201 19.8652 188.675 19.5371 188.511 18.9834H186.836C186.966 20.3438 188.142 21.1504 190.008 21.1504C191.874 21.1504 193.193 20.1934 193.193 18.7578C193.193 17.6572 192.53 17.042 191.102 16.7207L189.782 16.4199C189.03 16.249 188.675 15.9893 188.675 15.5654C188.675 15.0254 189.256 14.6562 190.028 14.6562C190.821 14.6562 191.32 14.9912 191.443 15.5176H193.036C192.913 14.1572 191.799 13.3711 190.021 13.3711C188.258 13.3711 187.027 14.3076 187.027 15.6611ZM195.395 11.6895V13.5693H194.212V14.9229H195.395V19.0039C195.395 20.4531 196.078 21.0342 197.794 21.0342C198.122 21.0342 198.437 21 198.683 20.9521V19.626C198.478 19.6465 198.348 19.6602 198.108 19.6602C197.397 19.6602 197.083 19.332 197.083 18.5938V14.9229H198.683V13.5693H197.083V11.6895H195.395ZM200.378 21H202.073V16.6797C202.073 15.6338 202.839 14.9502 203.939 14.9502C204.227 14.9502 204.678 14.998 204.808 15.0459V13.4736C204.65 13.4258 204.35 13.3984 204.104 13.3984C203.14 13.3984 202.333 13.9453 202.128 14.6836H202.012V13.5215H200.378V21ZM212.71 13.5215H211.015V17.876C211.015 18.9834 210.413 19.6602 209.312 19.6602C208.301 19.6602 207.829 19.0996 207.829 17.958V13.5215H206.134V18.3818C206.134 20.1318 207.091 21.1504 208.725 21.1504C209.866 21.1504 210.598 20.665 210.96 19.8105H211.076V21H212.71V13.5215ZM221.248 16.0371C221.07 14.4648 219.908 13.3711 217.987 13.3711C215.738 13.3711 214.419 14.8135 214.419 17.2402C214.419 19.7012 215.745 21.1504 217.994 21.1504C219.888 21.1504 221.063 20.0977 221.248 18.5322H219.635C219.457 19.3115 218.869 19.7285 217.987 19.7285C216.832 19.7285 216.135 18.8125 216.135 17.2402C216.135 15.6885 216.825 14.793 217.987 14.793C218.917 14.793 219.478 15.3125 219.635 16.0371H221.248ZM223.504 11.6895V13.5693H222.321V14.9229H223.504V19.0039C223.504 20.4531 224.188 21.0342 225.903 21.0342C226.231 21.0342 226.546 21 226.792 20.9521V19.626C226.587 19.6465 226.457 19.6602 226.218 19.6602C225.507 19.6602 225.192 19.332 225.192 18.5938V14.9229H226.792V13.5693H225.192V11.6895H223.504ZM234.995 13.5215H233.3V17.876C233.3 18.9834 232.698 19.6602 231.598 19.6602C230.586 19.6602 230.114 19.0996 230.114 17.958V13.5215H228.419V18.3818C228.419 20.1318 229.376 21.1504 231.01 21.1504C232.151 21.1504 232.883 20.665 233.245 19.8105H233.361V21H234.995V13.5215ZM237.073 21H238.769V16.6797C238.769 15.6338 239.534 14.9502 240.635 14.9502C240.922 14.9502 241.373 14.998 241.503 15.0459V13.4736C241.346 13.4258 241.045 13.3984 240.799 13.3984C239.835 13.3984 239.028 13.9453 238.823 14.6836H238.707V13.5215H237.073V21ZM245.844 14.7178C246.862 14.7178 247.532 15.4287 247.566 16.5361H244.046C244.121 15.4424 244.832 14.7178 245.844 14.7178ZM247.58 18.9424C247.334 19.4961 246.753 19.8037 245.912 19.8037C244.798 19.8037 244.08 19.0244 244.039 17.7803V17.6914H249.262V17.1445C249.262 14.7861 247.983 13.3711 245.851 13.3711C243.684 13.3711 242.337 14.8818 242.337 17.2881C242.337 19.6943 243.663 21.1504 245.864 21.1504C247.628 21.1504 248.879 20.3027 249.187 18.9424H247.58Z" fill="#525760"/>
<rect width="99" height="16" transform="translate(34 256)" fill="white"/>
<path d="M42.9004 268C44.7051 268 45.8242 267.062 45.8242 265.58C45.8242 264.49 45.0098 263.646 43.8906 263.564V263.459C44.7578 263.33 45.4199 262.551 45.4199 261.654C45.4199 260.348 44.4414 259.545 42.8008 259.545H39.1035V268H42.9004ZM40.873 260.898H42.3496C43.1934 260.898 43.6797 261.303 43.6797 261.977C43.6797 262.656 43.1582 263.049 42.2031 263.049H40.873V260.898ZM40.873 266.646V264.244H42.4082C43.4512 264.244 44.0195 264.654 44.0195 265.428C44.0195 266.219 43.4688 266.646 42.4492 266.646H40.873ZM50.1191 268.141C52.1055 268.141 53.3008 266.881 53.3008 264.766C53.3008 262.668 52.0879 261.396 50.1191 261.396C48.1504 261.396 46.9375 262.674 46.9375 264.766C46.9375 266.881 48.1328 268.141 50.1191 268.141ZM50.1191 266.746C49.2051 266.746 48.6895 266.025 48.6895 264.766C48.6895 263.523 49.2109 262.791 50.1191 262.791C51.0215 262.791 51.5488 263.523 51.5488 264.766C51.5488 266.02 51.0273 266.746 50.1191 266.746ZM55.1816 260.002V261.602H54.1738V262.943H55.1816V266.254C55.1816 267.514 55.8027 268.023 57.373 268.023C57.7012 268.023 58.0176 267.988 58.2285 267.947V266.646C58.0645 266.664 57.9473 266.67 57.7246 266.67C57.1445 266.67 56.8867 266.412 56.8867 265.85V262.943H58.2285V261.602H56.8867V260.002H55.1816ZM63.4844 269.816L66.5137 259.07H64.9434L61.9141 269.816H63.4844ZM76.0938 268H78.0098L75.0742 259.545H72.9941L70.0586 268H71.834L72.4844 265.984H75.4551L76.0938 268ZM73.9258 261.303H74.0312L75.0801 264.619H72.8652L73.9258 261.303ZM79.4512 259.545V268H81.2207V265.375H82.8906C84.6719 265.375 85.9082 264.209 85.9082 262.469C85.9082 260.711 84.7188 259.545 82.9785 259.545H79.4512ZM81.2207 260.998H82.5098C83.5293 260.998 84.1094 261.514 84.1094 262.475C84.1094 263.424 83.5176 263.939 82.5039 263.939H81.2207V260.998ZM89.3066 268V259.545H87.5371V268H89.3066ZM98.043 268.217C100.082 268.217 101.57 266.957 101.717 265.129H99.9941C99.8242 266.061 99.0625 266.658 98.0488 266.658C96.7129 266.658 95.8867 265.551 95.8867 263.77C95.8867 261.988 96.7129 260.887 98.043 260.887C99.0508 260.887 99.8184 261.525 99.9883 262.498H101.711C101.582 260.658 100.047 259.328 98.043 259.328C95.5879 259.328 94.0762 261.021 94.0762 263.77C94.0762 266.523 95.5938 268.217 98.043 268.217ZM105.508 266.816C104.916 266.816 104.5 266.523 104.5 266.043C104.5 265.58 104.857 265.316 105.59 265.264L106.896 265.182V265.656C106.896 266.312 106.299 266.816 105.508 266.816ZM104.945 268.1C105.783 268.1 106.486 267.748 106.82 267.156H106.926V268H108.578V263.588C108.578 262.205 107.611 261.396 105.9 261.396C104.277 261.396 103.182 262.146 103.07 263.342H104.641C104.781 262.955 105.191 262.744 105.807 262.744C106.51 262.744 106.896 263.049 106.896 263.588V264.115L105.332 264.209C103.727 264.303 102.83 264.982 102.83 266.154C102.83 267.338 103.703 268.1 104.945 268.1ZM110.312 268H112.018V259.07H110.312V268ZM113.852 268H115.557V259.07H113.852V268ZM120.127 262.703C120.924 262.703 121.439 263.236 121.475 264.092H118.721C118.779 263.254 119.336 262.703 120.127 262.703ZM121.51 266.16C121.328 266.588 120.865 266.828 120.191 266.828C119.301 266.828 118.738 266.23 118.715 265.27V265.182H123.15V264.66C123.15 262.609 122.025 261.396 120.121 261.396C118.199 261.396 117.016 262.697 117.016 264.801C117.016 266.898 118.176 268.141 120.145 268.141C121.727 268.141 122.846 267.373 123.098 266.16H121.51ZM124.551 268H126.256V264.42C126.256 263.512 126.895 262.961 127.826 262.961C128.102 262.961 128.5 263.014 128.635 263.066V261.514C128.488 261.461 128.201 261.432 127.967 261.432C127.146 261.432 126.479 261.924 126.309 262.568H126.203V261.537H124.551V268Z" fill="#3E4249"/>
<rect width="87" height="16" transform="translate(488 256)" fill="white"/>
<path d="M498.553 268H500.469L497.533 259.545H495.453L492.518 268H494.293L494.943 265.984H497.914L498.553 268ZM496.385 261.303H496.49L497.539 264.619H495.324L496.385 261.303ZM504.26 266.559C503.334 266.559 502.807 265.85 502.807 264.707C502.807 263.576 503.34 262.861 504.26 262.861C505.18 262.861 505.736 263.576 505.736 264.713C505.736 265.85 505.186 266.559 504.26 266.559ZM504.236 270.449C506.188 270.449 507.424 269.494 507.424 267.977V261.537H505.771V262.574H505.666C505.32 261.865 504.576 261.432 503.703 261.432C502.062 261.432 501.055 262.709 501.055 264.713C501.055 266.658 502.057 267.906 503.668 267.906C504.576 267.906 505.256 267.543 505.613 266.863H505.719V268.059C505.719 268.785 505.186 269.207 504.271 269.207C503.533 269.207 503.053 268.955 502.965 268.557H501.277C501.383 269.693 502.52 270.449 504.236 270.449ZM511.93 262.703C512.727 262.703 513.242 263.236 513.277 264.092H510.523C510.582 263.254 511.139 262.703 511.93 262.703ZM513.312 266.16C513.131 266.588 512.668 266.828 511.994 266.828C511.104 266.828 510.541 266.23 510.518 265.27V265.182H514.953V264.66C514.953 262.609 513.828 261.396 511.924 261.396C510.002 261.396 508.818 262.697 508.818 264.801C508.818 266.898 509.979 268.141 511.947 268.141C513.529 268.141 514.648 267.373 514.9 266.16H513.312ZM516.354 268H518.059V264.273C518.059 263.424 518.545 262.867 519.336 262.867C520.145 262.867 520.525 263.336 520.525 264.227V268H522.23V263.822C522.23 262.275 521.457 261.396 520.021 261.396C519.066 261.396 518.41 261.848 518.111 262.574H518.006V261.537H516.354V268ZM524.375 260.002V261.602H523.367V262.943H524.375V266.254C524.375 267.514 524.996 268.023 526.566 268.023C526.895 268.023 527.211 267.988 527.422 267.947V266.646C527.258 266.664 527.141 266.67 526.918 266.67C526.338 266.67 526.08 266.412 526.08 265.85V262.943H527.422V261.602H526.08V260.002H524.375ZM531.729 265.65C531.793 267.227 533.1 268.217 535.115 268.217C537.236 268.217 538.543 267.174 538.543 265.469C538.543 264.156 537.811 263.424 536.111 263.066L535.092 262.85C534.102 262.639 533.697 262.34 533.697 261.818C533.697 261.174 534.283 260.764 535.168 260.764C536.023 260.764 536.645 261.209 536.727 261.877H538.391C538.338 260.371 537.02 259.328 535.156 259.328C533.205 259.328 531.922 260.377 531.922 261.971C531.922 263.26 532.678 264.062 534.219 264.385L535.32 264.619C536.357 264.842 536.779 265.152 536.779 265.691C536.779 266.33 536.129 266.775 535.209 266.775C534.213 266.775 533.521 266.336 533.439 265.65H531.729ZM542.844 262.703C543.641 262.703 544.156 263.236 544.191 264.092H541.438C541.496 263.254 542.053 262.703 542.844 262.703ZM544.227 266.16C544.045 266.588 543.582 266.828 542.908 266.828C542.018 266.828 541.455 266.23 541.432 265.27V265.182H545.867V264.66C545.867 262.609 544.742 261.396 542.838 261.396C540.916 261.396 539.732 262.697 539.732 264.801C539.732 266.898 540.893 268.141 542.861 268.141C544.443 268.141 545.562 267.373 545.814 266.16H544.227ZM547.268 268H548.973V264.42C548.973 263.512 549.611 262.961 550.543 262.961C550.818 262.961 551.217 263.014 551.352 263.066V261.514C551.205 261.461 550.918 261.432 550.684 261.432C549.863 261.432 549.195 261.924 549.025 262.568H548.92V261.537H547.268V268ZM558.43 261.537H556.631L555.307 266.354H555.201L553.865 261.537H552.031L554.275 268H556.197L558.43 261.537ZM562.109 262.703C562.906 262.703 563.422 263.236 563.457 264.092H560.703C560.762 263.254 561.318 262.703 562.109 262.703ZM563.492 266.16C563.311 266.588 562.848 266.828 562.174 266.828C561.283 266.828 560.721 266.23 560.697 265.27V265.182H565.133V264.66C565.133 262.609 564.008 261.396 562.104 261.396C560.182 261.396 558.998 262.697 558.998 264.801C558.998 266.898 560.158 268.141 562.127 268.141C563.709 268.141 564.828 267.373 565.08 266.16H563.492ZM566.533 268H568.238V264.42C568.238 263.512 568.877 262.961 569.809 262.961C570.084 262.961 570.482 263.014 570.617 263.066V261.514C570.471 261.461 570.184 261.432 569.949 261.432C569.129 261.432 568.461 261.924 568.291 262.568H568.186V261.537H566.533V268Z" fill="#3E4249"/>
<rect width="87" height="16" transform="translate(488 368)" fill="white"/>
<path d="M495.189 380V377.451L496.027 376.461L498.482 380H500.604L497.305 375.254L500.387 371.545H498.418L495.295 375.312H495.189V371.545H493.42V380H495.189ZM504.061 374.703C504.857 374.703 505.373 375.236 505.408 376.092H502.654C502.713 375.254 503.27 374.703 504.061 374.703ZM505.443 378.16C505.262 378.588 504.799 378.828 504.125 378.828C503.234 378.828 502.672 378.23 502.648 377.27V377.182H507.084V376.66C507.084 374.609 505.959 373.396 504.055 373.396C502.133 373.396 500.949 374.697 500.949 376.801C500.949 378.898 502.109 380.141 504.078 380.141C505.66 380.141 506.779 379.373 507.031 378.16H505.443ZM509.111 382.35C510.723 382.35 511.514 381.764 512.064 380.1L514.291 373.537H512.486L511.127 378.436H511.021L509.662 373.537H507.781L510.049 380.041L509.99 380.275C509.85 380.768 509.486 380.973 508.848 380.973C508.777 380.973 508.52 380.973 508.461 380.961V382.332C508.531 382.344 509.047 382.35 509.111 382.35ZM527.697 380V371.545H525.617L523.273 377.252H523.168L520.83 371.545H518.744V380H520.385V374.346H520.479L522.635 379.543H523.812L525.963 374.346H526.057V380H527.697ZM531.91 378.816C531.318 378.816 530.902 378.523 530.902 378.043C530.902 377.58 531.26 377.316 531.992 377.264L533.299 377.182V377.656C533.299 378.312 532.701 378.816 531.91 378.816ZM531.348 380.1C532.186 380.1 532.889 379.748 533.223 379.156H533.328V380H534.98V375.588C534.98 374.205 534.014 373.396 532.303 373.396C530.68 373.396 529.584 374.146 529.473 375.342H531.043C531.184 374.955 531.594 374.744 532.209 374.744C532.912 374.744 533.299 375.049 533.299 375.588V376.115L531.734 376.209C530.129 376.303 529.232 376.982 529.232 378.154C529.232 379.338 530.105 380.1 531.348 380.1ZM536.656 380H538.361V376.273C538.361 375.424 538.848 374.867 539.639 374.867C540.447 374.867 540.828 375.336 540.828 376.227V380H542.533V375.822C542.533 374.275 541.76 373.396 540.324 373.396C539.369 373.396 538.713 373.848 538.414 374.574H538.309V373.537H536.656V380ZM546.523 378.816C545.932 378.816 545.516 378.523 545.516 378.043C545.516 377.58 545.873 377.316 546.605 377.264L547.912 377.182V377.656C547.912 378.312 547.314 378.816 546.523 378.816ZM545.961 380.1C546.799 380.1 547.502 379.748 547.836 379.156H547.941V380H549.594V375.588C549.594 374.205 548.627 373.396 546.916 373.396C545.293 373.396 544.197 374.146 544.086 375.342H545.656C545.797 374.955 546.207 374.744 546.822 374.744C547.525 374.744 547.912 375.049 547.912 375.588V376.115L546.348 376.209C544.742 376.303 543.846 376.982 543.846 378.154C543.846 379.338 544.719 380.1 545.961 380.1ZM554.141 378.559C553.215 378.559 552.688 377.85 552.688 376.707C552.688 375.576 553.221 374.861 554.141 374.861C555.061 374.861 555.617 375.576 555.617 376.713C555.617 377.85 555.066 378.559 554.141 378.559ZM554.117 382.449C556.068 382.449 557.305 381.494 557.305 379.977V373.537H555.652V374.574H555.547C555.201 373.865 554.457 373.432 553.584 373.432C551.943 373.432 550.936 374.709 550.936 376.713C550.936 378.658 551.938 379.906 553.549 379.906C554.457 379.906 555.137 379.543 555.494 378.863H555.6V380.059C555.6 380.785 555.066 381.207 554.152 381.207C553.414 381.207 552.934 380.955 552.846 380.557H551.158C551.264 381.693 552.4 382.449 554.117 382.449ZM561.811 374.703C562.607 374.703 563.123 375.236 563.158 376.092H560.404C560.463 375.254 561.02 374.703 561.811 374.703ZM563.193 378.16C563.012 378.588 562.549 378.828 561.875 378.828C560.984 378.828 560.422 378.23 560.398 377.27V377.182H564.834V376.66C564.834 374.609 563.709 373.396 561.805 373.396C559.883 373.396 558.699 374.697 558.699 376.801C558.699 378.898 559.859 380.141 561.828 380.141C563.41 380.141 564.529 379.373 564.781 378.16H563.193ZM566.234 380H567.939V376.42C567.939 375.512 568.578 374.961 569.51 374.961C569.785 374.961 570.184 375.014 570.318 375.066V373.514C570.172 373.461 569.885 373.432 569.65 373.432C568.83 373.432 568.162 373.924 567.992 374.568H567.887V373.537H566.234V380Z" fill="#3E4249"/>
<rect width="99" height="16" transform="translate(482 129)" fill="white"/>
<path d="M487.109 138.65C487.174 140.227 488.48 141.217 490.496 141.217C492.617 141.217 493.924 140.174 493.924 138.469C493.924 137.156 493.191 136.424 491.492 136.066L490.473 135.85C489.482 135.639 489.078 135.34 489.078 134.818C489.078 134.174 489.664 133.764 490.549 133.764C491.404 133.764 492.025 134.209 492.107 134.877H493.771C493.719 133.371 492.4 132.328 490.537 132.328C488.586 132.328 487.303 133.377 487.303 134.971C487.303 136.26 488.059 137.062 489.6 137.385L490.701 137.619C491.738 137.842 492.16 138.152 492.16 138.691C492.16 139.33 491.51 139.775 490.59 139.775C489.594 139.775 488.902 139.336 488.82 138.65H487.109ZM496.232 143.35C497.844 143.35 498.635 142.764 499.186 141.1L501.412 134.537H499.607L498.248 139.436H498.143L496.783 134.537H494.902L497.17 141.041L497.111 141.275C496.971 141.768 496.607 141.973 495.969 141.973C495.898 141.973 495.641 141.973 495.582 141.961V143.332C495.652 143.344 496.168 143.35 496.232 143.35ZM502.602 141H504.307V137.109C504.307 136.389 504.781 135.867 505.449 135.867C506.117 135.867 506.516 136.26 506.516 136.945V141H508.156V137.045C508.156 136.359 508.602 135.867 509.293 135.867C510.014 135.867 510.371 136.248 510.371 137.016V141H512.076V136.564C512.076 135.234 511.273 134.396 509.984 134.396C509.082 134.396 508.338 134.871 508.039 135.592H507.934C507.676 134.842 507.055 134.396 506.146 134.396C505.297 134.396 504.623 134.854 504.359 135.592H504.254V134.537H502.602V141ZM517.467 134.432C516.576 134.432 515.844 134.871 515.492 135.598H515.387V134.537H513.734V143.145H515.439V140.01H515.545C515.861 140.695 516.57 141.1 517.496 141.1C519.113 141.1 520.104 139.852 520.104 137.766C520.104 135.674 519.102 134.432 517.467 134.432ZM516.887 139.676C515.984 139.676 515.422 138.955 515.422 137.771C515.422 136.588 515.984 135.861 516.893 135.861C517.801 135.861 518.352 136.582 518.352 137.766C518.352 138.961 517.807 139.676 516.887 139.676ZM521.551 141H523.256V137.291C523.256 136.453 523.748 135.885 524.604 135.885C525.377 135.885 525.793 136.348 525.793 137.244V141H527.498V136.84C527.498 135.287 526.672 134.414 525.283 134.414C524.334 134.414 523.631 134.859 523.332 135.598H523.227V132.07H521.551V141ZM532.021 141.141C534.008 141.141 535.203 139.881 535.203 137.766C535.203 135.668 533.99 134.396 532.021 134.396C530.053 134.396 528.84 135.674 528.84 137.766C528.84 139.881 530.035 141.141 532.021 141.141ZM532.021 139.746C531.107 139.746 530.592 139.025 530.592 137.766C530.592 136.523 531.113 135.791 532.021 135.791C532.924 135.791 533.451 136.523 533.451 137.766C533.451 139.02 532.93 139.746 532.021 139.746ZM536.598 141H538.303V137.273C538.303 136.424 538.789 135.867 539.58 135.867C540.389 135.867 540.77 136.336 540.77 137.227V141H542.475V136.822C542.475 135.275 541.701 134.396 540.266 134.396C539.311 134.396 538.654 134.848 538.355 135.574H538.25V134.537H536.598V141ZM544.76 143.35C546.371 143.35 547.162 142.764 547.713 141.1L549.939 134.537H548.135L546.775 139.436H546.67L545.311 134.537H543.43L545.697 141.041L545.639 141.275C545.498 141.768 545.135 141.973 544.496 141.973C544.426 141.973 544.168 141.973 544.109 141.961V143.332C544.18 143.344 544.695 143.35 544.76 143.35ZM554.393 132.545V141H556.162V138.375H557.832C559.613 138.375 560.85 137.209 560.85 135.469C560.85 133.711 559.66 132.545 557.92 132.545H554.393ZM556.162 133.998H557.451C558.471 133.998 559.051 134.514 559.051 135.475C559.051 136.424 558.459 136.939 557.445 136.939H556.162V133.998ZM564.998 141.141C566.984 141.141 568.18 139.881 568.18 137.766C568.18 135.668 566.967 134.396 564.998 134.396C563.029 134.396 561.816 135.674 561.816 137.766C561.816 139.881 563.012 141.141 564.998 141.141ZM564.998 139.746C564.084 139.746 563.568 139.025 563.568 137.766C563.568 136.523 564.09 135.791 564.998 135.791C565.9 135.791 566.428 136.523 566.428 137.766C566.428 139.02 565.906 139.746 564.998 139.746ZM571.889 141.1C572.785 141.1 573.518 140.684 573.863 139.986H573.969V141H575.621V132.07H573.916V135.568H573.816C573.482 134.854 572.762 134.432 571.889 134.432C570.266 134.432 569.258 135.703 569.258 137.76C569.258 139.822 570.26 141.1 571.889 141.1ZM572.469 135.861C573.377 135.861 573.934 136.594 573.934 137.771C573.934 138.955 573.383 139.676 572.469 139.676C571.555 139.676 571.01 138.961 571.01 137.766C571.01 136.582 571.561 135.861 572.469 135.861Z" fill="#3E4249"/>
<defs>
<filter id="filter0_d" x="559" y="154" width="34" height="22" filterUnits="userSpaceOnUse" color-interpolation-filters="sRGB">
<feFlood flood-opacity="0" result="BackgroundImageFix"/>
<feColorMatrix in="SourceAlpha" type="matrix" values="0 0 0 0 0 0 0 0 0 0 0 0 0 0 0 0 0 0 127 0"/>
<feOffset dy="1"/>
<feGaussianBlur stdDeviation="0.5"/>
<feColorMatrix type="matrix" values="0 0 0 0 0 0 0 0 0 0 0 0 0 0 0 0 0 0 0.08 0"/>
<feBlend mode="normal" in2="BackgroundImageFix" result="effect1_dropShadow"/>
<feBlend mode="normal" in="SourceGraphic" in2="effect1_dropShadow" result="shape"/>
</filter>
<filter id="filter1_d" x="671" y="240" width="34" height="22" filterUnits="userSpaceOnUse" color-interpolation-filters="sRGB">
<feFlood flood-opacity="0" result="BackgroundImageFix"/>
<feColorMatrix in="SourceAlpha" type="matrix" values="0 0 0 0 0 0 0 0 0 0 0 0 0 0 0 0 0 0 127 0"/>
<feOffset dy="1"/>
<feGaussianBlur stdDeviation="0.5"/>
<feColorMatrix type="matrix" values="0 0 0 0 0 0 0 0 0 0 0 0 0 0 0 0 0 0 0.08 0"/>
<feBlend mode="normal" in2="BackgroundImageFix" result="effect1_dropShadow"/>
<feBlend mode="normal" in="SourceGraphic" in2="effect1_dropShadow" result="shape"/>
</filter>
<filter id="filter2_d" x="639" y="280" width="34" height="22" filterUnits="userSpaceOnUse" color-interpolation-filters="sRGB">
<feFlood flood-opacity="0" result="BackgroundImageFix"/>
<feColorMatrix in="SourceAlpha" type="matrix" values="0 0 0 0 0 0 0 0 0 0 0 0 0 0 0 0 0 0 127 0"/>
<feOffset dy="1"/>
<feGaussianBlur stdDeviation="0.5"/>
<feColorMatrix type="matrix" values="0 0 0 0 0 0 0 0 0 0 0 0 0 0 0 0 0 0 0.08 0"/>
<feBlend mode="normal" in2="BackgroundImageFix" result="effect1_dropShadow"/>
<feBlend mode="normal" in="SourceGraphic" in2="effect1_dropShadow" result="shape"/>
</filter>
<filter id="filter3_d" x="292" y="206" width="34" height="22" filterUnits="userSpaceOnUse" color-interpolation-filters="sRGB">
<feFlood flood-opacity="0" result="BackgroundImageFix"/>
<feColorMatrix in="SourceAlpha" type="matrix" values="0 0 0 0 0 0 0 0 0 0 0 0 0 0 0 0 0 0 127 0"/>
<feOffset dy="1"/>
<feGaussianBlur stdDeviation="0.5"/>
<feColorMatrix type="matrix" values="0 0 0 0 0 0 0 0 0 0 0 0 0 0 0 0 0 0 0.08 0"/>
<feBlend mode="normal" in2="BackgroundImageFix" result="effect1_dropShadow"/>
<feBlend mode="normal" in="SourceGraphic" in2="effect1_dropShadow" result="shape"/>
</filter>
<filter id="filter4_d" x="196" y="68" width="34" height="22" filterUnits="userSpaceOnUse" color-interpolation-filters="sRGB">
<feFlood flood-opacity="0" result="BackgroundImageFix"/>
<feColorMatrix in="SourceAlpha" type="matrix" values="0 0 0 0 0 0 0 0 0 0 0 0 0 0 0 0 0 0 127 0"/>
<feOffset dy="1"/>
<feGaussianBlur stdDeviation="0.5"/>
<feColorMatrix type="matrix" values="0 0 0 0 0 0 0 0 0 0 0 0 0 0 0 0 0 0 0.08 0"/>
<feBlend mode="normal" in2="BackgroundImageFix" result="effect1_dropShadow"/>
<feBlend mode="normal" in="SourceGraphic" in2="effect1_dropShadow" result="shape"/>
</filter>
<filter id="filter5_d" x="196" y="308" width="34" height="22" filterUnits="userSpaceOnUse" color-interpolation-filters="sRGB">
<feFlood flood-opacity="0" result="BackgroundImageFix"/>
<feColorMatrix in="SourceAlpha" type="matrix" values="0 0 0 0 0 0 0 0 0 0 0 0 0 0 0 0 0 0 127 0"/>
<feOffset dy="1"/>
<feGaussianBlur stdDeviation="0.5"/>
<feColorMatrix type="matrix" values="0 0 0 0 0 0 0 0 0 0 0 0 0 0 0 0 0 0 0.08 0"/>
<feBlend mode="normal" in2="BackgroundImageFix" result="effect1_dropShadow"/>
<feBlend mode="normal" in="SourceGraphic" in2="effect1_dropShadow" result="shape"/>
</filter>
<filter id="filter6_d" x="388" y="84" width="34" height="22" filterUnits="userSpaceOnUse" color-interpolation-filters="sRGB">
<feFlood flood-opacity="0" result="BackgroundImageFix"/>
<feColorMatrix in="SourceAlpha" type="matrix" values="0 0 0 0 0 0 0 0 0 0 0 0 0 0 0 0 0 0 127 0"/>
<feOffset dy="1"/>
<feGaussianBlur stdDeviation="0.5"/>
<feColorMatrix type="matrix" values="0 0 0 0 0 0 0 0 0 0 0 0 0 0 0 0 0 0 0.08 0"/>
<feBlend mode="normal" in2="BackgroundImageFix" result="effect1_dropShadow"/>
<feBlend mode="normal" in="SourceGraphic" in2="effect1_dropShadow" result="shape"/>
</filter>
<filter id="filter7_d" x="388" y="326" width="34" height="22" filterUnits="userSpaceOnUse" color-interpolation-filters="sRGB">
<feFlood flood-opacity="0" result="BackgroundImageFix"/>
<feColorMatrix in="SourceAlpha" type="matrix" values="0 0 0 0 0 0 0 0 0 0 0 0 0 0 0 0 0 0 127 0"/>
<feOffset dy="1"/>
<feGaussianBlur stdDeviation="0.5"/>
<feColorMatrix type="matrix" values="0 0 0 0 0 0 0 0 0 0 0 0 0 0 0 0 0 0 0.08 0"/>
<feBlend mode="normal" in2="BackgroundImageFix" result="effect1_dropShadow"/>
<feBlend mode="normal" in="SourceGraphic" in2="effect1_dropShadow" result="shape"/>
</filter>
</defs>
</svg>
