<svg width="744" height="304" viewBox="0 0 744 304" fill="none" xmlns="http://www.w3.org/2000/svg">
<rect width="744" height="304" fill="white"/>
<path d="M244 0L244 304" stroke="#CFD0D2"/>
<path d="M500 0L500 304" stroke="#CFD0D2"/>
<path d="M596 136C596 118.327 610.327 104 628 104C645.673 104 660 118.327 660 136C660 153.673 645.673 168 628 168C610.327 168 596 153.673 596 136Z" fill="white"/>
<path d="M615 122.828C615 122.298 615.227 121.803 615.709 121.583C616.997 120.997 620.381 120 628.5 120C636.619 120 640.003 120.997 641.291 121.583C641.773 121.803 642 122.298 642 122.828V124.93C642 125.598 641.657 126.21 641.031 126.446C639.466 127.036 635.791 128 628.5 128C621.209 128 617.534 127.036 615.969 126.446C615.343 126.21 615 125.598 615 124.93V122.828Z" fill="white"/>
<path d="M615 131.828C615 131.298 615.227 130.803 615.709 130.583C616.997 129.997 620.381 129 628.5 129C636.619 129 640.003 129.997 641.291 130.583C641.773 130.803 642 131.298 642 131.828V133.93C642 134.598 641.657 135.21 641.031 135.446C639.466 136.036 635.791 137 628.5 137C621.209 137 617.534 136.036 615.969 135.446C615.343 135.21 615 134.598 615 133.93V131.828Z" fill="white"/>
<path d="M615 140.828C615 140.298 615.227 139.803 615.709 139.583C616.997 138.997 620.381 138 628.5 138C636.619 138 640.003 138.997 641.291 139.583C641.773 139.803 642 140.298 642 140.828V142.93C642 143.598 641.657 144.21 641.031 144.446C639.466 145.036 635.791 146 628.5 146C621.209 146 617.534 145.036 615.969 144.446C615.343 144.21 615 143.598 615 142.93V140.828Z" fill="white"/>
<path fill-rule="evenodd" clip-rule="evenodd" d="M615.709 121.583C615.227 121.803 615 122.298 615 122.828V124.93C615 125.598 615.343 126.21 615.969 126.446C617.534 127.036 621.209 128 628.5 128C635.791 128 639.466 127.036 641.031 126.446C641.657 126.21 642 125.598 642 124.93V122.828C642 122.298 641.773 121.803 641.291 121.583C640.003 120.997 636.619 120 628.5 120C620.381 120 616.997 120.997 615.709 121.583ZM617 123.219V124.691C618.489 125.193 621.911 126 628.5 126C635.089 126 638.511 125.193 640 124.691V123.219C638.688 122.752 635.475 122 628.5 122C621.525 122 618.312 122.752 617 123.219Z" fill="#000028"/>
<path fill-rule="evenodd" clip-rule="evenodd" d="M615.709 130.583C615.227 130.803 615 131.298 615 131.828V133.93C615 134.598 615.343 135.21 615.969 135.446C617.534 136.036 621.209 137 628.5 137C635.791 137 639.466 136.036 641.031 135.446C641.657 135.21 642 134.598 642 133.93V131.828C642 131.298 641.773 130.803 641.291 130.583C640.003 129.997 636.619 129 628.5 129C620.381 129 616.997 129.997 615.709 130.583ZM617 132.219V133.691C618.489 134.193 621.911 135 628.5 135C635.089 135 638.511 134.193 640 133.691V132.219C638.688 131.752 635.475 131 628.5 131C621.525 131 618.312 131.752 617 132.219Z" fill="#000028"/>
<path fill-rule="evenodd" clip-rule="evenodd" d="M641.031 144.446C639.577 144.994 636.303 145.865 630 145.986V150H636C636.552 150 637 150.448 637 151C637 151.552 636.552 152 636 152H622C621.448 152 621 151.552 621 151C621 150.448 621.448 150 622 150H628V145.998C621.04 145.956 617.498 145.022 615.969 144.446C615.343 144.21 615 143.598 615 142.93V140.828C615 140.298 615.227 139.803 615.709 139.583C616.997 138.997 620.381 138 628.5 138C636.619 138 640.003 138.997 641.291 139.583C641.773 139.803 642 140.298 642 140.828V142.93C642 143.598 641.657 144.21 641.031 144.446ZM617 142.691V141.219C618.312 140.752 621.525 140 628.5 140C635.475 140 638.688 140.752 640 141.219V142.691C638.511 143.193 635.089 144 628.5 144C621.911 144 618.489 143.193 617 142.691Z" fill="#000028"/>
<path d="M628 166C611.431 166 598 152.569 598 136H594C594 154.778 609.222 170 628 170V166ZM658 136C658 152.569 644.569 166 628 166V170C646.778 170 662 154.778 662 136H658ZM628 106C644.569 106 658 119.431 658 136H662C662 117.222 646.778 102 628 102V106ZM628 102C609.222 102 594 117.222 594 136H598C598 119.431 611.431 106 628 106V102Z" fill="#EAEBEC"/>
<path d="M84 136C84 118.327 98.3269 104 116 104C133.673 104 148 118.327 148 136C148 153.673 133.673 168 116 168C98.3269 168 84 153.673 84 136Z" fill="white"/>
<path d="M102 138C102 132.477 106.477 128 112 128H120C125.523 128 130 132.477 130 138V146.93C130 147.598 129.657 148.209 129.029 148.441C127.439 149.03 123.659 150 116 150C108.341 150 104.561 149.03 102.971 148.441C102.343 148.209 102 147.598 102 146.93V138Z" fill="white"/>
<path d="M111 137.5C111 136.672 111.672 136 112.5 136C113.328 136 114 136.672 114 137.5V139.5C114 140.328 113.328 141 112.5 141C111.672 141 111 140.328 111 139.5V137.5Z" fill="#000028"/>
<path d="M119.5 136C118.672 136 118 136.672 118 137.5V139.5C118 140.328 118.672 141 119.5 141C120.328 141 121 140.328 121 139.5V137.5C121 136.672 120.328 136 119.5 136Z" fill="#000028"/>
<path fill-rule="evenodd" clip-rule="evenodd" d="M117 124.829C118.165 124.417 119 123.306 119 122C119 120.343 117.657 119 116 119C114.343 119 113 120.343 113 122C113 123.306 113.835 124.417 115 124.829V128H112C106.477 128 102 132.477 102 138V146.93C102 147.598 102.343 148.209 102.971 148.441C104.561 149.03 108.341 150 116 150C123.659 150 127.439 149.03 129.029 148.441C129.657 148.209 130 147.598 130 146.93V138C130 132.477 125.523 128 120 128H117V124.829ZM112 130C107.582 130 104 133.582 104 138V146.683C105.524 147.187 109.064 148 116 148C122.936 148 126.476 147.187 128 146.683V138C128 133.582 124.418 130 120 130H112Z" fill="#000028"/>
<path d="M116 166C99.4315 166 86 152.569 86 136H82C82 154.778 97.2223 170 116 170V166ZM146 136C146 152.569 132.569 166 116 166V170C134.778 170 150 154.778 150 136H146ZM116 106C132.569 106 146 119.431 146 136H150C150 117.222 134.778 102 116 102V106ZM116 102C97.2223 102 82 117.222 82 136H86C86 119.431 99.4315 106 116 106V102Z" fill="#EAEBEC"/>
<path d="M596 240C596 222.327 610.327 208 628 208C645.673 208 660 222.327 660 240C660 257.673 645.673 272 628 272C610.327 272 596 257.673 596 240Z" fill="white"/>
<path d="M614 240.141C614 238.803 614.701 237.595 615.988 237.229C617.968 236.666 621.652 236 628 236C634.348 236 638.032 236.666 640.012 237.229C641.299 237.595 642 238.803 642 240.141V251.859C642 253.197 641.299 254.405 640.012 254.771C638.032 255.334 634.348 256 628 256C621.652 256 617.968 255.334 615.988 254.771C614.701 254.405 614 253.197 614 251.859V240.141Z" fill="white"/>
<path fill-rule="evenodd" clip-rule="evenodd" d="M628 224C622.477 224 618 228.477 618 234V236.763C617.19 236.916 616.526 237.076 615.988 237.229C614.701 237.595 614 238.803 614 240.141V251.859C614 253.197 614.701 254.405 615.988 254.771C617.968 255.334 621.652 256 628 256C634.348 256 638.032 255.334 640.012 254.771C641.299 254.405 642 253.197 642 251.859V240.141C642 238.803 641.299 237.595 640.012 237.229C639.474 237.076 638.81 236.916 638 236.763V234C638 228.477 633.523 224 628 224ZM636 236.448V234C636 229.582 632.418 226 628 226C623.582 226 620 229.582 620 234V236.448C622.012 236.188 624.631 236 628 236C631.369 236 633.988 236.188 636 236.448ZM640 240.141V251.859C640 252.187 639.913 252.434 639.814 252.586C639.725 252.722 639.617 252.804 639.465 252.847C637.707 253.347 634.216 254 628 254C621.784 254 618.293 253.347 616.535 252.847C616.383 252.804 616.275 252.722 616.186 252.586C616.087 252.434 616 252.187 616 251.859V240.141C616 239.813 616.087 239.566 616.186 239.414C616.275 239.278 616.383 239.196 616.535 239.153C618.293 238.653 621.784 238 628 238C634.216 238 637.707 238.653 639.465 239.153C639.617 239.196 639.725 239.278 639.814 239.414C639.913 239.566 640 239.813 640 240.141Z" fill="#000028"/>
<path d="M628 270C611.431 270 598 256.569 598 240H594C594 258.778 609.222 274 628 274V270ZM658 240C658 256.569 644.569 270 628 270V274C646.778 274 662 258.778 662 240H658ZM628 210C644.569 210 658 223.431 658 240H662C662 221.222 646.778 206 628 206V210ZM628 206C609.222 206 594 221.222 594 240H598C598 223.431 611.431 210 628 210V206Z" fill="#EAEBEC"/>
<path d="M596 32C596 14.3269 610.327 0 628 0C645.673 0 660 14.3269 660 32C660 49.6731 645.673 64 628 64C610.327 64 596 49.6731 596 32Z" fill="white"/>
<path fill-rule="evenodd" clip-rule="evenodd" d="M628 19C633.318 19 637.828 22.3727 639.402 27.0439C642.168 28.7784 644 31.8056 644 35.25C644 40.4164 639.879 44.6442 634.667 44.9787L620 44.9754C615.525 44.6435 612 40.9981 612 36.55C612 33.5273 613.628 30.8753 616.075 29.3819C616.747 23.5407 621.83 19 628 19Z" fill="white"/>
<path d="M624.875 35.6057C624.875 35.9386 625.052 36.2464 625.34 36.4142L628.156 38.0542L630.972 36.4142C631.26 36.2464 631.438 35.9386 631.438 35.6057L631.438 33.9107L623 31.5707V27.3729C623 26.7581 623.317 26.0925 623.996 25.7872C624.721 25.4609 626.11 25 628.156 25C630.202 25 631.591 25.4609 632.317 25.7872C632.995 26.0925 633.313 26.7581 633.313 27.3729V29.7319L631.438 29.2119V27.4466C630.887 27.2155 629.795 26.872 628.156 26.872C626.517 26.872 625.425 27.2155 624.875 27.4466V30.1479L633.312 32.5V35.6057C633.312 36.6044 632.781 37.5279 631.917 38.0311L628.865 39.8088C628.427 40.0638 627.886 40.0637 627.448 39.8088L624.395 38.0311C623.531 37.5279 623 36.6044 623 35.6057V33.8918L624.875 34.375V35.6057Z" fill="#000028"/>
<path fill-rule="evenodd" clip-rule="evenodd" d="M620 44.9754L634.667 44.9787C639.879 44.6442 644 40.4164 644 35.25C644 31.8056 642.168 28.7784 639.402 27.0439C637.828 22.3727 633.318 19 628 19C621.83 19 616.747 23.5407 616.075 29.3819C613.628 30.8753 612 33.5273 612 36.55C612 40.9981 615.525 44.6435 620 44.9754ZM637.507 27.6828L637.735 28.3591L638.34 28.7383C640.56 30.1307 642 32.5377 642 35.25C642 39.2921 638.78 42.6798 634.599 42.9787L620.079 42.9754C616.631 42.6853 614 39.8786 614 36.55C614 34.2689 615.226 32.2431 617.117 31.0892L617.951 30.5805L618.062 29.6104C618.615 24.8068 622.817 21 628 21C632.461 21 636.207 23.8265 637.507 27.6828Z" fill="#000028"/>
<path d="M628 62C611.431 62 598 48.5685 598 32H594C594 50.7777 609.222 66 628 66V62ZM658 32C658 48.5685 644.569 62 628 62V66C646.778 66 662 50.7777 662 32H658ZM628 2C644.569 2 658 15.4315 658 32H662C662 13.2223 646.778 -2 628 -2V2ZM628 -2C609.222 -2 594 13.2223 594 32H598C598 15.4315 611.431 2 628 2V-2Z" fill="#EAEBEC"/>
<path d="M340 136C340 118.327 354.327 104 372 104C389.673 104 404 118.327 404 136C404 153.673 389.673 168 372 168C354.327 168 340 153.673 340 136Z" fill="white"/>
<path fill-rule="evenodd" clip-rule="evenodd" d="M366.949 123.805L363.231 122.615C361.394 123.821 359.821 125.394 358.615 127.231L359.805 130.949L356.333 132.737C356.115 133.791 356 134.882 356 136C356 137.118 356.115 138.209 356.333 139.263L359.805 141.051L358.615 144.769C359.821 146.606 361.394 148.179 363.231 149.385L366.949 148.195L368.737 151.667C369.791 151.885 370.882 152 372 152C373.118 152 374.209 151.885 375.263 151.667L377.051 148.195L380.769 149.385C382.606 148.179 384.179 146.606 385.385 144.769L384.195 141.051L387.667 139.263C387.885 138.209 388 137.118 388 136C388 134.882 387.885 133.791 387.667 132.737L384.195 130.949L385.385 127.231C384.179 125.394 382.606 123.821 380.769 122.615L377.051 123.805L375.263 120.333C374.209 120.115 373.118 120 372 120C370.882 120 369.791 120.115 368.737 120.333L366.949 123.805ZM372 140C374.209 140 376 138.209 376 136C376 133.791 374.209 132 372 132C369.791 132 368 133.791 368 136C368 138.209 369.791 140 372 140Z" fill="white"/>
<path fill-rule="evenodd" clip-rule="evenodd" d="M376 136C376 138.209 374.209 140 372 140C369.791 140 368 138.209 368 136C368 133.791 369.791 132 372 132C374.209 132 376 133.791 376 136ZM374 136C374 137.105 373.105 138 372 138C370.895 138 370 137.105 370 136C370 134.895 370.895 134 372 134C373.105 134 374 134.895 374 136Z" fill="#000028"/>
<path fill-rule="evenodd" clip-rule="evenodd" d="M363.231 122.615L366.949 123.805L368.737 120.333C369.791 120.115 370.882 120 372 120C373.118 120 374.209 120.115 375.263 120.333L377.051 123.805L380.769 122.615C382.606 123.821 384.179 125.394 385.385 127.231L384.195 130.949L387.667 132.737C387.885 133.791 388 134.882 388 136C388 137.118 387.885 138.209 387.667 139.263L384.195 141.051L385.385 144.769C384.179 146.606 382.606 148.179 380.769 149.385L377.051 148.195L375.263 151.667C374.209 151.885 373.118 152 372 152C370.882 152 369.791 151.885 368.737 151.667L366.949 148.195L363.231 149.385C361.394 148.179 359.821 146.606 358.615 144.769L359.805 141.051L356.333 139.263C356.115 138.209 356 137.118 356 136C356 134.882 356.115 133.791 356.333 132.737L359.805 130.949L358.615 127.231C359.821 125.394 361.394 123.821 363.231 122.615ZM367.951 126.225L370.06 122.133C370.693 122.045 371.341 122 372 122C372.659 122 373.307 122.045 373.94 122.133L376.049 126.225L380.432 124.823C381.469 125.607 382.393 126.531 383.177 127.568L381.775 131.951L385.867 134.06C385.955 134.693 386 135.341 386 136C386 136.659 385.955 137.307 385.867 137.94L381.775 140.049L383.177 144.432C382.393 145.469 381.469 146.393 380.432 147.177L376.049 145.775L373.94 149.867C373.307 149.955 372.659 150 372 150C371.341 150 370.693 149.955 370.06 149.867L367.951 145.775L363.568 147.177C362.531 146.393 361.607 145.469 360.823 144.432L362.225 140.049L358.133 137.94C358.045 137.307 358 136.659 358 136C358 135.341 358.045 134.693 358.133 134.06L362.225 131.951L360.823 127.568C361.607 126.531 362.531 125.607 363.568 124.823L367.951 126.225Z" fill="#000028"/>
<path d="M372 166C355.431 166 342 152.569 342 136H338C338 154.778 353.222 170 372 170V166ZM402 136C402 152.569 388.569 166 372 166V170C390.778 170 406 154.778 406 136H402ZM372 106C388.569 106 402 119.431 402 136H406C406 117.222 390.778 102 372 102V106ZM372 102C353.222 102 338 117.222 338 136H342C342 119.431 355.431 106 372 106V102Z" fill="#EAEBEC"/>
<path d="M159.97 135.47C159.677 135.763 159.677 136.237 159.97 136.53L164.743 141.303C165.036 141.596 165.51 141.596 165.803 141.303C166.096 141.01 166.096 140.536 165.803 140.243L161.561 136L165.803 131.757C166.096 131.464 166.096 130.99 165.803 130.697C165.51 130.404 165.036 130.404 164.743 130.697L159.97 135.47ZM328.03 136.53C328.323 136.237 328.323 135.763 328.03 135.47L323.257 130.697C322.964 130.404 322.49 130.404 322.197 130.697C321.904 130.99 321.904 131.464 322.197 131.757L326.439 136L322.197 140.243C321.904 140.536 321.904 141.01 322.197 141.303C322.49 141.596 322.964 141.596 323.257 141.303L328.03 136.53ZM160.5 136.75L327.5 136.75V135.25L160.5 135.25V136.75Z" fill="#008EFF"/>
<path d="M415.97 135.47C415.677 135.763 415.677 136.237 415.97 136.53L420.743 141.303C421.036 141.596 421.51 141.596 421.803 141.303C422.096 141.01 422.096 140.536 421.803 140.243L417.561 136L421.803 131.757C422.096 131.464 422.096 130.99 421.803 130.697C421.51 130.404 421.036 130.404 420.743 130.697L415.97 135.47ZM584.03 136.53C584.323 136.237 584.323 135.763 584.03 135.47L579.257 130.697C578.964 130.404 578.49 130.404 578.197 130.697C577.904 130.99 577.904 131.464 578.197 131.757L582.439 136L578.197 140.243C577.904 140.536 577.904 141.01 578.197 141.303C578.49 141.596 578.964 141.596 579.257 141.303L584.03 136.53ZM416.5 136.75L583.5 136.75V135.25L416.5 135.25V136.75Z" fill="#008EFF"/>
<rect width="99" height="16" transform="translate(64 176)" fill="white"/>
<path d="M72.9004 188C74.7051 188 75.8242 187.062 75.8242 185.58C75.8242 184.49 75.0098 183.646 73.8906 183.564V183.459C74.7578 183.33 75.4199 182.551 75.4199 181.654C75.4199 180.348 74.4414 179.545 72.8008 179.545H69.1035V188H72.9004ZM70.873 180.898H72.3496C73.1934 180.898 73.6797 181.303 73.6797 181.977C73.6797 182.656 73.1582 183.049 72.2031 183.049H70.873V180.898ZM70.873 186.646V184.244H72.4082C73.4512 184.244 74.0195 184.654 74.0195 185.428C74.0195 186.219 73.4688 186.646 72.4492 186.646H70.873ZM80.1191 188.141C82.1055 188.141 83.3008 186.881 83.3008 184.766C83.3008 182.668 82.0879 181.396 80.1191 181.396C78.1504 181.396 76.9375 182.674 76.9375 184.766C76.9375 186.881 78.1328 188.141 80.1191 188.141ZM80.1191 186.746C79.2051 186.746 78.6895 186.025 78.6895 184.766C78.6895 183.523 79.2109 182.791 80.1191 182.791C81.0215 182.791 81.5488 183.523 81.5488 184.766C81.5488 186.02 81.0273 186.746 80.1191 186.746ZM85.1816 180.002V181.602H84.1738V182.943H85.1816V186.254C85.1816 187.514 85.8027 188.023 87.373 188.023C87.7012 188.023 88.0176 187.988 88.2285 187.947V186.646C88.0645 186.664 87.9473 186.67 87.7246 186.67C87.1445 186.67 86.8867 186.412 86.8867 185.85V182.943H88.2285V181.602H86.8867V180.002H85.1816ZM93.4844 189.816L96.5137 179.07H94.9434L91.9141 189.816H93.4844ZM106.094 188H108.01L105.074 179.545H102.994L100.059 188H101.834L102.484 185.984H105.455L106.094 188ZM103.926 181.303H104.031L105.08 184.619H102.865L103.926 181.303ZM109.451 179.545V188H111.221V185.375H112.891C114.672 185.375 115.908 184.209 115.908 182.469C115.908 180.711 114.719 179.545 112.979 179.545H109.451ZM111.221 180.998H112.51C113.529 180.998 114.109 181.514 114.109 182.475C114.109 183.424 113.518 183.939 112.504 183.939H111.221V180.998ZM119.307 188V179.545H117.537V188H119.307ZM128.043 188.217C130.082 188.217 131.57 186.957 131.717 185.129H129.994C129.824 186.061 129.062 186.658 128.049 186.658C126.713 186.658 125.887 185.551 125.887 183.77C125.887 181.988 126.713 180.887 128.043 180.887C129.051 180.887 129.818 181.525 129.988 182.498H131.711C131.582 180.658 130.047 179.328 128.043 179.328C125.588 179.328 124.076 181.021 124.076 183.77C124.076 186.523 125.594 188.217 128.043 188.217ZM135.508 186.816C134.916 186.816 134.5 186.523 134.5 186.043C134.5 185.58 134.857 185.316 135.59 185.264L136.896 185.182V185.656C136.896 186.312 136.299 186.816 135.508 186.816ZM134.945 188.1C135.783 188.1 136.486 187.748 136.82 187.156H136.926V188H138.578V183.588C138.578 182.205 137.611 181.396 135.9 181.396C134.277 181.396 133.182 182.146 133.07 183.342H134.641C134.781 182.955 135.191 182.744 135.807 182.744C136.51 182.744 136.896 183.049 136.896 183.588V184.115L135.332 184.209C133.727 184.303 132.83 184.982 132.83 186.154C132.83 187.338 133.703 188.1 134.945 188.1ZM140.312 188H142.018V179.07H140.312V188ZM143.852 188H145.557V179.07H143.852V188ZM150.127 182.703C150.924 182.703 151.439 183.236 151.475 184.092H148.721C148.779 183.254 149.336 182.703 150.127 182.703ZM151.51 186.16C151.328 186.588 150.865 186.828 150.191 186.828C149.301 186.828 148.738 186.23 148.715 185.27V185.182H153.15V184.66C153.15 182.609 152.025 181.396 150.121 181.396C148.199 181.396 147.016 182.697 147.016 184.801C147.016 186.898 148.176 188.141 150.145 188.141C151.727 188.141 152.846 187.373 153.098 186.16H151.51ZM154.551 188H156.256V184.42C156.256 183.512 156.895 182.961 157.826 182.961C158.102 182.961 158.5 183.014 158.635 183.066V181.514C158.488 181.461 158.201 181.432 157.967 181.432C157.146 181.432 156.479 181.924 156.309 182.568H156.203V181.537H154.551V188Z" fill="#3E4249"/>
<rect width="87" height="16" transform="translate(585 176)" fill="white"/>
<path d="M595.553 188H597.469L594.533 179.545H592.453L589.518 188H591.293L591.943 185.984H594.914L595.553 188ZM593.385 181.303H593.49L594.539 184.619H592.324L593.385 181.303ZM601.26 186.559C600.334 186.559 599.807 185.85 599.807 184.707C599.807 183.576 600.34 182.861 601.26 182.861C602.18 182.861 602.736 183.576 602.736 184.713C602.736 185.85 602.186 186.559 601.26 186.559ZM601.236 190.449C603.188 190.449 604.424 189.494 604.424 187.977V181.537H602.771V182.574H602.666C602.32 181.865 601.576 181.432 600.703 181.432C599.062 181.432 598.055 182.709 598.055 184.713C598.055 186.658 599.057 187.906 600.668 187.906C601.576 187.906 602.256 187.543 602.613 186.863H602.719V188.059C602.719 188.785 602.186 189.207 601.271 189.207C600.533 189.207 600.053 188.955 599.965 188.557H598.277C598.383 189.693 599.52 190.449 601.236 190.449ZM608.93 182.703C609.727 182.703 610.242 183.236 610.277 184.092H607.523C607.582 183.254 608.139 182.703 608.93 182.703ZM610.312 186.16C610.131 186.588 609.668 186.828 608.994 186.828C608.104 186.828 607.541 186.23 607.518 185.27V185.182H611.953V184.66C611.953 182.609 610.828 181.396 608.924 181.396C607.002 181.396 605.818 182.697 605.818 184.801C605.818 186.898 606.979 188.141 608.947 188.141C610.529 188.141 611.648 187.373 611.9 186.16H610.312ZM613.354 188H615.059V184.273C615.059 183.424 615.545 182.867 616.336 182.867C617.145 182.867 617.525 183.336 617.525 184.227V188H619.23V183.822C619.23 182.275 618.457 181.396 617.021 181.396C616.066 181.396 615.41 181.848 615.111 182.574H615.006V181.537H613.354V188ZM621.375 180.002V181.602H620.367V182.943H621.375V186.254C621.375 187.514 621.996 188.023 623.566 188.023C623.895 188.023 624.211 187.988 624.422 187.947V186.646C624.258 186.664 624.141 186.67 623.918 186.67C623.338 186.67 623.08 186.412 623.08 185.85V182.943H624.422V181.602H623.08V180.002H621.375ZM628.729 185.65C628.793 187.227 630.1 188.217 632.115 188.217C634.236 188.217 635.543 187.174 635.543 185.469C635.543 184.156 634.811 183.424 633.111 183.066L632.092 182.85C631.102 182.639 630.697 182.34 630.697 181.818C630.697 181.174 631.283 180.764 632.168 180.764C633.023 180.764 633.645 181.209 633.727 181.877H635.391C635.338 180.371 634.02 179.328 632.156 179.328C630.205 179.328 628.922 180.377 628.922 181.971C628.922 183.26 629.678 184.062 631.219 184.385L632.32 184.619C633.357 184.842 633.779 185.152 633.779 185.691C633.779 186.33 633.129 186.775 632.209 186.775C631.213 186.775 630.521 186.336 630.439 185.65H628.729ZM639.844 182.703C640.641 182.703 641.156 183.236 641.191 184.092H638.438C638.496 183.254 639.053 182.703 639.844 182.703ZM641.227 186.16C641.045 186.588 640.582 186.828 639.908 186.828C639.018 186.828 638.455 186.23 638.432 185.27V185.182H642.867V184.66C642.867 182.609 641.742 181.396 639.838 181.396C637.916 181.396 636.732 182.697 636.732 184.801C636.732 186.898 637.893 188.141 639.861 188.141C641.443 188.141 642.562 187.373 642.814 186.16H641.227ZM644.268 188H645.973V184.42C645.973 183.512 646.611 182.961 647.543 182.961C647.818 182.961 648.217 183.014 648.352 183.066V181.514C648.205 181.461 647.918 181.432 647.684 181.432C646.863 181.432 646.195 181.924 646.025 182.568H645.92V181.537H644.268V188ZM655.43 181.537H653.631L652.307 186.354H652.201L650.865 181.537H649.031L651.275 188H653.197L655.43 181.537ZM659.109 182.703C659.906 182.703 660.422 183.236 660.457 184.092H657.703C657.762 183.254 658.318 182.703 659.109 182.703ZM660.492 186.16C660.311 186.588 659.848 186.828 659.174 186.828C658.283 186.828 657.721 186.23 657.697 185.27V185.182H662.133V184.66C662.133 182.609 661.008 181.396 659.104 181.396C657.182 181.396 655.998 182.697 655.998 184.801C655.998 186.898 657.158 188.141 659.127 188.141C660.709 188.141 661.828 187.373 662.08 186.16H660.492ZM663.533 188H665.238V184.42C665.238 183.512 665.877 182.961 666.809 182.961C667.084 182.961 667.482 183.014 667.617 183.066V181.514C667.471 181.461 667.184 181.432 666.949 181.432C666.129 181.432 665.461 181.924 665.291 182.568H665.186V181.537H663.533V188Z" fill="#3E4249"/>
<rect width="87" height="16" transform="translate(584 280)" fill="white"/>
<path d="M591.189 292V289.451L592.027 288.461L594.482 292H596.604L593.305 287.254L596.387 283.545H594.418L591.295 287.312H591.189V283.545H589.42V292H591.189ZM600.061 286.703C600.857 286.703 601.373 287.236 601.408 288.092H598.654C598.713 287.254 599.27 286.703 600.061 286.703ZM601.443 290.16C601.262 290.588 600.799 290.828 600.125 290.828C599.234 290.828 598.672 290.23 598.648 289.27V289.182H603.084V288.66C603.084 286.609 601.959 285.396 600.055 285.396C598.133 285.396 596.949 286.697 596.949 288.801C596.949 290.898 598.109 292.141 600.078 292.141C601.66 292.141 602.779 291.373 603.031 290.16H601.443ZM605.111 294.35C606.723 294.35 607.514 293.764 608.064 292.1L610.291 285.537H608.486L607.127 290.436H607.021L605.662 285.537H603.781L606.049 292.041L605.99 292.275C605.85 292.768 605.486 292.973 604.848 292.973C604.777 292.973 604.52 292.973 604.461 292.961V294.332C604.531 294.344 605.047 294.35 605.111 294.35ZM623.697 292V283.545H621.617L619.273 289.252H619.168L616.83 283.545H614.744V292H616.385V286.346H616.479L618.635 291.543H619.812L621.963 286.346H622.057V292H623.697ZM627.91 290.816C627.318 290.816 626.902 290.523 626.902 290.043C626.902 289.58 627.26 289.316 627.992 289.264L629.299 289.182V289.656C629.299 290.312 628.701 290.816 627.91 290.816ZM627.348 292.1C628.186 292.1 628.889 291.748 629.223 291.156H629.328V292H630.98V287.588C630.98 286.205 630.014 285.396 628.303 285.396C626.68 285.396 625.584 286.146 625.473 287.342H627.043C627.184 286.955 627.594 286.744 628.209 286.744C628.912 286.744 629.299 287.049 629.299 287.588V288.115L627.734 288.209C626.129 288.303 625.232 288.982 625.232 290.154C625.232 291.338 626.105 292.1 627.348 292.1ZM632.656 292H634.361V288.273C634.361 287.424 634.848 286.867 635.639 286.867C636.447 286.867 636.828 287.336 636.828 288.227V292H638.533V287.822C638.533 286.275 637.76 285.396 636.324 285.396C635.369 285.396 634.713 285.848 634.414 286.574H634.309V285.537H632.656V292ZM642.523 290.816C641.932 290.816 641.516 290.523 641.516 290.043C641.516 289.58 641.873 289.316 642.605 289.264L643.912 289.182V289.656C643.912 290.312 643.314 290.816 642.523 290.816ZM641.961 292.1C642.799 292.1 643.502 291.748 643.836 291.156H643.941V292H645.594V287.588C645.594 286.205 644.627 285.396 642.916 285.396C641.293 285.396 640.197 286.146 640.086 287.342H641.656C641.797 286.955 642.207 286.744 642.822 286.744C643.525 286.744 643.912 287.049 643.912 287.588V288.115L642.348 288.209C640.742 288.303 639.846 288.982 639.846 290.154C639.846 291.338 640.719 292.1 641.961 292.1ZM650.141 290.559C649.215 290.559 648.688 289.85 648.688 288.707C648.688 287.576 649.221 286.861 650.141 286.861C651.061 286.861 651.617 287.576 651.617 288.713C651.617 289.85 651.066 290.559 650.141 290.559ZM650.117 294.449C652.068 294.449 653.305 293.494 653.305 291.977V285.537H651.652V286.574H651.547C651.201 285.865 650.457 285.432 649.584 285.432C647.943 285.432 646.936 286.709 646.936 288.713C646.936 290.658 647.938 291.906 649.549 291.906C650.457 291.906 651.137 291.543 651.494 290.863H651.6V292.059C651.6 292.785 651.066 293.207 650.152 293.207C649.414 293.207 648.934 292.955 648.846 292.557H647.158C647.264 293.693 648.4 294.449 650.117 294.449ZM657.811 286.703C658.607 286.703 659.123 287.236 659.158 288.092H656.404C656.463 287.254 657.02 286.703 657.811 286.703ZM659.193 290.16C659.012 290.588 658.549 290.828 657.875 290.828C656.984 290.828 656.422 290.23 656.398 289.27V289.182H660.834V288.66C660.834 286.609 659.709 285.396 657.805 285.396C655.883 285.396 654.699 286.697 654.699 288.801C654.699 290.898 655.859 292.141 657.828 292.141C659.41 292.141 660.529 291.373 660.781 290.16H659.193ZM662.234 292H663.939V288.42C663.939 287.512 664.578 286.961 665.51 286.961C665.785 286.961 666.184 287.014 666.318 287.066V285.514C666.172 285.461 665.885 285.432 665.65 285.432C664.83 285.432 664.162 285.924 663.992 286.568H663.887V285.537H662.234V292Z" fill="#3E4249"/>
<rect width="99" height="16" transform="translate(578 72)" fill="white"/>
<path d="M583.109 81.6504C583.174 83.2266 584.48 84.2168 586.496 84.2168C588.617 84.2168 589.924 83.1738 589.924 81.4688C589.924 80.1562 589.191 79.4238 587.492 79.0664L586.473 78.8496C585.482 78.6387 585.078 78.3398 585.078 77.8184C585.078 77.1738 585.664 76.7637 586.549 76.7637C587.404 76.7637 588.025 77.209 588.107 77.877H589.771C589.719 76.3711 588.4 75.3281 586.537 75.3281C584.586 75.3281 583.303 76.377 583.303 77.9707C583.303 79.2598 584.059 80.0625 585.6 80.3848L586.701 80.6191C587.738 80.8418 588.16 81.1523 588.16 81.6914C588.16 82.3301 587.51 82.7754 586.59 82.7754C585.594 82.7754 584.902 82.3359 584.82 81.6504H583.109ZM592.232 86.3496C593.844 86.3496 594.635 85.7637 595.186 84.0996L597.412 77.5371H595.607L594.248 82.4355H594.143L592.783 77.5371H590.902L593.17 84.041L593.111 84.2754C592.971 84.7676 592.607 84.9727 591.969 84.9727C591.898 84.9727 591.641 84.9727 591.582 84.9609V86.332C591.652 86.3438 592.168 86.3496 592.232 86.3496ZM598.602 84H600.307V80.1094C600.307 79.3887 600.781 78.8672 601.449 78.8672C602.117 78.8672 602.516 79.2598 602.516 79.9453V84H604.156V80.0449C604.156 79.3594 604.602 78.8672 605.293 78.8672C606.014 78.8672 606.371 79.248 606.371 80.0156V84H608.076V79.5645C608.076 78.2344 607.273 77.3965 605.984 77.3965C605.082 77.3965 604.338 77.8711 604.039 78.5918H603.934C603.676 77.8418 603.055 77.3965 602.146 77.3965C601.297 77.3965 600.623 77.8535 600.359 78.5918H600.254V77.5371H598.602V84ZM613.467 77.4316C612.576 77.4316 611.844 77.8711 611.492 78.5977H611.387V77.5371H609.734V86.1445H611.439V83.0098H611.545C611.861 83.6953 612.57 84.0996 613.496 84.0996C615.113 84.0996 616.104 82.8516 616.104 80.7656C616.104 78.6738 615.102 77.4316 613.467 77.4316ZM612.887 82.6758C611.984 82.6758 611.422 81.9551 611.422 80.7715C611.422 79.5879 611.984 78.8613 612.893 78.8613C613.801 78.8613 614.352 79.582 614.352 80.7656C614.352 81.9609 613.807 82.6758 612.887 82.6758ZM617.551 84H619.256V80.291C619.256 79.4531 619.748 78.8848 620.604 78.8848C621.377 78.8848 621.793 79.3477 621.793 80.2441V84H623.498V79.8398C623.498 78.2871 622.672 77.4141 621.283 77.4141C620.334 77.4141 619.631 77.8594 619.332 78.5977H619.227V75.0703H617.551V84ZM628.021 84.1406C630.008 84.1406 631.203 82.8809 631.203 80.7656C631.203 78.668 629.99 77.3965 628.021 77.3965C626.053 77.3965 624.84 78.6738 624.84 80.7656C624.84 82.8809 626.035 84.1406 628.021 84.1406ZM628.021 82.7461C627.107 82.7461 626.592 82.0254 626.592 80.7656C626.592 79.5234 627.113 78.791 628.021 78.791C628.924 78.791 629.451 79.5234 629.451 80.7656C629.451 82.0195 628.93 82.7461 628.021 82.7461ZM632.598 84H634.303V80.2734C634.303 79.4238 634.789 78.8672 635.58 78.8672C636.389 78.8672 636.77 79.3359 636.77 80.2266V84H638.475V79.8223C638.475 78.2754 637.701 77.3965 636.266 77.3965C635.311 77.3965 634.654 77.8477 634.355 78.5742H634.25V77.5371H632.598V84ZM640.76 86.3496C642.371 86.3496 643.162 85.7637 643.713 84.0996L645.939 77.5371H644.135L642.775 82.4355H642.67L641.311 77.5371H639.43L641.697 84.041L641.639 84.2754C641.498 84.7676 641.135 84.9727 640.496 84.9727C640.426 84.9727 640.168 84.9727 640.109 84.9609V86.332C640.18 86.3438 640.695 86.3496 640.76 86.3496ZM650.393 75.5449V84H652.162V81.375H653.832C655.613 81.375 656.85 80.209 656.85 78.4688C656.85 76.7109 655.66 75.5449 653.92 75.5449H650.393ZM652.162 76.998H653.451C654.471 76.998 655.051 77.5137 655.051 78.4746C655.051 79.4238 654.459 79.9395 653.445 79.9395H652.162V76.998ZM660.998 84.1406C662.984 84.1406 664.18 82.8809 664.18 80.7656C664.18 78.668 662.967 77.3965 660.998 77.3965C659.029 77.3965 657.816 78.6738 657.816 80.7656C657.816 82.8809 659.012 84.1406 660.998 84.1406ZM660.998 82.7461C660.084 82.7461 659.568 82.0254 659.568 80.7656C659.568 79.5234 660.09 78.791 660.998 78.791C661.9 78.791 662.428 79.5234 662.428 80.7656C662.428 82.0195 661.906 82.7461 660.998 82.7461ZM667.889 84.0996C668.785 84.0996 669.518 83.6836 669.863 82.9863H669.969V84H671.621V75.0703H669.916V78.5684H669.816C669.482 77.8535 668.762 77.4316 667.889 77.4316C666.266 77.4316 665.258 78.7031 665.258 80.7598C665.258 82.8223 666.26 84.0996 667.889 84.0996ZM668.469 78.8613C669.377 78.8613 669.934 79.5938 669.934 80.7715C669.934 81.9551 669.383 82.6758 668.469 82.6758C667.555 82.6758 667.01 81.9609 667.01 80.7656C667.01 79.582 667.561 78.8613 668.469 78.8613Z" fill="#3E4249"/>
<rect width="29" height="16" transform="translate(357 176)" fill="white"/>
<path d="M367.609 188H369.525L366.59 179.545H364.51L361.574 188H363.35L364 185.984H366.971L367.609 188ZM365.441 181.303H365.547L366.596 184.619H364.381L365.441 181.303ZM370.967 179.545V188H372.736V185.375H374.406C376.188 185.375 377.424 184.209 377.424 182.469C377.424 180.711 376.234 179.545 374.494 179.545H370.967ZM372.736 180.998H374.025C375.045 180.998 375.625 181.514 375.625 182.475C375.625 183.424 375.033 183.939 374.02 183.939H372.736V180.998ZM380.822 188V179.545H379.053V188H380.822Z" fill="#3E4249"/>
</svg>
