<svg width="744" height="176" viewBox="0 0 744 176" fill="none" xmlns="http://www.w3.org/2000/svg">
<rect width="744" height="176" fill="white"/>
<path d="M244 0L244 176" stroke="#CFD0D2"/>
<rect opacity="0.16" x="274" y="42" width="468" height="132" rx="30" stroke="#008EFF" stroke-width="4"/>
<path d="M479 97C479 79.3269 493.327 65 511 65C528.673 65 543 79.3269 543 97C543 114.673 528.673 129 511 129C493.327 129 479 114.673 479 97Z" fill="white"/>
<path d="M498 83.8284C498 83.298 498.227 82.8027 498.709 82.583C499.997 81.9968 503.381 81 511.5 81C519.619 81 523.003 81.9968 524.291 82.583C524.773 82.8027 525 83.298 525 83.8284V85.9296C525 86.5983 524.657 87.2105 524.031 87.4462C522.466 88.0356 518.791 89 511.5 89C504.209 89 500.534 88.0356 498.969 87.4462C498.343 87.2105 498 86.5983 498 85.9296V83.8284Z" fill="white"/>
<path d="M498 92.8284C498 92.298 498.227 91.8027 498.709 91.583C499.997 90.9968 503.381 90 511.5 90C519.619 90 523.003 90.9968 524.291 91.583C524.773 91.8027 525 92.298 525 92.8284V94.9296C525 95.5983 524.657 96.2105 524.031 96.4462C522.466 97.0356 518.791 98 511.5 98C504.209 98 500.534 97.0356 498.969 96.4462C498.343 96.2105 498 95.5983 498 94.9296V92.8284Z" fill="white"/>
<path d="M498 101.828C498 101.298 498.227 100.803 498.709 100.583C499.997 99.9968 503.381 99 511.5 99C519.619 99 523.003 99.9968 524.291 100.583C524.773 100.803 525 101.298 525 101.828V103.93C525 104.598 524.657 105.21 524.031 105.446C522.466 106.036 518.791 107 511.5 107C504.209 107 500.534 106.036 498.969 105.446C498.343 105.21 498 104.598 498 103.93V101.828Z" fill="white"/>
<path fill-rule="evenodd" clip-rule="evenodd" d="M498.709 82.583C498.227 82.8027 498 83.298 498 83.8284V85.9296C498 86.5983 498.343 87.2105 498.969 87.4462C500.534 88.0356 504.209 89 511.5 89C518.791 89 522.466 88.0356 524.031 87.4462C524.657 87.2105 525 86.5983 525 85.9296V83.8284C525 83.298 524.773 82.8027 524.291 82.583C523.003 81.9968 519.619 81 511.5 81C503.381 81 499.997 81.9968 498.709 82.583ZM500 84.2188V85.6906C501.489 86.193 504.911 87 511.5 87C518.089 87 521.511 86.193 523 85.6906V84.2188C521.688 83.752 518.475 83 511.5 83C504.525 83 501.312 83.752 500 84.2188Z" fill="#000028"/>
<path fill-rule="evenodd" clip-rule="evenodd" d="M498.709 91.583C498.227 91.8027 498 92.298 498 92.8284V94.9296C498 95.5983 498.343 96.2105 498.969 96.4462C500.534 97.0356 504.209 98 511.5 98C518.791 98 522.466 97.0356 524.031 96.4462C524.657 96.2105 525 95.5983 525 94.9296V92.8284C525 92.298 524.773 91.8027 524.291 91.583C523.003 90.9968 519.619 90 511.5 90C503.381 90 499.997 90.9968 498.709 91.583ZM500 93.2188V94.6906C501.489 95.193 504.911 96 511.5 96C518.089 96 521.511 95.193 523 94.6906V93.2188C521.688 92.752 518.475 92 511.5 92C504.525 92 501.312 92.752 500 93.2188Z" fill="#000028"/>
<path fill-rule="evenodd" clip-rule="evenodd" d="M524.031 105.446C522.577 105.994 519.303 106.865 513 106.986V111H519C519.552 111 520 111.448 520 112C520 112.552 519.552 113 519 113H505C504.448 113 504 112.552 504 112C504 111.448 504.448 111 505 111H511V106.998C504.04 106.956 500.498 106.022 498.969 105.446C498.343 105.21 498 104.598 498 103.93V101.828C498 101.298 498.227 100.803 498.709 100.583C499.997 99.9968 503.381 99 511.5 99C519.619 99 523.003 99.9968 524.291 100.583C524.773 100.803 525 101.298 525 101.828V103.93C525 104.598 524.657 105.21 524.031 105.446ZM500 103.691V102.219C501.312 101.752 504.525 101 511.5 101C518.475 101 521.688 101.752 523 102.219V103.691C521.511 104.193 518.089 105 511.5 105C504.911 105 501.489 104.193 500 103.691Z" fill="#000028"/>
<path d="M511 127C494.431 127 481 113.569 481 97H477C477 115.778 492.222 131 511 131V127ZM541 97C541 113.569 527.569 127 511 127V131C529.778 131 545 115.778 545 97H541ZM511 67C527.569 67 541 80.4315 541 97H545C545 78.2223 529.778 63 511 63V67ZM511 63C492.222 63 477 78.2223 477 97H481C481 80.4315 494.431 67 511 67V63Z" fill="#EAEBEC"/>
<path d="M83 96C83 78.3269 97.3269 64 115 64C132.673 64 147 78.3269 147 96C147 113.673 132.673 128 115 128C97.3269 128 83 113.673 83 96Z" fill="white"/>
<path d="M101 98C101 92.4772 105.477 88 111 88H119C124.523 88 129 92.4772 129 98V106.93C129 107.598 128.657 108.209 128.029 108.441C126.439 109.03 122.659 110 115 110C107.341 110 103.561 109.03 101.971 108.441C101.343 108.209 101 107.598 101 106.93V98Z" fill="white"/>
<path d="M110 97.5C110 96.6716 110.672 96 111.5 96C112.328 96 113 96.6716 113 97.5V99.5C113 100.328 112.328 101 111.5 101C110.672 101 110 100.328 110 99.5V97.5Z" fill="#000028"/>
<path d="M118.5 96C117.672 96 117 96.6716 117 97.5V99.5C117 100.328 117.672 101 118.5 101C119.328 101 120 100.328 120 99.5V97.5C120 96.6716 119.328 96 118.5 96Z" fill="#000028"/>
<path fill-rule="evenodd" clip-rule="evenodd" d="M116 84.8293C117.165 84.4175 118 83.3062 118 82C118 80.3431 116.657 79 115 79C113.343 79 112 80.3431 112 82C112 83.3062 112.835 84.4175 114 84.8293V88H111C105.477 88 101 92.4772 101 98V106.93C101 107.598 101.343 108.209 101.971 108.441C103.561 109.03 107.341 110 115 110C122.659 110 126.439 109.03 128.029 108.441C128.657 108.209 129 107.598 129 106.93V98C129 92.4772 124.523 88 119 88H116V84.8293ZM111 90C106.582 90 103 93.5817 103 98V106.683C104.524 107.187 108.064 108 115 108C121.936 108 125.476 107.187 127 106.683V98C127 93.5817 123.418 90 119 90H111Z" fill="#000028"/>
<path d="M115 126C98.4315 126 85 112.569 85 96H81C81 114.778 96.2223 130 115 130V126ZM145 96C145 112.569 131.569 126 115 126V130C133.778 130 149 114.778 149 96H145ZM115 66C131.569 66 145 79.4315 145 96H149C149 77.2223 133.778 62 115 62V66ZM115 62C96.2223 62 81 77.2223 81 96H85C85 79.4315 98.4315 66 115 66V62Z" fill="#EAEBEC"/>
<path d="M608 96C608 78.3269 622.327 64 640 64C657.673 64 672 78.3269 672 96C672 113.673 657.673 128 640 128C622.327 128 608 113.673 608 96Z" fill="white"/>
<path d="M626 96.1407C626 94.8033 626.701 93.5954 627.988 93.2295C629.968 92.6661 633.652 92 640 92C646.348 92 650.032 92.6661 652.012 93.2295C653.299 93.5954 654 94.8033 654 96.1407V107.859C654 109.197 653.299 110.405 652.012 110.771C650.032 111.334 646.348 112 640 112C633.652 112 629.968 111.334 627.988 110.771C626.701 110.405 626 109.197 626 107.859V96.1407Z" fill="white"/>
<path fill-rule="evenodd" clip-rule="evenodd" d="M640 80C634.477 80 630 84.4772 630 90V92.7626C629.19 92.9155 628.526 93.0763 627.988 93.2295C626.701 93.5954 626 94.8033 626 96.1407V107.859C626 109.197 626.701 110.405 627.988 110.771C629.968 111.334 633.652 112 640 112C646.348 112 650.032 111.334 652.012 110.771C653.299 110.405 654 109.197 654 107.859V96.1407C654 94.8033 653.299 93.5954 652.012 93.2295C651.474 93.0763 650.81 92.9155 650 92.7626V90C650 84.4772 645.523 80 640 80ZM648 92.448V90C648 85.5817 644.418 82 640 82C635.582 82 632 85.5817 632 90V92.448C634.012 92.1876 636.631 92 640 92C643.369 92 645.988 92.1876 648 92.448ZM652 96.1407V107.859C652 108.187 651.913 108.434 651.814 108.586C651.725 108.722 651.617 108.804 651.465 108.847C649.707 109.347 646.216 110 640 110C633.784 110 630.293 109.347 628.535 108.847C628.383 108.804 628.275 108.722 628.186 108.586C628.087 108.434 628 108.187 628 107.859V96.1407C628 95.8131 628.087 95.5665 628.186 95.4141C628.275 95.278 628.383 95.1963 628.535 95.1531C630.293 94.6531 633.784 94 640 94C646.216 94 649.707 94.6531 651.465 95.1531C651.617 95.1963 651.725 95.278 651.814 95.4141C651.913 95.5665 652 95.8131 652 96.1407Z" fill="#000028"/>
<path d="M640 126C623.431 126 610 112.569 610 96H606C606 114.778 621.222 130 640 130V126ZM670 96C670 112.569 656.569 126 640 126V130C658.778 130 674 114.778 674 96H670ZM640 66C656.569 66 670 79.4315 670 96H674C674 77.2223 658.778 62 640 62V66ZM640 62C621.222 62 606 77.2223 606 96H610C610 79.4315 623.431 66 640 66V62Z" fill="#EAEBEC"/>
<path d="M350 96C350 78.3269 364.327 64 382 64C399.673 64 414 78.3269 414 96C414 113.673 399.673 128 382 128C364.327 128 350 113.673 350 96Z" fill="white"/>
<path fill-rule="evenodd" clip-rule="evenodd" d="M382 83C387.318 83 391.828 86.3727 393.402 91.0439C396.168 92.7784 398 95.8056 398 99.25C398 104.416 393.879 108.644 388.667 108.979L374 108.975C369.525 108.643 366 104.998 366 100.55C366 97.5273 367.628 94.8753 370.075 93.3819C370.747 87.5407 375.83 83 382 83Z" fill="white"/>
<path d="M378.875 99.6057C378.875 99.9386 379.052 100.246 379.34 100.414L382.156 102.054L384.972 100.414C385.26 100.246 385.438 99.9386 385.438 99.6057L385.438 97.9107L377 95.5707V91.3729C377 90.7581 377.317 90.0925 377.996 89.7872C378.721 89.4609 380.11 89 382.156 89C384.202 89 385.591 89.4609 386.317 89.7872C386.995 90.0925 387.313 90.7581 387.313 91.3729V93.7319L385.438 93.2119V91.4466C384.887 91.2155 383.795 90.872 382.156 90.872C380.517 90.872 379.425 91.2155 378.875 91.4466V94.1479L387.312 96.5V99.6057C387.312 100.604 386.781 101.528 385.917 102.031L382.865 103.809C382.427 104.064 381.886 104.064 381.448 103.809L378.395 102.031C377.531 101.528 377 100.604 377 99.6057V97.8918L378.875 98.375V99.6057Z" fill="#000028"/>
<path fill-rule="evenodd" clip-rule="evenodd" d="M374 108.975L388.667 108.979C393.879 108.644 398 104.416 398 99.25C398 95.8056 396.168 92.7784 393.402 91.0439C391.828 86.3727 387.318 83 382 83C375.83 83 370.747 87.5407 370.075 93.3819C367.628 94.8753 366 97.5273 366 100.55C366 104.998 369.525 108.643 374 108.975ZM391.507 91.6828L391.735 92.3591L392.34 92.7383C394.56 94.1307 396 96.5377 396 99.25C396 103.292 392.78 106.68 388.599 106.979L374.079 106.975C370.631 106.685 368 103.879 368 100.55C368 98.2689 369.226 96.2431 371.117 95.0892L371.951 94.5805L372.062 93.6104C372.615 88.8068 376.817 85 382 85C386.461 85 390.207 87.8265 391.507 91.6828Z" fill="#000028"/>
<path d="M382 126C365.431 126 352 112.569 352 96H348C348 114.778 363.222 130 382 130V126ZM412 96C412 112.569 398.569 126 382 126V130C400.778 130 416 114.778 416 96H412ZM382 66C398.569 66 412 79.4315 412 96H416C416 77.2223 400.778 62 382 62V66ZM382 62C363.222 62 348 77.2223 348 96H352C352 79.4315 365.431 66 382 66V62Z" fill="#EAEBEC"/>
<rect width="225" height="17" transform="translate(396 8)" fill="white"/>
<path d="M401.251 18.3203C401.34 20.1113 402.837 21.2461 405.1 21.2461C407.492 21.2461 408.976 20.0498 408.976 18.1289C408.976 16.625 408.135 15.791 406.132 15.3398L404.997 15.0801C403.773 14.7998 403.274 14.4102 403.274 13.7471C403.274 12.9062 404.026 12.3594 405.161 12.3594C406.241 12.3594 407.007 12.9062 407.13 13.7744H408.818C408.736 12.0791 407.239 10.8896 405.168 10.8896C402.96 10.8896 401.497 12.0791 401.497 13.8701C401.497 15.3398 402.338 16.2285 404.129 16.6318L405.407 16.9258C406.672 17.2197 407.212 17.6367 407.212 18.3477C407.212 19.1748 406.371 19.7695 405.209 19.7695C403.958 19.7695 403.083 19.2021 402.974 18.3203H401.251ZM411.601 23.7139C413.275 23.7139 414.075 23.0986 414.711 21.2393L417.411 13.5215H415.62L413.877 19.3594H413.761L412.011 13.5215H410.151L412.824 21.0342L412.735 21.3623C412.517 22.0527 412.113 22.3262 411.396 22.3262C411.279 22.3262 411.026 22.3193 410.931 22.2988V23.6865C411.04 23.707 411.498 23.7139 411.601 23.7139ZM418.874 21H420.569V16.4541C420.569 15.5381 421.191 14.8477 422.032 14.8477C422.866 14.8477 423.386 15.3467 423.386 16.167V21H425.033V16.3447C425.033 15.4902 425.614 14.8477 426.496 14.8477C427.405 14.8477 427.863 15.3262 427.863 16.29V21H429.552V15.8594C429.552 14.3076 428.649 13.3711 427.152 13.3711C426.113 13.3711 425.252 13.9111 424.883 14.7314H424.767C424.452 13.8906 423.734 13.3711 422.702 13.3711C421.711 13.3711 420.945 13.877 420.624 14.7314H420.508V13.5215H418.874V21ZM435.636 13.3984C434.61 13.3984 433.742 13.9111 433.312 14.7588H433.195V13.5215H431.562V23.4883H433.257V19.8652H433.373C433.756 20.6582 434.583 21.123 435.656 21.123C437.543 21.123 438.719 19.6465 438.719 17.2607C438.719 14.8613 437.529 13.3984 435.636 13.3984ZM435.103 19.6807C433.947 19.6807 433.229 18.7578 433.223 17.2607C433.229 15.7705 433.954 14.8408 435.109 14.8408C436.271 14.8408 436.976 15.75 436.976 17.2607C436.976 18.7715 436.278 19.6807 435.103 19.6807ZM440.489 21H442.185V16.6592C442.185 15.5859 442.807 14.8613 443.921 14.8613C444.905 14.8613 445.425 15.4424 445.425 16.5771V21H447.12V16.1738C447.12 14.3965 446.149 13.3848 444.55 13.3848C443.436 13.3848 442.636 13.8906 442.28 14.7314H442.157V10.6299H440.489V21ZM452.356 21.1504C454.592 21.1504 455.952 19.6875 455.952 17.2607C455.952 14.8408 454.585 13.3711 452.356 13.3711C450.135 13.3711 448.761 14.8477 448.761 17.2607C448.761 19.6875 450.114 21.1504 452.356 21.1504ZM452.356 19.7285C451.174 19.7285 450.497 18.8262 450.497 17.2607C450.497 15.7021 451.174 14.793 452.356 14.793C453.532 14.793 454.209 15.7021 454.209 17.2607C454.209 18.8262 453.539 19.7285 452.356 19.7285ZM457.661 21H459.356V16.6455C459.356 15.5449 459.992 14.8477 461.004 14.8477C462.036 14.8477 462.515 15.4219 462.515 16.5635V21H464.21V16.1602C464.21 14.376 463.301 13.3711 461.633 13.3711C460.519 13.3711 459.767 13.8838 459.411 14.7178H459.295V13.5215H457.661V21ZM466.808 23.7139C468.482 23.7139 469.282 23.0986 469.918 21.2393L472.618 13.5215H470.827L469.084 19.3594H468.968L467.218 13.5215H465.358L468.031 21.0342L467.942 21.3623C467.724 22.0527 467.32 22.3262 466.603 22.3262C466.486 22.3262 466.233 22.3193 466.138 22.2988V23.6865C466.247 23.707 466.705 23.7139 466.808 23.7139ZM482.106 21.2461C484.383 21.2461 486.051 19.8857 486.283 17.8691H484.547C484.308 18.9766 483.357 19.6738 482.106 19.6738C480.425 19.6738 479.379 18.293 479.379 16.0645C479.379 13.8428 480.425 12.4619 482.1 12.4619C483.344 12.4619 484.294 13.2275 484.54 14.4102H486.276C486.071 12.3525 484.342 10.8896 482.1 10.8896C479.304 10.8896 477.574 12.8652 477.574 16.0713C477.574 19.2637 479.311 21.2461 482.106 21.2461ZM488.136 21H489.831V10.6299H488.136V21ZM495.204 21.1504C497.439 21.1504 498.8 19.6875 498.8 17.2607C498.8 14.8408 497.433 13.3711 495.204 13.3711C492.982 13.3711 491.608 14.8477 491.608 17.2607C491.608 19.6875 492.962 21.1504 495.204 21.1504ZM495.204 19.7285C494.021 19.7285 493.345 18.8262 493.345 17.2607C493.345 15.7021 494.021 14.793 495.204 14.793C496.38 14.793 497.057 15.7021 497.057 17.2607C497.057 18.8262 496.387 19.7285 495.204 19.7285ZM507.017 13.5215H505.321V17.876C505.321 18.9834 504.72 19.6602 503.619 19.6602C502.607 19.6602 502.136 19.0996 502.136 17.958V13.5215H500.44V18.3818C500.44 20.1318 501.397 21.1504 503.031 21.1504C504.173 21.1504 504.904 20.665 505.267 19.8105H505.383V21H507.017V13.5215ZM511.802 21.123C512.841 21.123 513.702 20.6377 514.126 19.8174H514.242V21H515.883V10.6299H514.188V14.7109H514.071C513.675 13.8906 512.827 13.3984 511.802 13.3984C509.915 13.3984 508.726 14.8887 508.726 17.2539C508.726 19.6328 509.908 21.123 511.802 21.123ZM512.328 14.8408C513.49 14.8408 514.208 15.7705 514.208 17.2607C514.208 18.7646 513.497 19.6807 512.328 19.6807C511.166 19.6807 510.462 18.7715 510.462 17.2607C510.462 15.7568 511.173 14.8408 512.328 14.8408ZM523.696 21V11.1357H521.933V21H523.696ZM525.952 21H527.647V16.6455C527.647 15.5449 528.283 14.8477 529.295 14.8477C530.327 14.8477 530.806 15.4219 530.806 16.5635V21H532.501V16.1602C532.501 14.376 531.592 13.3711 529.924 13.3711C528.81 13.3711 528.058 13.8838 527.702 14.7178H527.586V13.5215H525.952V21ZM535.058 21H536.746V14.9229H538.353V13.5693H536.726V12.8926C536.726 12.1885 537.04 11.8398 537.84 11.8398C538.079 11.8398 538.284 11.8535 538.421 11.874V10.6299C538.147 10.582 537.84 10.5547 537.478 10.5547C535.816 10.5547 535.058 11.293 535.058 12.7832V13.5693H533.834V14.9229H535.058V21ZM539.993 21H541.688V16.6797C541.688 15.6338 542.454 14.9502 543.555 14.9502C543.842 14.9502 544.293 14.998 544.423 15.0459V13.4736C544.266 13.4258 543.965 13.3984 543.719 13.3984C542.755 13.3984 541.948 13.9453 541.743 14.6836H541.627V13.5215H539.993V21ZM548.278 19.79C547.526 19.79 546.986 19.4141 546.986 18.7852C546.986 18.1768 547.431 17.835 548.381 17.7734L550.069 17.6641V18.2588C550.069 19.127 549.304 19.79 548.278 19.79ZM547.779 21.123C548.757 21.123 549.577 20.6992 549.994 19.9746H550.11V21H551.744V15.8936C551.744 14.3076 550.664 13.3711 548.743 13.3711C546.966 13.3711 545.729 14.2119 545.592 15.5312H547.191C547.349 15.0254 547.882 14.752 548.661 14.752C549.577 14.752 550.069 15.1621 550.069 15.8936V16.5225L548.142 16.6387C546.323 16.748 545.305 17.5273 545.305 18.8809C545.305 20.248 546.337 21.123 547.779 21.123ZM553.617 15.6611C553.617 16.7891 554.294 17.4521 555.729 17.7803L557.056 18.0879C557.767 18.2451 558.088 18.5117 558.088 18.9355C558.088 19.4893 557.493 19.8652 556.639 19.8652C555.791 19.8652 555.265 19.5371 555.101 18.9834H553.426C553.556 20.3438 554.731 21.1504 556.598 21.1504C558.464 21.1504 559.783 20.1934 559.783 18.7578C559.783 17.6572 559.12 17.042 557.691 16.7207L556.372 16.4199C555.62 16.249 555.265 15.9893 555.265 15.5654C555.265 15.0254 555.846 14.6562 556.618 14.6562C557.411 14.6562 557.91 14.9912 558.033 15.5176H559.626C559.503 14.1572 558.389 13.3711 556.611 13.3711C554.848 13.3711 553.617 14.3076 553.617 15.6611ZM561.984 11.6895V13.5693H560.802V14.9229H561.984V19.0039C561.984 20.4531 562.668 21.0342 564.384 21.0342C564.712 21.0342 565.026 21 565.272 20.9521V19.626C565.067 19.6465 564.938 19.6602 564.698 19.6602C563.987 19.6602 563.673 19.332 563.673 18.5938V14.9229H565.272V13.5693H563.673V11.6895H561.984ZM566.968 21H568.663V16.6797C568.663 15.6338 569.429 14.9502 570.529 14.9502C570.816 14.9502 571.268 14.998 571.397 15.0459V13.4736C571.24 13.4258 570.939 13.3984 570.693 13.3984C569.729 13.3984 568.923 13.9453 568.718 14.6836H568.602V13.5215H566.968V21ZM579.3 13.5215H577.604V17.876C577.604 18.9834 577.003 19.6602 575.902 19.6602C574.891 19.6602 574.419 19.0996 574.419 17.958V13.5215H572.724V18.3818C572.724 20.1318 573.681 21.1504 575.314 21.1504C576.456 21.1504 577.188 20.665 577.55 19.8105H577.666V21H579.3V13.5215ZM587.838 16.0371C587.66 14.4648 586.498 13.3711 584.577 13.3711C582.328 13.3711 581.009 14.8135 581.009 17.2402C581.009 19.7012 582.335 21.1504 584.584 21.1504C586.478 21.1504 587.653 20.0977 587.838 18.5322H586.225C586.047 19.3115 585.459 19.7285 584.577 19.7285C583.422 19.7285 582.725 18.8125 582.725 17.2402C582.725 15.6885 583.415 14.793 584.577 14.793C585.507 14.793 586.067 15.3125 586.225 16.0371H587.838ZM590.094 11.6895V13.5693H588.911V14.9229H590.094V19.0039C590.094 20.4531 590.777 21.0342 592.493 21.0342C592.821 21.0342 593.136 21 593.382 20.9521V19.626C593.177 19.6465 593.047 19.6602 592.808 19.6602C592.097 19.6602 591.782 19.332 591.782 18.5938V14.9229H593.382V13.5693H591.782V11.6895H590.094ZM601.585 13.5215H599.89V17.876C599.89 18.9834 599.288 19.6602 598.188 19.6602C597.176 19.6602 596.704 19.0996 596.704 17.958V13.5215H595.009V18.3818C595.009 20.1318 595.966 21.1504 597.6 21.1504C598.741 21.1504 599.473 20.665 599.835 19.8105H599.951V21H601.585V13.5215ZM603.663 21H605.358V16.6797C605.358 15.6338 606.124 14.9502 607.225 14.9502C607.512 14.9502 607.963 14.998 608.093 15.0459V13.4736C607.936 13.4258 607.635 13.3984 607.389 13.3984C606.425 13.3984 605.618 13.9453 605.413 14.6836H605.297V13.5215H603.663V21ZM612.434 14.7178C613.452 14.7178 614.122 15.4287 614.156 16.5361H610.636C610.711 15.4424 611.422 14.7178 612.434 14.7178ZM614.17 18.9424C613.924 19.4961 613.343 19.8037 612.502 19.8037C611.388 19.8037 610.67 19.0244 610.629 17.7803V17.6914H615.852V17.1445C615.852 14.7861 614.573 13.3711 612.44 13.3711C610.273 13.3711 608.927 14.8818 608.927 17.2881C608.927 19.6943 610.253 21.1504 612.454 21.1504C614.218 21.1504 615.469 20.3027 615.776 18.9424H614.17Z" fill="#525760"/>
<rect width="148" height="17" transform="translate(41 8)" fill="white"/>
<path d="M50.4072 21.2461C52.6836 21.2461 54.3516 19.8857 54.584 17.8691H52.8477C52.6084 18.9766 51.6582 19.6738 50.4072 19.6738C48.7256 19.6738 47.6797 18.293 47.6797 16.0645C47.6797 13.8428 48.7256 12.4619 50.4004 12.4619C51.6445 12.4619 52.5947 13.2275 52.8408 14.4102H54.5771C54.3721 12.3525 52.6426 10.8896 50.4004 10.8896C47.6045 10.8896 45.875 12.8652 45.875 16.0713C45.875 19.2637 47.6113 21.2461 50.4072 21.2461ZM56.4365 21H58.1318V10.6299H56.4365V21ZM60.2988 21H61.9873V13.5215H60.2988V21ZM61.1396 12.2842C61.7002 12.2842 62.1514 11.833 62.1514 11.2656C62.1514 10.6982 61.7002 10.2402 61.1396 10.2402C60.5859 10.2402 60.1279 10.6982 60.1279 11.2656C60.1279 11.833 60.5859 12.2842 61.1396 12.2842ZM67.2305 14.7178C68.249 14.7178 68.9189 15.4287 68.9531 16.5361H65.4326C65.5078 15.4424 66.2188 14.7178 67.2305 14.7178ZM68.9668 18.9424C68.7207 19.4961 68.1396 19.8037 67.2988 19.8037C66.1846 19.8037 65.4668 19.0244 65.4258 17.7803V17.6914H70.6484V17.1445C70.6484 14.7861 69.3701 13.3711 67.2373 13.3711C65.0703 13.3711 63.7236 14.8818 63.7236 17.2881C63.7236 19.6943 65.0498 21.1504 67.251 21.1504C69.0146 21.1504 70.2656 20.3027 70.5732 18.9424H68.9668ZM72.3506 21H74.0459V16.6455C74.0459 15.5449 74.6816 14.8477 75.6934 14.8477C76.7256 14.8477 77.2041 15.4219 77.2041 16.5635V21H78.8994V16.1602C78.8994 14.376 77.9902 13.3711 76.3223 13.3711C75.208 13.3711 74.4561 13.8838 74.1006 14.7178H73.9844V13.5215H72.3506V21ZM81.4492 11.6895V13.5693H80.2666V14.9229H81.4492V19.0039C81.4492 20.4531 82.1328 21.0342 83.8486 21.0342C84.1768 21.0342 84.4912 21 84.7373 20.9521V19.626C84.5322 19.6465 84.4023 19.6602 84.1631 19.6602C83.4521 19.6602 83.1377 19.332 83.1377 18.5938V14.9229H84.7373V13.5693H83.1377V11.6895H81.4492ZM92.1064 21V11.1357H90.3428V21H92.1064ZM94.3623 21H96.0576V16.6455C96.0576 15.5449 96.6934 14.8477 97.7051 14.8477C98.7373 14.8477 99.2158 15.4219 99.2158 16.5635V21H100.911V16.1602C100.911 14.376 100.002 13.3711 98.334 13.3711C97.2197 13.3711 96.4678 13.8838 96.1123 14.7178H95.9961V13.5215H94.3623V21ZM103.468 21H105.156V14.9229H106.763V13.5693H105.136V12.8926C105.136 12.1885 105.45 11.8398 106.25 11.8398C106.489 11.8398 106.694 11.8535 106.831 11.874V10.6299C106.558 10.582 106.25 10.5547 105.888 10.5547C104.227 10.5547 103.468 11.293 103.468 12.7832V13.5693H102.244V14.9229H103.468V21ZM108.403 21H110.099V16.6797C110.099 15.6338 110.864 14.9502 111.965 14.9502C112.252 14.9502 112.703 14.998 112.833 15.0459V13.4736C112.676 13.4258 112.375 13.3984 112.129 13.3984C111.165 13.3984 110.358 13.9453 110.153 14.6836H110.037V13.5215H108.403V21ZM116.688 19.79C115.937 19.79 115.396 19.4141 115.396 18.7852C115.396 18.1768 115.841 17.835 116.791 17.7734L118.479 17.6641V18.2588C118.479 19.127 117.714 19.79 116.688 19.79ZM116.189 21.123C117.167 21.123 117.987 20.6992 118.404 19.9746H118.521V21H120.154V15.8936C120.154 14.3076 119.074 13.3711 117.153 13.3711C115.376 13.3711 114.139 14.2119 114.002 15.5312H115.602C115.759 15.0254 116.292 14.752 117.071 14.752C117.987 14.752 118.479 15.1621 118.479 15.8936V16.5225L116.552 16.6387C114.733 16.748 113.715 17.5273 113.715 18.8809C113.715 20.248 114.747 21.123 116.189 21.123ZM122.027 15.6611C122.027 16.7891 122.704 17.4521 124.14 17.7803L125.466 18.0879C126.177 18.2451 126.498 18.5117 126.498 18.9355C126.498 19.4893 125.903 19.8652 125.049 19.8652C124.201 19.8652 123.675 19.5371 123.511 18.9834H121.836C121.966 20.3438 123.142 21.1504 125.008 21.1504C126.874 21.1504 128.193 20.1934 128.193 18.7578C128.193 17.6572 127.53 17.042 126.102 16.7207L124.782 16.4199C124.03 16.249 123.675 15.9893 123.675 15.5654C123.675 15.0254 124.256 14.6562 125.028 14.6562C125.821 14.6562 126.32 14.9912 126.443 15.5176H128.036C127.913 14.1572 126.799 13.3711 125.021 13.3711C123.258 13.3711 122.027 14.3076 122.027 15.6611ZM130.395 11.6895V13.5693H129.212V14.9229H130.395V19.0039C130.395 20.4531 131.078 21.0342 132.794 21.0342C133.122 21.0342 133.437 21 133.683 20.9521V19.626C133.478 19.6465 133.348 19.6602 133.108 19.6602C132.397 19.6602 132.083 19.332 132.083 18.5938V14.9229H133.683V13.5693H132.083V11.6895H130.395ZM135.378 21H137.073V16.6797C137.073 15.6338 137.839 14.9502 138.939 14.9502C139.227 14.9502 139.678 14.998 139.808 15.0459V13.4736C139.65 13.4258 139.35 13.3984 139.104 13.3984C138.14 13.3984 137.333 13.9453 137.128 14.6836H137.012V13.5215H135.378V21ZM147.71 13.5215H146.015V17.876C146.015 18.9834 145.413 19.6602 144.312 19.6602C143.301 19.6602 142.829 19.0996 142.829 17.958V13.5215H141.134V18.3818C141.134 20.1318 142.091 21.1504 143.725 21.1504C144.866 21.1504 145.598 20.665 145.96 19.8105H146.076V21H147.71V13.5215ZM156.248 16.0371C156.07 14.4648 154.908 13.3711 152.987 13.3711C150.738 13.3711 149.419 14.8135 149.419 17.2402C149.419 19.7012 150.745 21.1504 152.994 21.1504C154.888 21.1504 156.063 20.0977 156.248 18.5322H154.635C154.457 19.3115 153.869 19.7285 152.987 19.7285C151.832 19.7285 151.135 18.8125 151.135 17.2402C151.135 15.6885 151.825 14.793 152.987 14.793C153.917 14.793 154.478 15.3125 154.635 16.0371H156.248ZM158.504 11.6895V13.5693H157.321V14.9229H158.504V19.0039C158.504 20.4531 159.188 21.0342 160.903 21.0342C161.231 21.0342 161.546 21 161.792 20.9521V19.626C161.587 19.6465 161.457 19.6602 161.218 19.6602C160.507 19.6602 160.192 19.332 160.192 18.5938V14.9229H161.792V13.5693H160.192V11.6895H158.504ZM169.995 13.5215H168.3V17.876C168.3 18.9834 167.698 19.6602 166.598 19.6602C165.586 19.6602 165.114 19.0996 165.114 17.958V13.5215H163.419V18.3818C163.419 20.1318 164.376 21.1504 166.01 21.1504C167.151 21.1504 167.883 20.665 168.245 19.8105H168.361V21H169.995V13.5215ZM172.073 21H173.769V16.6797C173.769 15.6338 174.534 14.9502 175.635 14.9502C175.922 14.9502 176.373 14.998 176.503 15.0459V13.4736C176.346 13.4258 176.045 13.3984 175.799 13.3984C174.835 13.3984 174.028 13.9453 173.823 14.6836H173.707V13.5215H172.073V21ZM180.844 14.7178C181.862 14.7178 182.532 15.4287 182.566 16.5361H179.046C179.121 15.4424 179.832 14.7178 180.844 14.7178ZM182.58 18.9424C182.334 19.4961 181.753 19.8037 180.912 19.8037C179.798 19.8037 179.08 19.0244 179.039 17.7803V17.6914H184.262V17.1445C184.262 14.7861 182.983 13.3711 180.851 13.3711C178.684 13.3711 177.337 14.8818 177.337 17.2881C177.337 19.6943 178.663 21.1504 180.864 21.1504C182.628 21.1504 183.879 20.3027 184.187 18.9424H182.58Z" fill="#525760"/>
<rect width="99" height="16" transform="translate(65 136)" fill="white"/>
<path d="M73.9004 148C75.7051 148 76.8242 147.062 76.8242 145.58C76.8242 144.49 76.0098 143.646 74.8906 143.564V143.459C75.7578 143.33 76.4199 142.551 76.4199 141.654C76.4199 140.348 75.4414 139.545 73.8008 139.545H70.1035V148H73.9004ZM71.873 140.898H73.3496C74.1934 140.898 74.6797 141.303 74.6797 141.977C74.6797 142.656 74.1582 143.049 73.2031 143.049H71.873V140.898ZM71.873 146.646V144.244H73.4082C74.4512 144.244 75.0195 144.654 75.0195 145.428C75.0195 146.219 74.4688 146.646 73.4492 146.646H71.873ZM81.1191 148.141C83.1055 148.141 84.3008 146.881 84.3008 144.766C84.3008 142.668 83.0879 141.396 81.1191 141.396C79.1504 141.396 77.9375 142.674 77.9375 144.766C77.9375 146.881 79.1328 148.141 81.1191 148.141ZM81.1191 146.746C80.2051 146.746 79.6895 146.025 79.6895 144.766C79.6895 143.523 80.2109 142.791 81.1191 142.791C82.0215 142.791 82.5488 143.523 82.5488 144.766C82.5488 146.02 82.0273 146.746 81.1191 146.746ZM86.1816 140.002V141.602H85.1738V142.943H86.1816V146.254C86.1816 147.514 86.8027 148.023 88.373 148.023C88.7012 148.023 89.0176 147.988 89.2285 147.947V146.646C89.0645 146.664 88.9473 146.67 88.7246 146.67C88.1445 146.67 87.8867 146.412 87.8867 145.85V142.943H89.2285V141.602H87.8867V140.002H86.1816ZM94.4844 149.816L97.5137 139.07H95.9434L92.9141 149.816H94.4844ZM107.094 148H109.01L106.074 139.545H103.994L101.059 148H102.834L103.484 145.984H106.455L107.094 148ZM104.926 141.303H105.031L106.08 144.619H103.865L104.926 141.303ZM110.451 139.545V148H112.221V145.375H113.891C115.672 145.375 116.908 144.209 116.908 142.469C116.908 140.711 115.719 139.545 113.979 139.545H110.451ZM112.221 140.998H113.51C114.529 140.998 115.109 141.514 115.109 142.475C115.109 143.424 114.518 143.939 113.504 143.939H112.221V140.998ZM120.307 148V139.545H118.537V148H120.307ZM129.043 148.217C131.082 148.217 132.57 146.957 132.717 145.129H130.994C130.824 146.061 130.062 146.658 129.049 146.658C127.713 146.658 126.887 145.551 126.887 143.77C126.887 141.988 127.713 140.887 129.043 140.887C130.051 140.887 130.818 141.525 130.988 142.498H132.711C132.582 140.658 131.047 139.328 129.043 139.328C126.588 139.328 125.076 141.021 125.076 143.77C125.076 146.523 126.594 148.217 129.043 148.217ZM136.508 146.816C135.916 146.816 135.5 146.523 135.5 146.043C135.5 145.58 135.857 145.316 136.59 145.264L137.896 145.182V145.656C137.896 146.312 137.299 146.816 136.508 146.816ZM135.945 148.1C136.783 148.1 137.486 147.748 137.82 147.156H137.926V148H139.578V143.588C139.578 142.205 138.611 141.396 136.9 141.396C135.277 141.396 134.182 142.146 134.07 143.342H135.641C135.781 142.955 136.191 142.744 136.807 142.744C137.51 142.744 137.896 143.049 137.896 143.588V144.115L136.332 144.209C134.727 144.303 133.83 144.982 133.83 146.154C133.83 147.338 134.703 148.1 135.945 148.1ZM141.312 148H143.018V139.07H141.312V148ZM144.852 148H146.557V139.07H144.852V148ZM151.127 142.703C151.924 142.703 152.439 143.236 152.475 144.092H149.721C149.779 143.254 150.336 142.703 151.127 142.703ZM152.51 146.16C152.328 146.588 151.865 146.828 151.191 146.828C150.301 146.828 149.738 146.23 149.715 145.27V145.182H154.15V144.66C154.15 142.609 153.025 141.396 151.121 141.396C149.199 141.396 148.016 142.697 148.016 144.801C148.016 146.898 149.176 148.141 151.145 148.141C152.727 148.141 153.846 147.373 154.098 146.16H152.51ZM155.551 148H157.256V144.42C157.256 143.512 157.895 142.961 158.826 142.961C159.102 142.961 159.5 143.014 159.635 143.066V141.514C159.488 141.461 159.201 141.432 158.967 141.432C158.146 141.432 157.479 141.924 157.309 142.568H157.203V141.537H155.551V148Z" fill="#3E4249"/>
<rect width="87" height="16" transform="translate(468 136)" fill="white"/>
<path d="M478.553 148H480.469L477.533 139.545H475.453L472.518 148H474.293L474.943 145.984H477.914L478.553 148ZM476.385 141.303H476.49L477.539 144.619H475.324L476.385 141.303ZM484.26 146.559C483.334 146.559 482.807 145.85 482.807 144.707C482.807 143.576 483.34 142.861 484.26 142.861C485.18 142.861 485.736 143.576 485.736 144.713C485.736 145.85 485.186 146.559 484.26 146.559ZM484.236 150.449C486.188 150.449 487.424 149.494 487.424 147.977V141.537H485.771V142.574H485.666C485.32 141.865 484.576 141.432 483.703 141.432C482.062 141.432 481.055 142.709 481.055 144.713C481.055 146.658 482.057 147.906 483.668 147.906C484.576 147.906 485.256 147.543 485.613 146.863H485.719V148.059C485.719 148.785 485.186 149.207 484.271 149.207C483.533 149.207 483.053 148.955 482.965 148.557H481.277C481.383 149.693 482.52 150.449 484.236 150.449ZM491.93 142.703C492.727 142.703 493.242 143.236 493.277 144.092H490.523C490.582 143.254 491.139 142.703 491.93 142.703ZM493.312 146.16C493.131 146.588 492.668 146.828 491.994 146.828C491.104 146.828 490.541 146.23 490.518 145.27V145.182H494.953V144.66C494.953 142.609 493.828 141.396 491.924 141.396C490.002 141.396 488.818 142.697 488.818 144.801C488.818 146.898 489.979 148.141 491.947 148.141C493.529 148.141 494.648 147.373 494.9 146.16H493.312ZM496.354 148H498.059V144.273C498.059 143.424 498.545 142.867 499.336 142.867C500.145 142.867 500.525 143.336 500.525 144.227V148H502.23V143.822C502.23 142.275 501.457 141.396 500.021 141.396C499.066 141.396 498.41 141.848 498.111 142.574H498.006V141.537H496.354V148ZM504.375 140.002V141.602H503.367V142.943H504.375V146.254C504.375 147.514 504.996 148.023 506.566 148.023C506.895 148.023 507.211 147.988 507.422 147.947V146.646C507.258 146.664 507.141 146.67 506.918 146.67C506.338 146.67 506.08 146.412 506.08 145.85V142.943H507.422V141.602H506.08V140.002H504.375ZM511.729 145.65C511.793 147.227 513.1 148.217 515.115 148.217C517.236 148.217 518.543 147.174 518.543 145.469C518.543 144.156 517.811 143.424 516.111 143.066L515.092 142.85C514.102 142.639 513.697 142.34 513.697 141.818C513.697 141.174 514.283 140.764 515.168 140.764C516.023 140.764 516.645 141.209 516.727 141.877H518.391C518.338 140.371 517.02 139.328 515.156 139.328C513.205 139.328 511.922 140.377 511.922 141.971C511.922 143.26 512.678 144.062 514.219 144.385L515.32 144.619C516.357 144.842 516.779 145.152 516.779 145.691C516.779 146.33 516.129 146.775 515.209 146.775C514.213 146.775 513.521 146.336 513.439 145.65H511.729ZM522.844 142.703C523.641 142.703 524.156 143.236 524.191 144.092H521.438C521.496 143.254 522.053 142.703 522.844 142.703ZM524.227 146.16C524.045 146.588 523.582 146.828 522.908 146.828C522.018 146.828 521.455 146.23 521.432 145.27V145.182H525.867V144.66C525.867 142.609 524.742 141.396 522.838 141.396C520.916 141.396 519.732 142.697 519.732 144.801C519.732 146.898 520.893 148.141 522.861 148.141C524.443 148.141 525.562 147.373 525.814 146.16H524.227ZM527.268 148H528.973V144.42C528.973 143.512 529.611 142.961 530.543 142.961C530.818 142.961 531.217 143.014 531.352 143.066V141.514C531.205 141.461 530.918 141.432 530.684 141.432C529.863 141.432 529.195 141.924 529.025 142.568H528.92V141.537H527.268V148ZM538.43 141.537H536.631L535.307 146.354H535.201L533.865 141.537H532.031L534.275 148H536.197L538.43 141.537ZM542.109 142.703C542.906 142.703 543.422 143.236 543.457 144.092H540.703C540.762 143.254 541.318 142.703 542.109 142.703ZM543.492 146.16C543.311 146.588 542.848 146.828 542.174 146.828C541.283 146.828 540.721 146.23 540.697 145.27V145.182H545.133V144.66C545.133 142.609 544.008 141.396 542.104 141.396C540.182 141.396 538.998 142.697 538.998 144.801C538.998 146.898 540.158 148.141 542.127 148.141C543.709 148.141 544.828 147.373 545.08 146.16H543.492ZM546.533 148H548.238V144.42C548.238 143.512 548.877 142.961 549.809 142.961C550.084 142.961 550.482 143.014 550.617 143.066V141.514C550.471 141.461 550.184 141.432 549.949 141.432C549.129 141.432 548.461 141.924 548.291 142.568H548.186V141.537H546.533V148Z" fill="#3E4249"/>
<rect width="87" height="16" transform="translate(596 136)" fill="white"/>
<path d="M603.189 148V145.451L604.027 144.461L606.482 148H608.604L605.305 143.254L608.387 139.545H606.418L603.295 143.312H603.189V139.545H601.42V148H603.189ZM612.061 142.703C612.857 142.703 613.373 143.236 613.408 144.092H610.654C610.713 143.254 611.27 142.703 612.061 142.703ZM613.443 146.16C613.262 146.588 612.799 146.828 612.125 146.828C611.234 146.828 610.672 146.23 610.648 145.27V145.182H615.084V144.66C615.084 142.609 613.959 141.396 612.055 141.396C610.133 141.396 608.949 142.697 608.949 144.801C608.949 146.898 610.109 148.141 612.078 148.141C613.66 148.141 614.779 147.373 615.031 146.16H613.443ZM617.111 150.35C618.723 150.35 619.514 149.764 620.064 148.1L622.291 141.537H620.486L619.127 146.436H619.021L617.662 141.537H615.781L618.049 148.041L617.99 148.275C617.85 148.768 617.486 148.973 616.848 148.973C616.777 148.973 616.52 148.973 616.461 148.961V150.332C616.531 150.344 617.047 150.35 617.111 150.35ZM635.697 148V139.545H633.617L631.273 145.252H631.168L628.83 139.545H626.744V148H628.385V142.346H628.479L630.635 147.543H631.812L633.963 142.346H634.057V148H635.697ZM639.91 146.816C639.318 146.816 638.902 146.523 638.902 146.043C638.902 145.58 639.26 145.316 639.992 145.264L641.299 145.182V145.656C641.299 146.312 640.701 146.816 639.91 146.816ZM639.348 148.1C640.186 148.1 640.889 147.748 641.223 147.156H641.328V148H642.98V143.588C642.98 142.205 642.014 141.396 640.303 141.396C638.68 141.396 637.584 142.146 637.473 143.342H639.043C639.184 142.955 639.594 142.744 640.209 142.744C640.912 142.744 641.299 143.049 641.299 143.588V144.115L639.734 144.209C638.129 144.303 637.232 144.982 637.232 146.154C637.232 147.338 638.105 148.1 639.348 148.1ZM644.656 148H646.361V144.273C646.361 143.424 646.848 142.867 647.639 142.867C648.447 142.867 648.828 143.336 648.828 144.227V148H650.533V143.822C650.533 142.275 649.76 141.396 648.324 141.396C647.369 141.396 646.713 141.848 646.414 142.574H646.309V141.537H644.656V148ZM654.523 146.816C653.932 146.816 653.516 146.523 653.516 146.043C653.516 145.58 653.873 145.316 654.605 145.264L655.912 145.182V145.656C655.912 146.312 655.314 146.816 654.523 146.816ZM653.961 148.1C654.799 148.1 655.502 147.748 655.836 147.156H655.941V148H657.594V143.588C657.594 142.205 656.627 141.396 654.916 141.396C653.293 141.396 652.197 142.146 652.086 143.342H653.656C653.797 142.955 654.207 142.744 654.822 142.744C655.525 142.744 655.912 143.049 655.912 143.588V144.115L654.348 144.209C652.742 144.303 651.846 144.982 651.846 146.154C651.846 147.338 652.719 148.1 653.961 148.1ZM662.141 146.559C661.215 146.559 660.688 145.85 660.688 144.707C660.688 143.576 661.221 142.861 662.141 142.861C663.061 142.861 663.617 143.576 663.617 144.713C663.617 145.85 663.066 146.559 662.141 146.559ZM662.117 150.449C664.068 150.449 665.305 149.494 665.305 147.977V141.537H663.652V142.574H663.547C663.201 141.865 662.457 141.432 661.584 141.432C659.943 141.432 658.936 142.709 658.936 144.713C658.936 146.658 659.938 147.906 661.549 147.906C662.457 147.906 663.137 147.543 663.494 146.863H663.6V148.059C663.6 148.785 663.066 149.207 662.152 149.207C661.414 149.207 660.934 148.955 660.846 148.557H659.158C659.264 149.693 660.4 150.449 662.117 150.449ZM669.811 142.703C670.607 142.703 671.123 143.236 671.158 144.092H668.404C668.463 143.254 669.02 142.703 669.811 142.703ZM671.193 146.16C671.012 146.588 670.549 146.828 669.875 146.828C668.984 146.828 668.422 146.23 668.398 145.27V145.182H672.834V144.66C672.834 142.609 671.709 141.396 669.805 141.396C667.883 141.396 666.699 142.697 666.699 144.801C666.699 146.898 667.859 148.141 669.828 148.141C671.41 148.141 672.529 147.373 672.781 146.16H671.193ZM674.234 148H675.939V144.42C675.939 143.512 676.578 142.961 677.51 142.961C677.785 142.961 678.184 143.014 678.318 143.066V141.514C678.172 141.461 677.885 141.432 677.65 141.432C676.83 141.432 676.162 141.924 675.992 142.568H675.887V141.537H674.234V148Z" fill="#3E4249"/>
<rect width="99" height="16" transform="translate(332 136)" fill="white"/>
<path d="M337.109 145.65C337.174 147.227 338.48 148.217 340.496 148.217C342.617 148.217 343.924 147.174 343.924 145.469C343.924 144.156 343.191 143.424 341.492 143.066L340.473 142.85C339.482 142.639 339.078 142.34 339.078 141.818C339.078 141.174 339.664 140.764 340.549 140.764C341.404 140.764 342.025 141.209 342.107 141.877H343.771C343.719 140.371 342.4 139.328 340.537 139.328C338.586 139.328 337.303 140.377 337.303 141.971C337.303 143.26 338.059 144.062 339.6 144.385L340.701 144.619C341.738 144.842 342.16 145.152 342.16 145.691C342.16 146.33 341.51 146.775 340.59 146.775C339.594 146.775 338.902 146.336 338.82 145.65H337.109ZM346.232 150.35C347.844 150.35 348.635 149.764 349.186 148.1L351.412 141.537H349.607L348.248 146.436H348.143L346.783 141.537H344.902L347.17 148.041L347.111 148.275C346.971 148.768 346.607 148.973 345.969 148.973C345.898 148.973 345.641 148.973 345.582 148.961V150.332C345.652 150.344 346.168 150.35 346.232 150.35ZM352.602 148H354.307V144.109C354.307 143.389 354.781 142.867 355.449 142.867C356.117 142.867 356.516 143.26 356.516 143.945V148H358.156V144.045C358.156 143.359 358.602 142.867 359.293 142.867C360.014 142.867 360.371 143.248 360.371 144.016V148H362.076V143.564C362.076 142.234 361.273 141.396 359.984 141.396C359.082 141.396 358.338 141.871 358.039 142.592H357.934C357.676 141.842 357.055 141.396 356.146 141.396C355.297 141.396 354.623 141.854 354.359 142.592H354.254V141.537H352.602V148ZM367.467 141.432C366.576 141.432 365.844 141.871 365.492 142.598H365.387V141.537H363.734V150.145H365.439V147.01H365.545C365.861 147.695 366.57 148.1 367.496 148.1C369.113 148.1 370.104 146.852 370.104 144.766C370.104 142.674 369.102 141.432 367.467 141.432ZM366.887 146.676C365.984 146.676 365.422 145.955 365.422 144.771C365.422 143.588 365.984 142.861 366.893 142.861C367.801 142.861 368.352 143.582 368.352 144.766C368.352 145.961 367.807 146.676 366.887 146.676ZM371.551 148H373.256V144.291C373.256 143.453 373.748 142.885 374.604 142.885C375.377 142.885 375.793 143.348 375.793 144.244V148H377.498V143.84C377.498 142.287 376.672 141.414 375.283 141.414C374.334 141.414 373.631 141.859 373.332 142.598H373.227V139.07H371.551V148ZM382.021 148.141C384.008 148.141 385.203 146.881 385.203 144.766C385.203 142.668 383.99 141.396 382.021 141.396C380.053 141.396 378.84 142.674 378.84 144.766C378.84 146.881 380.035 148.141 382.021 148.141ZM382.021 146.746C381.107 146.746 380.592 146.025 380.592 144.766C380.592 143.523 381.113 142.791 382.021 142.791C382.924 142.791 383.451 143.523 383.451 144.766C383.451 146.02 382.93 146.746 382.021 146.746ZM386.598 148H388.303V144.273C388.303 143.424 388.789 142.867 389.58 142.867C390.389 142.867 390.77 143.336 390.77 144.227V148H392.475V143.822C392.475 142.275 391.701 141.396 390.266 141.396C389.311 141.396 388.654 141.848 388.355 142.574H388.25V141.537H386.598V148ZM394.76 150.35C396.371 150.35 397.162 149.764 397.713 148.1L399.939 141.537H398.135L396.775 146.436H396.67L395.311 141.537H393.43L395.697 148.041L395.639 148.275C395.498 148.768 395.135 148.973 394.496 148.973C394.426 148.973 394.168 148.973 394.109 148.961V150.332C394.18 150.344 394.695 150.35 394.76 150.35ZM404.393 139.545V148H406.162V145.375H407.832C409.613 145.375 410.85 144.209 410.85 142.469C410.85 140.711 409.66 139.545 407.92 139.545H404.393ZM406.162 140.998H407.451C408.471 140.998 409.051 141.514 409.051 142.475C409.051 143.424 408.459 143.939 407.445 143.939H406.162V140.998ZM414.998 148.141C416.984 148.141 418.18 146.881 418.18 144.766C418.18 142.668 416.967 141.396 414.998 141.396C413.029 141.396 411.816 142.674 411.816 144.766C411.816 146.881 413.012 148.141 414.998 148.141ZM414.998 146.746C414.084 146.746 413.568 146.025 413.568 144.766C413.568 143.523 414.09 142.791 414.998 142.791C415.9 142.791 416.428 143.523 416.428 144.766C416.428 146.02 415.906 146.746 414.998 146.746ZM421.889 148.1C422.785 148.1 423.518 147.684 423.863 146.986H423.969V148H425.621V139.07H423.916V142.568H423.816C423.482 141.854 422.762 141.432 421.889 141.432C420.266 141.432 419.258 142.703 419.258 144.76C419.258 146.822 420.26 148.1 421.889 148.1ZM422.469 142.861C423.377 142.861 423.934 143.594 423.934 144.771C423.934 145.955 423.383 146.676 422.469 146.676C421.555 146.676 421.01 145.961 421.01 144.766C421.01 143.582 421.561 142.861 422.469 142.861Z" fill="#3E4249"/>
</svg>
