<svg width="744" height="344" viewBox="0 0 744 344" fill="none" xmlns="http://www.w3.org/2000/svg">
<rect width="744" height="344" fill="white"/>
<path d="M244 0L244 344" stroke="#CFD0D2"/>
<path d="M500 0L500 344" stroke="#CFD0D2"/>
<path d="M20 64C20 46.3269 34.3269 32 52 32C69.6731 32 84 46.3269 84 64C84 81.6731 69.6731 96 52 96C34.3269 96 20 81.6731 20 64Z" fill="white"/>
<path d="M38 66C38 60.4772 42.4772 56 48 56H56C61.5228 56 66 60.4772 66 66V74.9296C66 75.5983 65.6566 76.2092 65.0295 76.4415C63.4394 77.0305 59.6587 78 52 78C44.3413 78 40.5606 77.0305 38.9705 76.4415C38.3434 76.2092 38 75.5983 38 74.9296V66Z" fill="white"/>
<path d="M47 65.5C47 64.6716 47.6716 64 48.5 64C49.3284 64 50 64.6716 50 65.5V67.5C50 68.3284 49.3284 69 48.5 69C47.6716 69 47 68.3284 47 67.5V65.5Z" fill="#000028"/>
<path d="M55.5 64C54.6716 64 54 64.6716 54 65.5V67.5C54 68.3284 54.6716 69 55.5 69C56.3284 69 57 68.3284 57 67.5V65.5C57 64.6716 56.3284 64 55.5 64Z" fill="#000028"/>
<path fill-rule="evenodd" clip-rule="evenodd" d="M53 52.8293C54.1652 52.4175 55 51.3062 55 50C55 48.3431 53.6569 47 52 47C50.3431 47 49 48.3431 49 50C49 51.3062 49.8348 52.4175 51 52.8293V56H48C42.4772 56 38 60.4772 38 66V74.9296C38 75.5983 38.3434 76.2092 38.9705 76.4415C40.5606 77.0305 44.3413 78 52 78C59.6587 78 63.4394 77.0305 65.0295 76.4415C65.6566 76.2092 66 75.5983 66 74.9296V66C66 60.4772 61.5228 56 56 56H53V52.8293ZM48 58C43.5817 58 40 61.5817 40 66V74.683C41.5244 75.1869 45.0644 76 52 76C58.9356 76 62.4756 75.1869 64 74.683V66C64 61.5817 60.4183 58 56 58H48Z" fill="#000028"/>
<path d="M52 94C35.4315 94 22 80.5685 22 64H18C18 82.7777 33.2223 98 52 98V94ZM82 64C82 80.5685 68.5685 94 52 94V98C70.7777 98 86 82.7777 86 64H82ZM52 34C68.5685 34 82 47.4315 82 64H86C86 45.2223 70.7777 30 52 30V34ZM52 30C33.2223 30 18 45.2223 18 64H22C22 47.4315 35.4315 34 52 34V30Z" fill="#EAEBEC"/>
<path d="M340 64C340 46.3269 354.327 32 372 32C389.673 32 404 46.3269 404 64C404 81.6731 389.673 96 372 96C354.327 96 340 81.6731 340 64Z" fill="white"/>
<path fill-rule="evenodd" clip-rule="evenodd" d="M366.949 51.8048L363.231 50.6152C361.394 51.8208 359.821 53.3941 358.615 55.2305L359.805 58.9486L356.333 60.7373C356.115 61.7907 356 62.8819 356 64C356 65.1181 356.115 66.2093 356.333 67.2627L359.805 69.0514L358.615 72.7695C359.821 74.6059 361.394 76.1792 363.231 77.3848L366.949 76.1952L368.737 79.6671C369.791 79.8853 370.882 80 372 80C373.118 80 374.209 79.8853 375.263 79.6671L377.051 76.1952L380.769 77.3848C382.606 76.1792 384.179 74.6059 385.385 72.7695L384.195 69.0514L387.667 67.2627C387.885 66.2093 388 65.1181 388 64C388 62.8819 387.885 61.7907 387.667 60.7373L384.195 58.9486L385.385 55.2305C384.179 53.3941 382.606 51.8208 380.769 50.6152L377.051 51.8048L375.263 48.3329C374.209 48.1147 373.118 48 372 48C370.882 48 369.791 48.1147 368.737 48.3329L366.949 51.8048ZM372 68C374.209 68 376 66.2091 376 64C376 61.7909 374.209 60 372 60C369.791 60 368 61.7909 368 64C368 66.2091 369.791 68 372 68Z" fill="white"/>
<path fill-rule="evenodd" clip-rule="evenodd" d="M376 64C376 66.2091 374.209 68 372 68C369.791 68 368 66.2091 368 64C368 61.7909 369.791 60 372 60C374.209 60 376 61.7909 376 64ZM374 64C374 65.1046 373.105 66 372 66C370.895 66 370 65.1046 370 64C370 62.8954 370.895 62 372 62C373.105 62 374 62.8954 374 64Z" fill="#000028"/>
<path fill-rule="evenodd" clip-rule="evenodd" d="M363.231 50.6152L366.949 51.8048L368.737 48.3329C369.791 48.1147 370.882 48 372 48C373.118 48 374.209 48.1147 375.263 48.3329L377.051 51.8048L380.769 50.6152C382.606 51.8208 384.179 53.3941 385.385 55.2305L384.195 58.9486L387.667 60.7373C387.885 61.7907 388 62.8819 388 64C388 65.1181 387.885 66.2093 387.667 67.2627L384.195 69.0514L385.385 72.7695C384.179 74.6059 382.606 76.1792 380.769 77.3848L377.051 76.1952L375.263 79.6671C374.209 79.8853 373.118 80 372 80C370.882 80 369.791 79.8853 368.737 79.6671L366.949 76.1952L363.231 77.3848C361.394 76.1792 359.821 74.6059 358.615 72.7695L359.805 69.0514L356.333 67.2627C356.115 66.2093 356 65.1181 356 64C356 62.8819 356.115 61.7907 356.333 60.7373L359.805 58.9486L358.615 55.2305C359.821 53.3941 361.394 51.8208 363.231 50.6152ZM367.951 54.2255L370.06 50.1331C370.693 50.0454 371.341 50 372 50C372.659 50 373.307 50.0454 373.94 50.1331L376.049 54.2255L380.432 52.823C381.469 53.6066 382.393 54.5311 383.177 55.5679L381.775 59.9513L385.867 62.0596C385.955 62.693 386 63.3407 386 64C386 64.6593 385.955 65.307 385.867 65.9404L381.775 68.0487L383.177 72.4321C382.393 73.4689 381.469 74.3934 380.432 75.177L376.049 73.7745L373.94 77.8669C373.307 77.9546 372.659 78 372 78C371.341 78 370.693 77.9546 370.06 77.8669L367.951 73.7745L363.568 75.177C362.531 74.3934 361.607 73.4689 360.823 72.4321L362.225 68.0487L358.133 65.9404C358.045 65.307 358 64.6593 358 64C358 63.3407 358.045 62.693 358.133 62.0596L362.225 59.9513L360.823 55.5679C361.607 54.5311 362.531 53.6066 363.568 52.823L367.951 54.2255Z" fill="#000028"/>
<path d="M372 94C355.431 94 342 80.5685 342 64H338C338 82.7777 353.222 98 372 98V94ZM402 64C402 80.5685 388.569 94 372 94V98C390.778 98 406 82.7777 406 64H402ZM372 34C388.569 34 402 47.4315 402 64H406C406 45.2223 390.778 30 372 30V34ZM372 30C353.222 30 338 45.2223 338 64H342C342 47.4315 355.431 34 372 34V30Z" fill="#EAEBEC"/>
<path d="M660 64C660 46.3269 674.327 32 692 32C709.673 32 724 46.3269 724 64C724 81.6731 709.673 96 692 96C674.327 96 660 81.6731 660 64Z" fill="white"/>
<path fill-rule="evenodd" clip-rule="evenodd" d="M692 51C697.318 51 701.828 54.3727 703.402 59.0439C706.168 60.7784 708 63.8056 708 67.25C708 72.4164 703.879 76.6442 698.667 76.9787L684 76.9754C679.525 76.6435 676 72.9981 676 68.55C676 65.5273 677.628 62.8753 680.075 61.3819C680.747 55.5407 685.83 51 692 51Z" fill="white"/>
<path d="M688.875 67.6057C688.875 67.9386 689.052 68.2464 689.34 68.4142L692.156 70.0542L694.972 68.4142C695.26 68.2464 695.438 67.9386 695.438 67.6057L695.438 65.9107L687 63.5707V59.3729C687 58.7581 687.317 58.0925 687.996 57.7872C688.721 57.4609 690.11 57 692.156 57C694.202 57 695.591 57.4609 696.317 57.7872C696.995 58.0925 697.313 58.7581 697.313 59.3729V61.7319L695.438 61.2119V59.4466C694.887 59.2155 693.795 58.872 692.156 58.872C690.517 58.872 689.425 59.2155 688.875 59.4466V62.1479L697.312 64.5V67.6057C697.312 68.6044 696.781 69.5279 695.917 70.0311L692.865 71.8088C692.427 72.0638 691.886 72.0637 691.448 71.8088L688.395 70.0311C687.531 69.5279 687 68.6044 687 67.6057V65.8918L688.875 66.375V67.6057Z" fill="#000028"/>
<path fill-rule="evenodd" clip-rule="evenodd" d="M684 76.9754L698.667 76.9787C703.879 76.6442 708 72.4164 708 67.25C708 63.8056 706.168 60.7784 703.402 59.0439C701.828 54.3727 697.318 51 692 51C685.83 51 680.747 55.5407 680.075 61.3819C677.628 62.8753 676 65.5273 676 68.55C676 72.9981 679.525 76.6435 684 76.9754ZM701.507 59.6828L701.735 60.3591L702.34 60.7383C704.56 62.1307 706 64.5377 706 67.25C706 71.2921 702.78 74.6798 698.599 74.9787L684.079 74.9754C680.631 74.6853 678 71.8786 678 68.55C678 66.2689 679.226 64.2431 681.117 63.0892L681.951 62.5805L682.062 61.6104C682.615 56.8068 686.817 53 692 53C696.461 53 700.207 55.8265 701.507 59.6828Z" fill="#000028"/>
<path d="M692 94C675.431 94 662 80.5685 662 64H658C658 82.7777 673.222 98 692 98V94ZM722 64C722 80.5685 708.569 94 692 94V98C710.778 98 726 82.7777 726 64H722ZM692 34C708.569 34 722 47.4315 722 64H726C726 45.2223 710.778 30 692 30V34ZM692 30C673.222 30 658 45.2223 658 64H662C662 47.4315 675.431 34 692 34V30Z" fill="#EAEBEC"/>
<path d="M691.47 232.03C691.763 232.323 692.237 232.323 692.53 232.03L697.303 227.257C697.596 226.964 697.596 226.49 697.303 226.197C697.01 225.904 696.536 225.904 696.243 226.197L692 230.439L687.757 226.197C687.464 225.904 686.99 225.904 686.697 226.197C686.404 226.49 686.404 226.964 686.697 227.257L691.47 232.03ZM692.53 127.97C692.237 127.677 691.763 127.677 691.47 127.97L686.697 132.743C686.404 133.036 686.404 133.51 686.697 133.803C686.99 134.096 687.464 134.096 687.757 133.803L692 129.561L696.243 133.803C696.536 134.096 697.01 134.096 697.303 133.803C697.596 133.51 697.596 133.036 697.303 132.743L692.53 127.97ZM692.75 231.5L692.75 128.5L691.25 128.5L691.25 231.5L692.75 231.5Z" fill="#008EFF"/>
<path d="M96.5 51.25C96.0858 51.25 95.75 51.5858 95.75 52C95.75 52.4142 96.0858 52.75 96.5 52.75V51.25ZM328.03 52.5303C328.323 52.2374 328.323 51.7626 328.03 51.4697L323.257 46.6967C322.964 46.4038 322.49 46.4038 322.197 46.6967C321.904 46.9896 321.904 47.4645 322.197 47.7574L326.439 52L322.197 56.2426C321.904 56.5355 321.904 57.0104 322.197 57.3033C322.49 57.5962 322.964 57.5962 323.257 57.3033L328.03 52.5303ZM96.5 52.75L327.5 52.75V51.25L96.5 51.25V52.75Z" fill="#008EFF"/>
<path d="M327.5 76.75C327.914 76.75 328.25 76.4142 328.25 76C328.25 75.5858 327.914 75.25 327.5 75.25L327.5 76.75ZM95.9697 75.4696C95.6768 75.7625 95.6768 76.2374 95.9697 76.5303L100.743 81.3033C101.036 81.5962 101.51 81.5962 101.803 81.3033C102.096 81.0104 102.096 80.5355 101.803 80.2426L97.5607 76L101.803 71.7573C102.096 71.4644 102.096 70.9896 101.803 70.6967C101.51 70.4038 101.036 70.4038 100.743 70.6967L95.9697 75.4696ZM327.5 75.25L96.5 75.25L96.5 76.75L327.5 76.75L327.5 75.25Z" fill="#008EFF"/>
<path d="M648.03 64.5303C648.323 64.2374 648.323 63.7626 648.03 63.4697L643.257 58.6967C642.964 58.4038 642.49 58.4038 642.197 58.6967C641.904 58.9896 641.904 59.4645 642.197 59.7574L646.439 64L642.197 68.2426C641.904 68.5355 641.904 69.0104 642.197 69.3033C642.49 69.5962 642.964 69.5962 643.257 69.3033L648.03 64.5303ZM415.97 63.4696C415.677 63.7625 415.677 64.2374 415.97 64.5303L420.743 69.3033C421.036 69.5962 421.51 69.5962 421.803 69.3033C422.096 69.0104 422.096 68.5355 421.803 68.2426L417.561 64L421.803 59.7573C422.096 59.4644 422.096 58.9896 421.803 58.6967C421.51 58.4038 421.036 58.4038 420.743 58.6967L415.97 63.4696ZM647.5 63.25L416.5 63.25L416.5 64.75L647.5 64.75L647.5 63.25Z" fill="#008EFF"/>
<path d="M219.249 73.4312C220.938 73.1492 222.04 72.7996 222.725 72.5175C223.591 72.161 224.244 71.4905 224.601 70.6722C225.156 69.4023 225.999 66.6901 225.999 61.9696C225.999 57.2492 225.156 54.537 224.601 53.2671C224.244 52.4488 223.591 51.7783 222.725 51.4218C221.345 50.8532 218.245 50 212 50C205.755 50 202.654 50.8532 201.274 51.4218C200.409 51.7783 199.755 52.4488 199.398 53.2671L201.231 54.0673L199.398 53.2671C198.843 54.537 198 57.2492 198 61.9696C198 66.6901 198.843 69.4023 199.398 70.6722C199.755 71.4905 200.409 72.161 201.274 72.5175C202.647 73.0833 205.724 73.9309 211.908 73.9392L215.176 77.2814C216.665 78.8033 219.249 77.7496 219.249 75.6209V73.4312Z" fill="white" stroke="white" stroke-width="4"/>
<path fill-rule="evenodd" clip-rule="evenodd" d="M213.369 70.4277L215.749 72.8616V70.34L217.087 70.1947C219.56 69.9261 220.851 69.5037 221.388 69.2831C221.388 69.2827 221.388 69.2822 221.389 69.2818C221.39 69.2794 221.392 69.2762 221.394 69.2718C221.733 68.4941 222.499 66.2665 222.499 61.9696C222.499 57.6727 221.733 55.4452 221.394 54.6675C221.391 54.6622 221.389 54.6585 221.388 54.6562C220.557 54.3146 217.943 53.4999 212 53.4999C206.056 53.4999 203.443 54.3146 202.611 54.6562C202.61 54.6585 202.608 54.6622 202.606 54.6675C202.266 55.4452 201.5 57.6727 201.5 61.9696C201.5 66.2665 202.266 68.4941 202.606 69.2718C202.608 69.2771 202.61 69.2808 202.611 69.2831C203.443 69.6247 206.056 70.4393 212 70.4393C212.248 70.4393 212.491 70.4379 212.728 70.4352L213.369 70.4277ZM217.249 75.6209C217.249 75.957 216.841 76.1234 216.606 75.8831L212.745 71.935C212.502 71.9378 212.254 71.9393 212 71.9393C205.921 71.9393 203.1 71.1066 202.036 70.6683C201.67 70.5175 201.389 70.2349 201.231 69.872C200.799 68.8833 200 66.4481 200 61.9696C200 57.4912 200.799 55.056 201.231 54.0673C201.389 53.7044 201.67 53.4218 202.036 53.271C203.1 52.8327 205.921 52 212 52C218.078 52 220.899 52.8327 221.963 53.271C222.329 53.4218 222.61 53.7044 222.768 54.0673C223.2 55.056 223.999 57.4912 223.999 61.9696C223.999 66.4481 223.2 68.8833 222.768 69.872C222.61 70.2349 222.329 70.5175 221.963 70.6683C221.272 70.9532 219.838 71.4047 217.249 71.6859V75.6209Z" fill="#000028"/>
<path d="M539.249 73.4312C540.938 73.1492 542.04 72.7996 542.725 72.5175C543.591 72.161 544.244 71.4905 544.601 70.6722C545.156 69.4023 545.999 66.6901 545.999 61.9696C545.999 57.2492 545.156 54.537 544.601 53.2671C544.244 52.4488 543.591 51.7783 542.725 51.4218C541.345 50.8532 538.245 50 532 50C525.755 50 522.654 50.8532 521.274 51.4218C520.409 51.7783 519.755 52.4488 519.398 53.2671L521.231 54.0673L519.398 53.2671C518.843 54.537 518 57.2492 518 61.9696C518 66.6901 518.843 69.4023 519.398 70.6722C519.755 71.4905 520.409 72.161 521.274 72.5175C522.647 73.0833 525.724 73.9309 531.908 73.9392L535.176 77.2814C536.665 78.8033 539.249 77.7496 539.249 75.6209V73.4312Z" fill="white" stroke="white" stroke-width="4"/>
<path fill-rule="evenodd" clip-rule="evenodd" d="M533.369 70.4277L535.749 72.8616V70.34L537.087 70.1947C539.56 69.9261 540.851 69.5037 541.388 69.2831C541.388 69.2827 541.388 69.2822 541.389 69.2818C541.39 69.2794 541.392 69.2762 541.394 69.2718C541.733 68.4941 542.499 66.2665 542.499 61.9696C542.499 57.6727 541.733 55.4452 541.394 54.6675C541.391 54.6622 541.389 54.6585 541.388 54.6562C540.557 54.3146 537.943 53.4999 532 53.4999C526.056 53.4999 523.443 54.3146 522.611 54.6562C522.61 54.6585 522.608 54.6622 522.606 54.6675C522.266 55.4452 521.5 57.6727 521.5 61.9696C521.5 66.2665 522.266 68.4941 522.606 69.2718C522.608 69.2771 522.61 69.2808 522.611 69.2831C523.443 69.6247 526.056 70.4393 532 70.4393C532.248 70.4393 532.491 70.4379 532.728 70.4352L533.369 70.4277ZM537.249 75.6209C537.249 75.957 536.841 76.1234 536.606 75.8831L532.745 71.935C532.502 71.9378 532.254 71.9393 532 71.9393C525.921 71.9393 523.1 71.1066 522.036 70.6683C521.67 70.5175 521.389 70.2349 521.231 69.872C520.799 68.8833 520 66.4481 520 61.9696C520 57.4912 520.799 55.056 521.231 54.0673C521.389 53.7044 521.67 53.4218 522.036 53.271C523.1 52.8327 525.921 52 532 52C538.078 52 540.899 52.8327 541.963 53.271C542.329 53.4218 542.61 53.7044 542.768 54.0673C543.2 55.056 543.999 57.4912 543.999 61.9696C543.999 66.4481 543.2 68.8833 542.768 69.872C542.61 70.2349 542.329 70.5175 541.963 70.6683C541.272 70.9532 539.838 71.4047 537.249 71.6859V75.6209Z" fill="#000028"/>
<path d="M698.249 177.431C699.938 177.149 701.04 176.8 701.725 176.518C702.591 176.161 703.244 175.491 703.601 174.672C704.156 173.402 704.999 170.69 704.999 165.97C704.999 161.249 704.156 158.537 703.601 157.267C703.244 156.449 702.591 155.778 701.725 155.422C700.345 154.853 697.245 154 691 154C684.755 154 681.654 154.853 680.274 155.422C679.409 155.778 678.755 156.449 678.398 157.267L680.231 158.067L678.398 157.267C677.843 158.537 677 161.249 677 165.97C677 170.69 677.843 173.402 678.398 174.672C678.755 175.491 679.409 176.161 680.274 176.518C681.647 177.083 684.724 177.931 690.908 177.939L694.176 181.281C695.665 182.803 698.249 181.75 698.249 179.621V177.431Z" fill="white" stroke="white" stroke-width="4"/>
<path fill-rule="evenodd" clip-rule="evenodd" d="M692.369 174.428L694.749 176.862V174.34L696.087 174.195C698.56 173.926 699.851 173.504 700.388 173.283C700.388 173.283 700.388 173.282 700.389 173.282C700.39 173.279 700.392 173.276 700.394 173.272C700.733 172.494 701.499 170.267 701.499 165.97C701.499 161.673 700.733 159.445 700.394 158.667C700.391 158.662 700.389 158.658 700.388 158.656C699.557 158.315 696.943 157.5 691 157.5C685.056 157.5 682.443 158.315 681.611 158.656C681.61 158.658 681.608 158.662 681.606 158.667C681.266 159.445 680.5 161.673 680.5 165.97C680.5 170.267 681.266 172.494 681.606 173.272C681.608 173.277 681.61 173.281 681.611 173.283C682.443 173.625 685.056 174.439 691 174.439C691.248 174.439 691.491 174.438 691.728 174.435L692.369 174.428ZM696.249 179.621C696.249 179.957 695.841 180.123 695.606 179.883L691.745 175.935C691.502 175.938 691.254 175.939 691 175.939C684.921 175.939 682.1 175.107 681.036 174.668C680.67 174.517 680.389 174.235 680.231 173.872C679.799 172.883 679 170.448 679 165.97C679 161.491 679.799 159.056 680.231 158.067C680.389 157.704 680.67 157.422 681.036 157.271C682.1 156.833 684.921 156 691 156C697.078 156 699.899 156.833 700.963 157.271C701.329 157.422 701.61 157.704 701.768 158.067C702.2 159.056 702.999 161.491 702.999 165.97C702.999 170.448 702.2 172.883 701.768 173.872C701.61 174.235 701.329 174.517 700.963 174.668C700.272 174.953 698.838 175.405 696.249 175.686V179.621Z" fill="#000028"/>
<path d="M660 272C660 254.327 674.327 240 692 240C709.673 240 724 254.327 724 272C724 289.673 709.673 304 692 304C674.327 304 660 289.673 660 272Z" fill="white"/>
<path d="M676 259.438C676 258.577 676.553 257.819 677.388 257.609C679.704 257.027 684.821 255.997 692 255.997C699.179 255.997 704.296 257.027 706.612 257.609C707.447 257.819 708 258.577 708 259.438V284.643C708 285.46 707.501 286.187 706.713 286.404C704.593 286.989 699.808 287.997 692 287.997C684.192 287.997 679.407 286.989 677.287 286.404C676.499 286.187 676 285.46 676 284.643V259.438Z" fill="white"/>
<path fill-rule="evenodd" clip-rule="evenodd" d="M678 259.517V284.525C680.038 285.069 684.594 285.997 692 285.997C699.406 285.997 703.962 285.069 706 284.525V259.517C703.755 258.963 698.858 257.997 692 257.997C685.142 257.997 680.245 258.963 678 259.517ZM677.388 257.609C676.553 257.819 676 258.577 676 259.438V284.643C676 285.46 676.499 286.187 677.287 286.404C679.407 286.989 684.192 287.997 692 287.997C699.808 287.997 704.593 286.989 706.713 286.404C707.501 286.187 708 285.46 708 284.643V259.438C708 258.577 707.447 257.819 706.612 257.609C704.296 257.027 699.179 255.997 692 255.997C684.821 255.997 679.704 257.027 677.388 257.609Z" fill="#000028"/>
<path fill-rule="evenodd" clip-rule="evenodd" d="M692 262.997C692.397 262.997 692.757 263.232 692.916 263.596L699.916 279.596C700.138 280.102 699.907 280.691 699.401 280.913C698.895 281.134 698.305 280.903 698.084 280.397L692 266.491L685.916 280.397C685.695 280.903 685.105 281.134 684.599 280.913C684.093 280.691 683.862 280.102 684.084 279.596L691.084 263.596C691.243 263.232 691.603 262.997 692 262.997Z" fill="#000028"/>
<path fill-rule="evenodd" clip-rule="evenodd" d="M683 274.997C683 274.444 683.448 273.997 684 273.997H700C700.552 273.997 701 274.444 701 274.997C701 275.549 700.552 275.997 700 275.997H684C683.448 275.997 683 275.549 683 274.997Z" fill="#000028"/>
<path d="M684 262.497C684 263.325 683.328 263.997 682.5 263.997C681.672 263.997 681 263.325 681 262.497C681 261.668 681.672 260.997 682.5 260.997C683.328 260.997 684 261.668 684 262.497Z" fill="#000028"/>
<path d="M692 302C675.431 302 662 288.569 662 272H658C658 290.778 673.222 306 692 306V302ZM722 272C722 288.569 708.569 302 692 302V306C710.778 306 726 290.778 726 272H722ZM692 242C708.569 242 722 255.431 722 272H726C726 253.222 710.778 238 692 238V242ZM692 238C673.222 238 658 253.222 658 272H662C662 255.431 675.431 242 692 242V238Z" fill="#EAEBEC"/>
<rect width="76" height="16" transform="translate(174 24)" fill="white"/>
<path d="M187.467 36V27.5449H186.242L183.348 34.5996H183.254L180.359 27.5449H179.135V36H180.119V29.543H180.189L182.855 36H183.746L186.412 29.543H186.482V36H187.467ZM192.014 30.4629C193.016 30.4629 193.684 31.2012 193.707 32.3203H190.227C190.303 31.2012 191.006 30.4629 192.014 30.4629ZM193.678 34.3652C193.414 34.9219 192.863 35.2207 192.049 35.2207C190.977 35.2207 190.279 34.4297 190.227 33.1816V33.1348H194.768V32.748C194.768 30.7852 193.73 29.5723 192.025 29.5723C190.291 29.5723 189.178 30.8613 189.178 32.8477C189.178 34.8457 190.273 36.1113 192.025 36.1113C193.408 36.1113 194.393 35.4434 194.686 34.3652H193.678ZM196.203 31.4121C196.203 32.3262 196.742 32.8359 197.926 33.123L199.01 33.3867C199.684 33.5508 200.012 33.8438 200.012 34.2773C200.012 34.8574 199.402 35.2617 198.553 35.2617C197.744 35.2617 197.24 34.9219 197.07 34.3887H196.033C196.145 35.4375 197.111 36.1113 198.518 36.1113C199.953 36.1113 201.049 35.332 201.049 34.2012C201.049 33.293 200.475 32.7773 199.285 32.4902L198.312 32.2559C197.568 32.0742 197.217 31.8047 197.217 31.3711C197.217 30.8086 197.803 30.4277 198.553 30.4277C199.314 30.4277 199.807 30.7617 199.941 31.2656H200.938C200.803 30.2285 199.883 29.5723 198.559 29.5723C197.217 29.5723 196.203 30.3633 196.203 31.4121ZM202.367 31.4121C202.367 32.3262 202.906 32.8359 204.09 33.123L205.174 33.3867C205.848 33.5508 206.176 33.8438 206.176 34.2773C206.176 34.8574 205.566 35.2617 204.717 35.2617C203.908 35.2617 203.404 34.9219 203.234 34.3887H202.197C202.309 35.4375 203.275 36.1113 204.682 36.1113C206.117 36.1113 207.213 35.332 207.213 34.2012C207.213 33.293 206.639 32.7773 205.449 32.4902L204.477 32.2559C203.732 32.0742 203.381 31.8047 203.381 31.3711C203.381 30.8086 203.967 30.4277 204.717 30.4277C205.479 30.4277 205.971 30.7617 206.105 31.2656H207.102C206.967 30.2285 206.047 29.5723 204.723 29.5723C203.381 29.5723 202.367 30.3633 202.367 31.4121ZM210.74 35.2266C210.008 35.2266 209.463 34.8516 209.463 34.207C209.463 33.5742 209.885 33.2402 210.846 33.1758L212.545 33.0645V33.6445C212.545 34.5469 211.777 35.2266 210.74 35.2266ZM210.553 36.1113C211.396 36.1113 212.088 35.7422 212.498 35.0684H212.592V36H213.553V31.6758C213.553 30.3633 212.691 29.5723 211.15 29.5723C209.803 29.5723 208.807 30.2402 208.672 31.2539H209.691C209.832 30.7559 210.359 30.4688 211.115 30.4688C212.059 30.4688 212.545 30.8965 212.545 31.6758V32.25L210.723 32.3613C209.252 32.4492 208.42 33.0996 208.42 34.2305C208.42 35.3848 209.328 36.1113 210.553 36.1113ZM217.971 35.0156C216.799 35.0156 216.143 34.125 216.143 32.748C216.143 31.3711 216.799 30.4805 217.971 30.4805C219.137 30.4805 219.846 31.3711 219.846 32.748C219.846 34.125 219.143 35.0156 217.971 35.0156ZM218.018 38.4258C219.74 38.4258 220.83 37.5234 220.83 36.1113V29.6836H219.869V30.6855H219.775C219.412 30.0059 218.633 29.5723 217.748 29.5723C216.125 29.5723 215.1 30.8555 215.1 32.748C215.1 34.6406 216.113 35.9062 217.748 35.9062C218.615 35.9062 219.33 35.5137 219.729 34.8164H219.822V36.0586C219.822 36.9902 219.148 37.5469 218.018 37.5469C217.109 37.5469 216.547 37.2129 216.436 36.6973H215.369C215.521 37.7402 216.494 38.4258 218.018 38.4258ZM225.248 30.4629C226.25 30.4629 226.918 31.2012 226.941 32.3203H223.461C223.537 31.2012 224.24 30.4629 225.248 30.4629ZM226.912 34.3652C226.648 34.9219 226.098 35.2207 225.283 35.2207C224.211 35.2207 223.514 34.4297 223.461 33.1816V33.1348H228.002V32.748C228.002 30.7852 226.965 29.5723 225.26 29.5723C223.525 29.5723 222.412 30.8613 222.412 32.8477C222.412 34.8457 223.508 36.1113 225.26 36.1113C226.643 36.1113 227.627 35.4434 227.92 34.3652H226.912ZM238.045 36V27.5449H236.82L233.926 34.5996H233.832L230.938 27.5449H229.713V36H230.697V29.543H230.768L233.434 36H234.324L236.99 29.543H237.061V36H238.045ZM245.334 35.0508H241.256V27.5449H240.201V36H245.334V35.0508Z" fill="#3E4249"/>
<rect width="97" height="16" transform="translate(164 88)" fill="white"/>
<path d="M169.217 91.5449V100H170.271V96.9824H172.398C173.986 96.9824 175.117 95.8633 175.117 94.2812C175.117 92.6699 174.01 91.5449 172.41 91.5449H169.217ZM170.271 92.4824H172.135C173.359 92.4824 174.033 93.1211 174.033 94.2812C174.033 95.4004 173.336 96.0449 172.135 96.0449H170.271V92.4824ZM176.717 100H177.725V96.0859C177.725 95.1953 178.422 94.5508 179.383 94.5508C179.582 94.5508 179.945 94.5859 180.027 94.6094V93.6016C179.898 93.584 179.688 93.5723 179.523 93.5723C178.686 93.5723 177.959 94.0059 177.771 94.6211H177.678V93.6836H176.717V100ZM183.631 94.4629C184.633 94.4629 185.301 95.2012 185.324 96.3203H181.844C181.92 95.2012 182.623 94.4629 183.631 94.4629ZM185.295 98.3652C185.031 98.9219 184.48 99.2207 183.666 99.2207C182.594 99.2207 181.896 98.4297 181.844 97.1816V97.1348H186.385V96.748C186.385 94.7852 185.348 93.5723 183.643 93.5723C181.908 93.5723 180.795 94.8613 180.795 96.8477C180.795 98.8457 181.891 100.111 183.643 100.111C185.025 100.111 186.01 99.4434 186.303 98.3652H185.295ZM187.82 95.4121C187.82 96.3262 188.359 96.8359 189.543 97.123L190.627 97.3867C191.301 97.5508 191.629 97.8438 191.629 98.2773C191.629 98.8574 191.02 99.2617 190.17 99.2617C189.361 99.2617 188.857 98.9219 188.688 98.3887H187.65C187.762 99.4375 188.729 100.111 190.135 100.111C191.57 100.111 192.666 99.332 192.666 98.2012C192.666 97.293 192.092 96.7773 190.902 96.4902L189.93 96.2559C189.186 96.0742 188.834 95.8047 188.834 95.3711C188.834 94.8086 189.42 94.4277 190.17 94.4277C190.932 94.4277 191.424 94.7617 191.559 95.2656H192.555C192.42 94.2285 191.5 93.5723 190.176 93.5723C188.834 93.5723 187.82 94.3633 187.82 95.4121ZM196.768 94.4629C197.77 94.4629 198.438 95.2012 198.461 96.3203H194.98C195.057 95.2012 195.76 94.4629 196.768 94.4629ZM198.432 98.3652C198.168 98.9219 197.617 99.2207 196.803 99.2207C195.73 99.2207 195.033 98.4297 194.98 97.1816V97.1348H199.521V96.748C199.521 94.7852 198.484 93.5723 196.779 93.5723C195.045 93.5723 193.932 94.8613 193.932 96.8477C193.932 98.8457 195.027 100.111 196.779 100.111C198.162 100.111 199.146 99.4434 199.439 98.3652H198.432ZM201.104 100H202.111V96.2617C202.111 95.1543 202.762 94.4805 203.77 94.4805C204.777 94.4805 205.258 95.0195 205.258 96.1562V100H206.266V95.9102C206.266 94.4102 205.475 93.5723 204.057 93.5723C203.09 93.5723 202.475 93.9824 202.158 94.6797H202.064V93.6836H201.104V100ZM208.533 92.0488V93.6836H207.514V94.5273H208.533V98.3594C208.533 99.5664 209.055 100.047 210.355 100.047C210.555 100.047 210.748 100.023 210.947 99.9883V99.1387C210.76 99.1562 210.66 99.1621 210.479 99.1621C209.822 99.1621 209.541 98.8457 209.541 98.1016V94.5273H210.947V93.6836H209.541V92.0488H208.533ZM214.416 99.2266C213.684 99.2266 213.139 98.8516 213.139 98.207C213.139 97.5742 213.561 97.2402 214.521 97.1758L216.221 97.0645V97.6445C216.221 98.5469 215.453 99.2266 214.416 99.2266ZM214.229 100.111C215.072 100.111 215.764 99.7422 216.174 99.0684H216.268V100H217.229V95.6758C217.229 94.3633 216.367 93.5723 214.826 93.5723C213.479 93.5723 212.482 94.2402 212.348 95.2539H213.367C213.508 94.7559 214.035 94.4688 214.791 94.4688C215.734 94.4688 216.221 94.8965 216.221 95.6758V96.25L214.398 96.3613C212.928 96.4492 212.096 97.0996 212.096 98.2305C212.096 99.3848 213.004 100.111 214.229 100.111ZM219.514 92.0488V93.6836H218.494V94.5273H219.514V98.3594C219.514 99.5664 220.035 100.047 221.336 100.047C221.535 100.047 221.729 100.023 221.928 99.9883V99.1387C221.74 99.1562 221.641 99.1621 221.459 99.1621C220.803 99.1621 220.521 98.8457 220.521 98.1016V94.5273H221.928V93.6836H220.521V92.0488H219.514ZM223.475 100H224.482V93.6836H223.475V100ZM223.979 92.4648C224.365 92.4648 224.682 92.1484 224.682 91.7617C224.682 91.375 224.365 91.0586 223.979 91.0586C223.592 91.0586 223.275 91.375 223.275 91.7617C223.275 92.1484 223.592 92.4648 223.979 92.4648ZM229 100.111C230.799 100.111 231.912 98.8691 231.912 96.8418C231.912 94.8086 230.799 93.5723 229 93.5723C227.201 93.5723 226.088 94.8086 226.088 96.8418C226.088 98.8691 227.201 100.111 229 100.111ZM229 99.2031C227.805 99.2031 227.131 98.3359 227.131 96.8418C227.131 95.3418 227.805 94.4805 229 94.4805C230.195 94.4805 230.869 95.3418 230.869 96.8418C230.869 98.3359 230.195 99.2031 229 99.2031ZM233.494 100H234.502V96.2617C234.502 95.1543 235.152 94.4805 236.16 94.4805C237.168 94.4805 237.648 95.0195 237.648 96.1562V100H238.656V95.9102C238.656 94.4102 237.865 93.5723 236.447 93.5723C235.48 93.5723 234.865 93.9824 234.549 94.6797H234.455V93.6836H233.494V100ZM248.963 100V91.5449H247.738L244.844 98.5996H244.75L241.855 91.5449H240.631V100H241.615V93.543H241.686L244.352 100H245.242L247.908 93.543H247.979V100H248.963ZM256.252 99.0508H252.174V91.5449H251.119V100H256.252V99.0508Z" fill="#3E4249"/>
<rect width="97" height="16" transform="translate(484 88)" fill="white"/>
<path d="M489.217 91.5449V100H490.271V96.9824H492.398C493.986 96.9824 495.117 95.8633 495.117 94.2812C495.117 92.6699 494.01 91.5449 492.41 91.5449H489.217ZM490.271 92.4824H492.135C493.359 92.4824 494.033 93.1211 494.033 94.2812C494.033 95.4004 493.336 96.0449 492.135 96.0449H490.271V92.4824ZM496.717 100H497.725V96.0859C497.725 95.1953 498.422 94.5508 499.383 94.5508C499.582 94.5508 499.945 94.5859 500.027 94.6094V93.6016C499.898 93.584 499.688 93.5723 499.523 93.5723C498.686 93.5723 497.959 94.0059 497.771 94.6211H497.678V93.6836H496.717V100ZM503.631 94.4629C504.633 94.4629 505.301 95.2012 505.324 96.3203H501.844C501.92 95.2012 502.623 94.4629 503.631 94.4629ZM505.295 98.3652C505.031 98.9219 504.48 99.2207 503.666 99.2207C502.594 99.2207 501.896 98.4297 501.844 97.1816V97.1348H506.385V96.748C506.385 94.7852 505.348 93.5723 503.643 93.5723C501.908 93.5723 500.795 94.8613 500.795 96.8477C500.795 98.8457 501.891 100.111 503.643 100.111C505.025 100.111 506.01 99.4434 506.303 98.3652H505.295ZM507.82 95.4121C507.82 96.3262 508.359 96.8359 509.543 97.123L510.627 97.3867C511.301 97.5508 511.629 97.8438 511.629 98.2773C511.629 98.8574 511.02 99.2617 510.17 99.2617C509.361 99.2617 508.857 98.9219 508.688 98.3887H507.65C507.762 99.4375 508.729 100.111 510.135 100.111C511.57 100.111 512.666 99.332 512.666 98.2012C512.666 97.293 512.092 96.7773 510.902 96.4902L509.93 96.2559C509.186 96.0742 508.834 95.8047 508.834 95.3711C508.834 94.8086 509.42 94.4277 510.17 94.4277C510.932 94.4277 511.424 94.7617 511.559 95.2656H512.555C512.42 94.2285 511.5 93.5723 510.176 93.5723C508.834 93.5723 507.82 94.3633 507.82 95.4121ZM516.768 94.4629C517.77 94.4629 518.438 95.2012 518.461 96.3203H514.98C515.057 95.2012 515.76 94.4629 516.768 94.4629ZM518.432 98.3652C518.168 98.9219 517.617 99.2207 516.803 99.2207C515.73 99.2207 515.033 98.4297 514.98 97.1816V97.1348H519.521V96.748C519.521 94.7852 518.484 93.5723 516.779 93.5723C515.045 93.5723 513.932 94.8613 513.932 96.8477C513.932 98.8457 515.027 100.111 516.779 100.111C518.162 100.111 519.146 99.4434 519.439 98.3652H518.432ZM521.104 100H522.111V96.2617C522.111 95.1543 522.762 94.4805 523.77 94.4805C524.777 94.4805 525.258 95.0195 525.258 96.1562V100H526.266V95.9102C526.266 94.4102 525.475 93.5723 524.057 93.5723C523.09 93.5723 522.475 93.9824 522.158 94.6797H522.064V93.6836H521.104V100ZM528.533 92.0488V93.6836H527.514V94.5273H528.533V98.3594C528.533 99.5664 529.055 100.047 530.355 100.047C530.555 100.047 530.748 100.023 530.947 99.9883V99.1387C530.76 99.1562 530.66 99.1621 530.479 99.1621C529.822 99.1621 529.541 98.8457 529.541 98.1016V94.5273H530.947V93.6836H529.541V92.0488H528.533ZM534.416 99.2266C533.684 99.2266 533.139 98.8516 533.139 98.207C533.139 97.5742 533.561 97.2402 534.521 97.1758L536.221 97.0645V97.6445C536.221 98.5469 535.453 99.2266 534.416 99.2266ZM534.229 100.111C535.072 100.111 535.764 99.7422 536.174 99.0684H536.268V100H537.229V95.6758C537.229 94.3633 536.367 93.5723 534.826 93.5723C533.479 93.5723 532.482 94.2402 532.348 95.2539H533.367C533.508 94.7559 534.035 94.4688 534.791 94.4688C535.734 94.4688 536.221 94.8965 536.221 95.6758V96.25L534.398 96.3613C532.928 96.4492 532.096 97.0996 532.096 98.2305C532.096 99.3848 533.004 100.111 534.229 100.111ZM539.514 92.0488V93.6836H538.494V94.5273H539.514V98.3594C539.514 99.5664 540.035 100.047 541.336 100.047C541.535 100.047 541.729 100.023 541.928 99.9883V99.1387C541.74 99.1562 541.641 99.1621 541.459 99.1621C540.803 99.1621 540.521 98.8457 540.521 98.1016V94.5273H541.928V93.6836H540.521V92.0488H539.514ZM543.475 100H544.482V93.6836H543.475V100ZM543.979 92.4648C544.365 92.4648 544.682 92.1484 544.682 91.7617C544.682 91.375 544.365 91.0586 543.979 91.0586C543.592 91.0586 543.275 91.375 543.275 91.7617C543.275 92.1484 543.592 92.4648 543.979 92.4648ZM549 100.111C550.799 100.111 551.912 98.8691 551.912 96.8418C551.912 94.8086 550.799 93.5723 549 93.5723C547.201 93.5723 546.088 94.8086 546.088 96.8418C546.088 98.8691 547.201 100.111 549 100.111ZM549 99.2031C547.805 99.2031 547.131 98.3359 547.131 96.8418C547.131 95.3418 547.805 94.4805 549 94.4805C550.195 94.4805 550.869 95.3418 550.869 96.8418C550.869 98.3359 550.195 99.2031 549 99.2031ZM553.494 100H554.502V96.2617C554.502 95.1543 555.152 94.4805 556.16 94.4805C557.168 94.4805 557.648 95.0195 557.648 96.1562V100H558.656V95.9102C558.656 94.4102 557.865 93.5723 556.447 93.5723C555.48 93.5723 554.865 93.9824 554.549 94.6797H554.455V93.6836H553.494V100ZM568.963 100V91.5449H567.738L564.844 98.5996H564.75L561.855 91.5449H560.631V100H561.615V93.543H561.686L564.352 100H565.242L567.908 93.543H567.979V100H568.963ZM576.252 99.0508H572.174V91.5449H571.119V100H576.252V99.0508Z" fill="#3E4249"/>
<rect width="97" height="16" transform="translate(643 192)" fill="white"/>
<path d="M648.217 195.545V204H649.271V200.982H651.398C652.986 200.982 654.117 199.863 654.117 198.281C654.117 196.67 653.01 195.545 651.41 195.545H648.217ZM649.271 196.482H651.135C652.359 196.482 653.033 197.121 653.033 198.281C653.033 199.4 652.336 200.045 651.135 200.045H649.271V196.482ZM655.717 204H656.725V200.086C656.725 199.195 657.422 198.551 658.383 198.551C658.582 198.551 658.945 198.586 659.027 198.609V197.602C658.898 197.584 658.688 197.572 658.523 197.572C657.686 197.572 656.959 198.006 656.771 198.621H656.678V197.684H655.717V204ZM662.631 198.463C663.633 198.463 664.301 199.201 664.324 200.32H660.844C660.92 199.201 661.623 198.463 662.631 198.463ZM664.295 202.365C664.031 202.922 663.48 203.221 662.666 203.221C661.594 203.221 660.896 202.43 660.844 201.182V201.135H665.385V200.748C665.385 198.785 664.348 197.572 662.643 197.572C660.908 197.572 659.795 198.861 659.795 200.848C659.795 202.846 660.891 204.111 662.643 204.111C664.025 204.111 665.01 203.443 665.303 202.365H664.295ZM666.82 199.412C666.82 200.326 667.359 200.836 668.543 201.123L669.627 201.387C670.301 201.551 670.629 201.844 670.629 202.277C670.629 202.857 670.02 203.262 669.17 203.262C668.361 203.262 667.857 202.922 667.688 202.389H666.65C666.762 203.438 667.729 204.111 669.135 204.111C670.57 204.111 671.666 203.332 671.666 202.201C671.666 201.293 671.092 200.777 669.902 200.49L668.93 200.256C668.186 200.074 667.834 199.805 667.834 199.371C667.834 198.809 668.42 198.428 669.17 198.428C669.932 198.428 670.424 198.762 670.559 199.266H671.555C671.42 198.229 670.5 197.572 669.176 197.572C667.834 197.572 666.82 198.363 666.82 199.412ZM675.768 198.463C676.77 198.463 677.438 199.201 677.461 200.32H673.98C674.057 199.201 674.76 198.463 675.768 198.463ZM677.432 202.365C677.168 202.922 676.617 203.221 675.803 203.221C674.73 203.221 674.033 202.43 673.98 201.182V201.135H678.521V200.748C678.521 198.785 677.484 197.572 675.779 197.572C674.045 197.572 672.932 198.861 672.932 200.848C672.932 202.846 674.027 204.111 675.779 204.111C677.162 204.111 678.146 203.443 678.439 202.365H677.432ZM680.104 204H681.111V200.262C681.111 199.154 681.762 198.48 682.77 198.48C683.777 198.48 684.258 199.02 684.258 200.156V204H685.266V199.91C685.266 198.41 684.475 197.572 683.057 197.572C682.09 197.572 681.475 197.982 681.158 198.68H681.064V197.684H680.104V204ZM687.533 196.049V197.684H686.514V198.527H687.533V202.359C687.533 203.566 688.055 204.047 689.355 204.047C689.555 204.047 689.748 204.023 689.947 203.988V203.139C689.76 203.156 689.66 203.162 689.479 203.162C688.822 203.162 688.541 202.846 688.541 202.102V198.527H689.947V197.684H688.541V196.049H687.533ZM693.416 203.227C692.684 203.227 692.139 202.852 692.139 202.207C692.139 201.574 692.561 201.24 693.521 201.176L695.221 201.064V201.645C695.221 202.547 694.453 203.227 693.416 203.227ZM693.229 204.111C694.072 204.111 694.764 203.742 695.174 203.068H695.268V204H696.229V199.676C696.229 198.363 695.367 197.572 693.826 197.572C692.479 197.572 691.482 198.24 691.348 199.254H692.367C692.508 198.756 693.035 198.469 693.791 198.469C694.734 198.469 695.221 198.896 695.221 199.676V200.25L693.398 200.361C691.928 200.449 691.096 201.1 691.096 202.23C691.096 203.385 692.004 204.111 693.229 204.111ZM698.514 196.049V197.684H697.494V198.527H698.514V202.359C698.514 203.566 699.035 204.047 700.336 204.047C700.535 204.047 700.729 204.023 700.928 203.988V203.139C700.74 203.156 700.641 203.162 700.459 203.162C699.803 203.162 699.521 202.846 699.521 202.102V198.527H700.928V197.684H699.521V196.049H698.514ZM702.475 204H703.482V197.684H702.475V204ZM702.979 196.465C703.365 196.465 703.682 196.148 703.682 195.762C703.682 195.375 703.365 195.059 702.979 195.059C702.592 195.059 702.275 195.375 702.275 195.762C702.275 196.148 702.592 196.465 702.979 196.465ZM708 204.111C709.799 204.111 710.912 202.869 710.912 200.842C710.912 198.809 709.799 197.572 708 197.572C706.201 197.572 705.088 198.809 705.088 200.842C705.088 202.869 706.201 204.111 708 204.111ZM708 203.203C706.805 203.203 706.131 202.336 706.131 200.842C706.131 199.342 706.805 198.48 708 198.48C709.195 198.48 709.869 199.342 709.869 200.842C709.869 202.336 709.195 203.203 708 203.203ZM712.494 204H713.502V200.262C713.502 199.154 714.152 198.48 715.16 198.48C716.168 198.48 716.648 199.02 716.648 200.156V204H717.656V199.91C717.656 198.41 716.865 197.572 715.447 197.572C714.48 197.572 713.865 197.982 713.549 198.68H713.455V197.684H712.494V204ZM727.963 204V195.545H726.738L723.844 202.6H723.75L720.855 195.545H719.631V204H720.615V197.543H720.686L723.352 204H724.242L726.908 197.543H726.979V204H727.963ZM735.252 203.051H731.174V195.545H730.119V204H735.252V203.051Z" fill="#3E4249"/>
<rect width="96" height="16" transform="translate(4 104)" fill="white"/>
<path d="M8.83398 113.65C8.89844 115.227 10.2051 116.217 12.2207 116.217C14.3418 116.217 15.6484 115.174 15.6484 113.469C15.6484 112.156 14.916 111.424 13.2168 111.066L12.1973 110.85C11.207 110.639 10.8027 110.34 10.8027 109.818C10.8027 109.174 11.3887 108.764 12.2734 108.764C13.1289 108.764 13.75 109.209 13.832 109.877H15.4961C15.4434 108.371 14.125 107.328 12.2617 107.328C10.3105 107.328 9.02734 108.377 9.02734 109.971C9.02734 111.26 9.7832 112.062 11.3242 112.385L12.4258 112.619C13.4629 112.842 13.8848 113.152 13.8848 113.691C13.8848 114.33 13.2344 114.775 12.3145 114.775C11.3184 114.775 10.627 114.336 10.5449 113.65H8.83398ZM17.957 118.35C19.5684 118.35 20.3594 117.764 20.9102 116.1L23.1367 109.537H21.332L19.9727 114.436H19.8672L18.5078 109.537H16.627L18.8945 116.041L18.8359 116.275C18.6953 116.768 18.332 116.973 17.6934 116.973C17.623 116.973 17.3652 116.973 17.3066 116.961V118.332C17.377 118.344 17.8926 118.35 17.957 118.35ZM24.3262 116H26.0312V112.109C26.0312 111.389 26.5059 110.867 27.1738 110.867C27.8418 110.867 28.2402 111.26 28.2402 111.945V116H29.8809V112.045C29.8809 111.359 30.3262 110.867 31.0176 110.867C31.7383 110.867 32.0957 111.248 32.0957 112.016V116H33.8008V111.564C33.8008 110.234 32.998 109.396 31.709 109.396C30.8066 109.396 30.0625 109.871 29.7637 110.592H29.6582C29.4004 109.842 28.7793 109.396 27.8711 109.396C27.0215 109.396 26.3477 109.854 26.084 110.592H25.9785V109.537H24.3262V116ZM39.1914 109.432C38.3008 109.432 37.5684 109.871 37.2168 110.598H37.1113V109.537H35.459V118.145H37.1641V115.01H37.2695C37.5859 115.695 38.2949 116.1 39.2207 116.1C40.8379 116.1 41.8281 114.852 41.8281 112.766C41.8281 110.674 40.8262 109.432 39.1914 109.432ZM38.6113 114.676C37.709 114.676 37.1465 113.955 37.1465 112.771C37.1465 111.588 37.709 110.861 38.6172 110.861C39.5254 110.861 40.0762 111.582 40.0762 112.766C40.0762 113.961 39.5312 114.676 38.6113 114.676ZM43.2754 116H44.9805V112.291C44.9805 111.453 45.4727 110.885 46.3281 110.885C47.1016 110.885 47.5176 111.348 47.5176 112.244V116H49.2227V111.84C49.2227 110.287 48.3965 109.414 47.0078 109.414C46.0586 109.414 45.3555 109.859 45.0566 110.598H44.9512V107.07H43.2754V116ZM53.7461 116.141C55.7324 116.141 56.9277 114.881 56.9277 112.766C56.9277 110.668 55.7148 109.396 53.7461 109.396C51.7773 109.396 50.5645 110.674 50.5645 112.766C50.5645 114.881 51.7598 116.141 53.7461 116.141ZM53.7461 114.746C52.832 114.746 52.3164 114.025 52.3164 112.766C52.3164 111.523 52.8379 110.791 53.7461 110.791C54.6484 110.791 55.1758 111.523 55.1758 112.766C55.1758 114.02 54.6543 114.746 53.7461 114.746ZM58.3223 116H60.0273V112.273C60.0273 111.424 60.5137 110.867 61.3047 110.867C62.1133 110.867 62.4941 111.336 62.4941 112.227V116H64.1992V111.822C64.1992 110.275 63.4258 109.396 61.9902 109.396C61.0352 109.396 60.3789 109.848 60.0801 110.574H59.9746V109.537H58.3223V116ZM66.4844 118.35C68.0957 118.35 68.8867 117.764 69.4375 116.1L71.6641 109.537H69.8594L68.5 114.436H68.3945L67.0352 109.537H65.1543L67.4219 116.041L67.3633 116.275C67.2227 116.768 66.8594 116.973 66.2207 116.973C66.1504 116.973 65.8926 116.973 65.834 116.961V118.332C65.9043 118.344 66.4199 118.35 66.4844 118.35ZM79.9141 116C81.7188 116 82.8379 115.062 82.8379 113.58C82.8379 112.49 82.0234 111.646 80.9043 111.564V111.459C81.7715 111.33 82.4336 110.551 82.4336 109.654C82.4336 108.348 81.4551 107.545 79.8145 107.545H76.1172V116H79.9141ZM77.8867 108.898H79.3633C80.207 108.898 80.6934 109.303 80.6934 109.977C80.6934 110.656 80.1719 111.049 79.2168 111.049H77.8867V108.898ZM77.8867 114.646V112.244H79.4219C80.4648 112.244 81.0332 112.654 81.0332 113.428C81.0332 114.219 80.4824 114.646 79.4629 114.646H77.8867ZM87.1328 116.141C89.1191 116.141 90.3145 114.881 90.3145 112.766C90.3145 110.668 89.1016 109.396 87.1328 109.396C85.1641 109.396 83.9512 110.674 83.9512 112.766C83.9512 114.881 85.1465 116.141 87.1328 116.141ZM87.1328 114.746C86.2188 114.746 85.7031 114.025 85.7031 112.766C85.7031 111.523 86.2246 110.791 87.1328 110.791C88.0352 110.791 88.5625 111.523 88.5625 112.766C88.5625 114.02 88.041 114.746 87.1328 114.746ZM92.1953 108.002V109.602H91.1875V110.943H92.1953V114.254C92.1953 115.514 92.8164 116.023 94.3867 116.023C94.7148 116.023 95.0312 115.988 95.2422 115.947V114.646C95.0781 114.664 94.9609 114.67 94.7383 114.67C94.1582 114.67 93.9004 114.412 93.9004 113.85V110.943H95.2422V109.602H93.9004V108.002H92.1953Z" fill="#3E4249"/>
<rect width="99" height="16" transform="translate(642 104)" fill="white"/>
<path d="M647.109 113.65C647.174 115.227 648.48 116.217 650.496 116.217C652.617 116.217 653.924 115.174 653.924 113.469C653.924 112.156 653.191 111.424 651.492 111.066L650.473 110.85C649.482 110.639 649.078 110.34 649.078 109.818C649.078 109.174 649.664 108.764 650.549 108.764C651.404 108.764 652.025 109.209 652.107 109.877H653.771C653.719 108.371 652.4 107.328 650.537 107.328C648.586 107.328 647.303 108.377 647.303 109.971C647.303 111.26 648.059 112.062 649.6 112.385L650.701 112.619C651.738 112.842 652.16 113.152 652.16 113.691C652.16 114.33 651.51 114.775 650.59 114.775C649.594 114.775 648.902 114.336 648.82 113.65H647.109ZM656.232 118.35C657.844 118.35 658.635 117.764 659.186 116.1L661.412 109.537H659.607L658.248 114.436H658.143L656.783 109.537H654.902L657.17 116.041L657.111 116.275C656.971 116.768 656.607 116.973 655.969 116.973C655.898 116.973 655.641 116.973 655.582 116.961V118.332C655.652 118.344 656.168 118.35 656.232 118.35ZM662.602 116H664.307V112.109C664.307 111.389 664.781 110.867 665.449 110.867C666.117 110.867 666.516 111.26 666.516 111.945V116H668.156V112.045C668.156 111.359 668.602 110.867 669.293 110.867C670.014 110.867 670.371 111.248 670.371 112.016V116H672.076V111.564C672.076 110.234 671.273 109.396 669.984 109.396C669.082 109.396 668.338 109.871 668.039 110.592H667.934C667.676 109.842 667.055 109.396 666.146 109.396C665.297 109.396 664.623 109.854 664.359 110.592H664.254V109.537H662.602V116ZM677.467 109.432C676.576 109.432 675.844 109.871 675.492 110.598H675.387V109.537H673.734V118.145H675.439V115.01H675.545C675.861 115.695 676.57 116.1 677.496 116.1C679.113 116.1 680.104 114.852 680.104 112.766C680.104 110.674 679.102 109.432 677.467 109.432ZM676.887 114.676C675.984 114.676 675.422 113.955 675.422 112.771C675.422 111.588 675.984 110.861 676.893 110.861C677.801 110.861 678.352 111.582 678.352 112.766C678.352 113.961 677.807 114.676 676.887 114.676ZM681.551 116H683.256V112.291C683.256 111.453 683.748 110.885 684.604 110.885C685.377 110.885 685.793 111.348 685.793 112.244V116H687.498V111.84C687.498 110.287 686.672 109.414 685.283 109.414C684.334 109.414 683.631 109.859 683.332 110.598H683.227V107.07H681.551V116ZM692.021 116.141C694.008 116.141 695.203 114.881 695.203 112.766C695.203 110.668 693.99 109.396 692.021 109.396C690.053 109.396 688.84 110.674 688.84 112.766C688.84 114.881 690.035 116.141 692.021 116.141ZM692.021 114.746C691.107 114.746 690.592 114.025 690.592 112.766C690.592 111.523 691.113 110.791 692.021 110.791C692.924 110.791 693.451 111.523 693.451 112.766C693.451 114.02 692.93 114.746 692.021 114.746ZM696.598 116H698.303V112.273C698.303 111.424 698.789 110.867 699.58 110.867C700.389 110.867 700.77 111.336 700.77 112.227V116H702.475V111.822C702.475 110.275 701.701 109.396 700.266 109.396C699.311 109.396 698.654 109.848 698.355 110.574H698.25V109.537H696.598V116ZM704.76 118.35C706.371 118.35 707.162 117.764 707.713 116.1L709.939 109.537H708.135L706.775 114.436H706.67L705.311 109.537H703.43L705.697 116.041L705.639 116.275C705.498 116.768 705.135 116.973 704.496 116.973C704.426 116.973 704.168 116.973 704.109 116.961V118.332C704.18 118.344 704.695 118.35 704.76 118.35ZM714.393 107.545V116H716.162V113.375H717.832C719.613 113.375 720.85 112.209 720.85 110.469C720.85 108.711 719.66 107.545 717.92 107.545H714.393ZM716.162 108.998H717.451C718.471 108.998 719.051 109.514 719.051 110.475C719.051 111.424 718.459 111.939 717.445 111.939H716.162V108.998ZM724.998 116.141C726.984 116.141 728.18 114.881 728.18 112.766C728.18 110.668 726.967 109.396 724.998 109.396C723.029 109.396 721.816 110.674 721.816 112.766C721.816 114.881 723.012 116.141 724.998 116.141ZM724.998 114.746C724.084 114.746 723.568 114.025 723.568 112.766C723.568 111.523 724.09 110.791 724.998 110.791C725.9 110.791 726.428 111.523 726.428 112.766C726.428 114.02 725.906 114.746 724.998 114.746ZM731.889 116.1C732.785 116.1 733.518 115.684 733.863 114.986H733.969V116H735.621V107.07H733.916V110.568H733.816C733.482 109.854 732.762 109.432 731.889 109.432C730.266 109.432 729.258 110.703 729.258 112.76C729.258 114.822 730.26 116.1 731.889 116.1ZM732.469 110.861C733.377 110.861 733.934 111.594 733.934 112.771C733.934 113.955 733.383 114.676 732.469 114.676C731.555 114.676 731.01 113.961 731.01 112.766C731.01 111.582 731.561 110.861 732.469 110.861Z" fill="#3E4249"/>
<rect width="29" height="16" transform="translate(358 104)" fill="white"/>
<path d="M368.609 116H370.525L367.59 107.545H365.51L362.574 116H364.35L365 113.984H367.971L368.609 116ZM366.441 109.303H366.547L367.596 112.619H365.381L366.441 109.303ZM371.967 107.545V116H373.736V113.375H375.406C377.188 113.375 378.424 112.209 378.424 110.469C378.424 108.711 377.234 107.545 375.494 107.545H371.967ZM373.736 108.998H375.025C376.045 108.998 376.625 109.514 376.625 110.475C376.625 111.424 376.033 111.939 375.02 111.939H373.736V108.998ZM381.822 116V107.545H380.053V116H381.822Z" fill="#3E4249"/>
<rect width="103" height="32" transform="translate(641 312)" fill="white"/>
<path d="M650.852 315.545V324H654.18C656.711 324 658.146 322.459 658.146 319.711C658.146 317.062 656.693 315.545 654.18 315.545H650.852ZM652.621 317.057H653.898C655.434 317.057 656.342 318.029 656.342 319.74C656.342 321.527 655.463 322.488 653.898 322.488H652.621V317.057ZM662.453 318.703C663.25 318.703 663.766 319.236 663.801 320.092H661.047C661.105 319.254 661.662 318.703 662.453 318.703ZM663.836 322.16C663.654 322.588 663.191 322.828 662.518 322.828C661.627 322.828 661.064 322.23 661.041 321.27V321.182H665.477V320.66C665.477 318.609 664.352 317.396 662.447 317.396C660.525 317.396 659.342 318.697 659.342 320.801C659.342 322.898 660.502 324.141 662.471 324.141C664.053 324.141 665.172 323.373 665.424 322.16H663.836ZM666.73 319.436C666.73 320.432 667.34 321.029 668.594 321.305L669.766 321.568C670.334 321.691 670.58 321.885 670.58 322.201C670.58 322.617 670.123 322.893 669.461 322.893C668.781 322.893 668.365 322.641 668.236 322.201H666.572C666.689 323.443 667.721 324.141 669.426 324.141C671.119 324.141 672.273 323.297 672.273 322.008C672.273 321.041 671.711 320.514 670.457 320.238L669.244 319.975C668.646 319.84 668.371 319.646 668.371 319.33C668.371 318.92 668.822 318.645 669.432 318.645C670.064 318.645 670.457 318.902 670.545 319.318H672.121C672.027 318.082 671.061 317.396 669.42 317.396C667.809 317.396 666.73 318.211 666.73 319.436ZM675.543 320.062H675.438V315.07H673.732V324H675.438V321.855L675.906 321.375L677.793 324H679.814L677.184 320.309L679.645 317.537H677.705L675.543 320.062ZM681.262 316.002V317.602H680.254V318.943H681.262V322.254C681.262 323.514 681.883 324.023 683.453 324.023C683.781 324.023 684.098 323.988 684.309 323.947V322.646C684.145 322.664 684.027 322.67 683.805 322.67C683.225 322.67 682.967 322.412 682.967 321.85V318.943H684.309V317.602H682.967V316.002H681.262ZM688.551 324.141C690.537 324.141 691.732 322.881 691.732 320.766C691.732 318.668 690.52 317.396 688.551 317.396C686.582 317.396 685.369 318.674 685.369 320.766C685.369 322.881 686.564 324.141 688.551 324.141ZM688.551 322.746C687.637 322.746 687.121 322.025 687.121 320.766C687.121 319.523 687.643 318.791 688.551 318.791C689.453 318.791 689.98 319.523 689.98 320.766C689.98 322.02 689.459 322.746 688.551 322.746ZM696.859 317.432C695.969 317.432 695.236 317.871 694.885 318.598H694.779V317.537H693.127V326.145H694.832V323.01H694.938C695.254 323.695 695.963 324.1 696.889 324.1C698.506 324.1 699.496 322.852 699.496 320.766C699.496 318.674 698.494 317.432 696.859 317.432ZM696.279 322.676C695.377 322.676 694.814 321.955 694.814 320.771C694.814 319.588 695.377 318.861 696.285 318.861C697.193 318.861 697.744 319.582 697.744 320.766C697.744 321.961 697.199 322.676 696.279 322.676ZM709.58 324H711.496L708.561 315.545H706.48L703.545 324H705.32L705.971 321.984H708.941L709.58 324ZM707.412 317.303H707.518L708.566 320.619H706.352L707.412 317.303ZM716.5 317.432C715.609 317.432 714.877 317.871 714.525 318.598H714.42V317.537H712.768V326.145H714.473V323.01H714.578C714.895 323.695 715.604 324.1 716.529 324.1C718.146 324.1 719.137 322.852 719.137 320.766C719.137 318.674 718.135 317.432 716.5 317.432ZM715.92 322.676C715.018 322.676 714.455 321.955 714.455 320.771C714.455 319.588 715.018 318.861 715.926 318.861C716.834 318.861 717.385 319.582 717.385 320.766C717.385 321.961 716.84 322.676 715.92 322.676ZM724.258 317.432C723.367 317.432 722.635 317.871 722.283 318.598H722.178V317.537H720.525V326.145H722.23V323.01H722.336C722.652 323.695 723.361 324.1 724.287 324.1C725.904 324.1 726.895 322.852 726.895 320.766C726.895 318.674 725.893 317.432 724.258 317.432ZM723.678 322.676C722.775 322.676 722.213 321.955 722.213 320.771C722.213 319.588 722.775 318.861 723.684 318.861C724.592 318.861 725.143 319.582 725.143 320.766C725.143 321.961 724.598 322.676 723.678 322.676ZM732.115 325.816L735.145 315.07H733.574L730.545 325.816H732.115ZM647.957 332.975H649.492C650.371 332.975 650.922 333.479 650.922 334.281C650.922 335.096 650.4 335.576 649.51 335.576H647.957V332.975ZM647.957 336.936H649.404L650.98 340H652.984L651.203 336.66C652.176 336.273 652.738 335.336 652.738 334.258C652.738 332.576 651.596 331.545 649.738 331.545H646.188V340H647.957V336.936ZM654.361 340H656.066V333.537H654.361V340ZM655.217 332.57C655.75 332.57 656.184 332.137 656.184 331.592C656.184 331.047 655.75 330.619 655.217 330.619C654.689 330.619 654.25 331.047 654.25 331.592C654.25 332.137 654.689 332.57 655.217 332.57ZM663.514 335.816C663.373 334.346 662.348 333.396 660.637 333.396C658.615 333.396 657.479 334.609 657.479 336.754C657.479 338.922 658.621 340.141 660.637 340.141C662.318 340.141 663.373 339.209 663.514 337.762H661.92C661.791 338.4 661.334 338.74 660.637 338.74C659.723 338.74 659.201 338.043 659.201 336.754C659.201 335.482 659.717 334.797 660.637 334.797C661.363 334.797 661.803 335.201 661.92 335.816H663.514ZM664.908 340H666.613V336.291C666.613 335.453 667.105 334.885 667.961 334.885C668.734 334.885 669.15 335.348 669.15 336.244V340H670.855V335.84C670.855 334.287 670.029 333.414 668.641 333.414C667.691 333.414 666.988 333.859 666.689 334.598H666.584V331.07H664.908V340ZM679.598 340V333.057H682.135V331.545H675.291V333.057H677.828V340H679.598ZM685.211 334.703C686.008 334.703 686.523 335.236 686.559 336.092H683.805C683.863 335.254 684.42 334.703 685.211 334.703ZM686.594 338.16C686.412 338.588 685.949 338.828 685.275 338.828C684.385 338.828 683.822 338.23 683.799 337.27V337.182H688.234V336.66C688.234 334.609 687.109 333.396 685.205 333.396C683.283 333.396 682.1 334.697 682.1 336.801C682.1 338.898 683.26 340.141 685.229 340.141C686.811 340.141 687.93 339.373 688.182 338.16H686.594ZM692.008 337.902L693.215 340.006H695.107L693.062 336.742L695.096 333.543H693.232L692.09 335.664H691.984L690.842 333.543H688.879L690.918 336.812L688.896 340.006H690.701L691.902 337.902H692.008ZM696.824 332.002V333.602H695.816V334.943H696.824V338.254C696.824 339.514 697.445 340.023 699.016 340.023C699.344 340.023 699.66 339.988 699.871 339.947V338.646C699.707 338.664 699.59 338.67 699.367 338.67C698.787 338.67 698.529 338.412 698.529 337.85V334.943H699.871V333.602H698.529V332.002H696.824ZM710.16 338.488H706.328V336.432H709.943V335.031H706.328V333.057H710.16V331.545H704.559V340H710.16V338.488ZM714.168 340.1C715.064 340.1 715.797 339.684 716.143 338.986H716.248V340H717.9V331.07H716.195V334.568H716.096C715.762 333.854 715.041 333.432 714.168 333.432C712.545 333.432 711.537 334.703 711.537 336.76C711.537 338.822 712.539 340.1 714.168 340.1ZM714.748 334.861C715.656 334.861 716.213 335.594 716.213 336.771C716.213 337.955 715.662 338.676 714.748 338.676C713.834 338.676 713.289 337.961 713.289 336.766C713.289 335.582 713.84 334.861 714.748 334.861ZM719.682 340H721.387V333.537H719.682V340ZM720.537 332.57C721.07 332.57 721.504 332.137 721.504 331.592C721.504 331.047 721.07 330.619 720.537 330.619C720.01 330.619 719.57 331.047 719.57 331.592C719.57 332.137 720.01 332.57 720.537 332.57ZM723.602 332.002V333.602H722.594V334.943H723.602V338.254C723.602 339.514 724.223 340.023 725.793 340.023C726.121 340.023 726.438 339.988 726.648 339.947V338.646C726.484 338.664 726.367 338.67 726.145 338.67C725.564 338.67 725.307 338.412 725.307 337.85V334.943H726.648V333.602H725.307V332.002H723.602ZM730.891 340.141C732.877 340.141 734.072 338.881 734.072 336.766C734.072 334.668 732.859 333.396 730.891 333.396C728.922 333.396 727.709 334.674 727.709 336.766C727.709 338.881 728.904 340.141 730.891 340.141ZM730.891 338.746C729.977 338.746 729.461 338.025 729.461 336.766C729.461 335.523 729.982 334.791 730.891 334.791C731.793 334.791 732.32 335.523 732.32 336.766C732.32 338.02 731.799 338.746 730.891 338.746ZM735.467 340H737.172V336.42C737.172 335.512 737.811 334.961 738.742 334.961C739.018 334.961 739.416 335.014 739.551 335.066V333.514C739.404 333.461 739.117 333.432 738.883 333.432C738.062 333.432 737.395 333.924 737.225 334.568H737.119V333.537H735.467V340Z" fill="#3E4249"/>
</svg>
