<svg width="744" height="176" viewBox="0 0 744 176" fill="none" xmlns="http://www.w3.org/2000/svg">
<rect width="744" height="176" fill="white"/>
<path d="M436 0L436 176" stroke="#CFD0D2"/>
<rect opacity="0.16" x="466" y="42" width="276" height="132" rx="30" stroke="#008EFF" stroke-width="4"/>
<path d="M180 97C180 79.3269 194.327 65 212 65C229.673 65 244 79.3269 244 97C244 114.673 229.673 129 212 129C194.327 129 180 114.673 180 97Z" fill="white"/>
<path d="M199 83.8284C199 83.298 199.227 82.8027 199.709 82.583C200.997 81.9968 204.381 81 212.5 81C220.619 81 224.003 81.9968 225.291 82.583C225.773 82.8027 226 83.298 226 83.8284V85.9296C226 86.5983 225.657 87.2105 225.031 87.4462C223.466 88.0356 219.791 89 212.5 89C205.209 89 201.534 88.0356 199.969 87.4462C199.343 87.2105 199 86.5983 199 85.9296V83.8284Z" fill="white"/>
<path d="M199 92.8284C199 92.298 199.227 91.8027 199.709 91.583C200.997 90.9968 204.381 90 212.5 90C220.619 90 224.003 90.9968 225.291 91.583C225.773 91.8027 226 92.298 226 92.8284V94.9296C226 95.5983 225.657 96.2105 225.031 96.4462C223.466 97.0356 219.791 98 212.5 98C205.209 98 201.534 97.0356 199.969 96.4462C199.343 96.2105 199 95.5983 199 94.9296V92.8284Z" fill="white"/>
<path d="M199 101.828C199 101.298 199.227 100.803 199.709 100.583C200.997 99.9968 204.381 99 212.5 99C220.619 99 224.003 99.9968 225.291 100.583C225.773 100.803 226 101.298 226 101.828V103.93C226 104.598 225.657 105.21 225.031 105.446C223.466 106.036 219.791 107 212.5 107C205.209 107 201.534 106.036 199.969 105.446C199.343 105.21 199 104.598 199 103.93V101.828Z" fill="white"/>
<path fill-rule="evenodd" clip-rule="evenodd" d="M199.709 82.583C199.227 82.8027 199 83.298 199 83.8284V85.9296C199 86.5983 199.343 87.2105 199.969 87.4462C201.534 88.0356 205.209 89 212.5 89C219.791 89 223.466 88.0356 225.031 87.4462C225.657 87.2105 226 86.5983 226 85.9296V83.8284C226 83.298 225.773 82.8027 225.291 82.583C224.003 81.9968 220.619 81 212.5 81C204.381 81 200.997 81.9968 199.709 82.583ZM201 84.2188V85.6906C202.489 86.193 205.911 87 212.5 87C219.089 87 222.511 86.193 224 85.6906V84.2188C222.688 83.752 219.475 83 212.5 83C205.525 83 202.312 83.752 201 84.2188Z" fill="#000028"/>
<path fill-rule="evenodd" clip-rule="evenodd" d="M199.709 91.583C199.227 91.8027 199 92.298 199 92.8284V94.9296C199 95.5983 199.343 96.2105 199.969 96.4462C201.534 97.0356 205.209 98 212.5 98C219.791 98 223.466 97.0356 225.031 96.4462C225.657 96.2105 226 95.5983 226 94.9296V92.8284C226 92.298 225.773 91.8027 225.291 91.583C224.003 90.9968 220.619 90 212.5 90C204.381 90 200.997 90.9968 199.709 91.583ZM201 93.2188V94.6906C202.489 95.193 205.911 96 212.5 96C219.089 96 222.511 95.193 224 94.6906V93.2188C222.688 92.752 219.475 92 212.5 92C205.525 92 202.312 92.752 201 93.2188Z" fill="#000028"/>
<path fill-rule="evenodd" clip-rule="evenodd" d="M225.031 105.446C223.577 105.994 220.303 106.865 214 106.986V111H220C220.552 111 221 111.448 221 112C221 112.552 220.552 113 220 113H206C205.448 113 205 112.552 205 112C205 111.448 205.448 111 206 111H212V106.998C205.04 106.956 201.498 106.022 199.969 105.446C199.343 105.21 199 104.598 199 103.93V101.828C199 101.298 199.227 100.803 199.709 100.583C200.997 99.9968 204.381 99 212.5 99C220.619 99 224.003 99.9968 225.291 100.583C225.773 100.803 226 101.298 226 101.828V103.93C226 104.598 225.657 105.21 225.031 105.446ZM201 103.691V102.219C202.312 101.752 205.525 101 212.5 101C219.475 101 222.688 101.752 224 102.219V103.691C222.511 104.193 219.089 105 212.5 105C205.911 105 202.489 104.193 201 103.691Z" fill="#000028"/>
<path d="M212 127C195.431 127 182 113.569 182 97H178C178 115.778 193.222 131 212 131V127ZM242 97C242 113.569 228.569 127 212 127V131C230.778 131 246 115.778 246 97H242ZM212 67C228.569 67 242 80.4315 242 97H246C246 78.2223 230.778 63 212 63V67ZM212 63C193.222 63 178 78.2223 178 97H182C182 80.4315 195.431 67 212 67V63Z" fill="#EAEBEC"/>
<path d="M51 96C51 78.3269 65.3269 64 83 64C100.673 64 115 78.3269 115 96C115 113.673 100.673 128 83 128C65.3269 128 51 113.673 51 96Z" fill="white"/>
<path d="M69 98C69 92.4772 73.4772 88 79 88H87C92.5228 88 97 92.4772 97 98V106.93C97 107.598 96.6566 108.209 96.0295 108.441C94.4394 109.03 90.6587 110 83 110C75.3413 110 71.5606 109.03 69.9705 108.441C69.3434 108.209 69 107.598 69 106.93V98Z" fill="white"/>
<path d="M78 97.5C78 96.6716 78.6716 96 79.5 96C80.3284 96 81 96.6716 81 97.5V99.5C81 100.328 80.3284 101 79.5 101C78.6716 101 78 100.328 78 99.5V97.5Z" fill="#000028"/>
<path d="M86.5 96C85.6716 96 85 96.6716 85 97.5V99.5C85 100.328 85.6716 101 86.5 101C87.3284 101 88 100.328 88 99.5V97.5C88 96.6716 87.3284 96 86.5 96Z" fill="#000028"/>
<path fill-rule="evenodd" clip-rule="evenodd" d="M84 84.8293C85.1652 84.4175 86 83.3062 86 82C86 80.3431 84.6569 79 83 79C81.3431 79 80 80.3431 80 82C80 83.3062 80.8348 84.4175 82 84.8293V88H79C73.4772 88 69 92.4772 69 98V106.93C69 107.598 69.3434 108.209 69.9705 108.441C71.5606 109.03 75.3413 110 83 110C90.6587 110 94.4394 109.03 96.0295 108.441C96.6566 108.209 97 107.598 97 106.93V98C97 92.4772 92.5228 88 87 88H84V84.8293ZM79 90C74.5817 90 71 93.5817 71 98V106.683C72.5244 107.187 76.0644 108 83 108C89.9356 108 93.4756 107.187 95 106.683V98C95 93.5817 91.4183 90 87 90H79Z" fill="#000028"/>
<path d="M83 126C66.4315 126 53 112.569 53 96H49C49 114.778 64.2223 130 83 130V126ZM113 96C113 112.569 99.5685 126 83 126V130C101.778 130 117 114.778 117 96H113ZM83 66C99.5685 66 113 79.4315 113 96H117C117 77.2223 101.778 62 83 62V66ZM83 62C64.2223 62 49 77.2223 49 96H53C53 79.4315 66.4315 66 83 66V62Z" fill="#EAEBEC"/>
<path d="M303 96C303 78.3269 317.327 64 335 64C352.673 64 367 78.3269 367 96C367 113.673 352.673 128 335 128C317.327 128 303 113.673 303 96Z" fill="white"/>
<path d="M321 96.1407C321 94.8033 321.701 93.5954 322.988 93.2295C324.968 92.6661 328.652 92 335 92C341.348 92 345.032 92.6661 347.012 93.2295C348.299 93.5954 349 94.8033 349 96.1407V107.859C349 109.197 348.299 110.405 347.012 110.771C345.032 111.334 341.348 112 335 112C328.652 112 324.968 111.334 322.988 110.771C321.701 110.405 321 109.197 321 107.859V96.1407Z" fill="white"/>
<path fill-rule="evenodd" clip-rule="evenodd" d="M335 80C329.477 80 325 84.4772 325 90V92.7626C324.19 92.9155 323.526 93.0763 322.988 93.2295C321.701 93.5954 321 94.8033 321 96.1407V107.859C321 109.197 321.701 110.405 322.988 110.771C324.968 111.334 328.652 112 335 112C341.348 112 345.032 111.334 347.012 110.771C348.299 110.405 349 109.197 349 107.859V96.1407C349 94.8033 348.299 93.5954 347.012 93.2295C346.474 93.0763 345.81 92.9155 345 92.7626V90C345 84.4772 340.523 80 335 80ZM343 92.448V90C343 85.5817 339.418 82 335 82C330.582 82 327 85.5817 327 90V92.448C329.012 92.1876 331.631 92 335 92C338.369 92 340.988 92.1876 343 92.448ZM347 96.1407V107.859C347 108.187 346.913 108.434 346.814 108.586C346.725 108.722 346.617 108.804 346.465 108.847C344.707 109.347 341.216 110 335 110C328.784 110 325.293 109.347 323.535 108.847C323.383 108.804 323.275 108.722 323.186 108.586C323.087 108.434 323 108.187 323 107.859V96.1407C323 95.8131 323.087 95.5665 323.186 95.4141C323.275 95.278 323.383 95.1963 323.535 95.1531C325.293 94.6531 328.784 94 335 94C341.216 94 344.707 94.6531 346.465 95.1531C346.617 95.1963 346.725 95.278 346.814 95.4141C346.913 95.5665 347 95.8131 347 96.1407Z" fill="#000028"/>
<path d="M335 126C318.431 126 305 112.569 305 96H301C301 114.778 316.222 130 335 130V126ZM365 96C365 112.569 351.569 126 335 126V130C353.778 130 369 114.778 369 96H365ZM335 66C351.569 66 365 79.4315 365 96H369C369 77.2223 353.778 62 335 62V66ZM335 62C316.222 62 301 77.2223 301 96H305C305 79.4315 318.431 66 335 66V62Z" fill="#EAEBEC"/>
<path d="M571 96C571 78.3269 585.327 64 603 64C620.673 64 635 78.3269 635 96C635 113.673 620.673 128 603 128C585.327 128 571 113.673 571 96Z" fill="white"/>
<path fill-rule="evenodd" clip-rule="evenodd" d="M603 83C608.318 83 612.828 86.3727 614.402 91.0439C617.168 92.7784 619 95.8056 619 99.25C619 104.416 614.879 108.644 609.667 108.979L595 108.975C590.525 108.643 587 104.998 587 100.55C587 97.5273 588.628 94.8753 591.075 93.3819C591.747 87.5407 596.83 83 603 83Z" fill="white"/>
<path d="M599.875 99.6057C599.875 99.9386 600.052 100.246 600.34 100.414L603.156 102.054L605.972 100.414C606.26 100.246 606.438 99.9386 606.438 99.6057L606.438 97.9107L598 95.5707V91.3729C598 90.7581 598.317 90.0925 598.996 89.7872C599.721 89.4609 601.11 89 603.156 89C605.202 89 606.591 89.4609 607.317 89.7872C607.995 90.0925 608.313 90.7581 608.313 91.3729V93.7319L606.438 93.2119V91.4466C605.887 91.2155 604.795 90.872 603.156 90.872C601.517 90.872 600.425 91.2155 599.875 91.4466V94.1479L608.312 96.5V99.6057C608.312 100.604 607.781 101.528 606.917 102.031L603.865 103.809C603.427 104.064 602.886 104.064 602.448 103.809L599.395 102.031C598.531 101.528 598 100.604 598 99.6057V97.8918L599.875 98.375V99.6057Z" fill="#000028"/>
<path fill-rule="evenodd" clip-rule="evenodd" d="M595 108.975L609.667 108.979C614.879 108.644 619 104.416 619 99.25C619 95.8056 617.168 92.7784 614.402 91.0439C612.828 86.3727 608.318 83 603 83C596.83 83 591.747 87.5407 591.075 93.3819C588.628 94.8753 587 97.5273 587 100.55C587 104.998 590.525 108.643 595 108.975ZM612.507 91.6828L612.735 92.3591L613.34 92.7383C615.56 94.1307 617 96.5377 617 99.25C617 103.292 613.78 106.68 609.599 106.979L595.079 106.975C591.631 106.685 589 103.879 589 100.55C589 98.2689 590.226 96.2431 592.117 95.0892L592.951 94.5805L593.062 93.6104C593.615 88.8068 597.817 85 603 85C607.461 85 611.207 87.8265 612.507 91.6828Z" fill="#000028"/>
<path d="M603 126C586.431 126 573 112.569 573 96H569C569 114.778 584.222 130 603 130V126ZM633 96C633 112.569 619.569 126 603 126V130C621.778 130 637 114.778 637 96H633ZM603 66C619.569 66 633 79.4315 633 96H637C637 77.2223 621.778 62 603 62V66ZM603 62C584.222 62 569 77.2223 569 96H573C573 79.4315 586.431 66 603 66V62Z" fill="#EAEBEC"/>
<rect width="225" height="17" transform="translate(492 8)" fill="white"/>
<path d="M497.251 18.3203C497.34 20.1113 498.837 21.2461 501.1 21.2461C503.492 21.2461 504.976 20.0498 504.976 18.1289C504.976 16.625 504.135 15.791 502.132 15.3398L500.997 15.0801C499.773 14.7998 499.274 14.4102 499.274 13.7471C499.274 12.9062 500.026 12.3594 501.161 12.3594C502.241 12.3594 503.007 12.9062 503.13 13.7744H504.818C504.736 12.0791 503.239 10.8896 501.168 10.8896C498.96 10.8896 497.497 12.0791 497.497 13.8701C497.497 15.3398 498.338 16.2285 500.129 16.6318L501.407 16.9258C502.672 17.2197 503.212 17.6367 503.212 18.3477C503.212 19.1748 502.371 19.7695 501.209 19.7695C499.958 19.7695 499.083 19.2021 498.974 18.3203H497.251ZM507.601 23.7139C509.275 23.7139 510.075 23.0986 510.711 21.2393L513.411 13.5215H511.62L509.877 19.3594H509.761L508.011 13.5215H506.151L508.824 21.0342L508.735 21.3623C508.517 22.0527 508.113 22.3262 507.396 22.3262C507.279 22.3262 507.026 22.3193 506.931 22.2988V23.6865C507.04 23.707 507.498 23.7139 507.601 23.7139ZM514.874 21H516.569V16.4541C516.569 15.5381 517.191 14.8477 518.032 14.8477C518.866 14.8477 519.386 15.3467 519.386 16.167V21H521.033V16.3447C521.033 15.4902 521.614 14.8477 522.496 14.8477C523.405 14.8477 523.863 15.3262 523.863 16.29V21H525.552V15.8594C525.552 14.3076 524.649 13.3711 523.152 13.3711C522.113 13.3711 521.252 13.9111 520.883 14.7314H520.767C520.452 13.8906 519.734 13.3711 518.702 13.3711C517.711 13.3711 516.945 13.877 516.624 14.7314H516.508V13.5215H514.874V21ZM531.636 13.3984C530.61 13.3984 529.742 13.9111 529.312 14.7588H529.195V13.5215H527.562V23.4883H529.257V19.8652H529.373C529.756 20.6582 530.583 21.123 531.656 21.123C533.543 21.123 534.719 19.6465 534.719 17.2607C534.719 14.8613 533.529 13.3984 531.636 13.3984ZM531.103 19.6807C529.947 19.6807 529.229 18.7578 529.223 17.2607C529.229 15.7705 529.954 14.8408 531.109 14.8408C532.271 14.8408 532.976 15.75 532.976 17.2607C532.976 18.7715 532.278 19.6807 531.103 19.6807ZM536.489 21H538.185V16.6592C538.185 15.5859 538.807 14.8613 539.921 14.8613C540.905 14.8613 541.425 15.4424 541.425 16.5771V21H543.12V16.1738C543.12 14.3965 542.149 13.3848 540.55 13.3848C539.436 13.3848 538.636 13.8906 538.28 14.7314H538.157V10.6299H536.489V21ZM548.356 21.1504C550.592 21.1504 551.952 19.6875 551.952 17.2607C551.952 14.8408 550.585 13.3711 548.356 13.3711C546.135 13.3711 544.761 14.8477 544.761 17.2607C544.761 19.6875 546.114 21.1504 548.356 21.1504ZM548.356 19.7285C547.174 19.7285 546.497 18.8262 546.497 17.2607C546.497 15.7021 547.174 14.793 548.356 14.793C549.532 14.793 550.209 15.7021 550.209 17.2607C550.209 18.8262 549.539 19.7285 548.356 19.7285ZM553.661 21H555.356V16.6455C555.356 15.5449 555.992 14.8477 557.004 14.8477C558.036 14.8477 558.515 15.4219 558.515 16.5635V21H560.21V16.1602C560.21 14.376 559.301 13.3711 557.633 13.3711C556.519 13.3711 555.767 13.8838 555.411 14.7178H555.295V13.5215H553.661V21ZM562.808 23.7139C564.482 23.7139 565.282 23.0986 565.918 21.2393L568.618 13.5215H566.827L565.084 19.3594H564.968L563.218 13.5215H561.358L564.031 21.0342L563.942 21.3623C563.724 22.0527 563.32 22.3262 562.603 22.3262C562.486 22.3262 562.233 22.3193 562.138 22.2988V23.6865C562.247 23.707 562.705 23.7139 562.808 23.7139ZM578.106 21.2461C580.383 21.2461 582.051 19.8857 582.283 17.8691H580.547C580.308 18.9766 579.357 19.6738 578.106 19.6738C576.425 19.6738 575.379 18.293 575.379 16.0645C575.379 13.8428 576.425 12.4619 578.1 12.4619C579.344 12.4619 580.294 13.2275 580.54 14.4102H582.276C582.071 12.3525 580.342 10.8896 578.1 10.8896C575.304 10.8896 573.574 12.8652 573.574 16.0713C573.574 19.2637 575.311 21.2461 578.106 21.2461ZM584.136 21H585.831V10.6299H584.136V21ZM591.204 21.1504C593.439 21.1504 594.8 19.6875 594.8 17.2607C594.8 14.8408 593.433 13.3711 591.204 13.3711C588.982 13.3711 587.608 14.8477 587.608 17.2607C587.608 19.6875 588.962 21.1504 591.204 21.1504ZM591.204 19.7285C590.021 19.7285 589.345 18.8262 589.345 17.2607C589.345 15.7021 590.021 14.793 591.204 14.793C592.38 14.793 593.057 15.7021 593.057 17.2607C593.057 18.8262 592.387 19.7285 591.204 19.7285ZM603.017 13.5215H601.321V17.876C601.321 18.9834 600.72 19.6602 599.619 19.6602C598.607 19.6602 598.136 19.0996 598.136 17.958V13.5215H596.44V18.3818C596.44 20.1318 597.397 21.1504 599.031 21.1504C600.173 21.1504 600.904 20.665 601.267 19.8105H601.383V21H603.017V13.5215ZM607.802 21.123C608.841 21.123 609.702 20.6377 610.126 19.8174H610.242V21H611.883V10.6299H610.188V14.7109H610.071C609.675 13.8906 608.827 13.3984 607.802 13.3984C605.915 13.3984 604.726 14.8887 604.726 17.2539C604.726 19.6328 605.908 21.123 607.802 21.123ZM608.328 14.8408C609.49 14.8408 610.208 15.7705 610.208 17.2607C610.208 18.7646 609.497 19.6807 608.328 19.6807C607.166 19.6807 606.462 18.7715 606.462 17.2607C606.462 15.7568 607.173 14.8408 608.328 14.8408ZM619.696 21V11.1357H617.933V21H619.696ZM621.952 21H623.647V16.6455C623.647 15.5449 624.283 14.8477 625.295 14.8477C626.327 14.8477 626.806 15.4219 626.806 16.5635V21H628.501V16.1602C628.501 14.376 627.592 13.3711 625.924 13.3711C624.81 13.3711 624.058 13.8838 623.702 14.7178H623.586V13.5215H621.952V21ZM631.058 21H632.746V14.9229H634.353V13.5693H632.726V12.8926C632.726 12.1885 633.04 11.8398 633.84 11.8398C634.079 11.8398 634.284 11.8535 634.421 11.874V10.6299C634.147 10.582 633.84 10.5547 633.478 10.5547C631.816 10.5547 631.058 11.293 631.058 12.7832V13.5693H629.834V14.9229H631.058V21ZM635.993 21H637.688V16.6797C637.688 15.6338 638.454 14.9502 639.555 14.9502C639.842 14.9502 640.293 14.998 640.423 15.0459V13.4736C640.266 13.4258 639.965 13.3984 639.719 13.3984C638.755 13.3984 637.948 13.9453 637.743 14.6836H637.627V13.5215H635.993V21ZM644.278 19.79C643.526 19.79 642.986 19.4141 642.986 18.7852C642.986 18.1768 643.431 17.835 644.381 17.7734L646.069 17.6641V18.2588C646.069 19.127 645.304 19.79 644.278 19.79ZM643.779 21.123C644.757 21.123 645.577 20.6992 645.994 19.9746H646.11V21H647.744V15.8936C647.744 14.3076 646.664 13.3711 644.743 13.3711C642.966 13.3711 641.729 14.2119 641.592 15.5312H643.191C643.349 15.0254 643.882 14.752 644.661 14.752C645.577 14.752 646.069 15.1621 646.069 15.8936V16.5225L644.142 16.6387C642.323 16.748 641.305 17.5273 641.305 18.8809C641.305 20.248 642.337 21.123 643.779 21.123ZM649.617 15.6611C649.617 16.7891 650.294 17.4521 651.729 17.7803L653.056 18.0879C653.767 18.2451 654.088 18.5117 654.088 18.9355C654.088 19.4893 653.493 19.8652 652.639 19.8652C651.791 19.8652 651.265 19.5371 651.101 18.9834H649.426C649.556 20.3438 650.731 21.1504 652.598 21.1504C654.464 21.1504 655.783 20.1934 655.783 18.7578C655.783 17.6572 655.12 17.042 653.691 16.7207L652.372 16.4199C651.62 16.249 651.265 15.9893 651.265 15.5654C651.265 15.0254 651.846 14.6562 652.618 14.6562C653.411 14.6562 653.91 14.9912 654.033 15.5176H655.626C655.503 14.1572 654.389 13.3711 652.611 13.3711C650.848 13.3711 649.617 14.3076 649.617 15.6611ZM657.984 11.6895V13.5693H656.802V14.9229H657.984V19.0039C657.984 20.4531 658.668 21.0342 660.384 21.0342C660.712 21.0342 661.026 21 661.272 20.9521V19.626C661.067 19.6465 660.938 19.6602 660.698 19.6602C659.987 19.6602 659.673 19.332 659.673 18.5938V14.9229H661.272V13.5693H659.673V11.6895H657.984ZM662.968 21H664.663V16.6797C664.663 15.6338 665.429 14.9502 666.529 14.9502C666.816 14.9502 667.268 14.998 667.397 15.0459V13.4736C667.24 13.4258 666.939 13.3984 666.693 13.3984C665.729 13.3984 664.923 13.9453 664.718 14.6836H664.602V13.5215H662.968V21ZM675.3 13.5215H673.604V17.876C673.604 18.9834 673.003 19.6602 671.902 19.6602C670.891 19.6602 670.419 19.0996 670.419 17.958V13.5215H668.724V18.3818C668.724 20.1318 669.681 21.1504 671.314 21.1504C672.456 21.1504 673.188 20.665 673.55 19.8105H673.666V21H675.3V13.5215ZM683.838 16.0371C683.66 14.4648 682.498 13.3711 680.577 13.3711C678.328 13.3711 677.009 14.8135 677.009 17.2402C677.009 19.7012 678.335 21.1504 680.584 21.1504C682.478 21.1504 683.653 20.0977 683.838 18.5322H682.225C682.047 19.3115 681.459 19.7285 680.577 19.7285C679.422 19.7285 678.725 18.8125 678.725 17.2402C678.725 15.6885 679.415 14.793 680.577 14.793C681.507 14.793 682.067 15.3125 682.225 16.0371H683.838ZM686.094 11.6895V13.5693H684.911V14.9229H686.094V19.0039C686.094 20.4531 686.777 21.0342 688.493 21.0342C688.821 21.0342 689.136 21 689.382 20.9521V19.626C689.177 19.6465 689.047 19.6602 688.808 19.6602C688.097 19.6602 687.782 19.332 687.782 18.5938V14.9229H689.382V13.5693H687.782V11.6895H686.094ZM697.585 13.5215H695.89V17.876C695.89 18.9834 695.288 19.6602 694.188 19.6602C693.176 19.6602 692.704 19.0996 692.704 17.958V13.5215H691.009V18.3818C691.009 20.1318 691.966 21.1504 693.6 21.1504C694.741 21.1504 695.473 20.665 695.835 19.8105H695.951V21H697.585V13.5215ZM699.663 21H701.358V16.6797C701.358 15.6338 702.124 14.9502 703.225 14.9502C703.512 14.9502 703.963 14.998 704.093 15.0459V13.4736C703.936 13.4258 703.635 13.3984 703.389 13.3984C702.425 13.3984 701.618 13.9453 701.413 14.6836H701.297V13.5215H699.663V21ZM708.434 14.7178C709.452 14.7178 710.122 15.4287 710.156 16.5361H706.636C706.711 15.4424 707.422 14.7178 708.434 14.7178ZM710.17 18.9424C709.924 19.4961 709.343 19.8037 708.502 19.8037C707.388 19.8037 706.67 19.0244 706.629 17.7803V17.6914H711.852V17.1445C711.852 14.7861 710.573 13.3711 708.44 13.3711C706.273 13.3711 704.927 14.8818 704.927 17.2881C704.927 19.6943 706.253 21.1504 708.454 21.1504C710.218 21.1504 711.469 20.3027 711.776 18.9424H710.17Z" fill="#525760"/>
<rect width="148" height="17" transform="translate(138 8)" fill="white"/>
<path d="M147.407 21.2461C149.684 21.2461 151.352 19.8857 151.584 17.8691H149.848C149.608 18.9766 148.658 19.6738 147.407 19.6738C145.726 19.6738 144.68 18.293 144.68 16.0645C144.68 13.8428 145.726 12.4619 147.4 12.4619C148.645 12.4619 149.595 13.2275 149.841 14.4102H151.577C151.372 12.3525 149.643 10.8896 147.4 10.8896C144.604 10.8896 142.875 12.8652 142.875 16.0713C142.875 19.2637 144.611 21.2461 147.407 21.2461ZM153.437 21H155.132V10.6299H153.437V21ZM157.299 21H158.987V13.5215H157.299V21ZM158.14 12.2842C158.7 12.2842 159.151 11.833 159.151 11.2656C159.151 10.6982 158.7 10.2402 158.14 10.2402C157.586 10.2402 157.128 10.6982 157.128 11.2656C157.128 11.833 157.586 12.2842 158.14 12.2842ZM164.23 14.7178C165.249 14.7178 165.919 15.4287 165.953 16.5361H162.433C162.508 15.4424 163.219 14.7178 164.23 14.7178ZM165.967 18.9424C165.721 19.4961 165.14 19.8037 164.299 19.8037C163.185 19.8037 162.467 19.0244 162.426 17.7803V17.6914H167.648V17.1445C167.648 14.7861 166.37 13.3711 164.237 13.3711C162.07 13.3711 160.724 14.8818 160.724 17.2881C160.724 19.6943 162.05 21.1504 164.251 21.1504C166.015 21.1504 167.266 20.3027 167.573 18.9424H165.967ZM169.351 21H171.046V16.6455C171.046 15.5449 171.682 14.8477 172.693 14.8477C173.726 14.8477 174.204 15.4219 174.204 16.5635V21H175.899V16.1602C175.899 14.376 174.99 13.3711 173.322 13.3711C172.208 13.3711 171.456 13.8838 171.101 14.7178H170.984V13.5215H169.351V21ZM178.449 11.6895V13.5693H177.267V14.9229H178.449V19.0039C178.449 20.4531 179.133 21.0342 180.849 21.0342C181.177 21.0342 181.491 21 181.737 20.9521V19.626C181.532 19.6465 181.402 19.6602 181.163 19.6602C180.452 19.6602 180.138 19.332 180.138 18.5938V14.9229H181.737V13.5693H180.138V11.6895H178.449ZM189.106 21V11.1357H187.343V21H189.106ZM191.362 21H193.058V16.6455C193.058 15.5449 193.693 14.8477 194.705 14.8477C195.737 14.8477 196.216 15.4219 196.216 16.5635V21H197.911V16.1602C197.911 14.376 197.002 13.3711 195.334 13.3711C194.22 13.3711 193.468 13.8838 193.112 14.7178H192.996V13.5215H191.362V21ZM200.468 21H202.156V14.9229H203.763V13.5693H202.136V12.8926C202.136 12.1885 202.45 11.8398 203.25 11.8398C203.489 11.8398 203.694 11.8535 203.831 11.874V10.6299C203.558 10.582 203.25 10.5547 202.888 10.5547C201.227 10.5547 200.468 11.293 200.468 12.7832V13.5693H199.244V14.9229H200.468V21ZM205.403 21H207.099V16.6797C207.099 15.6338 207.864 14.9502 208.965 14.9502C209.252 14.9502 209.703 14.998 209.833 15.0459V13.4736C209.676 13.4258 209.375 13.3984 209.129 13.3984C208.165 13.3984 207.358 13.9453 207.153 14.6836H207.037V13.5215H205.403V21ZM213.688 19.79C212.937 19.79 212.396 19.4141 212.396 18.7852C212.396 18.1768 212.841 17.835 213.791 17.7734L215.479 17.6641V18.2588C215.479 19.127 214.714 19.79 213.688 19.79ZM213.189 21.123C214.167 21.123 214.987 20.6992 215.404 19.9746H215.521V21H217.154V15.8936C217.154 14.3076 216.074 13.3711 214.153 13.3711C212.376 13.3711 211.139 14.2119 211.002 15.5312H212.602C212.759 15.0254 213.292 14.752 214.071 14.752C214.987 14.752 215.479 15.1621 215.479 15.8936V16.5225L213.552 16.6387C211.733 16.748 210.715 17.5273 210.715 18.8809C210.715 20.248 211.747 21.123 213.189 21.123ZM219.027 15.6611C219.027 16.7891 219.704 17.4521 221.14 17.7803L222.466 18.0879C223.177 18.2451 223.498 18.5117 223.498 18.9355C223.498 19.4893 222.903 19.8652 222.049 19.8652C221.201 19.8652 220.675 19.5371 220.511 18.9834H218.836C218.966 20.3438 220.142 21.1504 222.008 21.1504C223.874 21.1504 225.193 20.1934 225.193 18.7578C225.193 17.6572 224.53 17.042 223.102 16.7207L221.782 16.4199C221.03 16.249 220.675 15.9893 220.675 15.5654C220.675 15.0254 221.256 14.6562 222.028 14.6562C222.821 14.6562 223.32 14.9912 223.443 15.5176H225.036C224.913 14.1572 223.799 13.3711 222.021 13.3711C220.258 13.3711 219.027 14.3076 219.027 15.6611ZM227.395 11.6895V13.5693H226.212V14.9229H227.395V19.0039C227.395 20.4531 228.078 21.0342 229.794 21.0342C230.122 21.0342 230.437 21 230.683 20.9521V19.626C230.478 19.6465 230.348 19.6602 230.108 19.6602C229.397 19.6602 229.083 19.332 229.083 18.5938V14.9229H230.683V13.5693H229.083V11.6895H227.395ZM232.378 21H234.073V16.6797C234.073 15.6338 234.839 14.9502 235.939 14.9502C236.227 14.9502 236.678 14.998 236.808 15.0459V13.4736C236.65 13.4258 236.35 13.3984 236.104 13.3984C235.14 13.3984 234.333 13.9453 234.128 14.6836H234.012V13.5215H232.378V21ZM244.71 13.5215H243.015V17.876C243.015 18.9834 242.413 19.6602 241.312 19.6602C240.301 19.6602 239.829 19.0996 239.829 17.958V13.5215H238.134V18.3818C238.134 20.1318 239.091 21.1504 240.725 21.1504C241.866 21.1504 242.598 20.665 242.96 19.8105H243.076V21H244.71V13.5215ZM253.248 16.0371C253.07 14.4648 251.908 13.3711 249.987 13.3711C247.738 13.3711 246.419 14.8135 246.419 17.2402C246.419 19.7012 247.745 21.1504 249.994 21.1504C251.888 21.1504 253.063 20.0977 253.248 18.5322H251.635C251.457 19.3115 250.869 19.7285 249.987 19.7285C248.832 19.7285 248.135 18.8125 248.135 17.2402C248.135 15.6885 248.825 14.793 249.987 14.793C250.917 14.793 251.478 15.3125 251.635 16.0371H253.248ZM255.504 11.6895V13.5693H254.321V14.9229H255.504V19.0039C255.504 20.4531 256.188 21.0342 257.903 21.0342C258.231 21.0342 258.546 21 258.792 20.9521V19.626C258.587 19.6465 258.457 19.6602 258.218 19.6602C257.507 19.6602 257.192 19.332 257.192 18.5938V14.9229H258.792V13.5693H257.192V11.6895H255.504ZM266.995 13.5215H265.3V17.876C265.3 18.9834 264.698 19.6602 263.598 19.6602C262.586 19.6602 262.114 19.0996 262.114 17.958V13.5215H260.419V18.3818C260.419 20.1318 261.376 21.1504 263.01 21.1504C264.151 21.1504 264.883 20.665 265.245 19.8105H265.361V21H266.995V13.5215ZM269.073 21H270.769V16.6797C270.769 15.6338 271.534 14.9502 272.635 14.9502C272.922 14.9502 273.373 14.998 273.503 15.0459V13.4736C273.346 13.4258 273.045 13.3984 272.799 13.3984C271.835 13.3984 271.028 13.9453 270.823 14.6836H270.707V13.5215H269.073V21ZM277.844 14.7178C278.862 14.7178 279.532 15.4287 279.566 16.5361H276.046C276.121 15.4424 276.832 14.7178 277.844 14.7178ZM279.58 18.9424C279.334 19.4961 278.753 19.8037 277.912 19.8037C276.798 19.8037 276.08 19.0244 276.039 17.7803V17.6914H281.262V17.1445C281.262 14.7861 279.983 13.3711 277.851 13.3711C275.684 13.3711 274.337 14.8818 274.337 17.2881C274.337 19.6943 275.663 21.1504 277.864 21.1504C279.628 21.1504 280.879 20.3027 281.187 18.9424H279.58Z" fill="#525760"/>
<rect width="99" height="16" transform="translate(33 136)" fill="white"/>
<path d="M41.9004 148C43.7051 148 44.8242 147.062 44.8242 145.58C44.8242 144.49 44.0098 143.646 42.8906 143.564V143.459C43.7578 143.33 44.4199 142.551 44.4199 141.654C44.4199 140.348 43.4414 139.545 41.8008 139.545H38.1035V148H41.9004ZM39.873 140.898H41.3496C42.1934 140.898 42.6797 141.303 42.6797 141.977C42.6797 142.656 42.1582 143.049 41.2031 143.049H39.873V140.898ZM39.873 146.646V144.244H41.4082C42.4512 144.244 43.0195 144.654 43.0195 145.428C43.0195 146.219 42.4688 146.646 41.4492 146.646H39.873ZM49.1191 148.141C51.1055 148.141 52.3008 146.881 52.3008 144.766C52.3008 142.668 51.0879 141.396 49.1191 141.396C47.1504 141.396 45.9375 142.674 45.9375 144.766C45.9375 146.881 47.1328 148.141 49.1191 148.141ZM49.1191 146.746C48.2051 146.746 47.6895 146.025 47.6895 144.766C47.6895 143.523 48.2109 142.791 49.1191 142.791C50.0215 142.791 50.5488 143.523 50.5488 144.766C50.5488 146.02 50.0273 146.746 49.1191 146.746ZM54.1816 140.002V141.602H53.1738V142.943H54.1816V146.254C54.1816 147.514 54.8027 148.023 56.373 148.023C56.7012 148.023 57.0176 147.988 57.2285 147.947V146.646C57.0645 146.664 56.9473 146.67 56.7246 146.67C56.1445 146.67 55.8867 146.412 55.8867 145.85V142.943H57.2285V141.602H55.8867V140.002H54.1816ZM62.4844 149.816L65.5137 139.07H63.9434L60.9141 149.816H62.4844ZM75.0938 148H77.0098L74.0742 139.545H71.9941L69.0586 148H70.834L71.4844 145.984H74.4551L75.0938 148ZM72.9258 141.303H73.0312L74.0801 144.619H71.8652L72.9258 141.303ZM78.4512 139.545V148H80.2207V145.375H81.8906C83.6719 145.375 84.9082 144.209 84.9082 142.469C84.9082 140.711 83.7188 139.545 81.9785 139.545H78.4512ZM80.2207 140.998H81.5098C82.5293 140.998 83.1094 141.514 83.1094 142.475C83.1094 143.424 82.5176 143.939 81.5039 143.939H80.2207V140.998ZM88.3066 148V139.545H86.5371V148H88.3066ZM97.043 148.217C99.082 148.217 100.57 146.957 100.717 145.129H98.9941C98.8242 146.061 98.0625 146.658 97.0488 146.658C95.7129 146.658 94.8867 145.551 94.8867 143.77C94.8867 141.988 95.7129 140.887 97.043 140.887C98.0508 140.887 98.8184 141.525 98.9883 142.498H100.711C100.582 140.658 99.0469 139.328 97.043 139.328C94.5879 139.328 93.0762 141.021 93.0762 143.77C93.0762 146.523 94.5938 148.217 97.043 148.217ZM104.508 146.816C103.916 146.816 103.5 146.523 103.5 146.043C103.5 145.58 103.857 145.316 104.59 145.264L105.896 145.182V145.656C105.896 146.312 105.299 146.816 104.508 146.816ZM103.945 148.1C104.783 148.1 105.486 147.748 105.82 147.156H105.926V148H107.578V143.588C107.578 142.205 106.611 141.396 104.9 141.396C103.277 141.396 102.182 142.146 102.07 143.342H103.641C103.781 142.955 104.191 142.744 104.807 142.744C105.51 142.744 105.896 143.049 105.896 143.588V144.115L104.332 144.209C102.727 144.303 101.83 144.982 101.83 146.154C101.83 147.338 102.703 148.1 103.945 148.1ZM109.312 148H111.018V139.07H109.312V148ZM112.852 148H114.557V139.07H112.852V148ZM119.127 142.703C119.924 142.703 120.439 143.236 120.475 144.092H117.721C117.779 143.254 118.336 142.703 119.127 142.703ZM120.51 146.16C120.328 146.588 119.865 146.828 119.191 146.828C118.301 146.828 117.738 146.23 117.715 145.27V145.182H122.15V144.66C122.15 142.609 121.025 141.396 119.121 141.396C117.199 141.396 116.016 142.697 116.016 144.801C116.016 146.898 117.176 148.141 119.145 148.141C120.727 148.141 121.846 147.373 122.098 146.16H120.51ZM123.551 148H125.256V144.42C125.256 143.512 125.895 142.961 126.826 142.961C127.102 142.961 127.5 143.014 127.635 143.066V141.514C127.488 141.461 127.201 141.432 126.967 141.432C126.146 141.432 125.479 141.924 125.309 142.568H125.203V141.537H123.551V148Z" fill="#3E4249"/>
<rect width="87" height="16" transform="translate(168 136)" fill="white"/>
<path d="M178.553 148H180.469L177.533 139.545H175.453L172.518 148H174.293L174.943 145.984H177.914L178.553 148ZM176.385 141.303H176.49L177.539 144.619H175.324L176.385 141.303ZM184.26 146.559C183.334 146.559 182.807 145.85 182.807 144.707C182.807 143.576 183.34 142.861 184.26 142.861C185.18 142.861 185.736 143.576 185.736 144.713C185.736 145.85 185.186 146.559 184.26 146.559ZM184.236 150.449C186.188 150.449 187.424 149.494 187.424 147.977V141.537H185.771V142.574H185.666C185.32 141.865 184.576 141.432 183.703 141.432C182.062 141.432 181.055 142.709 181.055 144.713C181.055 146.658 182.057 147.906 183.668 147.906C184.576 147.906 185.256 147.543 185.613 146.863H185.719V148.059C185.719 148.785 185.186 149.207 184.271 149.207C183.533 149.207 183.053 148.955 182.965 148.557H181.277C181.383 149.693 182.52 150.449 184.236 150.449ZM191.93 142.703C192.727 142.703 193.242 143.236 193.277 144.092H190.523C190.582 143.254 191.139 142.703 191.93 142.703ZM193.312 146.16C193.131 146.588 192.668 146.828 191.994 146.828C191.104 146.828 190.541 146.23 190.518 145.27V145.182H194.953V144.66C194.953 142.609 193.828 141.396 191.924 141.396C190.002 141.396 188.818 142.697 188.818 144.801C188.818 146.898 189.979 148.141 191.947 148.141C193.529 148.141 194.648 147.373 194.9 146.16H193.312ZM196.354 148H198.059V144.273C198.059 143.424 198.545 142.867 199.336 142.867C200.145 142.867 200.525 143.336 200.525 144.227V148H202.23V143.822C202.23 142.275 201.457 141.396 200.021 141.396C199.066 141.396 198.41 141.848 198.111 142.574H198.006V141.537H196.354V148ZM204.375 140.002V141.602H203.367V142.943H204.375V146.254C204.375 147.514 204.996 148.023 206.566 148.023C206.895 148.023 207.211 147.988 207.422 147.947V146.646C207.258 146.664 207.141 146.67 206.918 146.67C206.338 146.67 206.08 146.412 206.08 145.85V142.943H207.422V141.602H206.08V140.002H204.375ZM211.729 145.65C211.793 147.227 213.1 148.217 215.115 148.217C217.236 148.217 218.543 147.174 218.543 145.469C218.543 144.156 217.811 143.424 216.111 143.066L215.092 142.85C214.102 142.639 213.697 142.34 213.697 141.818C213.697 141.174 214.283 140.764 215.168 140.764C216.023 140.764 216.645 141.209 216.727 141.877H218.391C218.338 140.371 217.02 139.328 215.156 139.328C213.205 139.328 211.922 140.377 211.922 141.971C211.922 143.26 212.678 144.062 214.219 144.385L215.32 144.619C216.357 144.842 216.779 145.152 216.779 145.691C216.779 146.33 216.129 146.775 215.209 146.775C214.213 146.775 213.521 146.336 213.439 145.65H211.729ZM222.844 142.703C223.641 142.703 224.156 143.236 224.191 144.092H221.438C221.496 143.254 222.053 142.703 222.844 142.703ZM224.227 146.16C224.045 146.588 223.582 146.828 222.908 146.828C222.018 146.828 221.455 146.23 221.432 145.27V145.182H225.867V144.66C225.867 142.609 224.742 141.396 222.838 141.396C220.916 141.396 219.732 142.697 219.732 144.801C219.732 146.898 220.893 148.141 222.861 148.141C224.443 148.141 225.562 147.373 225.814 146.16H224.227ZM227.268 148H228.973V144.42C228.973 143.512 229.611 142.961 230.543 142.961C230.818 142.961 231.217 143.014 231.352 143.066V141.514C231.205 141.461 230.918 141.432 230.684 141.432C229.863 141.432 229.195 141.924 229.025 142.568H228.92V141.537H227.268V148ZM238.43 141.537H236.631L235.307 146.354H235.201L233.865 141.537H232.031L234.275 148H236.197L238.43 141.537ZM242.109 142.703C242.906 142.703 243.422 143.236 243.457 144.092H240.703C240.762 143.254 241.318 142.703 242.109 142.703ZM243.492 146.16C243.311 146.588 242.848 146.828 242.174 146.828C241.283 146.828 240.721 146.23 240.697 145.27V145.182H245.133V144.66C245.133 142.609 244.008 141.396 242.104 141.396C240.182 141.396 238.998 142.697 238.998 144.801C238.998 146.898 240.158 148.141 242.127 148.141C243.709 148.141 244.828 147.373 245.08 146.16H243.492ZM246.533 148H248.238V144.42C248.238 143.512 248.877 142.961 249.809 142.961C250.084 142.961 250.482 143.014 250.617 143.066V141.514C250.471 141.461 250.184 141.432 249.949 141.432C249.129 141.432 248.461 141.924 248.291 142.568H248.186V141.537H246.533V148Z" fill="#3E4249"/>
<rect width="87" height="16" transform="translate(291 136)" fill="white"/>
<path d="M298.189 148V145.451L299.027 144.461L301.482 148H303.604L300.305 143.254L303.387 139.545H301.418L298.295 143.312H298.189V139.545H296.42V148H298.189ZM307.061 142.703C307.857 142.703 308.373 143.236 308.408 144.092H305.654C305.713 143.254 306.27 142.703 307.061 142.703ZM308.443 146.16C308.262 146.588 307.799 146.828 307.125 146.828C306.234 146.828 305.672 146.23 305.648 145.27V145.182H310.084V144.66C310.084 142.609 308.959 141.396 307.055 141.396C305.133 141.396 303.949 142.697 303.949 144.801C303.949 146.898 305.109 148.141 307.078 148.141C308.66 148.141 309.779 147.373 310.031 146.16H308.443ZM312.111 150.35C313.723 150.35 314.514 149.764 315.064 148.1L317.291 141.537H315.486L314.127 146.436H314.021L312.662 141.537H310.781L313.049 148.041L312.99 148.275C312.85 148.768 312.486 148.973 311.848 148.973C311.777 148.973 311.52 148.973 311.461 148.961V150.332C311.531 150.344 312.047 150.35 312.111 150.35ZM330.697 148V139.545H328.617L326.273 145.252H326.168L323.83 139.545H321.744V148H323.385V142.346H323.479L325.635 147.543H326.812L328.963 142.346H329.057V148H330.697ZM334.91 146.816C334.318 146.816 333.902 146.523 333.902 146.043C333.902 145.58 334.26 145.316 334.992 145.264L336.299 145.182V145.656C336.299 146.312 335.701 146.816 334.91 146.816ZM334.348 148.1C335.186 148.1 335.889 147.748 336.223 147.156H336.328V148H337.98V143.588C337.98 142.205 337.014 141.396 335.303 141.396C333.68 141.396 332.584 142.146 332.473 143.342H334.043C334.184 142.955 334.594 142.744 335.209 142.744C335.912 142.744 336.299 143.049 336.299 143.588V144.115L334.734 144.209C333.129 144.303 332.232 144.982 332.232 146.154C332.232 147.338 333.105 148.1 334.348 148.1ZM339.656 148H341.361V144.273C341.361 143.424 341.848 142.867 342.639 142.867C343.447 142.867 343.828 143.336 343.828 144.227V148H345.533V143.822C345.533 142.275 344.76 141.396 343.324 141.396C342.369 141.396 341.713 141.848 341.414 142.574H341.309V141.537H339.656V148ZM349.523 146.816C348.932 146.816 348.516 146.523 348.516 146.043C348.516 145.58 348.873 145.316 349.605 145.264L350.912 145.182V145.656C350.912 146.312 350.314 146.816 349.523 146.816ZM348.961 148.1C349.799 148.1 350.502 147.748 350.836 147.156H350.941V148H352.594V143.588C352.594 142.205 351.627 141.396 349.916 141.396C348.293 141.396 347.197 142.146 347.086 143.342H348.656C348.797 142.955 349.207 142.744 349.822 142.744C350.525 142.744 350.912 143.049 350.912 143.588V144.115L349.348 144.209C347.742 144.303 346.846 144.982 346.846 146.154C346.846 147.338 347.719 148.1 348.961 148.1ZM357.141 146.559C356.215 146.559 355.688 145.85 355.688 144.707C355.688 143.576 356.221 142.861 357.141 142.861C358.061 142.861 358.617 143.576 358.617 144.713C358.617 145.85 358.066 146.559 357.141 146.559ZM357.117 150.449C359.068 150.449 360.305 149.494 360.305 147.977V141.537H358.652V142.574H358.547C358.201 141.865 357.457 141.432 356.584 141.432C354.943 141.432 353.936 142.709 353.936 144.713C353.936 146.658 354.938 147.906 356.549 147.906C357.457 147.906 358.137 147.543 358.494 146.863H358.6V148.059C358.6 148.785 358.066 149.207 357.152 149.207C356.414 149.207 355.934 148.955 355.846 148.557H354.158C354.264 149.693 355.4 150.449 357.117 150.449ZM364.811 142.703C365.607 142.703 366.123 143.236 366.158 144.092H363.404C363.463 143.254 364.02 142.703 364.811 142.703ZM366.193 146.16C366.012 146.588 365.549 146.828 364.875 146.828C363.984 146.828 363.422 146.23 363.398 145.27V145.182H367.834V144.66C367.834 142.609 366.709 141.396 364.805 141.396C362.883 141.396 361.699 142.697 361.699 144.801C361.699 146.898 362.859 148.141 364.828 148.141C366.41 148.141 367.529 147.373 367.781 146.16H366.193ZM369.234 148H370.939V144.42C370.939 143.512 371.578 142.961 372.51 142.961C372.785 142.961 373.184 143.014 373.318 143.066V141.514C373.172 141.461 372.885 141.432 372.65 141.432C371.83 141.432 371.162 141.924 370.992 142.568H370.887V141.537H369.234V148Z" fill="#3E4249"/>
<rect width="99" height="16" transform="translate(554 136)" fill="white"/>
<path d="M559.109 145.65C559.174 147.227 560.48 148.217 562.496 148.217C564.617 148.217 565.924 147.174 565.924 145.469C565.924 144.156 565.191 143.424 563.492 143.066L562.473 142.85C561.482 142.639 561.078 142.34 561.078 141.818C561.078 141.174 561.664 140.764 562.549 140.764C563.404 140.764 564.025 141.209 564.107 141.877H565.771C565.719 140.371 564.4 139.328 562.537 139.328C560.586 139.328 559.303 140.377 559.303 141.971C559.303 143.26 560.059 144.062 561.6 144.385L562.701 144.619C563.738 144.842 564.16 145.152 564.16 145.691C564.16 146.33 563.51 146.775 562.59 146.775C561.594 146.775 560.902 146.336 560.82 145.65H559.109ZM568.232 150.35C569.844 150.35 570.635 149.764 571.186 148.1L573.412 141.537H571.607L570.248 146.436H570.143L568.783 141.537H566.902L569.17 148.041L569.111 148.275C568.971 148.768 568.607 148.973 567.969 148.973C567.898 148.973 567.641 148.973 567.582 148.961V150.332C567.652 150.344 568.168 150.35 568.232 150.35ZM574.602 148H576.307V144.109C576.307 143.389 576.781 142.867 577.449 142.867C578.117 142.867 578.516 143.26 578.516 143.945V148H580.156V144.045C580.156 143.359 580.602 142.867 581.293 142.867C582.014 142.867 582.371 143.248 582.371 144.016V148H584.076V143.564C584.076 142.234 583.273 141.396 581.984 141.396C581.082 141.396 580.338 141.871 580.039 142.592H579.934C579.676 141.842 579.055 141.396 578.146 141.396C577.297 141.396 576.623 141.854 576.359 142.592H576.254V141.537H574.602V148ZM589.467 141.432C588.576 141.432 587.844 141.871 587.492 142.598H587.387V141.537H585.734V150.145H587.439V147.01H587.545C587.861 147.695 588.57 148.1 589.496 148.1C591.113 148.1 592.104 146.852 592.104 144.766C592.104 142.674 591.102 141.432 589.467 141.432ZM588.887 146.676C587.984 146.676 587.422 145.955 587.422 144.771C587.422 143.588 587.984 142.861 588.893 142.861C589.801 142.861 590.352 143.582 590.352 144.766C590.352 145.961 589.807 146.676 588.887 146.676ZM593.551 148H595.256V144.291C595.256 143.453 595.748 142.885 596.604 142.885C597.377 142.885 597.793 143.348 597.793 144.244V148H599.498V143.84C599.498 142.287 598.672 141.414 597.283 141.414C596.334 141.414 595.631 141.859 595.332 142.598H595.227V139.07H593.551V148ZM604.021 148.141C606.008 148.141 607.203 146.881 607.203 144.766C607.203 142.668 605.99 141.396 604.021 141.396C602.053 141.396 600.84 142.674 600.84 144.766C600.84 146.881 602.035 148.141 604.021 148.141ZM604.021 146.746C603.107 146.746 602.592 146.025 602.592 144.766C602.592 143.523 603.113 142.791 604.021 142.791C604.924 142.791 605.451 143.523 605.451 144.766C605.451 146.02 604.93 146.746 604.021 146.746ZM608.598 148H610.303V144.273C610.303 143.424 610.789 142.867 611.58 142.867C612.389 142.867 612.77 143.336 612.77 144.227V148H614.475V143.822C614.475 142.275 613.701 141.396 612.266 141.396C611.311 141.396 610.654 141.848 610.355 142.574H610.25V141.537H608.598V148ZM616.76 150.35C618.371 150.35 619.162 149.764 619.713 148.1L621.939 141.537H620.135L618.775 146.436H618.67L617.311 141.537H615.43L617.697 148.041L617.639 148.275C617.498 148.768 617.135 148.973 616.496 148.973C616.426 148.973 616.168 148.973 616.109 148.961V150.332C616.18 150.344 616.695 150.35 616.76 150.35ZM626.393 139.545V148H628.162V145.375H629.832C631.613 145.375 632.85 144.209 632.85 142.469C632.85 140.711 631.66 139.545 629.92 139.545H626.393ZM628.162 140.998H629.451C630.471 140.998 631.051 141.514 631.051 142.475C631.051 143.424 630.459 143.939 629.445 143.939H628.162V140.998ZM636.998 148.141C638.984 148.141 640.18 146.881 640.18 144.766C640.18 142.668 638.967 141.396 636.998 141.396C635.029 141.396 633.816 142.674 633.816 144.766C633.816 146.881 635.012 148.141 636.998 148.141ZM636.998 146.746C636.084 146.746 635.568 146.025 635.568 144.766C635.568 143.523 636.09 142.791 636.998 142.791C637.9 142.791 638.428 143.523 638.428 144.766C638.428 146.02 637.906 146.746 636.998 146.746ZM643.889 148.1C644.785 148.1 645.518 147.684 645.863 146.986H645.969V148H647.621V139.07H645.916V142.568H645.816C645.482 141.854 644.762 141.432 643.889 141.432C642.266 141.432 641.258 142.703 641.258 144.76C641.258 146.822 642.26 148.1 643.889 148.1ZM644.469 142.861C645.377 142.861 645.934 143.594 645.934 144.771C645.934 145.955 645.383 146.676 644.469 146.676C643.555 146.676 643.01 145.961 643.01 144.766C643.01 143.582 643.561 142.861 644.469 142.861Z" fill="#3E4249"/>
</svg>
