<svg width="744" height="480" viewBox="0 0 744 480" fill="none" xmlns="http://www.w3.org/2000/svg">
<rect width="744" height="480" fill="white"/>
<rect opacity="0.16" x="258" y="42" width="484" height="268" rx="30" stroke="#008EFF" stroke-width="4"/>
<path d="M487.25 177.5C487.25 177.914 487.586 178.25 488 178.25C488.414 178.25 488.75 177.914 488.75 177.5L487.25 177.5ZM488.53 153.97C488.237 153.677 487.763 153.677 487.47 153.97L482.697 158.743C482.404 159.036 482.404 159.51 482.697 159.803C482.99 160.096 483.464 160.096 483.757 159.803L488 155.561L492.243 159.803C492.536 160.096 493.01 160.096 493.303 159.803C493.596 159.51 493.596 159.036 493.303 158.743L488.53 153.97ZM488.75 177.5L488.75 154.5L487.25 154.5L487.25 177.5L488.75 177.5Z" fill="#008EFF"/>
<path d="M512.75 154.5C512.75 154.086 512.414 153.75 512 153.75C511.586 153.75 511.25 154.086 511.25 154.5L512.75 154.5ZM511.47 178.03C511.763 178.323 512.237 178.323 512.53 178.03L517.303 173.257C517.596 172.964 517.596 172.49 517.303 172.197C517.01 171.904 516.536 171.904 516.243 172.197L512 176.439L507.757 172.197C507.464 171.904 506.99 171.904 506.697 172.197C506.404 172.49 506.404 172.964 506.697 173.257L511.47 178.03ZM511.25 154.5L511.25 177.5L512.75 177.5L512.75 154.5L511.25 154.5Z" fill="#008EFF"/>
<path d="M93.25 288.5C93.25 288.086 93.5858 287.75 94 287.75C94.4142 287.75 94.75 288.086 94.75 288.5L93.25 288.5ZM152.53 328.03C152.237 328.323 151.763 328.323 151.47 328.03L146.697 323.257C146.404 322.964 146.404 322.49 146.697 322.197C146.99 321.904 147.464 321.904 147.757 322.197L152 326.439L156.243 322.197C156.536 321.904 157.01 321.904 157.303 322.197C157.596 322.49 157.596 322.964 157.303 323.257L152.53 328.03ZM152 308L152 307.25C152.414 307.25 152.75 307.586 152.75 308L152 308ZM94 308L94 308.75C93.5858 308.75 93.25 308.414 93.25 308L94 308ZM152.75 308L152.75 327.5L151.25 327.5L151.25 308L152.75 308ZM94.75 288.5L94.75 308L93.25 308L93.25 288.5L94.75 288.5ZM94 307.25L152 307.25L152 308.75L94 308.75L94 307.25Z" fill="#008EFF"/>
<path d="M151.25 408C151.25 407.586 151.586 407.25 152 407.25C152.414 407.25 152.75 407.586 152.75 408L151.25 408ZM208.53 447.47C208.823 447.763 208.823 448.237 208.53 448.53L203.757 453.303C203.464 453.596 202.99 453.596 202.697 453.303C202.404 453.01 202.404 452.536 202.697 452.243L206.939 448L202.697 443.757C202.404 443.464 202.404 442.99 202.697 442.697C202.99 442.404 203.464 442.404 203.757 442.697L208.53 447.47ZM152 448L152 448.75C151.586 448.75 151.25 448.414 151.25 448L152 448ZM152.75 408L152.75 448L151.25 448L151.25 408L152.75 408ZM152 447.25L208 447.25L208 448.75L152 448.75L152 447.25Z" fill="#008EFF"/>
<path d="M129.5 208.25C129.086 208.25 128.75 208.586 128.75 209C128.75 209.414 129.086 209.75 129.5 209.75V208.25ZM456.03 209.53C456.323 209.237 456.323 208.763 456.03 208.47L451.257 203.697C450.964 203.404 450.49 203.404 450.197 203.697C449.904 203.99 449.904 204.464 450.197 204.757L454.439 209L450.197 213.243C449.904 213.536 449.904 214.01 450.197 214.303C450.49 214.596 450.964 214.596 451.257 214.303L456.03 209.53ZM129.5 209.75L455.5 209.75V208.25L129.5 208.25V209.75Z" fill="#008EFF"/>
<path d="M455.5 241.75C455.914 241.75 456.25 241.414 456.25 241C456.25 240.586 455.914 240.25 455.5 240.25L455.5 241.75ZM128.97 240.47C128.677 240.763 128.677 241.237 128.97 241.53L133.743 246.303C134.036 246.596 134.51 246.596 134.803 246.303C135.096 246.01 135.096 245.536 134.803 245.243L130.561 241L134.803 236.757C135.096 236.464 135.096 235.99 134.803 235.697C134.51 235.404 134.036 235.404 133.743 235.697L128.97 240.47ZM455.5 240.25L129.5 240.25L129.5 241.75L455.5 241.75L455.5 240.25Z" fill="#008EFF"/>
<path d="M129.5 224.25C129.086 224.25 128.75 224.586 128.75 225C128.75 225.414 129.086 225.75 129.5 225.75V224.25ZM456.03 225.53C456.323 225.237 456.323 224.763 456.03 224.47L451.257 219.697C450.964 219.404 450.49 219.404 450.197 219.697C449.904 219.99 449.904 220.464 450.197 220.757L454.439 225L450.197 229.243C449.904 229.536 449.904 230.01 450.197 230.303C450.49 230.596 450.964 230.596 451.257 230.303L456.03 225.53ZM129.5 225.75L455.5 225.75V224.25L129.5 224.25V225.75Z" fill="#008EFF"/>
<path d="M468 225C468 207.327 482.327 193 500 193C517.673 193 532 207.327 532 225C532 242.673 517.673 257 500 257C482.327 257 468 242.673 468 225Z" fill="white"/>
<path d="M487 211.828C487 211.298 487.227 210.803 487.709 210.583C488.997 209.997 492.381 209 500.5 209C508.619 209 512.003 209.997 513.291 210.583C513.773 210.803 514 211.298 514 211.828V213.93C514 214.598 513.657 215.21 513.031 215.446C511.466 216.036 507.791 217 500.5 217C493.209 217 489.534 216.036 487.969 215.446C487.343 215.21 487 214.598 487 213.93V211.828Z" fill="white"/>
<path d="M487 220.828C487 220.298 487.227 219.803 487.709 219.583C488.997 218.997 492.381 218 500.5 218C508.619 218 512.003 218.997 513.291 219.583C513.773 219.803 514 220.298 514 220.828V222.93C514 223.598 513.657 224.21 513.031 224.446C511.466 225.036 507.791 226 500.5 226C493.209 226 489.534 225.036 487.969 224.446C487.343 224.21 487 223.598 487 222.93V220.828Z" fill="white"/>
<path d="M487 229.828C487 229.298 487.227 228.803 487.709 228.583C488.997 227.997 492.381 227 500.5 227C508.619 227 512.003 227.997 513.291 228.583C513.773 228.803 514 229.298 514 229.828V231.93C514 232.598 513.657 233.21 513.031 233.446C511.466 234.036 507.791 235 500.5 235C493.209 235 489.534 234.036 487.969 233.446C487.343 233.21 487 232.598 487 231.93V229.828Z" fill="white"/>
<path fill-rule="evenodd" clip-rule="evenodd" d="M487.709 210.583C487.227 210.803 487 211.298 487 211.828V213.93C487 214.598 487.343 215.21 487.969 215.446C489.534 216.036 493.209 217 500.5 217C507.791 217 511.466 216.036 513.031 215.446C513.657 215.21 514 214.598 514 213.93V211.828C514 211.298 513.773 210.803 513.291 210.583C512.003 209.997 508.619 209 500.5 209C492.381 209 488.997 209.997 487.709 210.583ZM489 212.219V213.691C490.489 214.193 493.911 215 500.5 215C507.089 215 510.511 214.193 512 213.691V212.219C510.688 211.752 507.475 211 500.5 211C493.525 211 490.312 211.752 489 212.219Z" fill="#000028"/>
<path fill-rule="evenodd" clip-rule="evenodd" d="M487.709 219.583C487.227 219.803 487 220.298 487 220.828V222.93C487 223.598 487.343 224.21 487.969 224.446C489.534 225.036 493.209 226 500.5 226C507.791 226 511.466 225.036 513.031 224.446C513.657 224.21 514 223.598 514 222.93V220.828C514 220.298 513.773 219.803 513.291 219.583C512.003 218.997 508.619 218 500.5 218C492.381 218 488.997 218.997 487.709 219.583ZM489 221.219V222.691C490.489 223.193 493.911 224 500.5 224C507.089 224 510.511 223.193 512 222.691V221.219C510.688 220.752 507.475 220 500.5 220C493.525 220 490.312 220.752 489 221.219Z" fill="#000028"/>
<path fill-rule="evenodd" clip-rule="evenodd" d="M513.031 233.446C511.577 233.994 508.303 234.865 502 234.986V239H508C508.552 239 509 239.448 509 240C509 240.552 508.552 241 508 241H494C493.448 241 493 240.552 493 240C493 239.448 493.448 239 494 239H500V234.998C493.04 234.956 489.498 234.022 487.969 233.446C487.343 233.21 487 232.598 487 231.93V229.828C487 229.298 487.227 228.803 487.709 228.583C488.997 227.997 492.381 227 500.5 227C508.619 227 512.003 227.997 513.291 228.583C513.773 228.803 514 229.298 514 229.828V231.93C514 232.598 513.657 233.21 513.031 233.446ZM489 231.691V230.219C490.312 229.752 493.525 229 500.5 229C507.475 229 510.688 229.752 512 230.219V231.691C510.511 232.193 507.089 233 500.5 233C493.911 233 490.489 232.193 489 231.691Z" fill="#000028"/>
<path d="M500 255C483.431 255 470 241.569 470 225H466C466 243.778 481.222 259 500 259V255ZM530 225C530 241.569 516.569 255 500 255V259C518.778 259 534 243.778 534 225H530ZM500 195C516.569 195 530 208.431 530 225H534C534 206.222 518.778 191 500 191V195ZM500 191C481.222 191 466 206.222 466 225H470C470 208.431 483.431 195 500 195V191Z" fill="#EAEBEC"/>
<path d="M52 224C52 206.327 66.3269 192 84 192C101.673 192 116 206.327 116 224C116 241.673 101.673 256 84 256C66.3269 256 52 241.673 52 224Z" fill="white"/>
<path d="M70 226C70 220.477 74.4772 216 80 216H88C93.5228 216 98 220.477 98 226V234.93C98 235.598 97.6566 236.209 97.0295 236.441C95.4394 237.03 91.6587 238 84 238C76.3413 238 72.5606 237.03 70.9705 236.441C70.3434 236.209 70 235.598 70 234.93V226Z" fill="white"/>
<path d="M79 225.5C79 224.672 79.6716 224 80.5 224C81.3284 224 82 224.672 82 225.5V227.5C82 228.328 81.3284 229 80.5 229C79.6716 229 79 228.328 79 227.5V225.5Z" fill="#000028"/>
<path d="M87.5 224C86.6716 224 86 224.672 86 225.5V227.5C86 228.328 86.6716 229 87.5 229C88.3284 229 89 228.328 89 227.5V225.5C89 224.672 88.3284 224 87.5 224Z" fill="#000028"/>
<path fill-rule="evenodd" clip-rule="evenodd" d="M85 212.829C86.1652 212.417 87 211.306 87 210C87 208.343 85.6569 207 84 207C82.3431 207 81 208.343 81 210C81 211.306 81.8348 212.417 83 212.829V216H80C74.4772 216 70 220.477 70 226V234.93C70 235.598 70.3434 236.209 70.9705 236.441C72.5606 237.03 76.3413 238 84 238C91.6587 238 95.4394 237.03 97.0295 236.441C97.6566 236.209 98 235.598 98 234.93V226C98 220.477 93.5228 216 88 216H85V212.829ZM80 218C75.5817 218 72 221.582 72 226V234.683C73.5244 235.187 77.0644 236 84 236C90.9356 236 94.4756 235.187 96 234.683V226C96 221.582 92.4183 218 88 218H80Z" fill="#000028"/>
<path d="M84 254C67.4315 254 54 240.569 54 224H50C50 242.778 65.2223 258 84 258V254ZM114 224C114 240.569 100.569 254 84 254V258C102.778 258 118 242.778 118 224H114ZM84 194C100.569 194 114 207.431 114 224H118C118 205.222 102.778 190 84 190V194ZM84 190C65.2223 190 50 205.222 50 224H54C54 207.431 67.4315 194 84 194V190Z" fill="#EAEBEC"/>
<path d="M468 88C468 70.3269 482.327 56 500 56C517.673 56 532 70.3269 532 88C532 105.673 517.673 120 500 120C482.327 120 468 105.673 468 88Z" fill="white"/>
<path fill-rule="evenodd" clip-rule="evenodd" d="M500 75C505.318 75 509.828 78.3727 511.402 83.0439C514.168 84.7784 516 87.8056 516 91.25C516 96.4164 511.879 100.644 506.667 100.979L492 100.975C487.525 100.643 484 96.9981 484 92.55C484 89.5273 485.628 86.8753 488.075 85.3819C488.747 79.5407 493.83 75 500 75Z" fill="white"/>
<path d="M496.875 91.6057C496.875 91.9386 497.052 92.2464 497.34 92.4142L500.156 94.0542L502.972 92.4142C503.26 92.2464 503.438 91.9386 503.438 91.6057L503.438 89.9107L495 87.5707V83.3729C495 82.7581 495.317 82.0925 495.996 81.7872C496.721 81.4609 498.11 81 500.156 81C502.202 81 503.591 81.4609 504.317 81.7872C504.995 82.0925 505.313 82.7581 505.313 83.3729V85.7319L503.438 85.2119V83.4466C502.887 83.2155 501.795 82.872 500.156 82.872C498.517 82.872 497.425 83.2155 496.875 83.4466V86.1479L505.312 88.5V91.6057C505.312 92.6044 504.781 93.5279 503.917 94.0311L500.865 95.8088C500.427 96.0638 499.886 96.0637 499.448 95.8088L496.395 94.0311C495.531 93.5279 495 92.6044 495 91.6057V89.8918L496.875 90.375V91.6057Z" fill="#000028"/>
<path fill-rule="evenodd" clip-rule="evenodd" d="M492 100.975L506.667 100.979C511.879 100.644 516 96.4164 516 91.25C516 87.8056 514.168 84.7784 511.402 83.0439C509.828 78.3727 505.318 75 500 75C493.83 75 488.747 79.5407 488.075 85.3819C485.628 86.8753 484 89.5273 484 92.55C484 96.9981 487.525 100.643 492 100.975ZM509.507 83.6828L509.735 84.3591L510.34 84.7383C512.56 86.1307 514 88.5377 514 91.25C514 95.2921 510.78 98.6798 506.599 98.9787L492.079 98.9754C488.631 98.6853 486 95.8786 486 92.55C486 90.2689 487.226 88.2431 489.117 87.0892L489.951 86.5805L490.062 85.6104C490.615 80.8068 494.817 77 500 77C504.461 77 508.207 79.8265 509.507 83.6828Z" fill="#000028"/>
<path d="M500 118C483.431 118 470 104.569 470 88H466C466 106.778 481.222 122 500 122V118ZM530 88C530 104.569 516.569 118 500 118V122C518.778 122 534 106.778 534 88H530ZM500 58C516.569 58 530 71.4315 530 88H534C534 69.2223 518.778 54 500 54V58ZM500 54C481.222 54 466 69.2223 466 88H470C470 71.4315 483.431 58 500 58V54Z" fill="#EAEBEC"/>
<g filter="url(#filter0_d)">
<path d="M544 88C544 82.4772 548.477 78 554 78H566C571.523 78 576 82.4772 576 88C576 93.5228 571.523 98 566 98H554C548.477 98 544 93.5228 544 88Z" fill="#FBE19D"/>
<path d="M558.881 88.3145H559.953C560.902 88.3145 561.488 88.7773 561.488 89.5273C561.488 90.2598 560.861 90.7461 559.965 90.7461C559.057 90.7461 558.447 90.2891 558.395 89.5742H556.701C556.777 91.1738 558.078 92.2168 559.988 92.2168C561.898 92.2168 563.293 91.168 563.293 89.6855C563.293 88.5547 562.578 87.8047 561.4 87.6348V87.5234C562.309 87.3008 562.953 86.627 562.959 85.6016C562.965 84.3652 561.922 83.3281 560.047 83.3281C558.143 83.3281 556.941 84.377 556.883 85.9355H558.518C558.576 85.1797 559.104 84.7402 559.959 84.7402C560.785 84.7402 561.283 85.2207 561.283 85.8535C561.283 86.5449 560.738 87.0195 559.936 87.0195H558.881V88.3145Z" fill="#3E4249"/>
</g>
<g filter="url(#filter1_d)">
<path d="M528 165C528 159.477 532.477 155 538 155H550C555.523 155 560 159.477 560 165C560 170.523 555.523 175 550 175H538C532.477 175 528 170.523 528 165Z" fill="#FBE19D"/>
<path d="M544.674 169H546.361V167.471H547.469V166H546.361V160.545H543.883C542.752 162.279 541.604 164.137 540.537 166.035V167.471H544.674V169ZM542.125 165.959C542.893 164.611 543.795 163.17 544.621 161.922H544.715V166.059H542.125V165.959Z" fill="#3E4249"/>
</g>
<g filter="url(#filter2_d)">
<path d="M440 165C440 159.477 444.477 155 450 155H462C467.523 155 472 159.477 472 165C472 170.523 467.523 175 462 175H450C444.477 175 440 170.523 440 165Z" fill="#FBE19D"/>
<path d="M452.895 163.129H454.535C454.535 162.32 455.074 161.752 455.936 161.752C456.762 161.752 457.242 162.285 457.242 162.959C457.242 163.527 457.014 163.914 455.959 164.928L452.994 167.764V169H459.094V167.529H455.379V167.424L457.137 165.783C458.543 164.465 458.977 163.785 458.977 162.795C458.977 161.365 457.828 160.328 456.035 160.328C454.184 160.328 452.895 161.471 452.895 163.129Z" fill="#3E4249"/>
</g>
<g filter="url(#filter3_d)">
<path d="M382 207C382 201.477 386.477 197 392 197H404C409.523 197 414 201.477 414 207C414 212.523 409.523 217 404 217H392C386.477 217 382 212.523 382 207Z" fill="#FBE19D"/>
<path d="M397.818 211H399.588V202.545H397.824L395.639 204.051V205.697L397.713 204.268H397.818V211Z" fill="#3E4249"/>
</g>
<g filter="url(#filter4_d)">
<path d="M164 305C164 299.477 168.477 295 174 295H186C191.523 295 196 299.477 196 305C196 310.523 191.523 315 186 315H174C168.477 315 164 310.523 164 305Z" fill="#FBE19D"/>
<path d="M177.598 309H179.449L182.982 302.016V300.539H176.936V301.998H181.201V302.098L177.598 309Z" fill="#3E4249"/>
</g>
<g filter="url(#filter5_d)">
<path d="M196 225C196 219.477 200.477 215 206 215H218C223.523 215 228 219.477 228 225C228 230.523 223.523 235 218 235H206C200.477 235 196 230.523 196 225Z" fill="#FBE19D"/>
<path d="M212.088 229.217C213.992 229.217 215.264 227.998 215.264 226.205C215.264 224.488 214.098 223.422 212.639 223.422C211.76 223.422 211.139 223.738 210.787 224.271H210.682L210.898 221.998H214.807V220.545H209.527L209.076 225.52H210.658C210.922 225.021 211.438 224.711 212.105 224.711C212.967 224.711 213.576 225.314 213.576 226.223C213.576 227.154 212.961 227.77 212.07 227.77C211.285 227.77 210.682 227.307 210.588 226.592H208.953C209.006 228.104 210.254 229.217 212.088 229.217Z" fill="#3E4249"/>
</g>
<g filter="url(#filter6_d)">
<path d="M304 241C304 235.477 308.477 231 314 231H326C331.523 231 336 235.477 336 241C336 246.523 331.523 251 326 251H314C308.477 251 304 246.523 304 241Z" fill="#FBE19D"/>
<path d="M320.123 245.217C322.016 245.217 323.357 243.969 323.357 242.211C323.357 240.6 322.18 239.416 320.574 239.416C319.59 239.416 318.805 239.861 318.418 240.652H318.312C318.312 238.824 318.992 237.781 320.164 237.781C320.85 237.781 321.359 238.133 321.494 238.707H323.246C323.041 237.295 321.805 236.328 320.141 236.328C317.979 236.328 316.625 238.027 316.625 240.834C316.625 243.77 318.096 245.217 320.123 245.217ZM320.105 243.764C319.227 243.764 318.576 243.096 318.576 242.229C318.576 241.379 319.203 240.746 320.111 240.746C321.02 240.746 321.641 241.373 321.641 242.252C321.641 243.107 320.984 243.764 320.105 243.764Z" fill="#3E4249"/>
</g>
<path fill-rule="evenodd" clip-rule="evenodd" d="M224.355 433.761C224.444 433.584 224.586 433.444 224.765 433.36C225.561 432.988 228.305 432 235 432C241.695 432 244.439 432.988 245.235 433.36C245.414 433.444 245.556 433.584 245.645 433.761C246.022 434.505 247 436.905 247 441.749C247 446.594 246.022 448.993 245.645 449.738C245.556 449.915 245.414 450.055 245.235 450.139C244.739 450.371 243.489 450.841 241 451.163L241 455.249C241 455.892 240.244 456.237 239.758 455.815L234.705 451.498C228.224 451.47 225.55 450.506 224.765 450.139C224.586 450.055 224.444 449.915 224.355 449.738C223.978 448.993 223 446.594 223 441.749C223 436.905 223.978 434.505 224.355 433.761Z" fill="white"/>
<path d="M240.25 455.249L240.245 455.244L235.193 450.928L234.984 450.749L234.709 450.748C228.293 450.72 225.736 449.765 225.083 449.459L224.77 450.127L225.083 449.459C225.06 449.449 225.04 449.431 225.024 449.399C224.706 448.772 223.75 446.49 223.75 441.749C223.75 437.009 224.706 434.727 225.024 434.099C225.04 434.067 225.06 434.05 225.083 434.04C225.746 433.729 228.371 432.75 235 432.75C241.629 432.75 244.254 433.729 244.917 434.04C244.94 434.05 244.96 434.067 244.976 434.099C245.294 434.727 246.25 437.009 246.25 441.749C246.25 446.49 245.294 448.772 244.976 449.399C244.96 449.431 244.94 449.449 244.917 449.459L245.235 450.139L244.917 449.459C244.506 449.651 243.334 450.105 240.904 450.419L240.25 450.504V451.163L240.25 455.249ZM240.25 455.249L240.25 455.249L240.25 455.249L240.25 455.249Z" stroke="#000028" stroke-width="1.5"/>
<path d="M229.75 441.75L233.5 445.5L240.25 438" stroke="#000028" stroke-width="1.5" stroke-linecap="round" stroke-linejoin="round"/>
<path fill-rule="evenodd" clip-rule="evenodd" d="M309.355 258.761C309.444 258.584 309.586 258.444 309.765 258.36C310.561 257.988 313.305 257 320 257C326.695 257 329.439 257.988 330.235 258.36C330.414 258.444 330.556 258.584 330.645 258.761C331.022 259.505 332 261.905 332 266.749C332 271.594 331.022 273.993 330.645 274.738C330.556 274.915 330.414 275.055 330.235 275.139C329.739 275.371 328.489 275.841 326 276.163L326 280.249C326 280.892 325.244 281.237 324.758 280.815L319.705 276.498C313.224 276.47 310.55 275.506 309.765 275.139C309.586 275.055 309.444 274.915 309.355 274.738C308.978 273.993 308 271.594 308 266.749C308 261.905 308.978 259.505 309.355 258.761Z" fill="white"/>
<path d="M325.25 280.249L325.245 280.244L320.193 275.928L319.984 275.749L319.709 275.748C313.293 275.72 310.736 274.765 310.083 274.459L309.77 275.127L310.083 274.459C310.06 274.449 310.04 274.431 310.024 274.399C309.706 273.772 308.75 271.49 308.75 266.749C308.75 262.009 309.706 259.727 310.024 259.099C310.04 259.067 310.06 259.05 310.083 259.04C310.746 258.729 313.371 257.75 320 257.75C326.629 257.75 329.254 258.729 329.917 259.04C329.94 259.05 329.96 259.067 329.976 259.099C330.294 259.727 331.25 262.009 331.25 266.749C331.25 271.49 330.294 273.772 329.976 274.399C329.96 274.431 329.94 274.449 329.917 274.459L330.235 275.139L329.917 274.459C329.506 274.651 328.334 275.105 325.904 275.419L325.25 275.504V276.163L325.25 280.249ZM325.25 280.249L325.25 280.249L325.25 280.249L325.25 280.249Z" stroke="#000028" stroke-width="1.5"/>
<path d="M314.75 266.75L318.5 270.5L325.25 263" stroke="#000028" stroke-width="1.5" stroke-linecap="round" stroke-linejoin="round"/>
<path d="M70.3755 334.521C68.7841 334.933 68 336.373 68 337.677V341.823C68 343.127 68.7841 344.567 70.3755 344.979C71.3659 345.236 72.9461 345.5 75.25 345.5C77.5539 345.5 79.1341 345.236 80.1245 344.979C80.7998 344.804 81.3298 344.444 81.7161 343.988C81.5718 344.375 81.5 344.782 81.5 345.177V349.323C81.5 350.185 81.8423 351.105 82.5336 351.75C81.8423 352.395 81.5 353.315 81.5 354.177V358.323C81.5 359.627 82.2841 361.067 83.8755 361.479C84.8659 361.736 86.4461 362 88.75 362C91.0539 362 92.6341 361.736 93.6245 361.479C95.2159 361.067 96 359.627 96 358.323V354.177C96 353.315 95.6577 352.395 94.9664 351.75C95.6577 351.105 96 350.185 96 349.323V345.177C96 343.873 95.2159 342.433 93.6245 342.021C92.6341 341.764 91.0539 341.5 88.75 341.5C86.4461 341.5 84.8659 341.764 83.8755 342.021C83.2002 342.196 82.6702 342.556 82.2839 343.012C82.4282 342.625 82.5 342.218 82.5 341.823V337.677C82.5 336.373 81.7159 334.933 80.1245 334.521C79.1341 334.264 77.5539 334 75.25 334C72.9461 334 71.3659 334.264 70.3755 334.521Z" fill="white" stroke="white" stroke-width="4"/>
<path fill-rule="evenodd" clip-rule="evenodd" d="M70 337.677C70 337.109 70.3271 336.599 70.8771 336.457C71.6892 336.247 73.0997 336 75.25 336C77.4003 336 78.8108 336.247 79.6229 336.457C80.1729 336.599 80.5 337.109 80.5 337.677V341.823C80.5 342.391 80.1729 342.901 79.6229 343.043C78.9093 343.228 77.7337 343.441 76 343.49V346.5H83.5V345.177C83.5 344.609 83.8271 344.099 84.3771 343.957C85.1892 343.747 86.5997 343.5 88.75 343.5C90.9003 343.5 92.3108 343.747 93.1229 343.957C93.6729 344.099 94 344.609 94 345.177V349.323C94 349.891 93.6729 350.401 93.1229 350.543C92.3108 350.753 90.9003 351 88.75 351C86.5997 351 85.1892 350.753 84.3771 350.543C83.8271 350.401 83.5 349.891 83.5 349.323V348H76V355.5H83.5V354.177C83.5 353.609 83.8271 353.099 84.3771 352.957C85.1892 352.747 86.5997 352.5 88.75 352.5C90.9003 352.5 92.3108 352.747 93.1229 352.957C93.6729 353.099 94 353.609 94 354.177V358.323C94 358.891 93.6729 359.401 93.1229 359.543C92.3108 359.753 90.9003 360 88.75 360C86.5997 360 85.1892 359.753 84.3771 359.543C83.8271 359.401 83.5 358.891 83.5 358.323V357H75.25C74.8358 357 74.5 356.664 74.5 356.25V343.49C72.7663 343.441 71.5907 343.228 70.8771 343.043C70.3271 342.901 70 342.391 70 341.823V337.677ZM79 337.849C78.2762 337.685 77.0607 337.5 75.25 337.5C73.4393 337.5 72.2238 337.685 71.5 337.849V341.651C72.2238 341.815 73.4393 342 75.25 342C77.0607 342 78.2762 341.815 79 341.651V337.849ZM92.5 345.349C91.7762 345.185 90.5607 345 88.75 345C86.9393 345 85.7238 345.185 85 345.349V349.151C85.7238 349.315 86.9393 349.5 88.75 349.5C90.5607 349.5 91.7762 349.315 92.5 349.151V345.349ZM92.5 354.349C91.7762 354.185 90.5607 354 88.75 354C86.9393 354 85.7238 354.185 85 354.349V358.151C85.7238 358.315 86.9393 358.5 88.75 358.5C90.5607 358.5 91.7762 358.315 92.5 358.151V354.349Z" fill="#000028"/>
<path d="M143.376 334.521C141.784 334.933 141 336.373 141 337.677V341.823C141 343.127 141.784 344.567 143.376 344.979C144.366 345.236 145.946 345.5 148.25 345.5C150.554 345.5 152.134 345.236 153.124 344.979C153.8 344.804 154.33 344.444 154.716 343.988C154.572 344.375 154.5 344.782 154.5 345.177V349.323C154.5 350.185 154.842 351.105 155.534 351.75C154.842 352.395 154.5 353.315 154.5 354.177V358.323C154.5 359.627 155.284 361.067 156.876 361.479C157.866 361.736 159.446 362 161.75 362C164.054 362 165.634 361.736 166.624 361.479C168.216 361.067 169 359.627 169 358.323V354.177C169 353.315 168.658 352.395 167.966 351.75C168.658 351.105 169 350.185 169 349.323V345.177C169 343.873 168.216 342.433 166.624 342.021C165.634 341.764 164.054 341.5 161.75 341.5C159.446 341.5 157.866 341.764 156.876 342.021C156.2 342.196 155.67 342.556 155.284 343.012C155.428 342.625 155.5 342.218 155.5 341.823V337.677C155.5 336.373 154.716 334.933 153.124 334.521C152.134 334.264 150.554 334 148.25 334C145.946 334 144.366 334.264 143.376 334.521Z" fill="white" stroke="white" stroke-width="4"/>
<path fill-rule="evenodd" clip-rule="evenodd" d="M143 337.677C143 337.109 143.327 336.599 143.877 336.457C144.689 336.247 146.1 336 148.25 336C150.4 336 151.811 336.247 152.623 336.457C153.173 336.599 153.5 337.109 153.5 337.677V341.823C153.5 342.391 153.173 342.901 152.623 343.043C151.909 343.228 150.734 343.441 149 343.49V346.5H156.5V345.177C156.5 344.609 156.827 344.099 157.377 343.957C158.189 343.747 159.6 343.5 161.75 343.5C163.9 343.5 165.311 343.747 166.123 343.957C166.673 344.099 167 344.609 167 345.177V349.323C167 349.891 166.673 350.401 166.123 350.543C165.311 350.753 163.9 351 161.75 351C159.6 351 158.189 350.753 157.377 350.543C156.827 350.401 156.5 349.891 156.5 349.323V348H149V355.5H156.5V354.177C156.5 353.609 156.827 353.099 157.377 352.957C158.189 352.747 159.6 352.5 161.75 352.5C163.9 352.5 165.311 352.747 166.123 352.957C166.673 353.099 167 353.609 167 354.177V358.323C167 358.891 166.673 359.401 166.123 359.543C165.311 359.753 163.9 360 161.75 360C159.6 360 158.189 359.753 157.377 359.543C156.827 359.401 156.5 358.891 156.5 358.323V357H148.25C147.836 357 147.5 356.664 147.5 356.25V343.49C145.766 343.441 144.591 343.228 143.877 343.043C143.327 342.901 143 342.391 143 341.823V337.677ZM152 337.849C151.276 337.685 150.061 337.5 148.25 337.5C146.439 337.5 145.224 337.685 144.5 337.849V341.651C145.224 341.815 146.439 342 148.25 342C150.061 342 151.276 341.815 152 341.651V337.849ZM165.5 345.349C164.776 345.185 163.561 345 161.75 345C159.939 345 158.724 345.185 158 345.349V349.151C158.724 349.315 159.939 349.5 161.75 349.5C163.561 349.5 164.776 349.315 165.5 349.151V345.349ZM165.5 354.349C164.776 354.185 163.561 354 161.75 354C159.939 354 158.724 354.185 158 354.349V358.151C158.724 358.315 159.939 358.5 161.75 358.5C163.561 358.5 164.776 358.315 165.5 358.151V354.349Z" fill="#000028"/>
<path d="M225.376 334.521C223.784 334.933 223 336.373 223 337.677V341.823C223 343.127 223.784 344.567 225.376 344.979C226.366 345.236 227.946 345.5 230.25 345.5C232.554 345.5 234.134 345.236 235.124 344.979C235.8 344.804 236.33 344.444 236.716 343.988C236.572 344.375 236.5 344.782 236.5 345.177V349.323C236.5 350.185 236.842 351.105 237.534 351.75C236.842 352.395 236.5 353.315 236.5 354.177V358.323C236.5 359.627 237.284 361.067 238.876 361.479C239.866 361.736 241.446 362 243.75 362C246.054 362 247.634 361.736 248.624 361.479C250.216 361.067 251 359.627 251 358.323V354.177C251 353.315 250.658 352.395 249.966 351.75C250.658 351.105 251 350.185 251 349.323V345.177C251 343.873 250.216 342.433 248.624 342.021C247.634 341.764 246.054 341.5 243.75 341.5C241.446 341.5 239.866 341.764 238.876 342.021C238.2 342.196 237.67 342.556 237.284 343.012C237.428 342.625 237.5 342.218 237.5 341.823V337.677C237.5 336.373 236.716 334.933 235.124 334.521C234.134 334.264 232.554 334 230.25 334C227.946 334 226.366 334.264 225.376 334.521Z" fill="white" stroke="white" stroke-width="4"/>
<path fill-rule="evenodd" clip-rule="evenodd" d="M225 337.677C225 337.109 225.327 336.599 225.877 336.457C226.689 336.247 228.1 336 230.25 336C232.4 336 233.811 336.247 234.623 336.457C235.173 336.599 235.5 337.109 235.5 337.677V341.823C235.5 342.391 235.173 342.901 234.623 343.043C233.909 343.228 232.734 343.441 231 343.49V346.5H238.5V345.177C238.5 344.609 238.827 344.099 239.377 343.957C240.189 343.747 241.6 343.5 243.75 343.5C245.9 343.5 247.311 343.747 248.123 343.957C248.673 344.099 249 344.609 249 345.177V349.323C249 349.891 248.673 350.401 248.123 350.543C247.311 350.753 245.9 351 243.75 351C241.6 351 240.189 350.753 239.377 350.543C238.827 350.401 238.5 349.891 238.5 349.323V348H231V355.5H238.5V354.177C238.5 353.609 238.827 353.099 239.377 352.957C240.189 352.747 241.6 352.5 243.75 352.5C245.9 352.5 247.311 352.747 248.123 352.957C248.673 353.099 249 353.609 249 354.177V358.323C249 358.891 248.673 359.401 248.123 359.543C247.311 359.753 245.9 360 243.75 360C241.6 360 240.189 359.753 239.377 359.543C238.827 359.401 238.5 358.891 238.5 358.323V357H230.25C229.836 357 229.5 356.664 229.5 356.25V343.49C227.766 343.441 226.591 343.228 225.877 343.043C225.327 342.901 225 342.391 225 341.823V337.677ZM234 337.849C233.276 337.685 232.061 337.5 230.25 337.5C228.439 337.5 227.224 337.685 226.5 337.849V341.651C227.224 341.815 228.439 342 230.25 342C232.061 342 233.276 341.815 234 341.651V337.849ZM247.5 345.349C246.776 345.185 245.561 345 243.75 345C241.939 345 240.724 345.185 240 345.349V349.151C240.724 349.315 241.939 349.5 243.75 349.5C245.561 349.5 246.776 349.315 247.5 349.151V345.349ZM247.5 354.349C246.776 354.185 245.561 354 243.75 354C241.939 354 240.724 354.185 240 354.349V358.151C240.724 358.315 241.939 358.5 243.75 358.5C245.561 358.5 246.776 358.315 247.5 358.151V354.349Z" fill="#000028"/>
<path d="M308.376 334.521C306.784 334.933 306 336.373 306 337.677V341.823C306 343.127 306.784 344.567 308.376 344.979C309.366 345.236 310.946 345.5 313.25 345.5C315.554 345.5 317.134 345.236 318.124 344.979C318.8 344.804 319.33 344.444 319.716 343.988C319.572 344.375 319.5 344.782 319.5 345.177V349.323C319.5 350.185 319.842 351.105 320.534 351.75C319.842 352.395 319.5 353.315 319.5 354.177V358.323C319.5 359.627 320.284 361.067 321.876 361.479C322.866 361.736 324.446 362 326.75 362C329.054 362 330.634 361.736 331.624 361.479C333.216 361.067 334 359.627 334 358.323V354.177C334 353.315 333.658 352.395 332.966 351.75C333.658 351.105 334 350.185 334 349.323V345.177C334 343.873 333.216 342.433 331.624 342.021C330.634 341.764 329.054 341.5 326.75 341.5C324.446 341.5 322.866 341.764 321.876 342.021C321.2 342.196 320.67 342.556 320.284 343.012C320.428 342.625 320.5 342.218 320.5 341.823V337.677C320.5 336.373 319.716 334.933 318.124 334.521C317.134 334.264 315.554 334 313.25 334C310.946 334 309.366 334.264 308.376 334.521Z" fill="white" stroke="white" stroke-width="4"/>
<path fill-rule="evenodd" clip-rule="evenodd" d="M308 337.677C308 337.109 308.327 336.599 308.877 336.457C309.689 336.247 311.1 336 313.25 336C315.4 336 316.811 336.247 317.623 336.457C318.173 336.599 318.5 337.109 318.5 337.677V341.823C318.5 342.391 318.173 342.901 317.623 343.043C316.909 343.228 315.734 343.441 314 343.49V346.5H321.5V345.177C321.5 344.609 321.827 344.099 322.377 343.957C323.189 343.747 324.6 343.5 326.75 343.5C328.9 343.5 330.311 343.747 331.123 343.957C331.673 344.099 332 344.609 332 345.177V349.323C332 349.891 331.673 350.401 331.123 350.543C330.311 350.753 328.9 351 326.75 351C324.6 351 323.189 350.753 322.377 350.543C321.827 350.401 321.5 349.891 321.5 349.323V348H314V355.5H321.5V354.177C321.5 353.609 321.827 353.099 322.377 352.957C323.189 352.747 324.6 352.5 326.75 352.5C328.9 352.5 330.311 352.747 331.123 352.957C331.673 353.099 332 353.609 332 354.177V358.323C332 358.891 331.673 359.401 331.123 359.543C330.311 359.753 328.9 360 326.75 360C324.6 360 323.189 359.753 322.377 359.543C321.827 359.401 321.5 358.891 321.5 358.323V357H313.25C312.836 357 312.5 356.664 312.5 356.25V343.49C310.766 343.441 309.591 343.228 308.877 343.043C308.327 342.901 308 342.391 308 341.823V337.677ZM317 337.849C316.276 337.685 315.061 337.5 313.25 337.5C311.439 337.5 310.224 337.685 309.5 337.849V341.651C310.224 341.815 311.439 342 313.25 342C315.061 342 316.276 341.815 317 341.651V337.849ZM330.5 345.349C329.776 345.185 328.561 345 326.75 345C324.939 345 323.724 345.185 323 345.349V349.151C323.724 349.315 324.939 349.5 326.75 349.5C328.561 349.5 329.776 349.315 330.5 349.151V345.349ZM330.5 354.349C329.776 354.185 328.561 354 326.75 354C324.939 354 323.724 354.185 323 354.349V358.151C323.724 358.315 324.939 358.5 326.75 358.5C328.561 358.5 329.776 358.315 330.5 358.151V354.349Z" fill="#000028"/>
<path d="M393.376 334.521C391.784 334.933 391 336.373 391 337.677V341.823C391 343.127 391.784 344.567 393.376 344.979C394.366 345.236 395.946 345.5 398.25 345.5C400.554 345.5 402.134 345.236 403.124 344.979C403.8 344.804 404.33 344.444 404.716 343.988C404.572 344.375 404.5 344.782 404.5 345.177V349.323C404.5 350.185 404.842 351.105 405.534 351.75C404.842 352.395 404.5 353.315 404.5 354.177V358.323C404.5 359.627 405.284 361.067 406.876 361.479C407.866 361.736 409.446 362 411.75 362C414.054 362 415.634 361.736 416.624 361.479C418.216 361.067 419 359.627 419 358.323V354.177C419 353.315 418.658 352.395 417.966 351.75C418.658 351.105 419 350.185 419 349.323V345.177C419 343.873 418.216 342.433 416.624 342.021C415.634 341.764 414.054 341.5 411.75 341.5C409.446 341.5 407.866 341.764 406.876 342.021C406.2 342.196 405.67 342.556 405.284 343.012C405.428 342.625 405.5 342.218 405.5 341.823V337.677C405.5 336.373 404.716 334.933 403.124 334.521C402.134 334.264 400.554 334 398.25 334C395.946 334 394.366 334.264 393.376 334.521Z" fill="white" stroke="white" stroke-width="4"/>
<path fill-rule="evenodd" clip-rule="evenodd" d="M393 337.677C393 337.109 393.327 336.599 393.877 336.457C394.689 336.247 396.1 336 398.25 336C400.4 336 401.811 336.247 402.623 336.457C403.173 336.599 403.5 337.109 403.5 337.677V341.823C403.5 342.391 403.173 342.901 402.623 343.043C401.909 343.228 400.734 343.441 399 343.49V346.5H406.5V345.177C406.5 344.609 406.827 344.099 407.377 343.957C408.189 343.747 409.6 343.5 411.75 343.5C413.9 343.5 415.311 343.747 416.123 343.957C416.673 344.099 417 344.609 417 345.177V349.323C417 349.891 416.673 350.401 416.123 350.543C415.311 350.753 413.9 351 411.75 351C409.6 351 408.189 350.753 407.377 350.543C406.827 350.401 406.5 349.891 406.5 349.323V348H399V355.5H406.5V354.177C406.5 353.609 406.827 353.099 407.377 352.957C408.189 352.747 409.6 352.5 411.75 352.5C413.9 352.5 415.311 352.747 416.123 352.957C416.673 353.099 417 353.609 417 354.177V358.323C417 358.891 416.673 359.401 416.123 359.543C415.311 359.753 413.9 360 411.75 360C409.6 360 408.189 359.753 407.377 359.543C406.827 359.401 406.5 358.891 406.5 358.323V357H398.25C397.836 357 397.5 356.664 397.5 356.25V343.49C395.766 343.441 394.591 343.228 393.877 343.043C393.327 342.901 393 342.391 393 341.823V337.677ZM402 337.849C401.276 337.685 400.061 337.5 398.25 337.5C396.439 337.5 395.224 337.685 394.5 337.849V341.651C395.224 341.815 396.439 342 398.25 342C400.061 342 401.276 341.815 402 341.651V337.849ZM415.5 345.349C414.776 345.185 413.561 345 411.75 345C409.939 345 408.724 345.185 408 345.349V349.151C408.724 349.315 409.939 349.5 411.75 349.5C413.561 349.5 414.776 349.315 415.5 349.151V345.349ZM415.5 354.349C414.776 354.185 413.561 354 411.75 354C409.939 354 408.724 354.185 408 354.349V358.151C408.724 358.315 409.939 358.5 411.75 358.5C413.561 358.5 414.776 358.315 415.5 358.151V354.349Z" fill="#000028"/>
<rect width="99" height="16" transform="translate(34 265)" fill="white"/>
<path d="M42.9004 277C44.7051 277 45.8242 276.062 45.8242 274.58C45.8242 273.49 45.0098 272.646 43.8906 272.564V272.459C44.7578 272.33 45.4199 271.551 45.4199 270.654C45.4199 269.348 44.4414 268.545 42.8008 268.545H39.1035V277H42.9004ZM40.873 269.898H42.3496C43.1934 269.898 43.6797 270.303 43.6797 270.977C43.6797 271.656 43.1582 272.049 42.2031 272.049H40.873V269.898ZM40.873 275.646V273.244H42.4082C43.4512 273.244 44.0195 273.654 44.0195 274.428C44.0195 275.219 43.4688 275.646 42.4492 275.646H40.873ZM50.1191 277.141C52.1055 277.141 53.3008 275.881 53.3008 273.766C53.3008 271.668 52.0879 270.396 50.1191 270.396C48.1504 270.396 46.9375 271.674 46.9375 273.766C46.9375 275.881 48.1328 277.141 50.1191 277.141ZM50.1191 275.746C49.2051 275.746 48.6895 275.025 48.6895 273.766C48.6895 272.523 49.2109 271.791 50.1191 271.791C51.0215 271.791 51.5488 272.523 51.5488 273.766C51.5488 275.02 51.0273 275.746 50.1191 275.746ZM55.1816 269.002V270.602H54.1738V271.943H55.1816V275.254C55.1816 276.514 55.8027 277.023 57.373 277.023C57.7012 277.023 58.0176 276.988 58.2285 276.947V275.646C58.0645 275.664 57.9473 275.67 57.7246 275.67C57.1445 275.67 56.8867 275.412 56.8867 274.85V271.943H58.2285V270.602H56.8867V269.002H55.1816ZM63.4844 278.816L66.5137 268.07H64.9434L61.9141 278.816H63.4844ZM76.0938 277H78.0098L75.0742 268.545H72.9941L70.0586 277H71.834L72.4844 274.984H75.4551L76.0938 277ZM73.9258 270.303H74.0312L75.0801 273.619H72.8652L73.9258 270.303ZM79.4512 268.545V277H81.2207V274.375H82.8906C84.6719 274.375 85.9082 273.209 85.9082 271.469C85.9082 269.711 84.7188 268.545 82.9785 268.545H79.4512ZM81.2207 269.998H82.5098C83.5293 269.998 84.1094 270.514 84.1094 271.475C84.1094 272.424 83.5176 272.939 82.5039 272.939H81.2207V269.998ZM89.3066 277V268.545H87.5371V277H89.3066ZM98.043 277.217C100.082 277.217 101.57 275.957 101.717 274.129H99.9941C99.8242 275.061 99.0625 275.658 98.0488 275.658C96.7129 275.658 95.8867 274.551 95.8867 272.77C95.8867 270.988 96.7129 269.887 98.043 269.887C99.0508 269.887 99.8184 270.525 99.9883 271.498H101.711C101.582 269.658 100.047 268.328 98.043 268.328C95.5879 268.328 94.0762 270.021 94.0762 272.77C94.0762 275.523 95.5938 277.217 98.043 277.217ZM105.508 275.816C104.916 275.816 104.5 275.523 104.5 275.043C104.5 274.58 104.857 274.316 105.59 274.264L106.896 274.182V274.656C106.896 275.312 106.299 275.816 105.508 275.816ZM104.945 277.1C105.783 277.1 106.486 276.748 106.82 276.156H106.926V277H108.578V272.588C108.578 271.205 107.611 270.396 105.9 270.396C104.277 270.396 103.182 271.146 103.07 272.342H104.641C104.781 271.955 105.191 271.744 105.807 271.744C106.51 271.744 106.896 272.049 106.896 272.588V273.115L105.332 273.209C103.727 273.303 102.83 273.982 102.83 275.154C102.83 276.338 103.703 277.1 104.945 277.1ZM110.312 277H112.018V268.07H110.312V277ZM113.852 277H115.557V268.07H113.852V277ZM120.127 271.703C120.924 271.703 121.439 272.236 121.475 273.092H118.721C118.779 272.254 119.336 271.703 120.127 271.703ZM121.51 275.16C121.328 275.588 120.865 275.828 120.191 275.828C119.301 275.828 118.738 275.23 118.715 274.27V274.182H123.15V273.66C123.15 271.609 122.025 270.396 120.121 270.396C118.199 270.396 117.016 271.697 117.016 273.801C117.016 275.898 118.176 277.141 120.145 277.141C121.727 277.141 122.846 276.373 123.098 275.16H121.51ZM124.551 277H126.256V273.42C126.256 272.512 126.895 271.961 127.826 271.961C128.102 271.961 128.5 272.014 128.635 272.066V270.514C128.488 270.461 128.201 270.432 127.967 270.432C127.146 270.432 126.479 270.924 126.309 271.568H126.203V270.537H124.551V277Z" fill="#3E4249"/>
<rect width="87" height="16" transform="translate(456 264)" fill="white"/>
<path d="M466.553 276H468.469L465.533 267.545H463.453L460.518 276H462.293L462.943 273.984H465.914L466.553 276ZM464.385 269.303H464.49L465.539 272.619H463.324L464.385 269.303ZM472.26 274.559C471.334 274.559 470.807 273.85 470.807 272.707C470.807 271.576 471.34 270.861 472.26 270.861C473.18 270.861 473.736 271.576 473.736 272.713C473.736 273.85 473.186 274.559 472.26 274.559ZM472.236 278.449C474.188 278.449 475.424 277.494 475.424 275.977V269.537H473.771V270.574H473.666C473.32 269.865 472.576 269.432 471.703 269.432C470.062 269.432 469.055 270.709 469.055 272.713C469.055 274.658 470.057 275.906 471.668 275.906C472.576 275.906 473.256 275.543 473.613 274.863H473.719V276.059C473.719 276.785 473.186 277.207 472.271 277.207C471.533 277.207 471.053 276.955 470.965 276.557H469.277C469.383 277.693 470.52 278.449 472.236 278.449ZM479.93 270.703C480.727 270.703 481.242 271.236 481.277 272.092H478.523C478.582 271.254 479.139 270.703 479.93 270.703ZM481.312 274.16C481.131 274.588 480.668 274.828 479.994 274.828C479.104 274.828 478.541 274.23 478.518 273.27V273.182H482.953V272.66C482.953 270.609 481.828 269.396 479.924 269.396C478.002 269.396 476.818 270.697 476.818 272.801C476.818 274.898 477.979 276.141 479.947 276.141C481.529 276.141 482.648 275.373 482.9 274.16H481.312ZM484.354 276H486.059V272.273C486.059 271.424 486.545 270.867 487.336 270.867C488.145 270.867 488.525 271.336 488.525 272.227V276H490.23V271.822C490.23 270.275 489.457 269.396 488.021 269.396C487.066 269.396 486.41 269.848 486.111 270.574H486.006V269.537H484.354V276ZM492.375 268.002V269.602H491.367V270.943H492.375V274.254C492.375 275.514 492.996 276.023 494.566 276.023C494.895 276.023 495.211 275.988 495.422 275.947V274.646C495.258 274.664 495.141 274.67 494.918 274.67C494.338 274.67 494.08 274.412 494.08 273.85V270.943H495.422V269.602H494.08V268.002H492.375ZM499.729 273.65C499.793 275.227 501.1 276.217 503.115 276.217C505.236 276.217 506.543 275.174 506.543 273.469C506.543 272.156 505.811 271.424 504.111 271.066L503.092 270.85C502.102 270.639 501.697 270.34 501.697 269.818C501.697 269.174 502.283 268.764 503.168 268.764C504.023 268.764 504.645 269.209 504.727 269.877H506.391C506.338 268.371 505.02 267.328 503.156 267.328C501.205 267.328 499.922 268.377 499.922 269.971C499.922 271.26 500.678 272.062 502.219 272.385L503.32 272.619C504.357 272.842 504.779 273.152 504.779 273.691C504.779 274.33 504.129 274.775 503.209 274.775C502.213 274.775 501.521 274.336 501.439 273.65H499.729ZM510.844 270.703C511.641 270.703 512.156 271.236 512.191 272.092H509.438C509.496 271.254 510.053 270.703 510.844 270.703ZM512.227 274.16C512.045 274.588 511.582 274.828 510.908 274.828C510.018 274.828 509.455 274.23 509.432 273.27V273.182H513.867V272.66C513.867 270.609 512.742 269.396 510.838 269.396C508.916 269.396 507.732 270.697 507.732 272.801C507.732 274.898 508.893 276.141 510.861 276.141C512.443 276.141 513.562 275.373 513.814 274.16H512.227ZM515.268 276H516.973V272.42C516.973 271.512 517.611 270.961 518.543 270.961C518.818 270.961 519.217 271.014 519.352 271.066V269.514C519.205 269.461 518.918 269.432 518.684 269.432C517.863 269.432 517.195 269.924 517.025 270.568H516.92V269.537H515.268V276ZM526.43 269.537H524.631L523.307 274.354H523.201L521.865 269.537H520.031L522.275 276H524.197L526.43 269.537ZM530.109 270.703C530.906 270.703 531.422 271.236 531.457 272.092H528.703C528.762 271.254 529.318 270.703 530.109 270.703ZM531.492 274.16C531.311 274.588 530.848 274.828 530.174 274.828C529.283 274.828 528.721 274.23 528.697 273.27V273.182H533.133V272.66C533.133 270.609 532.008 269.396 530.104 269.396C528.182 269.396 526.998 270.697 526.998 272.801C526.998 274.898 528.158 276.141 530.127 276.141C531.709 276.141 532.828 275.373 533.08 274.16H531.492ZM534.533 276H536.238V272.42C536.238 271.512 536.877 270.961 537.809 270.961C538.084 270.961 538.482 271.014 538.617 271.066V269.514C538.471 269.461 538.184 269.432 537.949 269.432C537.129 269.432 536.461 269.924 536.291 270.568H536.186V269.537H534.533V276Z" fill="#3E4249"/>
<rect width="99" height="16" transform="translate(450 129)" fill="white"/>
<path d="M455.109 138.65C455.174 140.227 456.48 141.217 458.496 141.217C460.617 141.217 461.924 140.174 461.924 138.469C461.924 137.156 461.191 136.424 459.492 136.066L458.473 135.85C457.482 135.639 457.078 135.34 457.078 134.818C457.078 134.174 457.664 133.764 458.549 133.764C459.404 133.764 460.025 134.209 460.107 134.877H461.771C461.719 133.371 460.4 132.328 458.537 132.328C456.586 132.328 455.303 133.377 455.303 134.971C455.303 136.26 456.059 137.062 457.6 137.385L458.701 137.619C459.738 137.842 460.16 138.152 460.16 138.691C460.16 139.33 459.51 139.775 458.59 139.775C457.594 139.775 456.902 139.336 456.82 138.65H455.109ZM464.232 143.35C465.844 143.35 466.635 142.764 467.186 141.1L469.412 134.537H467.607L466.248 139.436H466.143L464.783 134.537H462.902L465.17 141.041L465.111 141.275C464.971 141.768 464.607 141.973 463.969 141.973C463.898 141.973 463.641 141.973 463.582 141.961V143.332C463.652 143.344 464.168 143.35 464.232 143.35ZM470.602 141H472.307V137.109C472.307 136.389 472.781 135.867 473.449 135.867C474.117 135.867 474.516 136.26 474.516 136.945V141H476.156V137.045C476.156 136.359 476.602 135.867 477.293 135.867C478.014 135.867 478.371 136.248 478.371 137.016V141H480.076V136.564C480.076 135.234 479.273 134.396 477.984 134.396C477.082 134.396 476.338 134.871 476.039 135.592H475.934C475.676 134.842 475.055 134.396 474.146 134.396C473.297 134.396 472.623 134.854 472.359 135.592H472.254V134.537H470.602V141ZM485.467 134.432C484.576 134.432 483.844 134.871 483.492 135.598H483.387V134.537H481.734V143.145H483.439V140.01H483.545C483.861 140.695 484.57 141.1 485.496 141.1C487.113 141.1 488.104 139.852 488.104 137.766C488.104 135.674 487.102 134.432 485.467 134.432ZM484.887 139.676C483.984 139.676 483.422 138.955 483.422 137.771C483.422 136.588 483.984 135.861 484.893 135.861C485.801 135.861 486.352 136.582 486.352 137.766C486.352 138.961 485.807 139.676 484.887 139.676ZM489.551 141H491.256V137.291C491.256 136.453 491.748 135.885 492.604 135.885C493.377 135.885 493.793 136.348 493.793 137.244V141H495.498V136.84C495.498 135.287 494.672 134.414 493.283 134.414C492.334 134.414 491.631 134.859 491.332 135.598H491.227V132.07H489.551V141ZM500.021 141.141C502.008 141.141 503.203 139.881 503.203 137.766C503.203 135.668 501.99 134.396 500.021 134.396C498.053 134.396 496.84 135.674 496.84 137.766C496.84 139.881 498.035 141.141 500.021 141.141ZM500.021 139.746C499.107 139.746 498.592 139.025 498.592 137.766C498.592 136.523 499.113 135.791 500.021 135.791C500.924 135.791 501.451 136.523 501.451 137.766C501.451 139.02 500.93 139.746 500.021 139.746ZM504.598 141H506.303V137.273C506.303 136.424 506.789 135.867 507.58 135.867C508.389 135.867 508.77 136.336 508.77 137.227V141H510.475V136.822C510.475 135.275 509.701 134.396 508.266 134.396C507.311 134.396 506.654 134.848 506.355 135.574H506.25V134.537H504.598V141ZM512.76 143.35C514.371 143.35 515.162 142.764 515.713 141.1L517.939 134.537H516.135L514.775 139.436H514.67L513.311 134.537H511.43L513.697 141.041L513.639 141.275C513.498 141.768 513.135 141.973 512.496 141.973C512.426 141.973 512.168 141.973 512.109 141.961V143.332C512.18 143.344 512.695 143.35 512.76 143.35ZM522.393 132.545V141H524.162V138.375H525.832C527.613 138.375 528.85 137.209 528.85 135.469C528.85 133.711 527.66 132.545 525.92 132.545H522.393ZM524.162 133.998H525.451C526.471 133.998 527.051 134.514 527.051 135.475C527.051 136.424 526.459 136.939 525.445 136.939H524.162V133.998ZM532.998 141.141C534.984 141.141 536.18 139.881 536.18 137.766C536.18 135.668 534.967 134.396 532.998 134.396C531.029 134.396 529.816 135.674 529.816 137.766C529.816 139.881 531.012 141.141 532.998 141.141ZM532.998 139.746C532.084 139.746 531.568 139.025 531.568 137.766C531.568 136.523 532.09 135.791 532.998 135.791C533.9 135.791 534.428 136.523 534.428 137.766C534.428 139.02 533.906 139.746 532.998 139.746ZM539.889 141.1C540.785 141.1 541.518 140.684 541.863 139.986H541.969V141H543.621V132.07H541.916V135.568H541.816C541.482 134.854 540.762 134.432 539.889 134.432C538.266 134.432 537.258 135.703 537.258 137.76C537.258 139.822 538.26 141.1 539.889 141.1ZM540.469 135.861C541.377 135.861 541.934 136.594 541.934 137.771C541.934 138.955 541.383 139.676 540.469 139.676C539.555 139.676 539.01 138.961 539.01 137.766C539.01 136.582 539.561 135.861 540.469 135.861Z" fill="#3E4249"/>
<rect width="225" height="17" transform="translate(388 8)" fill="white"/>
<path d="M393.251 18.3203C393.34 20.1113 394.837 21.2461 397.1 21.2461C399.492 21.2461 400.976 20.0498 400.976 18.1289C400.976 16.625 400.135 15.791 398.132 15.3398L396.997 15.0801C395.773 14.7998 395.274 14.4102 395.274 13.7471C395.274 12.9062 396.026 12.3594 397.161 12.3594C398.241 12.3594 399.007 12.9062 399.13 13.7744H400.818C400.736 12.0791 399.239 10.8896 397.168 10.8896C394.96 10.8896 393.497 12.0791 393.497 13.8701C393.497 15.3398 394.338 16.2285 396.129 16.6318L397.407 16.9258C398.672 17.2197 399.212 17.6367 399.212 18.3477C399.212 19.1748 398.371 19.7695 397.209 19.7695C395.958 19.7695 395.083 19.2021 394.974 18.3203H393.251ZM403.601 23.7139C405.275 23.7139 406.075 23.0986 406.711 21.2393L409.411 13.5215H407.62L405.877 19.3594H405.761L404.011 13.5215H402.151L404.824 21.0342L404.735 21.3623C404.517 22.0527 404.113 22.3262 403.396 22.3262C403.279 22.3262 403.026 22.3193 402.931 22.2988V23.6865C403.04 23.707 403.498 23.7139 403.601 23.7139ZM410.874 21H412.569V16.4541C412.569 15.5381 413.191 14.8477 414.032 14.8477C414.866 14.8477 415.386 15.3467 415.386 16.167V21H417.033V16.3447C417.033 15.4902 417.614 14.8477 418.496 14.8477C419.405 14.8477 419.863 15.3262 419.863 16.29V21H421.552V15.8594C421.552 14.3076 420.649 13.3711 419.152 13.3711C418.113 13.3711 417.252 13.9111 416.883 14.7314H416.767C416.452 13.8906 415.734 13.3711 414.702 13.3711C413.711 13.3711 412.945 13.877 412.624 14.7314H412.508V13.5215H410.874V21ZM427.636 13.3984C426.61 13.3984 425.742 13.9111 425.312 14.7588H425.195V13.5215H423.562V23.4883H425.257V19.8652H425.373C425.756 20.6582 426.583 21.123 427.656 21.123C429.543 21.123 430.719 19.6465 430.719 17.2607C430.719 14.8613 429.529 13.3984 427.636 13.3984ZM427.103 19.6807C425.947 19.6807 425.229 18.7578 425.223 17.2607C425.229 15.7705 425.954 14.8408 427.109 14.8408C428.271 14.8408 428.976 15.75 428.976 17.2607C428.976 18.7715 428.278 19.6807 427.103 19.6807ZM432.489 21H434.185V16.6592C434.185 15.5859 434.807 14.8613 435.921 14.8613C436.905 14.8613 437.425 15.4424 437.425 16.5771V21H439.12V16.1738C439.12 14.3965 438.149 13.3848 436.55 13.3848C435.436 13.3848 434.636 13.8906 434.28 14.7314H434.157V10.6299H432.489V21ZM444.356 21.1504C446.592 21.1504 447.952 19.6875 447.952 17.2607C447.952 14.8408 446.585 13.3711 444.356 13.3711C442.135 13.3711 440.761 14.8477 440.761 17.2607C440.761 19.6875 442.114 21.1504 444.356 21.1504ZM444.356 19.7285C443.174 19.7285 442.497 18.8262 442.497 17.2607C442.497 15.7021 443.174 14.793 444.356 14.793C445.532 14.793 446.209 15.7021 446.209 17.2607C446.209 18.8262 445.539 19.7285 444.356 19.7285ZM449.661 21H451.356V16.6455C451.356 15.5449 451.992 14.8477 453.004 14.8477C454.036 14.8477 454.515 15.4219 454.515 16.5635V21H456.21V16.1602C456.21 14.376 455.301 13.3711 453.633 13.3711C452.519 13.3711 451.767 13.8838 451.411 14.7178H451.295V13.5215H449.661V21ZM458.808 23.7139C460.482 23.7139 461.282 23.0986 461.918 21.2393L464.618 13.5215H462.827L461.084 19.3594H460.968L459.218 13.5215H457.358L460.031 21.0342L459.942 21.3623C459.724 22.0527 459.32 22.3262 458.603 22.3262C458.486 22.3262 458.233 22.3193 458.138 22.2988V23.6865C458.247 23.707 458.705 23.7139 458.808 23.7139ZM474.106 21.2461C476.383 21.2461 478.051 19.8857 478.283 17.8691H476.547C476.308 18.9766 475.357 19.6738 474.106 19.6738C472.425 19.6738 471.379 18.293 471.379 16.0645C471.379 13.8428 472.425 12.4619 474.1 12.4619C475.344 12.4619 476.294 13.2275 476.54 14.4102H478.276C478.071 12.3525 476.342 10.8896 474.1 10.8896C471.304 10.8896 469.574 12.8652 469.574 16.0713C469.574 19.2637 471.311 21.2461 474.106 21.2461ZM480.136 21H481.831V10.6299H480.136V21ZM487.204 21.1504C489.439 21.1504 490.8 19.6875 490.8 17.2607C490.8 14.8408 489.433 13.3711 487.204 13.3711C484.982 13.3711 483.608 14.8477 483.608 17.2607C483.608 19.6875 484.962 21.1504 487.204 21.1504ZM487.204 19.7285C486.021 19.7285 485.345 18.8262 485.345 17.2607C485.345 15.7021 486.021 14.793 487.204 14.793C488.38 14.793 489.057 15.7021 489.057 17.2607C489.057 18.8262 488.387 19.7285 487.204 19.7285ZM499.017 13.5215H497.321V17.876C497.321 18.9834 496.72 19.6602 495.619 19.6602C494.607 19.6602 494.136 19.0996 494.136 17.958V13.5215H492.44V18.3818C492.44 20.1318 493.397 21.1504 495.031 21.1504C496.173 21.1504 496.904 20.665 497.267 19.8105H497.383V21H499.017V13.5215ZM503.802 21.123C504.841 21.123 505.702 20.6377 506.126 19.8174H506.242V21H507.883V10.6299H506.188V14.7109H506.071C505.675 13.8906 504.827 13.3984 503.802 13.3984C501.915 13.3984 500.726 14.8887 500.726 17.2539C500.726 19.6328 501.908 21.123 503.802 21.123ZM504.328 14.8408C505.49 14.8408 506.208 15.7705 506.208 17.2607C506.208 18.7646 505.497 19.6807 504.328 19.6807C503.166 19.6807 502.462 18.7715 502.462 17.2607C502.462 15.7568 503.173 14.8408 504.328 14.8408ZM515.696 21V11.1357H513.933V21H515.696ZM517.952 21H519.647V16.6455C519.647 15.5449 520.283 14.8477 521.295 14.8477C522.327 14.8477 522.806 15.4219 522.806 16.5635V21H524.501V16.1602C524.501 14.376 523.592 13.3711 521.924 13.3711C520.81 13.3711 520.058 13.8838 519.702 14.7178H519.586V13.5215H517.952V21ZM527.058 21H528.746V14.9229H530.353V13.5693H528.726V12.8926C528.726 12.1885 529.04 11.8398 529.84 11.8398C530.079 11.8398 530.284 11.8535 530.421 11.874V10.6299C530.147 10.582 529.84 10.5547 529.478 10.5547C527.816 10.5547 527.058 11.293 527.058 12.7832V13.5693H525.834V14.9229H527.058V21ZM531.993 21H533.688V16.6797C533.688 15.6338 534.454 14.9502 535.555 14.9502C535.842 14.9502 536.293 14.998 536.423 15.0459V13.4736C536.266 13.4258 535.965 13.3984 535.719 13.3984C534.755 13.3984 533.948 13.9453 533.743 14.6836H533.627V13.5215H531.993V21ZM540.278 19.79C539.526 19.79 538.986 19.4141 538.986 18.7852C538.986 18.1768 539.431 17.835 540.381 17.7734L542.069 17.6641V18.2588C542.069 19.127 541.304 19.79 540.278 19.79ZM539.779 21.123C540.757 21.123 541.577 20.6992 541.994 19.9746H542.11V21H543.744V15.8936C543.744 14.3076 542.664 13.3711 540.743 13.3711C538.966 13.3711 537.729 14.2119 537.592 15.5312H539.191C539.349 15.0254 539.882 14.752 540.661 14.752C541.577 14.752 542.069 15.1621 542.069 15.8936V16.5225L540.142 16.6387C538.323 16.748 537.305 17.5273 537.305 18.8809C537.305 20.248 538.337 21.123 539.779 21.123ZM545.617 15.6611C545.617 16.7891 546.294 17.4521 547.729 17.7803L549.056 18.0879C549.767 18.2451 550.088 18.5117 550.088 18.9355C550.088 19.4893 549.493 19.8652 548.639 19.8652C547.791 19.8652 547.265 19.5371 547.101 18.9834H545.426C545.556 20.3438 546.731 21.1504 548.598 21.1504C550.464 21.1504 551.783 20.1934 551.783 18.7578C551.783 17.6572 551.12 17.042 549.691 16.7207L548.372 16.4199C547.62 16.249 547.265 15.9893 547.265 15.5654C547.265 15.0254 547.846 14.6562 548.618 14.6562C549.411 14.6562 549.91 14.9912 550.033 15.5176H551.626C551.503 14.1572 550.389 13.3711 548.611 13.3711C546.848 13.3711 545.617 14.3076 545.617 15.6611ZM553.984 11.6895V13.5693H552.802V14.9229H553.984V19.0039C553.984 20.4531 554.668 21.0342 556.384 21.0342C556.712 21.0342 557.026 21 557.272 20.9521V19.626C557.067 19.6465 556.938 19.6602 556.698 19.6602C555.987 19.6602 555.673 19.332 555.673 18.5938V14.9229H557.272V13.5693H555.673V11.6895H553.984ZM558.968 21H560.663V16.6797C560.663 15.6338 561.429 14.9502 562.529 14.9502C562.816 14.9502 563.268 14.998 563.397 15.0459V13.4736C563.24 13.4258 562.939 13.3984 562.693 13.3984C561.729 13.3984 560.923 13.9453 560.718 14.6836H560.602V13.5215H558.968V21ZM571.3 13.5215H569.604V17.876C569.604 18.9834 569.003 19.6602 567.902 19.6602C566.891 19.6602 566.419 19.0996 566.419 17.958V13.5215H564.724V18.3818C564.724 20.1318 565.681 21.1504 567.314 21.1504C568.456 21.1504 569.188 20.665 569.55 19.8105H569.666V21H571.3V13.5215ZM579.838 16.0371C579.66 14.4648 578.498 13.3711 576.577 13.3711C574.328 13.3711 573.009 14.8135 573.009 17.2402C573.009 19.7012 574.335 21.1504 576.584 21.1504C578.478 21.1504 579.653 20.0977 579.838 18.5322H578.225C578.047 19.3115 577.459 19.7285 576.577 19.7285C575.422 19.7285 574.725 18.8125 574.725 17.2402C574.725 15.6885 575.415 14.793 576.577 14.793C577.507 14.793 578.067 15.3125 578.225 16.0371H579.838ZM582.094 11.6895V13.5693H580.911V14.9229H582.094V19.0039C582.094 20.4531 582.777 21.0342 584.493 21.0342C584.821 21.0342 585.136 21 585.382 20.9521V19.626C585.177 19.6465 585.047 19.6602 584.808 19.6602C584.097 19.6602 583.782 19.332 583.782 18.5938V14.9229H585.382V13.5693H583.782V11.6895H582.094ZM593.585 13.5215H591.89V17.876C591.89 18.9834 591.288 19.6602 590.188 19.6602C589.176 19.6602 588.704 19.0996 588.704 17.958V13.5215H587.009V18.3818C587.009 20.1318 587.966 21.1504 589.6 21.1504C590.741 21.1504 591.473 20.665 591.835 19.8105H591.951V21H593.585V13.5215ZM595.663 21H597.358V16.6797C597.358 15.6338 598.124 14.9502 599.225 14.9502C599.512 14.9502 599.963 14.998 600.093 15.0459V13.4736C599.936 13.4258 599.635 13.3984 599.389 13.3984C598.425 13.3984 597.618 13.9453 597.413 14.6836H597.297V13.5215H595.663V21ZM604.434 14.7178C605.452 14.7178 606.122 15.4287 606.156 16.5361H602.636C602.711 15.4424 603.422 14.7178 604.434 14.7178ZM606.17 18.9424C605.924 19.4961 605.343 19.8037 604.502 19.8037C603.388 19.8037 602.67 19.0244 602.629 17.7803V17.6914H607.852V17.1445C607.852 14.7861 606.573 13.3711 604.44 13.3711C602.273 13.3711 600.927 14.8818 600.927 17.2881C600.927 19.6943 602.253 21.1504 604.454 21.1504C606.218 21.1504 607.469 20.3027 607.776 18.9424H606.17Z" fill="#525760"/>
<rect width="71" height="16" transform="translate(49 368)" fill="white"/>
<path d="M55.3145 380V371.545H54.2598V380H55.3145ZM65.8027 380V371.545H64.5781L61.6836 378.6H61.5898L58.6953 371.545H57.4707V380H58.4551V373.543H58.5254L61.1914 380H62.082L64.748 373.543H64.8184V380H65.8027ZM76.4785 379.051H72.4004V371.545H71.3457V380H76.4785V379.051ZM78.0605 380H79.0684V373.684H78.0605V380ZM78.5645 372.465C78.9512 372.465 79.2676 372.148 79.2676 371.762C79.2676 371.375 78.9512 371.059 78.5645 371.059C78.1777 371.059 77.8613 371.375 77.8613 371.762C77.8613 372.148 78.1777 372.465 78.5645 372.465ZM80.8438 375.412C80.8438 376.326 81.3828 376.836 82.5664 377.123L83.6504 377.387C84.3242 377.551 84.6523 377.844 84.6523 378.277C84.6523 378.857 84.043 379.262 83.1934 379.262C82.3848 379.262 81.8809 378.922 81.7109 378.389H80.6738C80.7852 379.438 81.752 380.111 83.1582 380.111C84.5938 380.111 85.6895 379.332 85.6895 378.201C85.6895 377.293 85.1152 376.777 83.9258 376.49L82.9531 376.256C82.209 376.074 81.8574 375.805 81.8574 375.371C81.8574 374.809 82.4434 374.428 83.1934 374.428C83.9551 374.428 84.4473 374.762 84.582 375.266H85.5781C85.4434 374.229 84.5234 373.572 83.1992 373.572C81.8574 373.572 80.8438 374.363 80.8438 375.412ZM87.6348 372.049V373.684H86.6152V374.527H87.6348V378.359C87.6348 379.566 88.1562 380.047 89.457 380.047C89.6562 380.047 89.8496 380.023 90.0488 379.988V379.139C89.8613 379.156 89.7617 379.162 89.5801 379.162C88.9238 379.162 88.6426 378.846 88.6426 378.102V374.527H90.0488V373.684H88.6426V372.049H87.6348ZM93.998 374.463C95 374.463 95.668 375.201 95.6914 376.32H92.2109C92.2871 375.201 92.9902 374.463 93.998 374.463ZM95.6621 378.365C95.3984 378.922 94.8477 379.221 94.0332 379.221C92.9609 379.221 92.2637 378.43 92.2109 377.182V377.135H96.752V376.748C96.752 374.785 95.7148 373.572 94.0098 373.572C92.2754 373.572 91.1621 374.861 91.1621 376.848C91.1621 378.846 92.2578 380.111 94.0098 380.111C95.3926 380.111 96.377 379.443 96.6699 378.365H95.6621ZM98.334 380H99.3418V376.262C99.3418 375.154 99.9922 374.48 101 374.48C102.008 374.48 102.488 375.02 102.488 376.156V380H103.496V375.91C103.496 374.41 102.705 373.572 101.287 373.572C100.32 373.572 99.7051 373.982 99.3887 374.68H99.2949V373.684H98.334V380ZM107.861 374.463C108.863 374.463 109.531 375.201 109.555 376.32H106.074C106.15 375.201 106.854 374.463 107.861 374.463ZM109.525 378.365C109.262 378.922 108.711 379.221 107.896 379.221C106.824 379.221 106.127 378.43 106.074 377.182V377.135H110.615V376.748C110.615 374.785 109.578 373.572 107.873 373.572C106.139 373.572 105.025 374.861 105.025 376.848C105.025 378.846 106.121 380.111 107.873 380.111C109.256 380.111 110.24 379.443 110.533 378.365H109.525ZM112.197 380H113.205V376.086C113.205 375.195 113.902 374.551 114.863 374.551C115.062 374.551 115.426 374.586 115.508 374.609V373.602C115.379 373.584 115.168 373.572 115.004 373.572C114.166 373.572 113.439 374.006 113.252 374.621H113.158V373.684H112.197V380Z" fill="#3E4249"/>
<rect width="54" height="32" transform="translate(128 368)" fill="white"/>
<path d="M139.297 372.482H141.33C142.42 372.482 143.076 373.086 143.076 374.1C143.076 375.137 142.461 375.717 141.377 375.717H139.297V372.482ZM139.297 376.654H141.377L143.188 380H144.424L142.467 376.49C143.527 376.156 144.166 375.242 144.166 374.064C144.166 372.541 143.1 371.545 141.471 371.545H138.242V380H139.297V376.654ZM148.373 380.111C150.172 380.111 151.285 378.869 151.285 376.842C151.285 374.809 150.172 373.572 148.373 373.572C146.574 373.572 145.461 374.809 145.461 376.842C145.461 378.869 146.574 380.111 148.373 380.111ZM148.373 379.203C147.178 379.203 146.504 378.336 146.504 376.842C146.504 375.342 147.178 374.48 148.373 374.48C149.568 374.48 150.242 375.342 150.242 376.842C150.242 378.336 149.568 379.203 148.373 379.203ZM155.463 380.111C157.262 380.111 158.375 378.869 158.375 376.842C158.375 374.809 157.262 373.572 155.463 373.572C153.664 373.572 152.551 374.809 152.551 376.842C152.551 378.869 153.664 380.111 155.463 380.111ZM155.463 379.203C154.268 379.203 153.594 378.336 153.594 376.842C153.594 375.342 154.268 374.48 155.463 374.48C156.658 374.48 157.332 375.342 157.332 376.842C157.332 378.336 156.658 379.203 155.463 379.203ZM159.957 380H160.965V376.086C160.965 375.195 161.604 374.48 162.43 374.48C163.227 374.48 163.748 374.961 163.748 375.711V380H164.756V375.939C164.756 375.137 165.342 374.48 166.221 374.48C167.111 374.48 167.551 374.938 167.551 375.869V380H168.559V375.635C168.559 374.311 167.838 373.572 166.549 373.572C165.676 373.572 164.955 374.012 164.615 374.68H164.521C164.229 374.023 163.631 373.572 162.775 373.572C161.932 373.572 161.299 373.977 161.012 374.68H160.918V373.684H159.957V380ZM138.436 395.051H134.357V387.545H133.303V396H138.436V395.051ZM140.018 396H141.025V389.684H140.018V396ZM140.521 388.465C140.908 388.465 141.225 388.148 141.225 387.762C141.225 387.375 140.908 387.059 140.521 387.059C140.135 387.059 139.818 387.375 139.818 387.762C139.818 388.148 140.135 388.465 140.521 388.465ZM142.801 391.412C142.801 392.326 143.34 392.836 144.523 393.123L145.607 393.387C146.281 393.551 146.609 393.844 146.609 394.277C146.609 394.857 146 395.262 145.15 395.262C144.342 395.262 143.838 394.922 143.668 394.389H142.631C142.742 395.438 143.709 396.111 145.115 396.111C146.551 396.111 147.646 395.332 147.646 394.201C147.646 393.293 147.072 392.777 145.883 392.49L144.91 392.256C144.166 392.074 143.814 391.805 143.814 391.371C143.814 390.809 144.4 390.428 145.15 390.428C145.912 390.428 146.404 390.762 146.539 391.266H147.535C147.4 390.229 146.48 389.572 145.156 389.572C143.814 389.572 142.801 390.363 142.801 391.412ZM149.592 388.049V389.684H148.572V390.527H149.592V394.359C149.592 395.566 150.113 396.047 151.414 396.047C151.613 396.047 151.807 396.023 152.006 395.988V395.139C151.818 395.156 151.719 395.162 151.537 395.162C150.881 395.162 150.6 394.846 150.6 394.102V390.527H152.006V389.684H150.6V388.049H149.592ZM155.955 390.463C156.957 390.463 157.625 391.201 157.648 392.32H154.168C154.244 391.201 154.947 390.463 155.955 390.463ZM157.619 394.365C157.355 394.922 156.805 395.221 155.99 395.221C154.918 395.221 154.221 394.43 154.168 393.182V393.135H158.709V392.748C158.709 390.785 157.672 389.572 155.967 389.572C154.232 389.572 153.119 390.861 153.119 392.848C153.119 394.846 154.215 396.111 155.967 396.111C157.35 396.111 158.334 395.443 158.627 394.365H157.619ZM160.291 396H161.299V392.262C161.299 391.154 161.949 390.48 162.957 390.48C163.965 390.48 164.445 391.02 164.445 392.156V396H165.453V391.91C165.453 390.41 164.662 389.572 163.244 389.572C162.277 389.572 161.662 389.982 161.346 390.68H161.252V389.684H160.291V396ZM169.818 390.463C170.82 390.463 171.488 391.201 171.512 392.32H168.031C168.107 391.201 168.811 390.463 169.818 390.463ZM171.482 394.365C171.219 394.922 170.668 395.221 169.854 395.221C168.781 395.221 168.084 394.43 168.031 393.182V393.135H172.572V392.748C172.572 390.785 171.535 389.572 169.83 389.572C168.096 389.572 166.982 390.861 166.982 392.848C166.982 394.846 168.078 396.111 169.83 396.111C171.213 396.111 172.197 395.443 172.49 394.365H171.482ZM174.154 396H175.162V392.086C175.162 391.195 175.859 390.551 176.82 390.551C177.02 390.551 177.383 390.586 177.465 390.609V389.602C177.336 389.584 177.125 389.572 176.961 389.572C176.123 389.572 175.396 390.006 175.209 390.621H175.115V389.684H174.154V396Z" fill="#3E4249"/>
<rect width="60" height="32" transform="translate(207 368)" fill="white"/>
<path d="M217.389 379.051H213.205V376.145H217.172V375.207H213.205V372.494H217.389V371.545H212.15V380H217.389V379.051ZM219.229 380H220.236V371.176H219.229V380ZM224.713 374.463C225.715 374.463 226.383 375.201 226.406 376.32H222.926C223.002 375.201 223.705 374.463 224.713 374.463ZM226.377 378.365C226.113 378.922 225.562 379.221 224.748 379.221C223.676 379.221 222.979 378.43 222.926 377.182V377.135H227.467V376.748C227.467 374.785 226.43 373.572 224.725 373.572C222.99 373.572 221.877 374.861 221.877 376.848C221.877 378.846 222.973 380.111 224.725 380.111C226.107 380.111 227.092 379.443 227.385 378.365H226.377ZM229.049 380H230.057V376.086C230.057 375.195 230.695 374.48 231.521 374.48C232.318 374.48 232.84 374.961 232.84 375.711V380H233.848V375.939C233.848 375.137 234.434 374.48 235.312 374.48C236.203 374.48 236.643 374.938 236.643 375.869V380H237.65V375.635C237.65 374.311 236.93 373.572 235.641 373.572C234.768 373.572 234.047 374.012 233.707 374.68H233.613C233.32 374.023 232.723 373.572 231.867 373.572C231.023 373.572 230.391 373.977 230.104 374.68H230.01V373.684H229.049V380ZM242.01 374.463C243.012 374.463 243.68 375.201 243.703 376.32H240.223C240.299 375.201 241.002 374.463 242.01 374.463ZM243.674 378.365C243.41 378.922 242.859 379.221 242.045 379.221C240.973 379.221 240.275 378.43 240.223 377.182V377.135H244.764V376.748C244.764 374.785 243.727 373.572 242.021 373.572C240.287 373.572 239.174 374.861 239.174 376.848C239.174 378.846 240.27 380.111 242.021 380.111C243.404 380.111 244.389 379.443 244.682 378.365H243.674ZM246.346 380H247.354V376.262C247.354 375.154 248.004 374.48 249.012 374.48C250.02 374.48 250.5 375.02 250.5 376.156V380H251.508V375.91C251.508 374.41 250.717 373.572 249.299 373.572C248.332 373.572 247.717 373.982 247.4 374.68H247.307V373.684H246.346V380ZM253.775 372.049V373.684H252.756V374.527H253.775V378.359C253.775 379.566 254.297 380.047 255.598 380.047C255.797 380.047 255.99 380.023 256.189 379.988V379.139C256.002 379.156 255.902 379.162 255.721 379.162C255.064 379.162 254.783 378.846 254.783 378.102V374.527H256.189V373.684H254.783V372.049H253.775ZM257.449 375.412C257.449 376.326 257.988 376.836 259.172 377.123L260.256 377.387C260.93 377.551 261.258 377.844 261.258 378.277C261.258 378.857 260.648 379.262 259.799 379.262C258.99 379.262 258.486 378.922 258.316 378.389H257.279C257.391 379.438 258.357 380.111 259.764 380.111C261.199 380.111 262.295 379.332 262.295 378.201C262.295 377.293 261.721 376.777 260.531 376.49L259.559 376.256C258.814 376.074 258.463 375.805 258.463 375.371C258.463 374.809 259.049 374.428 259.799 374.428C260.561 374.428 261.053 374.762 261.188 375.266H262.184C262.049 374.229 261.129 373.572 259.805 373.572C258.463 373.572 257.449 374.363 257.449 375.412ZM220.436 395.051H216.357V387.545H215.303V396H220.436V395.051ZM222.018 396H223.025V389.684H222.018V396ZM222.521 388.465C222.908 388.465 223.225 388.148 223.225 387.762C223.225 387.375 222.908 387.059 222.521 387.059C222.135 387.059 221.818 387.375 221.818 387.762C221.818 388.148 222.135 388.465 222.521 388.465ZM224.801 391.412C224.801 392.326 225.34 392.836 226.523 393.123L227.607 393.387C228.281 393.551 228.609 393.844 228.609 394.277C228.609 394.857 228 395.262 227.15 395.262C226.342 395.262 225.838 394.922 225.668 394.389H224.631C224.742 395.438 225.709 396.111 227.115 396.111C228.551 396.111 229.646 395.332 229.646 394.201C229.646 393.293 229.072 392.777 227.883 392.49L226.91 392.256C226.166 392.074 225.814 391.805 225.814 391.371C225.814 390.809 226.4 390.428 227.15 390.428C227.912 390.428 228.404 390.762 228.539 391.266H229.535C229.4 390.229 228.48 389.572 227.156 389.572C225.814 389.572 224.801 390.363 224.801 391.412ZM231.592 388.049V389.684H230.572V390.527H231.592V394.359C231.592 395.566 232.113 396.047 233.414 396.047C233.613 396.047 233.807 396.023 234.006 395.988V395.139C233.818 395.156 233.719 395.162 233.537 395.162C232.881 395.162 232.6 394.846 232.6 394.102V390.527H234.006V389.684H232.6V388.049H231.592ZM237.955 390.463C238.957 390.463 239.625 391.201 239.648 392.32H236.168C236.244 391.201 236.947 390.463 237.955 390.463ZM239.619 394.365C239.355 394.922 238.805 395.221 237.99 395.221C236.918 395.221 236.221 394.43 236.168 393.182V393.135H240.709V392.748C240.709 390.785 239.672 389.572 237.967 389.572C236.232 389.572 235.119 390.861 235.119 392.848C235.119 394.846 236.215 396.111 237.967 396.111C239.35 396.111 240.334 395.443 240.627 394.365H239.619ZM242.291 396H243.299V392.262C243.299 391.154 243.949 390.48 244.957 390.48C245.965 390.48 246.445 391.02 246.445 392.156V396H247.453V391.91C247.453 390.41 246.662 389.572 245.244 389.572C244.277 389.572 243.662 389.982 243.346 390.68H243.252V389.684H242.291V396ZM251.818 390.463C252.82 390.463 253.488 391.201 253.512 392.32H250.031C250.107 391.201 250.811 390.463 251.818 390.463ZM253.482 394.365C253.219 394.922 252.668 395.221 251.854 395.221C250.781 395.221 250.084 394.43 250.031 393.182V393.135H254.572V392.748C254.572 390.785 253.535 389.572 251.83 389.572C250.096 389.572 248.982 390.861 248.982 392.848C248.982 394.846 250.078 396.111 251.83 396.111C253.213 396.111 254.197 395.443 254.49 394.365H253.482ZM256.154 396H257.162V392.086C257.162 391.195 257.859 390.551 258.82 390.551C259.02 390.551 259.383 390.586 259.465 390.609V389.602C259.336 389.584 259.125 389.572 258.961 389.572C258.123 389.572 257.396 390.006 257.209 390.621H257.115V389.684H256.154V396Z" fill="#3E4249"/>
<rect width="67" height="32" transform="translate(286 368)" fill="white"/>
<path d="M296.086 373.326H296.156L298.102 380H299.098L301.4 371.545H300.299L298.617 378.418H298.547L296.654 371.545H295.588L293.695 378.418H293.625L291.943 371.545H290.842L293.145 380H294.141L296.086 373.326ZM304.236 379.227C303.504 379.227 302.959 378.852 302.959 378.207C302.959 377.574 303.381 377.24 304.342 377.176L306.041 377.064V377.645C306.041 378.547 305.273 379.227 304.236 379.227ZM304.049 380.111C304.893 380.111 305.584 379.742 305.994 379.068H306.088V380H307.049V375.676C307.049 374.363 306.188 373.572 304.646 373.572C303.299 373.572 302.303 374.24 302.168 375.254H303.188C303.328 374.756 303.855 374.469 304.611 374.469C305.555 374.469 306.041 374.896 306.041 375.676V376.25L304.219 376.361C302.748 376.449 301.916 377.1 301.916 378.23C301.916 379.385 302.824 380.111 304.049 380.111ZM308.971 380H309.979V371.176H308.971V380ZM311.994 380H313.002V371.176H311.994V380ZM318.475 371.545V380H319.529V376.982H321.656C323.244 376.982 324.375 375.863 324.375 374.281C324.375 372.67 323.268 371.545 321.668 371.545H318.475ZM319.529 372.482H321.393C322.617 372.482 323.291 373.121 323.291 374.281C323.291 375.4 322.594 376.045 321.393 376.045H319.529V372.482ZM328.395 380.111C330.193 380.111 331.307 378.869 331.307 376.842C331.307 374.809 330.193 373.572 328.395 373.572C326.596 373.572 325.482 374.809 325.482 376.842C325.482 378.869 326.596 380.111 328.395 380.111ZM328.395 379.203C327.199 379.203 326.525 378.336 326.525 376.842C326.525 375.342 327.199 374.48 328.395 374.48C329.59 374.48 330.264 375.342 330.264 376.842C330.264 378.336 329.59 379.203 328.395 379.203ZM332.742 375.412C332.742 376.326 333.281 376.836 334.465 377.123L335.549 377.387C336.223 377.551 336.551 377.844 336.551 378.277C336.551 378.857 335.941 379.262 335.092 379.262C334.283 379.262 333.779 378.922 333.609 378.389H332.572C332.684 379.438 333.65 380.111 335.057 380.111C336.492 380.111 337.588 379.332 337.588 378.201C337.588 377.293 337.014 376.777 335.824 376.49L334.852 376.256C334.107 376.074 333.756 375.805 333.756 375.371C333.756 374.809 334.342 374.428 335.092 374.428C335.854 374.428 336.346 374.762 336.48 375.266H337.477C337.342 374.229 336.422 373.572 335.098 373.572C333.756 373.572 332.742 374.363 332.742 375.412ZM339.533 372.049V373.684H338.514V374.527H339.533V378.359C339.533 379.566 340.055 380.047 341.355 380.047C341.555 380.047 341.748 380.023 341.947 379.988V379.139C341.76 379.156 341.66 379.162 341.479 379.162C340.822 379.162 340.541 378.846 340.541 378.102V374.527H341.947V373.684H340.541V372.049H339.533ZM343.207 375.412C343.207 376.326 343.746 376.836 344.93 377.123L346.014 377.387C346.688 377.551 347.016 377.844 347.016 378.277C347.016 378.857 346.406 379.262 345.557 379.262C344.748 379.262 344.244 378.922 344.074 378.389H343.037C343.148 379.438 344.115 380.111 345.521 380.111C346.957 380.111 348.053 379.332 348.053 378.201C348.053 377.293 347.479 376.777 346.289 376.49L345.316 376.256C344.572 376.074 344.221 375.805 344.221 375.371C344.221 374.809 344.807 374.428 345.557 374.428C346.318 374.428 346.811 374.762 346.945 375.266H347.941C347.807 374.229 346.887 373.572 345.562 373.572C344.221 373.572 343.207 374.363 343.207 375.412ZM302.936 395.051H298.857V387.545H297.803V396H302.936V395.051ZM304.518 396H305.525V389.684H304.518V396ZM305.021 388.465C305.408 388.465 305.725 388.148 305.725 387.762C305.725 387.375 305.408 387.059 305.021 387.059C304.635 387.059 304.318 387.375 304.318 387.762C304.318 388.148 304.635 388.465 305.021 388.465ZM307.301 391.412C307.301 392.326 307.84 392.836 309.023 393.123L310.107 393.387C310.781 393.551 311.109 393.844 311.109 394.277C311.109 394.857 310.5 395.262 309.65 395.262C308.842 395.262 308.338 394.922 308.168 394.389H307.131C307.242 395.438 308.209 396.111 309.615 396.111C311.051 396.111 312.146 395.332 312.146 394.201C312.146 393.293 311.572 392.777 310.383 392.49L309.41 392.256C308.666 392.074 308.314 391.805 308.314 391.371C308.314 390.809 308.9 390.428 309.65 390.428C310.412 390.428 310.904 390.762 311.039 391.266H312.035C311.9 390.229 310.98 389.572 309.656 389.572C308.314 389.572 307.301 390.363 307.301 391.412ZM314.092 388.049V389.684H313.072V390.527H314.092V394.359C314.092 395.566 314.613 396.047 315.914 396.047C316.113 396.047 316.307 396.023 316.506 395.988V395.139C316.318 395.156 316.219 395.162 316.037 395.162C315.381 395.162 315.1 394.846 315.1 394.102V390.527H316.506V389.684H315.1V388.049H314.092ZM320.455 390.463C321.457 390.463 322.125 391.201 322.148 392.32H318.668C318.744 391.201 319.447 390.463 320.455 390.463ZM322.119 394.365C321.855 394.922 321.305 395.221 320.49 395.221C319.418 395.221 318.721 394.43 318.668 393.182V393.135H323.209V392.748C323.209 390.785 322.172 389.572 320.467 389.572C318.732 389.572 317.619 390.861 317.619 392.848C317.619 394.846 318.715 396.111 320.467 396.111C321.85 396.111 322.834 395.443 323.127 394.365H322.119ZM324.791 396H325.799V392.262C325.799 391.154 326.449 390.48 327.457 390.48C328.465 390.48 328.945 391.02 328.945 392.156V396H329.953V391.91C329.953 390.41 329.162 389.572 327.744 389.572C326.777 389.572 326.162 389.982 325.846 390.68H325.752V389.684H324.791V396ZM334.318 390.463C335.32 390.463 335.988 391.201 336.012 392.32H332.531C332.607 391.201 333.311 390.463 334.318 390.463ZM335.982 394.365C335.719 394.922 335.168 395.221 334.354 395.221C333.281 395.221 332.584 394.43 332.531 393.182V393.135H337.072V392.748C337.072 390.785 336.035 389.572 334.33 389.572C332.596 389.572 331.482 390.861 331.482 392.848C331.482 394.846 332.578 396.111 334.33 396.111C335.713 396.111 336.697 395.443 336.99 394.365H335.982ZM338.654 396H339.662V392.086C339.662 391.195 340.359 390.551 341.32 390.551C341.52 390.551 341.883 390.586 341.965 390.609V389.602C341.836 389.584 341.625 389.572 341.461 389.572C340.623 389.572 339.896 390.006 339.709 390.621H339.615V389.684H338.654V396Z" fill="#3E4249"/>
<rect width="80" height="32" transform="translate(365 368)" fill="white"/>
<path d="M373.945 380.199C375.744 380.199 377.08 379.197 377.361 377.645H376.289C376.02 378.623 375.123 379.227 373.945 379.227C372.316 379.227 371.297 377.896 371.297 375.775C371.297 373.654 372.316 372.318 373.939 372.318C375.105 372.318 376.008 373.004 376.289 374.094H377.361C377.109 372.465 375.721 371.346 373.939 371.346C371.643 371.346 370.213 373.045 370.213 375.775C370.213 378.5 371.648 380.199 373.945 380.199ZM381.598 380.111C383.396 380.111 384.51 378.869 384.51 376.842C384.51 374.809 383.396 373.572 381.598 373.572C379.799 373.572 378.686 374.809 378.686 376.842C378.686 378.869 379.799 380.111 381.598 380.111ZM381.598 379.203C380.402 379.203 379.729 378.336 379.729 376.842C379.729 375.342 380.402 374.48 381.598 374.48C382.793 374.48 383.467 375.342 383.467 376.842C383.467 378.336 382.793 379.203 381.598 379.203ZM386.092 380H387.1V376.262C387.1 375.154 387.75 374.48 388.758 374.48C389.766 374.48 390.246 375.02 390.246 376.156V380H391.254V375.91C391.254 374.41 390.463 373.572 389.045 373.572C388.078 373.572 387.463 373.982 387.146 374.68H387.053V373.684H386.092V380ZM393.1 380H394.107V376.262C394.107 375.154 394.758 374.48 395.766 374.48C396.773 374.48 397.254 375.02 397.254 376.156V380H398.262V375.91C398.262 374.41 397.471 373.572 396.053 373.572C395.086 373.572 394.471 373.982 394.154 374.68H394.061V373.684H393.1V380ZM402.627 374.463C403.629 374.463 404.297 375.201 404.32 376.32H400.84C400.916 375.201 401.619 374.463 402.627 374.463ZM404.291 378.365C404.027 378.922 403.477 379.221 402.662 379.221C401.59 379.221 400.893 378.43 400.84 377.182V377.135H405.381V376.748C405.381 374.785 404.344 373.572 402.639 373.572C400.904 373.572 399.791 374.861 399.791 376.848C399.791 378.846 400.887 380.111 402.639 380.111C404.021 380.111 405.006 379.443 405.299 378.365H404.291ZM412.189 375.617C412.014 374.492 411.076 373.572 409.541 373.572C407.771 373.572 406.646 374.85 406.646 376.818C406.646 378.828 407.777 380.111 409.547 380.111C411.064 380.111 412.008 379.256 412.189 378.096H411.17C410.982 378.811 410.391 379.203 409.541 379.203C408.416 379.203 407.689 378.277 407.689 376.818C407.689 375.389 408.404 374.48 409.541 374.48C410.449 374.48 411.006 374.99 411.17 375.617H412.189ZM414.217 372.049V373.684H413.197V374.527H414.217V378.359C414.217 379.566 414.738 380.047 416.039 380.047C416.238 380.047 416.432 380.023 416.631 379.988V379.139C416.443 379.156 416.344 379.162 416.162 379.162C415.506 379.162 415.225 378.846 415.225 378.102V374.527H416.631V373.684H415.225V372.049H414.217ZM418.178 380H419.186V373.684H418.178V380ZM418.682 372.465C419.068 372.465 419.385 372.148 419.385 371.762C419.385 371.375 419.068 371.059 418.682 371.059C418.295 371.059 417.979 371.375 417.979 371.762C417.979 372.148 418.295 372.465 418.682 372.465ZM423.703 380.111C425.502 380.111 426.615 378.869 426.615 376.842C426.615 374.809 425.502 373.572 423.703 373.572C421.904 373.572 420.791 374.809 420.791 376.842C420.791 378.869 421.904 380.111 423.703 380.111ZM423.703 379.203C422.508 379.203 421.834 378.336 421.834 376.842C421.834 375.342 422.508 374.48 423.703 374.48C424.898 374.48 425.572 375.342 425.572 376.842C425.572 378.336 424.898 379.203 423.703 379.203ZM428.197 380H429.205V376.262C429.205 375.154 429.855 374.48 430.863 374.48C431.871 374.48 432.352 375.02 432.352 376.156V380H433.359V375.91C433.359 374.41 432.568 373.572 431.15 373.572C430.184 373.572 429.568 373.982 429.252 374.68H429.158V373.684H428.197V380ZM435.059 375.412C435.059 376.326 435.598 376.836 436.781 377.123L437.865 377.387C438.539 377.551 438.867 377.844 438.867 378.277C438.867 378.857 438.258 379.262 437.408 379.262C436.6 379.262 436.096 378.922 435.926 378.389H434.889C435 379.438 435.967 380.111 437.373 380.111C438.809 380.111 439.904 379.332 439.904 378.201C439.904 377.293 439.33 376.777 438.141 376.49L437.168 376.256C436.424 376.074 436.072 375.805 436.072 375.371C436.072 374.809 436.658 374.428 437.408 374.428C438.17 374.428 438.662 374.762 438.797 375.266H439.793C439.658 374.229 438.738 373.572 437.414 373.572C436.072 373.572 435.059 374.363 435.059 375.412ZM388.436 395.051H384.357V387.545H383.303V396H388.436V395.051ZM390.018 396H391.025V389.684H390.018V396ZM390.521 388.465C390.908 388.465 391.225 388.148 391.225 387.762C391.225 387.375 390.908 387.059 390.521 387.059C390.135 387.059 389.818 387.375 389.818 387.762C389.818 388.148 390.135 388.465 390.521 388.465ZM392.801 391.412C392.801 392.326 393.34 392.836 394.523 393.123L395.607 393.387C396.281 393.551 396.609 393.844 396.609 394.277C396.609 394.857 396 395.262 395.15 395.262C394.342 395.262 393.838 394.922 393.668 394.389H392.631C392.742 395.438 393.709 396.111 395.115 396.111C396.551 396.111 397.646 395.332 397.646 394.201C397.646 393.293 397.072 392.777 395.883 392.49L394.91 392.256C394.166 392.074 393.814 391.805 393.814 391.371C393.814 390.809 394.4 390.428 395.15 390.428C395.912 390.428 396.404 390.762 396.539 391.266H397.535C397.4 390.229 396.48 389.572 395.156 389.572C393.814 389.572 392.801 390.363 392.801 391.412ZM399.592 388.049V389.684H398.572V390.527H399.592V394.359C399.592 395.566 400.113 396.047 401.414 396.047C401.613 396.047 401.807 396.023 402.006 395.988V395.139C401.818 395.156 401.719 395.162 401.537 395.162C400.881 395.162 400.6 394.846 400.6 394.102V390.527H402.006V389.684H400.6V388.049H399.592ZM405.955 390.463C406.957 390.463 407.625 391.201 407.648 392.32H404.168C404.244 391.201 404.947 390.463 405.955 390.463ZM407.619 394.365C407.355 394.922 406.805 395.221 405.99 395.221C404.918 395.221 404.221 394.43 404.168 393.182V393.135H408.709V392.748C408.709 390.785 407.672 389.572 405.967 389.572C404.232 389.572 403.119 390.861 403.119 392.848C403.119 394.846 404.215 396.111 405.967 396.111C407.35 396.111 408.334 395.443 408.627 394.365H407.619ZM410.291 396H411.299V392.262C411.299 391.154 411.949 390.48 412.957 390.48C413.965 390.48 414.445 391.02 414.445 392.156V396H415.453V391.91C415.453 390.41 414.662 389.572 413.244 389.572C412.277 389.572 411.662 389.982 411.346 390.68H411.252V389.684H410.291V396ZM419.818 390.463C420.82 390.463 421.488 391.201 421.512 392.32H418.031C418.107 391.201 418.811 390.463 419.818 390.463ZM421.482 394.365C421.219 394.922 420.668 395.221 419.854 395.221C418.781 395.221 418.084 394.43 418.031 393.182V393.135H422.572V392.748C422.572 390.785 421.535 389.572 419.83 389.572C418.096 389.572 416.982 390.861 416.982 392.848C416.982 394.846 418.078 396.111 419.83 396.111C421.213 396.111 422.197 395.443 422.49 394.365H421.482ZM424.154 396H425.162V392.086C425.162 391.195 425.859 390.551 426.82 390.551C427.02 390.551 427.383 390.586 427.465 390.609V389.602C427.336 389.584 427.125 389.572 426.961 389.572C426.123 389.572 425.396 390.006 425.209 390.621H425.115V389.684H424.154V396Z" fill="#3E4249"/>
<rect width="115" height="16" transform="translate(177 464)" fill="white"/>
<path d="M184.982 476.111C186.781 476.111 187.895 474.869 187.895 472.842C187.895 470.809 186.781 469.572 184.982 469.572C183.184 469.572 182.07 470.809 182.07 472.842C182.07 474.869 183.184 476.111 184.982 476.111ZM184.982 475.203C183.787 475.203 183.113 474.336 183.113 472.842C183.113 471.342 183.787 470.48 184.982 470.48C186.178 470.48 186.852 471.342 186.852 472.842C186.852 474.336 186.178 475.203 184.982 475.203ZM189.477 476H190.484V472.262C190.484 471.154 191.135 470.48 192.143 470.48C193.15 470.48 193.631 471.02 193.631 472.156V476H194.639V471.91C194.639 470.41 193.848 469.572 192.43 469.572C191.463 469.572 190.848 469.982 190.531 470.68H190.438V469.684H189.477V476ZM197.668 468.482H199.701C200.791 468.482 201.447 469.086 201.447 470.1C201.447 471.137 200.832 471.717 199.748 471.717H197.668V468.482ZM197.668 472.654H199.748L201.559 476H202.795L200.838 472.49C201.898 472.156 202.537 471.242 202.537 470.064C202.537 468.541 201.471 467.545 199.842 467.545H196.613V476H197.668V472.654ZM206.744 476.111C208.543 476.111 209.656 474.869 209.656 472.842C209.656 470.809 208.543 469.572 206.744 469.572C204.945 469.572 203.832 470.809 203.832 472.842C203.832 474.869 204.945 476.111 206.744 476.111ZM206.744 475.203C205.549 475.203 204.875 474.336 204.875 472.842C204.875 471.342 205.549 470.48 206.744 470.48C207.939 470.48 208.613 471.342 208.613 472.842C208.613 474.336 207.939 475.203 206.744 475.203ZM213.834 476.111C215.633 476.111 216.746 474.869 216.746 472.842C216.746 470.809 215.633 469.572 213.834 469.572C212.035 469.572 210.922 470.809 210.922 472.842C210.922 474.869 212.035 476.111 213.834 476.111ZM213.834 475.203C212.639 475.203 211.965 474.336 211.965 472.842C211.965 471.342 212.639 470.48 213.834 470.48C215.029 470.48 215.703 471.342 215.703 472.842C215.703 474.336 215.029 475.203 213.834 475.203ZM218.328 476H219.336V472.086C219.336 471.195 219.975 470.48 220.801 470.48C221.598 470.48 222.119 470.961 222.119 471.711V476H223.127V471.939C223.127 471.137 223.713 470.48 224.592 470.48C225.482 470.48 225.922 470.938 225.922 471.869V476H226.93V471.635C226.93 470.311 226.209 469.572 224.92 469.572C224.047 469.572 223.326 470.012 222.986 470.68H222.893C222.6 470.023 222.002 469.572 221.146 469.572C220.303 469.572 219.67 469.977 219.383 470.68H219.289V469.684H218.328V476ZM237.23 476V467.545H236.006L233.111 474.6H233.018L230.123 467.545H228.898V476H229.883V469.543H229.953L232.619 476H233.51L236.176 469.543H236.246V476H237.23ZM241.777 470.463C242.779 470.463 243.447 471.201 243.471 472.32H239.99C240.066 471.201 240.77 470.463 241.777 470.463ZM243.441 474.365C243.178 474.922 242.627 475.221 241.812 475.221C240.74 475.221 240.043 474.43 239.99 473.182V473.135H244.531V472.748C244.531 470.785 243.494 469.572 241.789 469.572C240.055 469.572 238.941 470.861 238.941 472.848C238.941 474.846 240.037 476.111 241.789 476.111C243.172 476.111 244.156 475.443 244.449 474.365H243.441ZM245.967 471.412C245.967 472.326 246.506 472.836 247.689 473.123L248.773 473.387C249.447 473.551 249.775 473.844 249.775 474.277C249.775 474.857 249.166 475.262 248.316 475.262C247.508 475.262 247.004 474.922 246.834 474.389H245.797C245.908 475.438 246.875 476.111 248.281 476.111C249.717 476.111 250.812 475.332 250.812 474.201C250.812 473.293 250.238 472.777 249.049 472.49L248.076 472.256C247.332 472.074 246.98 471.805 246.98 471.371C246.98 470.809 247.566 470.428 248.316 470.428C249.078 470.428 249.57 470.762 249.705 471.266H250.701C250.566 470.229 249.646 469.572 248.322 469.572C246.98 469.572 245.967 470.363 245.967 471.412ZM252.131 471.412C252.131 472.326 252.67 472.836 253.854 473.123L254.938 473.387C255.611 473.551 255.939 473.844 255.939 474.277C255.939 474.857 255.33 475.262 254.48 475.262C253.672 475.262 253.168 474.922 252.998 474.389H251.961C252.072 475.438 253.039 476.111 254.445 476.111C255.881 476.111 256.977 475.332 256.977 474.201C256.977 473.293 256.402 472.777 255.213 472.49L254.24 472.256C253.496 472.074 253.145 471.805 253.145 471.371C253.145 470.809 253.73 470.428 254.48 470.428C255.242 470.428 255.734 470.762 255.869 471.266H256.865C256.73 470.229 255.811 469.572 254.486 469.572C253.145 469.572 252.131 470.363 252.131 471.412ZM260.504 475.227C259.771 475.227 259.227 474.852 259.227 474.207C259.227 473.574 259.648 473.24 260.609 473.176L262.309 473.064V473.645C262.309 474.547 261.541 475.227 260.504 475.227ZM260.316 476.111C261.16 476.111 261.852 475.742 262.262 475.068H262.355V476H263.316V471.676C263.316 470.363 262.455 469.572 260.914 469.572C259.566 469.572 258.57 470.24 258.436 471.254H259.455C259.596 470.756 260.123 470.469 260.879 470.469C261.822 470.469 262.309 470.896 262.309 471.676V472.25L260.486 472.361C259.016 472.449 258.184 473.1 258.184 474.23C258.184 475.385 259.092 476.111 260.316 476.111ZM267.734 475.016C266.562 475.016 265.906 474.125 265.906 472.748C265.906 471.371 266.562 470.48 267.734 470.48C268.9 470.48 269.609 471.371 269.609 472.748C269.609 474.125 268.906 475.016 267.734 475.016ZM267.781 478.426C269.504 478.426 270.594 477.523 270.594 476.111V469.684H269.633V470.686H269.539C269.176 470.006 268.396 469.572 267.512 469.572C265.889 469.572 264.863 470.855 264.863 472.748C264.863 474.641 265.877 475.906 267.512 475.906C268.379 475.906 269.094 475.514 269.492 474.816H269.586V476.059C269.586 476.99 268.912 477.547 267.781 477.547C266.873 477.547 266.311 477.213 266.199 476.697H265.133C265.285 477.74 266.258 478.426 267.781 478.426ZM275.012 470.463C276.014 470.463 276.682 471.201 276.705 472.32H273.225C273.301 471.201 274.004 470.463 275.012 470.463ZM276.676 474.365C276.412 474.922 275.861 475.221 275.047 475.221C273.975 475.221 273.277 474.43 273.225 473.182V473.135H277.766V472.748C277.766 470.785 276.729 469.572 275.023 469.572C273.289 469.572 272.176 470.861 272.176 472.848C272.176 474.846 273.271 476.111 275.023 476.111C276.406 476.111 277.391 475.443 277.684 474.365H276.676ZM279.816 472.484C279.816 474.6 280.355 476.311 281.48 477.799H282.336C281.498 476.732 280.854 474.477 280.854 472.484C280.854 470.504 281.504 468.242 282.336 467.176H281.48C280.355 468.664 279.816 470.375 279.816 472.484ZM286.145 472.49C286.145 470.375 285.605 468.664 284.48 467.176H283.625C284.463 468.242 285.107 470.498 285.107 472.49C285.107 474.471 284.457 476.732 283.625 477.799H284.48C285.605 476.311 286.145 474.6 286.145 472.49Z" fill="#3E4249"/>
<defs>
<filter id="filter0_d" x="543" y="78" width="34" height="22" filterUnits="userSpaceOnUse" color-interpolation-filters="sRGB">
<feFlood flood-opacity="0" result="BackgroundImageFix"/>
<feColorMatrix in="SourceAlpha" type="matrix" values="0 0 0 0 0 0 0 0 0 0 0 0 0 0 0 0 0 0 127 0"/>
<feOffset dy="1"/>
<feGaussianBlur stdDeviation="0.5"/>
<feColorMatrix type="matrix" values="0 0 0 0 0 0 0 0 0 0 0 0 0 0 0 0 0 0 0.08 0"/>
<feBlend mode="normal" in2="BackgroundImageFix" result="effect1_dropShadow"/>
<feBlend mode="normal" in="SourceGraphic" in2="effect1_dropShadow" result="shape"/>
</filter>
<filter id="filter1_d" x="527" y="155" width="34" height="22" filterUnits="userSpaceOnUse" color-interpolation-filters="sRGB">
<feFlood flood-opacity="0" result="BackgroundImageFix"/>
<feColorMatrix in="SourceAlpha" type="matrix" values="0 0 0 0 0 0 0 0 0 0 0 0 0 0 0 0 0 0 127 0"/>
<feOffset dy="1"/>
<feGaussianBlur stdDeviation="0.5"/>
<feColorMatrix type="matrix" values="0 0 0 0 0 0 0 0 0 0 0 0 0 0 0 0 0 0 0.08 0"/>
<feBlend mode="normal" in2="BackgroundImageFix" result="effect1_dropShadow"/>
<feBlend mode="normal" in="SourceGraphic" in2="effect1_dropShadow" result="shape"/>
</filter>
<filter id="filter2_d" x="439" y="155" width="34" height="22" filterUnits="userSpaceOnUse" color-interpolation-filters="sRGB">
<feFlood flood-opacity="0" result="BackgroundImageFix"/>
<feColorMatrix in="SourceAlpha" type="matrix" values="0 0 0 0 0 0 0 0 0 0 0 0 0 0 0 0 0 0 127 0"/>
<feOffset dy="1"/>
<feGaussianBlur stdDeviation="0.5"/>
<feColorMatrix type="matrix" values="0 0 0 0 0 0 0 0 0 0 0 0 0 0 0 0 0 0 0.08 0"/>
<feBlend mode="normal" in2="BackgroundImageFix" result="effect1_dropShadow"/>
<feBlend mode="normal" in="SourceGraphic" in2="effect1_dropShadow" result="shape"/>
</filter>
<filter id="filter3_d" x="381" y="197" width="34" height="22" filterUnits="userSpaceOnUse" color-interpolation-filters="sRGB">
<feFlood flood-opacity="0" result="BackgroundImageFix"/>
<feColorMatrix in="SourceAlpha" type="matrix" values="0 0 0 0 0 0 0 0 0 0 0 0 0 0 0 0 0 0 127 0"/>
<feOffset dy="1"/>
<feGaussianBlur stdDeviation="0.5"/>
<feColorMatrix type="matrix" values="0 0 0 0 0 0 0 0 0 0 0 0 0 0 0 0 0 0 0.08 0"/>
<feBlend mode="normal" in2="BackgroundImageFix" result="effect1_dropShadow"/>
<feBlend mode="normal" in="SourceGraphic" in2="effect1_dropShadow" result="shape"/>
</filter>
<filter id="filter4_d" x="163" y="295" width="34" height="22" filterUnits="userSpaceOnUse" color-interpolation-filters="sRGB">
<feFlood flood-opacity="0" result="BackgroundImageFix"/>
<feColorMatrix in="SourceAlpha" type="matrix" values="0 0 0 0 0 0 0 0 0 0 0 0 0 0 0 0 0 0 127 0"/>
<feOffset dy="1"/>
<feGaussianBlur stdDeviation="0.5"/>
<feColorMatrix type="matrix" values="0 0 0 0 0 0 0 0 0 0 0 0 0 0 0 0 0 0 0.08 0"/>
<feBlend mode="normal" in2="BackgroundImageFix" result="effect1_dropShadow"/>
<feBlend mode="normal" in="SourceGraphic" in2="effect1_dropShadow" result="shape"/>
</filter>
<filter id="filter5_d" x="195" y="215" width="34" height="22" filterUnits="userSpaceOnUse" color-interpolation-filters="sRGB">
<feFlood flood-opacity="0" result="BackgroundImageFix"/>
<feColorMatrix in="SourceAlpha" type="matrix" values="0 0 0 0 0 0 0 0 0 0 0 0 0 0 0 0 0 0 127 0"/>
<feOffset dy="1"/>
<feGaussianBlur stdDeviation="0.5"/>
<feColorMatrix type="matrix" values="0 0 0 0 0 0 0 0 0 0 0 0 0 0 0 0 0 0 0.08 0"/>
<feBlend mode="normal" in2="BackgroundImageFix" result="effect1_dropShadow"/>
<feBlend mode="normal" in="SourceGraphic" in2="effect1_dropShadow" result="shape"/>
</filter>
<filter id="filter6_d" x="303" y="231" width="34" height="22" filterUnits="userSpaceOnUse" color-interpolation-filters="sRGB">
<feFlood flood-opacity="0" result="BackgroundImageFix"/>
<feColorMatrix in="SourceAlpha" type="matrix" values="0 0 0 0 0 0 0 0 0 0 0 0 0 0 0 0 0 0 127 0"/>
<feOffset dy="1"/>
<feGaussianBlur stdDeviation="0.5"/>
<feColorMatrix type="matrix" values="0 0 0 0 0 0 0 0 0 0 0 0 0 0 0 0 0 0 0.08 0"/>
<feBlend mode="normal" in2="BackgroundImageFix" result="effect1_dropShadow"/>
<feBlend mode="normal" in="SourceGraphic" in2="effect1_dropShadow" result="shape"/>
</filter>
</defs>
</svg>
