<svg version="1.1" xmlns="http://www.w3.org/2000/svg" xmlns:xlink="http://www.w3.org/1999/xlink" width="802" height="620"><style xmlns="http://www.w3.org/1999/xhtml"></style><defs><clipPath id="lhMNzCxHkmVF"><path fill="none" stroke="none" data-layerId="HQhTFG1dy0oC" stroke-dasharray="1.7976931348623157e+308" vector-effect="non-scaling-stroke" d="M 0 0 L 25 0 L 25 25 L 0 25 Z"/></clipPath><clipPath id="DXpIVaudPBTq"><path fill="none" stroke="none" data-layerId="HQhTFG1dy0oC" stroke-dasharray="1.7976931348623157e+308" vector-effect="non-scaling-stroke" d="M 0 0 L 25 0 L 25 25 L 0 25 Z"/></clipPath><clipPath id="QmUwbdpssnxG"><path fill="none" stroke="none" data-layerId="HQhTFG1dy0oC" stroke-dasharray="1.7976931348623157e+308" vector-effect="non-scaling-stroke" d="M 0 0 L 25 0 L 25 25 L 0 25 Z"/></clipPath><clipPath id="RhUUOMxhMgRV"><path fill="none" stroke="none" data-layerId="HQhTFG1dy0oC" stroke-dasharray="1.7976931348623157e+308" vector-effect="non-scaling-stroke" d="M 0 0 L 25 0 L 25 25 L 0 25 Z"/></clipPath></defs><g transform="translate(0,0)"><path fill="none" stroke="none" stroke-dasharray="undefined" vector-effect="non-scaling-stroke"/><g><rect fill="#FFFFFF" stroke="none" x="0" y="0" width="802" height="620"/></g><g data-width="120" data-height="22" data-layerId="HQhTFG1dy0oC" transform="translate(0.5,0.5) matrix(1,0,0,1,10,10)"><g><g transform="translate(0,0) scale(1.2,0.22)"><g><path fill="#FFFFFF" stroke="#000000" stroke-dasharray="1.7976931348623157e+308" vector-effect="non-scaling-stroke" d="M 0 0 L 100 0 Q 100 0 100 0 L 100 100 Q 100 100 100 100 L 0 100 Q 0 100 0 100 L 0 0 Q 0 0 0 0 Z" stroke-miterlimit="10"/><g transform="scale(0.8333333333333334,4.545454545454546)"/></g></g></g></g><g transform="matrix(1,0,0,1,12,12)"><g><g><rect fill="rgb(0,0,0)" stroke="none" x="0" y="0" width="116" height="22" fill-opacity="0"/></g></g><g><g><rect fill="rgb(0,0,0)" stroke="none" x="0" y="0" width="116" height="18" fill-opacity="0"/></g></g><g><g><rect fill="rgb(0,0,0)" stroke="none" x="40.203125" y="0" width="36" height="17" fill-opacity="0"/></g><text fill="rgb(0, 0, 0)" stroke="none" font-family="Arial" font-size="16px" font-style="normal" font-weight="700" text-decoration="" line-height="18.5px" x="40.203125" y="14" data-layerId="HQhTFG1dy0oC">User</text></g></g><g data-width="120" data-height="568" data-layerId="HQhTFG1dy0oC" transform="translate(0.5,0.5) matrix(1,0,0,1,10,32)"><g><g transform="translate(0,0) scale(1.2,5.68)"><g><path fill="#000000" stroke="#000000" data-layerId="HQhTFG1dy0oC" stroke-dasharray="5,2" vector-effect="non-scaling-stroke" d="M 50 0 L 50 100" stroke-miterlimit="10"/><g transform="scale(0.8333333333333334,0.17605633802816903)"/></g></g></g></g><g data-width="120" data-height="22" data-layerId="HQhTFG1dy0oC" transform="translate(0.5,0.5) matrix(1,0,0,1,170,10)"><g><g transform="translate(0,0) scale(1.2,0.22)"><g><path fill="#FFFFFF" stroke="#000000" data-layerId="HQhTFG1dy0oC" stroke-dasharray="1.7976931348623157e+308" vector-effect="non-scaling-stroke" d="M 0 0 L 100 0 Q 100 0 100 0 L 100 100 Q 100 100 100 100 L 0 100 Q 0 100 0 100 L 0 0 Q 0 0 0 0 Z" stroke-miterlimit="10"/><g transform="scale(0.8333333333333334,4.545454545454546)"/></g></g></g></g><g transform="matrix(1,0,0,1,172,12)"><g><g><rect fill="rgb(0,0,0)" stroke="none" x="0" y="0" width="116" height="22" fill-opacity="0"/></g></g><g><g><rect fill="rgb(0,0,0)" stroke="none" x="0" y="0" width="116" height="18" fill-opacity="0"/></g></g><g><g><rect fill="rgb(0,0,0)" stroke="none" x="44.671875" y="0" width="26" height="17" fill-opacity="0"/></g><text fill="rgb(0, 0, 0)" stroke="none" font-family="Arial" font-size="16px" font-style="normal" font-weight="700" text-decoration="" line-height="18.5px" x="44.671875" y="14" data-layerId="HQhTFG1dy0oC">Bot</text></g></g><g data-width="120" data-height="568" data-layerId="HQhTFG1dy0oC" transform="translate(0.5,0.5) matrix(1,0,0,1,170,32)"><g><g transform="translate(0,0) scale(1.2,5.68)"><g><path fill="#000000" stroke="#000000" data-layerId="HQhTFG1dy0oC" stroke-dasharray="5,2" vector-effect="non-scaling-stroke" d="M 50 0 L 50 100" stroke-miterlimit="10"/><g transform="scale(0.8333333333333334,0.17605633802816903)"/></g></g></g></g><g data-width="120" data-height="22" data-layerId="HQhTFG1dy0oC" transform="translate(0.5,0.5) matrix(1,0,0,1,490,10)"><g><g transform="translate(0,0) scale(1.2,0.22)"><g><path fill="#FFFFFF" stroke="#000000" data-layerId="HQhTFG1dy0oC" stroke-dasharray="1.7976931348623157e+308" vector-effect="non-scaling-stroke" d="M 0 0 L 100 0 Q 100 0 100 0 L 100 100 Q 100 100 100 100 L 0 100 Q 0 100 0 100 L 0 0 Q 0 0 0 0 Z" stroke-miterlimit="10"/><g transform="scale(0.8333333333333334,4.545454545454546)"/></g></g></g></g><g transform="matrix(1,0,0,1,492,12)"><g><g><rect fill="rgb(0,0,0)" stroke="none" x="0" y="0" width="116" height="22" fill-opacity="0"/></g></g><g><g><rect fill="rgb(0,0,0)" stroke="none" x="0" y="0" width="116" height="18" fill-opacity="0"/></g></g><g><g><rect fill="rgb(0,0,0)" stroke="none" x="12.640625" y="0" width="90" height="17" fill-opacity="0"/></g><text fill="rgb(0, 0, 0)" stroke="none" font-family="Arial" font-size="16px" font-style="normal" font-weight="700" text-decoration="" line-height="18.5px" x="12.640625" y="14" data-layerId="HQhTFG1dy0oC">Auth</text><text fill="rgb(0, 0, 0)" stroke="none" font-family="Arial" font-size="16px" font-style="normal" font-weight="700" text-decoration="" line-height="18.5px" x="53.515625" y="14" data-layerId="HQhTFG1dy0oC">Server</text></g></g><g data-width="120" data-height="568" data-layerId="HQhTFG1dy0oC" transform="translate(0.5,0.5) matrix(1,0,0,1,490,32)"><g><g transform="translate(0,0) scale(1.2,5.68)"><g><path fill="#000000" stroke="#000000" data-layerId="HQhTFG1dy0oC" stroke-dasharray="5,2" vector-effect="non-scaling-stroke" d="M 50 0 L 50 100" stroke-miterlimit="10"/><g transform="scale(0.8333333333333334,0.17605633802816903)"/></g></g></g></g><g data-width="140" data-height="22" data-layerId="HQhTFG1dy0oC" transform="translate(0.5,0.5) matrix(1,0,0,1,320,10)"><g><g transform="translate(0,0) scale(1.4,0.22)"><g><path fill="#FFFFFF" stroke="#000000" data-layerId="HQhTFG1dy0oC" stroke-dasharray="1.7976931348623157e+308" vector-effect="non-scaling-stroke" d="M 0 0 L 100 0 Q 100 0 100 0 L 100 100 Q 100 100 100 100 L 0 100 Q 0 100 0 100 L 0 0 Q 0 0 0 0 Z" stroke-miterlimit="10"/><g transform="scale(0.7142857142857143,4.545454545454546)"/></g></g></g></g><g transform="matrix(1,0,0,1,322,12)"><g><g><rect fill="rgb(0,0,0)" stroke="none" x="0" y="0" width="136" height="22" fill-opacity="0"/></g></g><g><g><rect fill="rgb(0,0,0)" stroke="none" x="0" y="0" width="136" height="18" fill-opacity="0"/></g></g><g><g><rect fill="rgb(0,0,0)" stroke="none" x="4.40625" y="0" width="128" height="17" fill-opacity="0"/></g><text fill="rgb(0, 0, 0)" stroke="none" font-family="Arial" font-size="16px" font-style="normal" font-weight="700" text-decoration="" line-height="18.5px" x="4.40625" y="14" data-layerId="HQhTFG1dy0oC">Resource</text><text fill="rgb(0, 0, 0)" stroke="none" font-family="Arial" font-size="16px" font-style="normal" font-weight="700" text-decoration="" line-height="18.5px" x="81.765625" y="14" data-layerId="HQhTFG1dy0oC">Server</text></g></g><g data-width="140" data-height="568" data-layerId="HQhTFG1dy0oC" transform="translate(0.5,0.5) matrix(1,0,0,1,320,32)"><g><g transform="translate(0,0) scale(1.4,5.68)"><g><path fill="#000000" stroke="#000000" data-layerId="HQhTFG1dy0oC" stroke-dasharray="5,2" vector-effect="non-scaling-stroke" d="M 50 0 L 50 100" stroke-miterlimit="10"/><g transform="scale(0.7142857142857143,0.17605633802816903)"/></g></g></g></g><g data-width="140" data-height="22" data-layerId="HQhTFG1dy0oC" transform="translate(0.5,0.5) matrix(1,0,0,1,640,10)"><g><g transform="translate(0,0) scale(1.4,0.22)"><g><path fill="#FFFFFF" stroke="#000000" data-layerId="HQhTFG1dy0oC" stroke-dasharray="1.7976931348623157e+308" vector-effect="non-scaling-stroke" d="M 0 0 L 100 0 Q 100 0 100 0 L 100 100 Q 100 100 100 100 L 0 100 Q 0 100 0 100 L 0 0 Q 0 0 0 0 Z" stroke-miterlimit="10"/><g transform="scale(0.7142857142857143,4.545454545454546)"/></g></g></g></g><g transform="matrix(1,0,0,1,642,12)"><g><g><rect fill="rgb(0,0,0)" stroke="none" x="0" y="0" width="136" height="22" fill-opacity="0"/></g></g><g><g><rect fill="rgb(0,0,0)" stroke="none" x="0" y="0" width="136" height="18" fill-opacity="0"/></g></g><g><g><rect fill="rgb(0,0,0)" stroke="none" x="7.390625" y="0" width="122" height="17" fill-opacity="0"/></g><text fill="rgb(0, 0, 0)" stroke="none" font-family="Arial" font-size="16px" font-style="normal" font-weight="700" text-decoration="" line-height="18.5px" x="7.390625" y="14" data-layerId="HQhTFG1dy0oC">Symphony</text><text fill="rgb(0, 0, 0)" stroke="none" font-family="Arial" font-size="16px" font-style="normal" font-weight="700" text-decoration="" line-height="18.5px" x="93.03125" y="14" data-layerId="HQhTFG1dy0oC">APIs</text></g></g><g data-width="140" data-height="568" data-layerId="HQhTFG1dy0oC" transform="translate(0.5,0.5) matrix(1,0,0,1,640,32)"><g><g transform="translate(0,0) scale(1.4,5.68)"><g><path fill="#000000" stroke="#000000" data-layerId="HQhTFG1dy0oC" stroke-dasharray="5,2" vector-effect="non-scaling-stroke" d="M 50 0 L 50 100" stroke-miterlimit="10"/><g transform="scale(0.7142857142857143,0.17605633802816903)"/></g></g></g></g><g transform="matrix(1,0,0,1,588,265)"><g><g><rect fill="rgb(0,0,0)" stroke="none" x="0" y="0" width="120" height="36" fill-opacity="0"/></g></g><g><g><rect fill="rgb(0,0,0)" stroke="none" x="0" y="0" width="120" height="36" fill-opacity="0"/></g></g><g><g><rect fill="rgb(0,0,0)" stroke="none" x="0" y="0" width="109" height="35" fill-opacity="0"/></g></g><g><g><rect fill="rgb(0,0,0)" stroke="none" x="0" y="0" width="109" height="35" fill-opacity="0"/></g><text fill="rgb(116, 27, 71)" stroke="none" font-family="Arial" font-size="16px" font-style="normal" font-weight="normal" text-decoration="" line-height="18.5px" x="0" y="14" data-layerId="HQhTFG1dy0oC">userId</text><text fill="rgb(116, 27, 71)" stroke="none" font-family="Arial" font-size="16px" font-style="normal" font-weight="normal" text-decoration="" line-height="18.5px" x="48.90625" y="14" data-layerId="HQhTFG1dy0oC">matches</text><text fill="rgb(116, 27, 71)" stroke="none" font-family="Arial" font-size="16px" font-style="normal" font-weight="normal" text-decoration="" line-height="18.5px" x="0" y="32" data-layerId="HQhTFG1dy0oC">messageId</text><text fill="rgb(116, 27, 71)" stroke="none" font-family="Arial" font-size="16px" font-style="normal" font-weight="normal" text-decoration="" line-height="18.5px" x="78.265625" y="32" data-layerId="HQhTFG1dy0oC">?</text></g></g><g transform="matrix(1,0,0,1,420,422)"><g><g><rect fill="rgb(0,0,0)" stroke="none" x="0" y="0" width="120" height="72" fill-opacity="0"/></g></g><g><g><rect fill="rgb(0,0,0)" stroke="none" x="0" y="0" width="120" height="72" fill-opacity="0"/></g></g><g><g><rect fill="rgb(0,0,0)" stroke="none" x="0" y="0" width="99" height="71" fill-opacity="0"/></g></g><g><g><rect fill="rgb(0,0,0)" stroke="none" x="0" y="0" width="99" height="71" fill-opacity="0"/></g><text fill="rgb(116, 27, 71)" stroke="none" font-family="Arial" font-size="16px" font-style="normal" font-weight="normal" text-decoration="" line-height="18.5px" x="0" y="14" data-layerId="HQhTFG1dy0oC">Verify</text><text fill="rgb(116, 27, 71)" stroke="none" font-family="Arial" font-size="16px" font-style="normal" font-weight="normal" text-decoration="" line-height="18.5px" x="44.453125" y="14" data-layerId="HQhTFG1dy0oC">JWT</text><text fill="rgb(116, 27, 71)" stroke="none" font-family="Arial" font-size="16px" font-style="normal" font-weight="normal" text-decoration="" line-height="18.5px" x="0" y="32" data-layerId="HQhTFG1dy0oC">signature</text><text fill="rgb(116, 27, 71)" stroke="none" font-family="Arial" font-size="16px" font-style="normal" font-weight="normal" text-decoration="" line-height="18.5px" x="70.265625" y="32" data-layerId="HQhTFG1dy0oC">with</text><text fill="rgb(116, 27, 71)" stroke="none" font-family="Arial" font-size="16px" font-style="normal" font-weight="normal" text-decoration="" line-height="18.5px" x="0" y="50" data-layerId="HQhTFG1dy0oC">Auth</text><text fill="rgb(116, 27, 71)" stroke="none" font-family="Arial" font-size="16px" font-style="normal" font-weight="normal" text-decoration="" line-height="18.5px" x="37.359375" y="50" data-layerId="HQhTFG1dy0oC">Server</text><text fill="rgb(116, 27, 71)" stroke="none" font-family="Arial" font-size="16px" font-style="normal" font-weight="normal" text-decoration="" line-height="18.5px" x="0" y="68" data-layerId="HQhTFG1dy0oC">public</text><text fill="rgb(116, 27, 71)" stroke="none" font-family="Arial" font-size="16px" font-style="normal" font-weight="normal" text-decoration="" line-height="18.5px" x="46.25" y="68" data-layerId="HQhTFG1dy0oC">key</text></g></g><g transform="matrix(1,0,0,1,420,510)"><g><g><rect fill="rgb(0,0,0)" stroke="none" x="0" y="0" width="127" height="54" fill-opacity="0"/></g></g><g><g><rect fill="rgb(0,0,0)" stroke="none" x="0" y="0" width="127" height="54" fill-opacity="0"/></g></g><g><g><rect fill="rgb(0,0,0)" stroke="none" x="0" y="0" width="124" height="53" fill-opacity="0"/></g></g><g><g><rect fill="rgb(0,0,0)" stroke="none" x="0" y="0" width="124" height="53" fill-opacity="0"/></g><text fill="rgb(116, 27, 71)" stroke="none" font-family="Arial" font-size="16px" font-style="normal" font-weight="normal" text-decoration="" line-height="18.5px" x="0" y="14" data-layerId="HQhTFG1dy0oC">Verify</text><text fill="rgb(116, 27, 71)" stroke="none" font-family="Arial" font-size="16px" font-style="normal" font-weight="normal" text-decoration="" line-height="18.5px" x="44.453125" y="14" data-layerId="HQhTFG1dy0oC">JWT</text><text fill="rgb(116, 27, 71)" stroke="none" font-family="Arial" font-size="16px" font-style="normal" font-weight="normal" text-decoration="" line-height="18.5px" x="0" y="32" data-layerId="HQhTFG1dy0oC">contains</text><text fill="rgb(116, 27, 71)" stroke="none" font-family="Arial" font-size="16px" font-style="normal" font-weight="normal" text-decoration="" line-height="18.5px" x="64.03125" y="32" data-layerId="HQhTFG1dy0oC">grant</text><text fill="rgb(116, 27, 71)" stroke="none" font-family="Arial" font-size="16px" font-style="normal" font-weight="normal" text-decoration="" line-height="18.5px" x="104.953125" y="32" data-layerId="HQhTFG1dy0oC">for</text><text fill="rgb(116, 27, 71)" stroke="none" font-family="Arial" font-size="16px" font-style="normal" font-weight="normal" text-decoration="" line-height="18.5px" x="0" y="50" data-layerId="HQhTFG1dy0oC"> /</text><text fill="rgb(116, 27, 71)" stroke="none" font-family="Arial" font-size="16px" font-style="normal" font-weight="normal" text-decoration="" line-height="18.5px" x="4.4375" y="50" data-layerId="HQhTFG1dy0oC">balance</text></g></g><g transform="matrix(1,0,0,1,588,326)"><g><g><rect fill="rgb(0,0,0)" stroke="none" x="0" y="0" width="120" height="72" fill-opacity="0"/></g></g><g><g><rect fill="rgb(0,0,0)" stroke="none" x="0" y="0" width="120" height="36" fill-opacity="0"/></g></g><g><g><rect fill="rgb(0,0,0)" stroke="none" x="0" y="0" width="117" height="35" fill-opacity="0"/></g></g><g><g><rect fill="rgb(0,0,0)" stroke="none" x="0" y="0" width="117" height="35" fill-opacity="0"/></g><text fill="rgb(116, 27, 71)" stroke="none" font-family="Arial" font-size="16px" font-style="normal" font-weight="normal" text-decoration="" line-height="18.5px" x="0" y="14" data-layerId="HQhTFG1dy0oC">Mint</text><text fill="rgb(116, 27, 71)" stroke="none" font-family="Arial" font-size="16px" font-style="normal" font-weight="normal" text-decoration="" line-height="18.5px" x="34.671875" y="14" data-layerId="HQhTFG1dy0oC">and</text><text fill="rgb(116, 27, 71)" stroke="none" font-family="Arial" font-size="16px" font-style="normal" font-weight="normal" text-decoration="" line-height="18.5px" x="65.8125" y="14" data-layerId="HQhTFG1dy0oC">sign</text><text fill="rgb(116, 27, 71)" stroke="none" font-family="Arial" font-size="16px" font-style="normal" font-weight="normal" text-decoration="" line-height="18.5px" x="0" y="32" data-layerId="HQhTFG1dy0oC">token</text><text fill="rgb(116, 27, 71)" stroke="none" font-family="Arial" font-size="16px" font-style="normal" font-weight="normal" text-decoration="" line-height="18.5px" x="43.578125" y="32" data-layerId="HQhTFG1dy0oC">containing</text></g><g><g><rect fill="rgb(0,0,0)" stroke="none" x="0" y="36" width="120" height="18" fill-opacity="0"/></g></g><g><g><rect fill="rgb(0,0,0)" stroke="none" x="0" y="36" width="102" height="17" fill-opacity="0"/></g></g><g><g><rect fill="rgb(0,0,0)" stroke="none" x="0" y="36" width="102" height="17" fill-opacity="0"/></g><text fill="rgb(116, 27, 71)" stroke="none" font-family="Arial" font-size="16px" font-style="normal" font-weight="normal" text-decoration="" line-height="18.5px" x="0" y="50" data-layerId="HQhTFG1dy0oC">username</text><text fill="rgb(116, 27, 71)" stroke="none" font-family="Arial" font-size="16px" font-style="normal" font-weight="normal" text-decoration="" line-height="18.5px" x="75.59375" y="50" data-layerId="HQhTFG1dy0oC">and</text></g><g><g><rect fill="rgb(0,0,0)" stroke="none" x="0" y="54" width="120" height="18" fill-opacity="0"/></g></g><g><g><rect fill="rgb(0,0,0)" stroke="none" x="0" y="54" width="101" height="17" fill-opacity="0"/></g></g><g><g><rect fill="rgb(0,0,0)" stroke="none" x="0" y="54" width="101" height="17" fill-opacity="0"/></g><text fill="rgb(116, 27, 71)" stroke="none" font-family="Arial" font-size="16px" font-style="normal" font-weight="normal" text-decoration="" line-height="18.5px" x="0" y="68" data-layerId="HQhTFG1dy0oC">/</text><text fill="rgb(116, 27, 71)" stroke="none" font-family="Arial" font-size="16px" font-style="normal" font-weight="normal" text-decoration="" line-height="18.5px" x="4.4375" y="68" data-layerId="HQhTFG1dy0oC">balance</text><text fill="rgb(116, 27, 71)" stroke="none" font-family="Arial" font-size="16px" font-style="normal" font-weight="normal" text-decoration="" line-height="18.5px" x="64.9375" y="68" data-layerId="HQhTFG1dy0oC">grant</text></g></g><g data-width="141" data-height="15" data-layerId="HQhTFG1dy0oC" transform="translate(0,0) matrix(1,0,0,1,79.5,170)"><g><g transform="translate(0,0) scale(1.41,0.15)"><g><path fill="#3d85c6" stroke="rgb(0,0,0)" data-layerId="HQhTFG1dy0oC" stroke-dasharray="1.7976931348623157e+308" vector-effect="non-scaling-stroke" d="M 0 30 L 94.68085106382979 30 L 94.68085106382979 0 L 100 50 L 94.68085106382979 100 L 94.68085106382979 70 L 0 70 L 0 30 Z" stroke-opacity="0" stroke-miterlimit="10" stroke-width="0"/><g transform="scale(0.7092198581560284,6.666666666666667)"/></g></g></g></g><g transform="matrix(1,0,0,1,108,152)"><g><g><rect fill="rgb(0,0,0)" stroke="none" x="0" y="0" width="84" height="18" fill-opacity="0"/></g></g><g><g><rect fill="rgb(0,0,0)" stroke="none" x="0" y="0" width="84" height="18" fill-opacity="0"/></g></g><g><g><rect fill="rgb(0,0,0)" stroke="none" x="0" y="0" width="61" height="17" fill-opacity="0"/></g></g><g><g><rect fill="rgb(0,0,0)" stroke="none" x="0" y="0" width="61" height="17" fill-opacity="0"/></g><text fill="rgb(11, 83, 148)" stroke="none" font-family="Arial" font-size="16px" font-style="normal" font-weight="normal" text-decoration="" line-height="18.5px" x="0" y="14" data-layerId="HQhTFG1dy0oC">/</text><text fill="rgb(11, 83, 148)" stroke="none" font-family="Arial" font-size="16px" font-style="normal" font-weight="normal" text-decoration="" line-height="18.5px" x="4.4375" y="14" data-layerId="HQhTFG1dy0oC">balance</text></g></g><g transform="matrix(1,0,0,1,272,160)"><g><g><rect fill="rgb(0,0,0)" stroke="none" x="0" y="0" width="236" height="18" fill-opacity="0"/></g></g><g><g><rect fill="rgb(0,0,0)" stroke="none" x="0" y="0" width="236" height="18" fill-opacity="0"/></g></g><g><g><rect fill="rgb(0,0,0)" stroke="none" x="0" y="0" width="213" height="17" fill-opacity="0"/></g></g><g><g><rect fill="rgb(0,0,0)" stroke="none" x="0" y="0" width="213" height="17" fill-opacity="0"/></g><text fill="rgb(11, 83, 148)" stroke="none" font-family="Arial" font-size="16px" font-style="normal" font-weight="normal" text-decoration="" line-height="18.5px" x="0" y="14" data-layerId="HQhTFG1dy0oC">Get</text><text fill="rgb(11, 83, 148)" stroke="none" font-family="Arial" font-size="16px" font-style="normal" font-weight="normal" text-decoration="" line-height="18.5px" x="29.9375" y="14" data-layerId="HQhTFG1dy0oC">Token</text><text fill="rgb(11, 83, 148)" stroke="none" font-family="Arial" font-size="16px" font-style="normal" font-weight="normal" text-decoration="" line-height="18.5px" x="72.640625" y="14" data-layerId="HQhTFG1dy0oC">:</text><text fill="rgb(11, 83, 148)" stroke="none" font-family="Arial" font-size="16px" font-style="normal" font-weight="normal" text-decoration="" line-height="18.5px" x="81.53125" y="14" data-layerId="HQhTFG1dy0oC">messageId</text><text fill="rgb(11, 83, 148)" stroke="none" font-family="Arial" font-size="16px" font-style="normal" font-weight="normal" text-decoration="" line-height="18.5px" x="159.796875" y="14" data-layerId="HQhTFG1dy0oC">,</text><text fill="rgb(11, 83, 148)" stroke="none" font-family="Arial" font-size="16px" font-style="normal" font-weight="normal" text-decoration="" line-height="18.5px" x="168.6875" y="14" data-layerId="HQhTFG1dy0oC">userId</text></g></g><g data-width="301" data-height="15" data-layerId="HQhTFG1dy0oC" transform="translate(0,0) matrix(1,0,0,1,239.5,177.5)"><g><g transform="translate(0,0) scale(3.01,0.15)"><g><path fill="#3d85c6" stroke="rgb(0,0,0)" data-layerId="HQhTFG1dy0oC" stroke-dasharray="1.7976931348623157e+308" vector-effect="non-scaling-stroke" d="M 0 30 L 97.50830564784053 30 L 97.50830564784053 0 L 100 50 L 97.50830564784053 100 L 97.50830564784053 70 L 0 70 L 0 30 Z" stroke-opacity="0" stroke-miterlimit="10" stroke-width="0"/><g transform="scale(0.33222591362126247,6.666666666666667)"/></g></g></g></g><g data-width="141" data-height="15" data-layerId="HQhTFG1dy0oC" transform="translate(0,0) matrix(1,0,0,1,559.5,185)"><g><g transform="translate(0,0) scale(1.41,0.15)"><g><path fill="#3d85c6" stroke="rgb(0,0,0)" data-layerId="HQhTFG1dy0oC" stroke-dasharray="1.7976931348623157e+308" vector-effect="non-scaling-stroke" d="M 0 30 L 94.68085106382979 30 L 94.68085106382979 0 L 100 50 L 94.68085106382979 100 L 94.68085106382979 70 L 0 70 L 0 30 Z" stroke-opacity="0" stroke-miterlimit="10" stroke-width="0"/><g transform="scale(0.7092198581560284,6.666666666666667)"/></g></g></g></g><g transform="matrix(1,0,0,1,577,151)"><g><g><rect fill="rgb(0,0,0)" stroke="none" x="0" y="0" width="106" height="36" fill-opacity="0"/></g></g><g><g><rect fill="rgb(0,0,0)" stroke="none" x="0" y="0" width="106" height="18" fill-opacity="0"/></g></g><g><g><rect fill="rgb(0,0,0)" stroke="none" x="0" y="0" width="100" height="17" fill-opacity="0"/></g></g><g><g><rect fill="rgb(0,0,0)" stroke="none" x="0" y="0" width="100" height="17" fill-opacity="0"/></g><text fill="rgb(11, 83, 148)" stroke="none" font-family="Arial" font-size="16px" font-style="normal" font-weight="normal" text-decoration="" line-height="18.5px" x="0" y="14" data-layerId="HQhTFG1dy0oC">Get</text><text fill="rgb(11, 83, 148)" stroke="none" font-family="Arial" font-size="16px" font-style="normal" font-weight="normal" text-decoration="" line-height="18.5px" x="30.234375" y="14" data-layerId="HQhTFG1dy0oC">Message</text><text fill="rgb(11, 83, 148)" stroke="none" font-family="Arial" font-size="16px" font-style="normal" font-weight="normal" text-decoration="" line-height="18.5px" x="95.15625" y="14" data-layerId="HQhTFG1dy0oC">:</text></g><g><g><rect fill="rgb(0,0,0)" stroke="none" x="0" y="18" width="106" height="18" fill-opacity="0"/></g></g><g><g><rect fill="rgb(0,0,0)" stroke="none" x="0" y="18" width="78" height="17" fill-opacity="0"/></g></g><g><g><rect fill="rgb(0,0,0)" stroke="none" x="0" y="18" width="78" height="17" fill-opacity="0"/></g><text fill="rgb(11, 83, 148)" stroke="none" font-family="Arial" font-size="16px" font-style="normal" font-weight="normal" text-decoration="" line-height="18.5px" x="0" y="32" data-layerId="HQhTFG1dy0oC">messageId</text></g></g><g data-width="141" data-height="15" data-layerId="HQhTFG1dy0oC" transform="translate(0,0) matrix(-1,1.2246467991473532e-16,-1.2246467991473532e-16,-1,701,235)"><g><g transform="translate(0,0) scale(1.41,0.15)"><g><path fill="#6aa84f" stroke="rgb(0,0,0)" data-layerId="HQhTFG1dy0oC" stroke-dasharray="1.7976931348623157e+308" vector-effect="non-scaling-stroke" d="M 0 30 L 94.68085106382979 30 L 94.68085106382979 0 L 100 50 L 94.68085106382979 100 L 94.68085106382979 70 L 0 70 L 0 30 Z" stroke-opacity="0" stroke-miterlimit="10" stroke-width="0"/><g transform="scale(0.7092198581560284,6.666666666666667)"/></g></g></g></g><g transform="matrix(1,0,0,1,577,202)"><g><g><rect fill="rgb(0,0,0)" stroke="none" x="0" y="0" width="106" height="18" fill-opacity="0"/></g></g><g><g><rect fill="rgb(0,0,0)" stroke="none" x="0" y="0" width="106" height="18" fill-opacity="0"/></g></g><g><g><rect fill="rgb(0,0,0)" stroke="none" x="0" y="3" width="65" height="14" fill-opacity="0"/></g></g><g><g><rect fill="rgb(0,0,0)" stroke="none" x="0" y="0" width="65" height="17" fill-opacity="0"/></g><text fill="rgb(56, 118, 29)" stroke="none" font-family="Arial" font-size="16px" font-style="normal" font-weight="normal" text-decoration="" line-height="18.5px" x="0" y="14" data-layerId="HQhTFG1dy0oC">Message</text></g></g><g data-width="19" data-height="419.99999999999994" data-layerId="HQhTFG1dy0oC" transform="translate(0.5,0.5) matrix(1,0,0,1,60.5,164.50000000000003)"><g><g transform="translate(0,0) scale(0.19,4.199999999999999)"><g><path fill="#d0e0e3" stroke="#000000" data-layerId="HQhTFG1dy0oC" stroke-dasharray="1.7976931348623157e+308" vector-effect="non-scaling-stroke" d="M 0 0 L 100 0 Q 100 0 100 0 L 100 100 Q 100 100 100 100 L 0 100 Q 0 100 0 100 L 0 0 Q 0 0 0 0 Z" stroke-miterlimit="10"/><g transform="scale(5.2631578947368425,0.23809523809523814)"/></g></g></g></g><g data-width="19" data-height="402" data-layerId="HQhTFG1dy0oC" transform="translate(0.5,0.5) matrix(1,0,0,1,220.5,164.5)"><g><g transform="translate(0,0) scale(0.19,4.02)"><g><path fill="#d0e0e3" stroke="#000000" data-layerId="HQhTFG1dy0oC" stroke-dasharray="1.7976931348623157e+308" vector-effect="non-scaling-stroke" d="M 0 0 L 100 0 Q 100 0 100 0 L 100 100 Q 100 100 100 100 L 0 100 Q 0 100 0 100 L 0 0 Q 0 0 0 0 Z" stroke-miterlimit="10"/><g transform="scale(5.2631578947368425,0.24875621890547267)"/></g></g></g></g><g data-width="141" data-height="15" data-layerId="HQhTFG1dy0oC" transform="translate(0,0) matrix(1,0,0,1,399.5,75.5)"><g><g transform="translate(0,0) scale(1.41,0.15)"><g><path fill="#3d85c6" stroke="rgb(0,0,0)" data-layerId="HQhTFG1dy0oC" stroke-dasharray="1.7976931348623157e+308" vector-effect="non-scaling-stroke" d="M 0 30 L 94.68085106382979 30 L 94.68085106382979 0 L 100 50 L 94.68085106382979 100 L 94.68085106382979 70 L 0 70 L 0 30 Z" stroke-opacity="0" stroke-miterlimit="10" stroke-width="0"/><g transform="scale(0.7092198581560284,6.666666666666667)"/></g></g></g></g><g transform="matrix(1,0,0,1,417,50)"><g><g><rect fill="rgb(0,0,0)" stroke="none" x="0" y="0" width="106" height="18" fill-opacity="0"/></g></g><g><g><rect fill="rgb(0,0,0)" stroke="none" x="0" y="0" width="106" height="18" fill-opacity="0"/></g></g><g><g><rect fill="rgb(0,0,0)" stroke="none" x="0" y="3" width="101" height="14" fill-opacity="0"/></g></g><g><g><rect fill="rgb(0,0,0)" stroke="none" x="0" y="0" width="101" height="17" fill-opacity="0"/></g><text fill="rgb(11, 83, 148)" stroke="none" font-family="Arial" font-size="16px" font-style="normal" font-weight="normal" text-decoration="" line-height="18.5px" x="0" y="14" data-layerId="HQhTFG1dy0oC">Get</text><text fill="rgb(11, 83, 148)" stroke="none" font-family="Arial" font-size="16px" font-style="normal" font-weight="normal" text-decoration="" line-height="18.5px" x="30.234375" y="14" data-layerId="HQhTFG1dy0oC">public</text><text fill="rgb(11, 83, 148)" stroke="none" font-family="Arial" font-size="16px" font-style="normal" font-weight="normal" text-decoration="" line-height="18.5px" x="76.484375" y="14" data-layerId="HQhTFG1dy0oC">key</text></g></g><g data-width="141" data-height="15" data-layerId="HQhTFG1dy0oC" transform="translate(0,0) matrix(-1,1.2246467991473532e-16,-1.2246467991473532e-16,-1,541,125.49999999999999)"><g><g transform="translate(0,0) scale(1.41,0.15)"><g><path fill="#6aa84f" stroke="rgb(0,0,0)" data-layerId="HQhTFG1dy0oC" stroke-dasharray="1.7976931348623157e+308" vector-effect="non-scaling-stroke" d="M 0 30 L 94.68085106382979 30 L 94.68085106382979 0 L 100 50 L 94.68085106382979 100 L 94.68085106382979 70 L 0 70 L 0 30 Z" stroke-opacity="0" stroke-miterlimit="10" stroke-width="0"/><g transform="scale(0.7092198581560284,6.666666666666667)"/></g></g></g></g><g transform="matrix(1,0,0,1,417,93)"><g><g><rect fill="rgb(0,0,0)" stroke="none" x="0" y="0" width="106" height="18" fill-opacity="0"/></g></g><g><g><rect fill="rgb(0,0,0)" stroke="none" x="0" y="0" width="106" height="18" fill-opacity="0"/></g></g><g><g><rect fill="rgb(0,0,0)" stroke="none" x="0" y="3" width="76" height="14" fill-opacity="0"/></g></g><g><g><rect fill="rgb(0,0,0)" stroke="none" x="0" y="0" width="76" height="17" fill-opacity="0"/></g><text fill="rgb(56, 118, 29)" stroke="none" font-family="Arial" font-size="16px" font-style="normal" font-weight="normal" text-decoration="" line-height="18.5px" x="0" y="14" data-layerId="HQhTFG1dy0oC">Public</text><text fill="rgb(56, 118, 29)" stroke="none" font-family="Arial" font-size="16px" font-style="normal" font-weight="normal" text-decoration="" line-height="18.5px" x="48.015625" y="14" data-layerId="HQhTFG1dy0oC">Key</text></g></g><g data-width="19" data-height="64" data-layerId="HQhTFG1dy0oC" transform="translate(0.5,0.5) matrix(1,0,0,1,540.5,69.5)"><g><g transform="translate(0,0) scale(0.19,0.64)"><g><path fill="#b4a7d6" stroke="#000000" data-layerId="HQhTFG1dy0oC" stroke-dasharray="1.7976931348623157e+308" vector-effect="non-scaling-stroke" d="M 0 0 L 100 0 Q 100 0 100 0 L 100 100 Q 100 100 100 100 L 0 100 Q 0 100 0 100 L 0 0 Q 0 0 0 0 Z" stroke-miterlimit="10"/><g transform="scale(5.2631578947368425,1.5625)"/></g></g></g></g><g data-width="19" data-height="64" data-layerId="HQhTFG1dy0oC" transform="translate(0.5,0.5) matrix(1,0,0,1,380.5,69.5)"><g><g transform="translate(0,0) scale(0.19,0.64)"><g><path fill="#b4a7d6" stroke="#000000" data-layerId="HQhTFG1dy0oC" stroke-dasharray="1.7976931348623157e+308" vector-effect="non-scaling-stroke" d="M 0 0 L 100 0 Q 100 0 100 0 L 100 100 Q 100 100 100 100 L 0 100 Q 0 100 0 100 L 0 0 Q 0 0 0 0 Z" stroke-miterlimit="10"/><g transform="scale(5.2631578947368425,1.5625)"/></g></g></g></g><g data-width="300" data-height="15" data-layerId="HQhTFG1dy0oC" transform="translate(0,0) matrix(-1,1.2246467991473532e-16,-1.2246467991473532e-16,-1,541,375)"><g><g transform="translate(0,0) scale(3,0.15)"><g><path fill="#6aa84f" stroke="rgb(0,0,0)" data-layerId="HQhTFG1dy0oC" stroke-dasharray="1.7976931348623157e+308" vector-effect="non-scaling-stroke" d="M 0 30 L 97.5 30 L 97.5 0 L 100 50 L 97.5 100 L 97.5 70 L 0 70 L 0 30 Z" stroke-opacity="0" stroke-miterlimit="10" stroke-width="0"/><g transform="scale(0.3333333333333333,6.666666666666667)"/></g></g></g></g><g transform="matrix(1,0,0,1,254,324)"><g><g><rect fill="rgb(0,0,0)" stroke="none" x="0" y="0" width="274" height="36" fill-opacity="0"/></g></g><g><g><rect fill="rgb(0,0,0)" stroke="none" x="0" y="0" width="274" height="18" fill-opacity="0"/></g></g><g><g><rect fill="rgb(0,0,0)" stroke="none" x="0" y="3" width="167" height="14" fill-opacity="0"/></g></g><g><g><rect fill="rgb(0,0,0)" stroke="none" x="0" y="0" width="167" height="17" fill-opacity="0"/></g><text fill="rgb(56, 118, 29)" stroke="none" font-family="Arial" font-size="16px" font-style="normal" font-weight="normal" text-decoration="" line-height="18.5px" x="0" y="14" data-layerId="HQhTFG1dy0oC">Signed</text><text fill="rgb(56, 118, 29)" stroke="none" font-family="Arial" font-size="16px" font-style="normal" font-weight="normal" text-decoration="" line-height="18.5px" x="54.265625" y="14" data-layerId="HQhTFG1dy0oC">JWT</text><text fill="rgb(56, 118, 29)" stroke="none" font-family="Arial" font-size="16px" font-style="normal" font-weight="normal" text-decoration="" line-height="18.5px" x="91" y="14" data-layerId="HQhTFG1dy0oC">Token</text><text fill="rgb(56, 118, 29)" stroke="none" font-family="Arial" font-size="16px" font-style="normal" font-weight="normal" text-decoration="" line-height="18.5px" x="138.140625" y="14" data-layerId="HQhTFG1dy0oC">with</text></g><g><g><rect fill="rgb(0,0,0)" stroke="none" x="0" y="18" width="274" height="18" fill-opacity="0"/></g></g><g><g><rect fill="rgb(0,0,0)" stroke="none" x="0" y="21" width="101" height="14" fill-opacity="0"/></g></g><g><g><rect fill="rgb(0,0,0)" stroke="none" x="0" y="18" width="101" height="17" fill-opacity="0"/></g><text fill="rgb(56, 118, 29)" stroke="none" font-family="Arial" font-size="16px" font-style="normal" font-weight="normal" text-decoration="" line-height="18.5px" x="0" y="32" data-layerId="HQhTFG1dy0oC">/</text><text fill="rgb(56, 118, 29)" stroke="none" font-family="Arial" font-size="16px" font-style="normal" font-weight="normal" text-decoration="" line-height="18.5px" x="4.4375" y="32" data-layerId="HQhTFG1dy0oC">balance</text><text fill="rgb(56, 118, 29)" stroke="none" font-family="Arial" font-size="16px" font-style="normal" font-weight="normal" text-decoration="" line-height="18.5px" x="64.9375" y="32" data-layerId="HQhTFG1dy0oC">grant</text></g></g><g data-width="141" data-height="15" data-layerId="HQhTFG1dy0oC" transform="translate(0,0) matrix(1,0,0,1,239.5,433.5)"><g><g transform="translate(0,0) scale(1.41,0.15)"><g><path fill="#3d85c6" stroke="rgb(0,0,0)" data-layerId="HQhTFG1dy0oC" stroke-dasharray="1.7976931348623157e+308" vector-effect="non-scaling-stroke" d="M 0 30 L 94.68085106382979 30 L 94.68085106382979 0 L 100 50 L 94.68085106382979 100 L 94.68085106382979 70 L 0 70 L 0 30 Z" stroke-opacity="0" stroke-miterlimit="10" stroke-width="0"/><g transform="scale(0.7092198581560284,6.666666666666667)"/></g></g></g></g><g transform="matrix(1,0,0,1,254,398)"><g><g><rect fill="rgb(0,0,0)" stroke="none" x="0" y="0" width="116" height="36" fill-opacity="0"/></g></g><g><g><rect fill="rgb(0,0,0)" stroke="none" x="0" y="0" width="116" height="18" fill-opacity="0"/></g></g><g><g><rect fill="rgb(0,0,0)" stroke="none" x="0" y="0" width="86" height="17" fill-opacity="0"/></g></g><g><g><rect fill="rgb(0,0,0)" stroke="none" x="0" y="0" width="86" height="17" fill-opacity="0"/></g><text fill="rgb(11, 83, 148)" stroke="none" font-family="Arial" font-size="16px" font-style="normal" font-weight="normal" text-decoration="" line-height="18.5px" x="0" y="14" data-layerId="HQhTFG1dy0oC">Get</text><text fill="rgb(11, 83, 148)" stroke="none" font-family="Arial" font-size="16px" font-style="normal" font-weight="normal" text-decoration="" line-height="18.5px" x="30.234375" y="14" data-layerId="HQhTFG1dy0oC">balance</text></g><g><g><rect fill="rgb(0,0,0)" stroke="none" x="0" y="18" width="116" height="18" fill-opacity="0"/></g></g><g><g><rect fill="rgb(0,0,0)" stroke="none" x="0" y="18" width="109" height="17" fill-opacity="0"/></g></g><g><g><rect fill="rgb(0,0,0)" stroke="none" x="0" y="18" width="109" height="17" fill-opacity="0"/></g><text fill="rgb(11, 83, 148)" stroke="none" font-family="Arial" font-size="16px" font-style="normal" font-weight="normal" text-decoration="" line-height="18.5px" x="0" y="32" data-layerId="HQhTFG1dy0oC">with</text><text fill="rgb(11, 83, 148)" stroke="none" font-family="Arial" font-size="16px" font-style="normal" font-weight="normal" text-decoration="" line-height="18.5px" x="32.890625" y="32" data-layerId="HQhTFG1dy0oC">JWT</text><text fill="rgb(11, 83, 148)" stroke="none" font-family="Arial" font-size="16px" font-style="normal" font-weight="normal" text-decoration="" line-height="18.5px" x="69.921875" y="32" data-layerId="HQhTFG1dy0oC">token</text></g></g><g data-width="140" data-height="15" data-layerId="HQhTFG1dy0oC" transform="translate(0,0) matrix(-1,1.2246467991473532e-16,-1.2246467991473532e-16,-1,380,565.0000000000011)"><g><g transform="translate(0,0) scale(1.4,0.15)"><g><path fill="#6aa84f" stroke="rgb(0,0,0)" data-layerId="HQhTFG1dy0oC" stroke-dasharray="1.7976931348623157e+308" vector-effect="non-scaling-stroke" d="M 0 30 L 94.64285714285714 30 L 94.64285714285714 0 L 100 50 L 94.64285714285714 100 L 94.64285714285714 70 L 0 70 L 0 30 Z" stroke-opacity="0" stroke-miterlimit="10" stroke-width="0"/><g transform="scale(0.7142857142857143,6.666666666666667)"/></g></g></g></g><g transform="matrix(1,0,0,1,303,532)"><g><g><rect fill="rgb(0,0,0)" stroke="none" x="0" y="0" width="34" height="18" fill-opacity="0"/></g></g><g><g><rect fill="rgb(0,0,0)" stroke="none" x="0" y="0" width="34" height="18" fill-opacity="0"/></g></g><g><g><rect fill="rgb(0,0,0)" stroke="none" x="0" y="3" width="27" height="14" fill-opacity="0"/></g></g><g><g><rect fill="rgb(0,0,0)" stroke="none" x="0" y="0" width="27" height="17" fill-opacity="0"/></g><text fill="rgb(56, 118, 29)" stroke="none" font-family="Arial" font-size="16px" font-style="normal" font-weight="normal" text-decoration="" line-height="18.5px" x="0" y="14" data-layerId="HQhTFG1dy0oC">321</text></g></g><g data-width="140" data-height="15" data-layerId="HQhTFG1dy0oC" transform="translate(0,0) matrix(-1,1.2246467991473532e-16,-1.2246467991473532e-16,-1,220,567)"><g><g transform="translate(0,0) scale(1.4,0.15)"><g><path fill="#6aa84f" stroke="rgb(0,0,0)" data-layerId="HQhTFG1dy0oC" stroke-dasharray="1.7976931348623157e+308" vector-effect="non-scaling-stroke" d="M 0 30 L 94.64285714285714 30 L 94.64285714285714 0 L 100 50 L 94.64285714285714 100 L 94.64285714285714 70 L 0 70 L 0 30 Z" stroke-opacity="0" stroke-miterlimit="10" stroke-width="0"/><g transform="scale(0.7142857142857143,6.666666666666667)"/></g></g></g></g><g transform="matrix(1,0,0,1,89,517)"><g><g><rect fill="rgb(0,0,0)" stroke="none" x="0" y="0" width="129" height="36" fill-opacity="0"/></g></g><g><g><rect fill="rgb(0,0,0)" stroke="none" x="0" y="0" width="129" height="36" fill-opacity="0"/></g></g><g><g><rect fill="rgb(0,0,0)" stroke="none" x="0" y="3" width="113" height="32" fill-opacity="0"/></g></g><g><g><rect fill="rgb(0,0,0)" stroke="none" x="0" y="0" width="113" height="35" fill-opacity="0"/></g><text fill="rgb(56, 118, 29)" stroke="none" font-family="Arial" font-size="16px" font-style="normal" font-weight="normal" text-decoration="" line-height="18.5px" x="0" y="14" data-layerId="HQhTFG1dy0oC">Your</text><text fill="rgb(56, 118, 29)" stroke="none" font-family="Arial" font-size="16px" font-style="normal" font-weight="normal" text-decoration="" line-height="18.5px" x="36.765625" y="14" data-layerId="HQhTFG1dy0oC">balance</text><text fill="rgb(56, 118, 29)" stroke="none" font-family="Arial" font-size="16px" font-style="normal" font-weight="normal" text-decoration="" line-height="18.5px" x="97.265625" y="14" data-layerId="HQhTFG1dy0oC">is</text><text fill="rgb(56, 118, 29)" stroke="none" font-family="Arial" font-size="16px" font-style="normal" font-weight="normal" text-decoration="" line-height="18.5px" x="108.8125" y="14" data-layerId="HQhTFG1dy0oC">:</text><text fill="rgb(56, 118, 29)" stroke="none" font-family="Arial" font-size="16px" font-style="normal" font-weight="normal" text-decoration="" line-height="18.5px" x="0" y="32" data-layerId="HQhTFG1dy0oC">$</text><text fill="rgb(56, 118, 29)" stroke="none" font-family="Arial" font-size="16px" font-style="normal" font-weight="normal" text-decoration="" line-height="18.5px" x="8.890625" y="32" data-layerId="HQhTFG1dy0oC">321</text></g><g><g/></g></g><g data-width="25" data-height="25" data-layerId="HQhTFG1dy0oC" transform="translate(0.5,0.5) matrix(-0.7071067811865476,-0.7071067811865475,-0.7071067811865475,0.7071067811865476,580.1776695296637,352.5)"><g><g clip-path="url(#lhMNzCxHkmVF)"><g transform="translate(0,0) scale(0.23583570741278795,0.23585795690403413)"><g><g><path fill="#a64d79" stroke="#a64d79" data-layerId="HQhTFG1dy0oC" stroke-dasharray="1.7976931348623157e+308" vector-effect="non-scaling-stroke" d="M 81.376 97.591 C 93.676 89.791 101.476 78.691 104.676 64.391 C 107.776 50.091 105.476 36.891 97.576 24.491 C 89.775 12.291 78.676 4.491 64.276 1.391 C 50.076 -1.809 36.876 0.491 24.476 8.491 C 12.176 16.291 4.476 27.291 1.376 41.591 C -1.824 55.891 0.576 69.191 8.376 81.591 L 8.376 81.491 C 8.776 82.091 9.676 83.391 11.076 85.391 C 12.076 86.891 12.776 87.891 13.276 88.591 L 0.776 94.391 L 26.976 97.591 L 27.376 70.291 L 17.876 84.591 C 17.376 84.091 16.776 83.091 15.976 81.991 C 14.676 80.091 13.776 78.891 13.476 78.291 C 6.476 67.391 4.376 55.591 7.176 42.891 C 9.976 30.191 16.876 20.491 27.776 13.491 C 38.576 6.491 50.376 4.391 62.976 7.191 C 75.776 9.991 85.577 16.891 92.476 27.791 C 99.476 38.691 101.577 50.491 98.776 63.091 C 95.976 75.791 89.077 85.591 78.176 92.591 C 69.676 97.991 60.676 100.491 51.176 99.891 C 50.376 99.791 49.576 100.091 48.976 100.691 C 48.376 101.191 47.976 101.891 47.976 102.791 C 47.976 103.491 48.176 104.191 48.776 104.891 C 49.276 105.491 49.976 105.891 50.876 105.891 C 61.576 106.591 71.776 103.791 81.476 97.591 L 81.372 97.591 Z" stroke-miterlimit="10"/></g></g></g></g></g></g><g data-width="25" data-height="25" data-layerId="HQhTFG1dy0oC" transform="translate(0.5,0.5) matrix(-0.7071067811865476,-0.7071067811865475,-0.7071067811865475,0.7071067811865476,580.1776695296637,282.5)"><g><g clip-path="url(#DXpIVaudPBTq)"><g transform="translate(0,0) scale(0.23583570741278795,0.23585795690403413)"><g><g><path fill="#a64d79" stroke="#a64d79" data-layerId="HQhTFG1dy0oC" stroke-dasharray="1.7976931348623157e+308" vector-effect="non-scaling-stroke" d="M 81.376 97.591 C 93.676 89.791 101.476 78.691 104.676 64.391 C 107.776 50.091 105.476 36.891 97.576 24.491 C 89.775 12.291 78.676 4.491 64.276 1.391 C 50.076 -1.809 36.876 0.491 24.476 8.491 C 12.176 16.291 4.476 27.291 1.376 41.591 C -1.824 55.891 0.576 69.191 8.376 81.591 L 8.376 81.491 C 8.776 82.091 9.676 83.391 11.076 85.391 C 12.076 86.891 12.776 87.891 13.276 88.591 L 0.776 94.391 L 26.976 97.591 L 27.376 70.291 L 17.876 84.591 C 17.376 84.091 16.776 83.091 15.976 81.991 C 14.676 80.091 13.776 78.891 13.476 78.291 C 6.476 67.391 4.376 55.591 7.176 42.891 C 9.976 30.191 16.876 20.491 27.776 13.491 C 38.576 6.491 50.376 4.391 62.976 7.191 C 75.776 9.991 85.577 16.891 92.476 27.791 C 99.476 38.691 101.577 50.491 98.776 63.091 C 95.976 75.791 89.077 85.591 78.176 92.591 C 69.676 97.991 60.676 100.491 51.176 99.891 C 50.376 99.791 49.576 100.091 48.976 100.691 C 48.376 101.191 47.976 101.891 47.976 102.791 C 47.976 103.491 48.176 104.191 48.776 104.891 C 49.276 105.491 49.976 105.891 50.876 105.891 C 61.576 106.591 71.776 103.791 81.476 97.591 L 81.372 97.591 Z" stroke-miterlimit="10"/></g></g></g></g></g></g><g data-width="19" data-height="210.00000000000003" data-layerId="HQhTFG1dy0oC" transform="translate(0.5,0.5) matrix(1,0,0,1,540.5,164.5)"><g><g transform="translate(0,0) scale(0.19,2.1)"><g><path fill="#d0e0e3" stroke="#000000" data-layerId="HQhTFG1dy0oC" stroke-dasharray="1.7976931348623157e+308" vector-effect="non-scaling-stroke" d="M 0 0 L 100 0 Q 100 0 100 0 L 100 100 Q 100 100 100 100 L 0 100 Q 0 100 0 100 L 0 0 Q 0 0 0 0 Z" stroke-miterlimit="10"/><g transform="scale(5.2631578947368425,0.47619047619047616)"/></g></g></g></g><g data-width="19" data-height="64" data-layerId="HQhTFG1dy0oC" transform="translate(0.5,0.5) matrix(1,0,0,1,700.5,170)"><g><g transform="translate(0,0) scale(0.19,0.64)"><g><path fill="#d0e0e3" stroke="#000000" data-layerId="HQhTFG1dy0oC" stroke-dasharray="1.7976931348623157e+308" vector-effect="non-scaling-stroke" d="M 0 0 L 100 0 Q 100 0 100 0 L 100 100 Q 100 100 100 100 L 0 100 Q 0 100 0 100 L 0 0 Q 0 0 0 0 Z" stroke-miterlimit="10"/><g transform="scale(5.2631578947368425,1.5625)"/></g></g></g></g><g data-width="25" data-height="25" data-layerId="HQhTFG1dy0oC" transform="translate(0.5,0.5) matrix(-0.7071067811865476,-0.7071067811865475,-0.7071067811865475,0.7071067811865476,420.1776695296637,462.5)"><g><g clip-path="url(#QmUwbdpssnxG)"><g transform="translate(0,0) scale(0.23583570741278795,0.23585795690403413)"><g><g><path fill="#a64d79" stroke="#a64d79" data-layerId="HQhTFG1dy0oC" stroke-dasharray="1.7976931348623157e+308" vector-effect="non-scaling-stroke" d="M 81.376 97.591 C 93.676 89.791 101.476 78.691 104.676 64.391 C 107.776 50.091 105.476 36.891 97.576 24.491 C 89.775 12.291 78.676 4.491 64.276 1.391 C 50.076 -1.809 36.876 0.491 24.476 8.491 C 12.176 16.291 4.476 27.291 1.376 41.591 C -1.824 55.891 0.576 69.191 8.376 81.591 L 8.376 81.491 C 8.776 82.091 9.676 83.391 11.076 85.391 C 12.076 86.891 12.776 87.891 13.276 88.591 L 0.776 94.391 L 26.976 97.591 L 27.376 70.291 L 17.876 84.591 C 17.376 84.091 16.776 83.091 15.976 81.991 C 14.676 80.091 13.776 78.891 13.476 78.291 C 6.476 67.391 4.376 55.591 7.176 42.891 C 9.976 30.191 16.876 20.491 27.776 13.491 C 38.576 6.491 50.376 4.391 62.976 7.191 C 75.776 9.991 85.577 16.891 92.476 27.791 C 99.476 38.691 101.577 50.491 98.776 63.091 C 95.976 75.791 89.077 85.591 78.176 92.591 C 69.676 97.991 60.676 100.491 51.176 99.891 C 50.376 99.791 49.576 100.091 48.976 100.691 C 48.376 101.191 47.976 101.891 47.976 102.791 C 47.976 103.491 48.176 104.191 48.776 104.891 C 49.276 105.491 49.976 105.891 50.876 105.891 C 61.576 106.591 71.776 103.791 81.476 97.591 L 81.372 97.591 Z" stroke-miterlimit="10"/></g></g></g></g></g></g><g data-width="25" data-height="25" data-layerId="HQhTFG1dy0oC" transform="translate(0.5,0.5) matrix(-0.7071067811865476,-0.7071067811865475,-0.7071067811865475,0.7071067811865476,420.1776695296637,532.5)"><g><g clip-path="url(#RhUUOMxhMgRV)"><g transform="translate(0,0) scale(0.23583570741278795,0.23585795690403413)"><g><g><path fill="#a64d79" stroke="#a64d79" data-layerId="HQhTFG1dy0oC" stroke-dasharray="1.7976931348623157e+308" vector-effect="non-scaling-stroke" d="M 81.376 97.591 C 93.676 89.791 101.476 78.691 104.676 64.391 C 107.776 50.091 105.476 36.891 97.576 24.491 C 89.775 12.291 78.676 4.491 64.276 1.391 C 50.076 -1.809 36.876 0.491 24.476 8.491 C 12.176 16.291 4.476 27.291 1.376 41.591 C -1.824 55.891 0.576 69.191 8.376 81.591 L 8.376 81.491 C 8.776 82.091 9.676 83.391 11.076 85.391 C 12.076 86.891 12.776 87.891 13.276 88.591 L 0.776 94.391 L 26.976 97.591 L 27.376 70.291 L 17.876 84.591 C 17.376 84.091 16.776 83.091 15.976 81.991 C 14.676 80.091 13.776 78.891 13.476 78.291 C 6.476 67.391 4.376 55.591 7.176 42.891 C 9.976 30.191 16.876 20.491 27.776 13.491 C 38.576 6.491 50.376 4.391 62.976 7.191 C 75.776 9.991 85.577 16.891 92.476 27.791 C 99.476 38.691 101.577 50.491 98.776 63.091 C 95.976 75.791 89.077 85.591 78.176 92.591 C 69.676 97.991 60.676 100.491 51.176 99.891 C 50.376 99.791 49.576 100.091 48.976 100.691 C 48.376 101.191 47.976 101.891 47.976 102.791 C 47.976 103.491 48.176 104.191 48.776 104.891 C 49.276 105.491 49.976 105.891 50.876 105.891 C 61.576 106.591 71.776 103.791 81.476 97.591 L 81.372 97.591 Z" stroke-miterlimit="10"/></g></g></g></g></g></g><g data-width="19" data-height="154" data-layerId="HQhTFG1dy0oC" transform="translate(0.5,0.5) matrix(1,0,0,1,380.5,413)"><g><g transform="translate(0,0) scale(0.19,1.54)"><g><path fill="#d0e0e3" stroke="#000000" data-layerId="HQhTFG1dy0oC" stroke-dasharray="1.7976931348623157e+308" vector-effect="non-scaling-stroke" d="M 0 0 L 100 0 Q 100 0 100 0 L 100 100 Q 100 100 100 100 L 0 100 Q 0 100 0 100 L 0 0 Q 0 0 0 0 Z" stroke-miterlimit="10"/><g transform="scale(5.2631578947368425,0.6493506493506493)"/></g></g></g></g></g></svg>